<?xml version="1.0" encoding="utf-8"?>
<!-- Generator: Adobe Illustrator 26.0.2, SVG Export Plug-In . SVG Version: 6.00 Build 0)  -->
<svg version="1.1" id="Layer_1" xmlns="http://www.w3.org/2000/svg" xmlns:xlink="http://www.w3.org/1999/xlink" x="0px" y="0px"
	 viewBox="0 0 223.17 224.27" style="enable-background:new 0 0 223.17 224.27;" xml:space="preserve">
<style type="text/css">
	.st0{fill:#2C5697;}
	.st1{fill:#4B4B4B;}
	.st2{fill:#FFFFFF;}
</style>
<g>
	<path class="st0" d="M93.69,177.16c0.02-0.88,0.04-1.76,0.04-2.65c0-0.27,0.01-0.5,0.02-0.71c0.01-0.1,0.03-0.18,0.07-0.22
		c0.01-0.02,0.07-0.08,0.24-0.13c0.12-0.04,0.36-0.09,0.8-0.09c0.27,0,0.51-0.03,0.73-0.09c0.42-0.12,0.66-0.47,0.66-0.95
		c0-0.23-0.11-0.46-0.31-0.66l-0.17-0.17H93.5c-0.24,0-0.48,0.01-0.73,0.04c-0.66,0.07-1.26,0.03-1.73-0.04
		c-0.37-0.05-0.79-0.07-1.27-0.07h-0.26c-0.16,0-0.32,0.01-0.5,0.04c-0.43,0.07-0.71,0.39-0.71,0.84c0,0.64,0.4,0.88,0.58,0.95
		c0.21,0.09,0.45,0.14,0.73,0.16c0.2,0.02,0.41,0.05,0.62,0.08c0.12,0.02,0.21,0.07,0.24,0.09c0,0,0.06,0.09,0.1,0.4
		c0.04,0.28,0.06,0.54,0.06,0.78v0.44c0,0.38,0,0.77-0.01,1.15c-0.01,0.39-0.01,0.79-0.01,1.19l-0.02,2.16
		c0,0.27-0.02,0.56-0.06,0.85c-0.03,0.22-0.08,0.29-0.1,0.31c-0.09,0.07-0.19,0.13-0.33,0.16c-0.22,0.05-0.44,0.1-0.64,0.13
		c-0.24,0.05-0.45,0.1-0.63,0.17c-0.39,0.14-0.62,0.45-0.62,0.83c0,0.43,0.22,0.76,0.6,0.9c0.21,0.08,0.43,0.12,0.65,0.12h0.33
		c0.25,0,0.47-0.01,0.66-0.03c0.19-0.02,0.36-0.04,0.52-0.06c0.13-0.02,0.28-0.04,0.44-0.05c0.45-0.04,1.17-0.02,1.8,0.05
		c0.71,0.08,1.44,0.1,2.11,0.03c0.52-0.05,0.85-0.43,0.85-0.95c0-0.41-0.26-0.72-0.68-0.83c-0.19-0.05-0.41-0.1-0.65-0.14
		c-0.22-0.04-0.45-0.08-0.69-0.13c-0.14-0.02-0.24-0.07-0.3-0.12c-0.04-0.04-0.09-0.1-0.12-0.24c-0.04-0.2-0.07-0.4-0.08-0.59v-0.3
		C93.65,178.9,93.66,178.02,93.69,177.16"/>
	<path class="st0" d="M103.02,180.99c-0.36-0.28-0.65-0.64-0.86-1.07c-0.22-0.46-0.38-0.97-0.48-1.51
		c-0.09-0.56-0.14-1.11-0.14-1.62c0-0.27,0.01-0.52,0.03-0.76l0.06-0.59c0.11-0.12,0.24-0.25,0.38-0.39
		c0.21-0.19,0.43-0.37,0.68-0.54c0.24-0.17,0.5-0.31,0.77-0.43c0.69-0.29,1.43-0.16,1.92,0.13c0.34,0.2,0.6,0.45,0.81,0.77
		c0.22,0.33,0.38,0.72,0.49,1.15c0.11,0.45,0.17,0.91,0.17,1.38c0,0.43-0.05,0.9-0.15,1.39c-0.1,0.46-0.26,0.89-0.47,1.27
		c-0.2,0.36-0.47,0.66-0.8,0.89c-0.3,0.21-0.67,0.31-1.13,0.31C103.79,181.37,103.36,181.25,103.02,180.99 M106.76,182.72
		c0.69-0.34,1.29-0.82,1.78-1.41c0.49-0.58,0.87-1.25,1.14-1.98c0.27-0.74,0.41-1.51,0.41-2.31c0-0.73-0.11-1.43-0.33-2.06
		c-0.23-0.65-0.56-1.22-0.99-1.69c-0.43-0.48-0.97-0.86-1.58-1.13c-1.01-0.44-2.28-0.55-3.41-0.22c-0.42,0.12-0.81,0.28-1.17,0.46
		c-0.1,0.06-0.2,0.11-0.31,0.17c0.24-0.68,0.54-1.33,0.9-1.95c0.62-1.09,1.43-2.08,2.41-2.92c0.22-0.19,0.45-0.37,0.68-0.54
		c0.22-0.17,0.46-0.32,0.67-0.45c0.06-0.03,0.16-0.08,0.31-0.14c0.17-0.07,0.33-0.16,0.49-0.24c0.18-0.1,0.35-0.2,0.49-0.32
		c0.26-0.21,0.39-0.45,0.39-0.71c0-0.27-0.11-0.52-0.32-0.71c-0.12-0.11-0.23-0.19-0.34-0.26l-0.16-0.09l-0.18,0.02
		c-0.23,0.02-0.48,0.09-0.76,0.2c-0.23,0.1-0.44,0.19-0.62,0.27c-1.11,0.52-2.17,1.18-3.13,1.95c-0.97,0.78-1.83,1.68-2.55,2.66
		c-0.73,0.99-1.31,2.08-1.72,3.24c-0.42,1.17-0.63,2.42-0.63,3.7c0,0.67,0.07,1.32,0.21,1.96c0.14,0.64,0.36,1.26,0.66,1.82
		c0.3,0.57,0.69,1.09,1.16,1.55c0.47,0.46,1.05,0.84,1.73,1.13c0.81,0.34,1.64,0.51,2.46,0.51
		C105.27,183.25,106.06,183.07,106.76,182.72"/>
	<path class="st0" d="M119.75,178.82c-0.44-0.42-0.99-0.74-1.62-0.95c-0.19-0.06-0.39-0.11-0.59-0.15c0.26-0.27,0.52-0.57,0.77-0.89
		c0.33-0.41,0.61-0.84,0.84-1.28c0.26-0.49,0.4-0.96,0.4-1.38c0-0.57-0.11-1.07-0.32-1.48c-0.21-0.4-0.49-0.74-0.84-1
		c-0.34-0.25-0.72-0.44-1.14-0.55c-0.8-0.22-1.67-0.24-2.56,0.12c-0.42,0.17-0.8,0.38-1.15,0.62c-0.36,0.25-0.65,0.52-0.88,0.81
		c-0.29,0.36-0.42,0.73-0.38,1.12c0.03,0.22,0.14,0.42,0.32,0.58c0.19,0.17,0.38,0.2,0.5,0.2c0.19,0,0.36-0.08,0.52-0.24
		c0.33-0.38,0.65-0.69,0.93-0.92c0.39-0.32,1.2-0.38,1.74,0.13c0.26,0.24,0.38,0.66,0.38,1.24c0,0.32-0.09,0.64-0.29,0.99
		c-0.22,0.39-0.5,0.75-0.83,1.1c-0.34,0.35-0.7,0.68-1.09,0.96c-0.39,0.29-0.75,0.52-1.05,0.68l-0.45,0.22
		c-0.56,0.27-0.64,0.67-0.64,0.88c0,0.58,0.37,0.97,0.92,0.97c0.21,0,0.42-0.09,0.73-0.3c0.15-0.1,0.27-0.18,0.4-0.23
		c0.2-0.1,0.38-0.15,0.58-0.15l0.11,0c0.32,0.03,0.63,0.07,0.92,0.13c0.31,0.06,0.58,0.18,0.82,0.34c0.24,0.18,0.44,0.39,0.61,0.65
		c0.17,0.27,0.31,0.57,0.4,0.89c0.09,0.32,0.14,0.65,0.14,0.96c0,0.62-0.12,1.18-0.37,1.68c-0.26,0.51-0.6,0.97-1.04,1.36
		c-0.45,0.4-0.98,0.76-1.58,1.05c-0.61,0.3-1.25,0.54-1.91,0.73c-0.21,0.03-0.39,0.14-0.51,0.31c-0.1,0.13-0.16,0.29-0.18,0.46
		c-0.02,0.21,0.03,0.41,0.15,0.58c0.08,0.12,0.29,0.33,0.67,0.33h0.01l0.01,0c0.88-0.02,1.79-0.22,2.72-0.6
		c0.91-0.38,1.76-0.9,2.52-1.54c0.76-0.65,1.4-1.41,1.9-2.26c0.52-0.89,0.78-1.84,0.78-2.82c0-0.66-0.12-1.29-0.35-1.87
		C120.53,179.75,120.19,179.24,119.75,178.82"/>
	<path class="st0" d="M126.76,176.82c-0.29,0.51-0.62,1.04-0.99,1.58c-0.37,0.55-0.78,1.1-1.2,1.65c-0.43,0.55-0.86,1.06-1.26,1.51
		c-0.24,0.23-0.29,0.48-0.29,0.64c0,0.14,0,0.58,0.33,0.84c0.15,0.12,0.35,0.19,0.57,0.21l0.17,0.01c0.31,0,0.51-0.2,0.65-0.36
		c0.36,0,0.75-0.01,1.18-0.01c0.5-0.01,0.95-0.01,1.33-0.01c0.96,0.03,1.76,0.1,2.38,0.19c0.66,0.1,1.23,0.17,1.65,0.2l0.1,0.01
		c0.34,0,0.71-0.23,0.76-0.76c0.02-0.17,0.05-0.41,0.09-0.71c0.05-0.3,0.13-0.68,0.27-1.14c0.13-0.44,0.38-0.95,0.74-1.53l0.16-0.26
		l-0.13-0.28c-0.09-0.2-0.27-0.46-0.68-0.62c-0.42-0.17-0.85-0.03-1.14,0.36l-0.66,0.95c-0.16,0.23-0.33,0.47-0.51,0.71
		c-0.18,0.24-0.34,0.47-0.48,0.65c0,0-0.11,0.09-0.53,0.18c-0.41,0.08-0.87,0.14-1.35,0.16c-0.43,0.02-0.84,0.02-1.24,0
		c0.14-0.15,0.3-0.31,0.46-0.48c0.32-0.34,0.65-0.72,1-1.14c0.35-0.42,0.68-0.85,1-1.3c0.31-0.44,0.59-0.87,0.82-1.29
		c0.25-0.45,0.42-0.84,0.51-1.19c0.38-1.34,0.25-2.45-0.37-3.3c-0.62-0.86-1.61-1.3-2.91-1.3c-0.25,0-0.49,0.01-0.73,0.03
		c-0.27,0.02-0.55,0.07-0.84,0.17c-0.29,0.09-0.59,0.25-0.9,0.46c-0.31,0.2-0.62,0.49-0.95,0.86c-0.06,0.06-0.14,0.16-0.25,0.3
		l-0.24,0.33c-0.11,0.15-0.2,0.3-0.27,0.45c-0.09,0.2-0.14,0.36-0.14,0.51c0,0.29,0.13,0.55,0.37,0.72
		c0.25,0.19,0.58,0.21,0.86,0.07c0.2-0.1,0.37-0.28,0.51-0.54c0.07-0.12,0.16-0.25,0.29-0.4c0.11-0.12,0.26-0.23,0.46-0.32
		c0.13-0.06,0.39-0.14,0.88-0.14c0.88,0,1.12,0.37,1.2,0.49c0.22,0.33,0.2,0.84-0.05,1.5C127.26,175.88,127.03,176.33,126.76,176.82
		"/>
	<polygon class="st0" points="65.45,68.57 157.61,68.57 111.53,46.63 	"/>
	<rect x="63.26" y="72.95" class="st0" width="96.53" height="4.39"/>
	<rect x="63.26" y="140.97" class="st0" width="26.33" height="13.17"/>
	<rect x="133.47" y="140.97" class="st0" width="26.33" height="13.17"/>
	<rect x="98.37" y="140.97" class="st0" width="8.77" height="13.17"/>
	<rect x="115.92" y="140.97" class="st0" width="8.77" height="13.17"/>
	<polygon class="st0" points="64.36,81.72 63.26,136.58 72.04,136.58 70.94,81.72 	"/>
	<polygon class="st0" points="88.5,81.72 81.91,81.72 80.82,136.58 89.6,136.58 	"/>
	<polygon class="st0" points="106.05,81.72 99.47,81.72 98.37,136.58 107.15,136.58 	"/>
	<polygon class="st0" points="123.6,81.72 117.01,81.72 115.92,136.58 124.69,136.58 	"/>
	<polygon class="st0" points="133.47,136.58 142.25,136.58 141.16,81.72 134.57,81.72 	"/>
	<polygon class="st0" points="158.7,81.72 152.12,81.72 151.02,136.58 159.8,136.58 	"/>
	<polygon class="st0" points="159.8,58.7 111.53,35.65 63.26,58.7 63.26,64.17 111.53,41.14 159.8,64.17 	"/>
	<path class="st0" d="M5.93,101.91c0,1.52,1.23,2.75,2.75,2.75c1.52,0,2.75-1.23,2.75-2.75c0-1.52-1.23-2.75-2.75-2.75
		C7.16,99.16,5.93,100.39,5.93,101.91"/>
	<path class="st0" d="M214.39,99.16c-1.52,0-2.75,1.23-2.75,2.75c0,1.52,1.23,2.75,2.75,2.75c1.52,0,2.75-1.23,2.75-2.75
		C217.13,100.39,215.9,99.16,214.39,99.16"/>
	<path class="st0" d="M3.42,85.81c0.15,0.04,0.29,0.02,0.41-0.06c0.09-0.07,0.17-0.16,0.23-0.27c0.05-0.09,0.1-0.19,0.14-0.29
		c0.04-0.09,0.07-0.18,0.09-0.24l0.07-0.2c0.06-0.19,0.16-0.32,0.28-0.38c0.15-0.07,0.32-0.1,0.49-0.1c0.19,0.01,0.39,0.04,0.6,0.1
		c0.22,0.06,0.42,0.12,0.59,0.18c1.06,0.34,2.1,0.68,3.09,1.03c0.99,0.34,2.03,0.69,3.1,1.03l0.68,0.22
		c0.11,0.04,0.23,0.07,0.34,0.1c0.11,0.03,0.23,0.06,0.35,0.08c0.41,0.09,0.79,0.13,1.15,0.13c0.31,0,0.61-0.03,0.88-0.1
		c0.58-0.14,1.11-0.4,1.55-0.77c0.44-0.36,0.82-0.83,1.13-1.37c0.3-0.54,0.56-1.13,0.77-1.77c0.17-0.54,0.31-1.11,0.4-1.69
		c0.1-0.59,0.13-1.19,0.1-1.79c-0.05-0.7-0.25-1.3-0.6-1.78c-0.34-0.47-0.77-0.89-1.27-1.23c-0.5-0.34-1.05-0.62-1.64-0.85
		c-0.57-0.22-1.14-0.42-1.69-0.59c-0.33-0.1-0.67-0.21-1-0.31c-0.33-0.1-0.67-0.2-1-0.31c-0.37-0.12-0.8-0.25-1.3-0.41
		c-0.49-0.15-0.96-0.3-1.42-0.45c-0.44-0.15-0.83-0.3-1.15-0.44c-0.35-0.15-0.41-0.24-0.42-0.24c0-0.01-0.01-0.08,0.03-0.31
		c0.04-0.19,0.06-0.4,0.08-0.61c0.02-0.23,0.02-0.43-0.01-0.62c-0.05-0.31-0.23-0.43-0.37-0.47c-0.15-0.05-0.36-0.04-0.57,0.24
		L7.5,71.3c-0.11,0.34-0.2,0.68-0.29,1.02c-0.09,0.33-0.18,0.67-0.29,1c-0.1,0.31-0.21,0.63-0.34,0.94
		c-0.13,0.32-0.25,0.64-0.35,0.97c-0.04,0.12-0.06,0.23-0.06,0.34c0,0.09,0.02,0.3,0.31,0.39c0.3,0.09,0.5-0.01,0.61-0.1
		c0.12-0.11,0.23-0.25,0.32-0.43c0.09-0.16,0.17-0.32,0.25-0.49c0.06-0.13,0.14-0.22,0.24-0.29c0.06-0.04,0.2-0.07,0.49-0.02
		c0.26,0.05,0.56,0.12,0.89,0.23c0.33,0.1,0.67,0.22,1.02,0.35c0.35,0.13,0.68,0.24,0.96,0.33l3.95,1.26c0.36,0.12,0.69,0.26,1,0.44
		c0.57,0.3,1.04,0.62,1.39,0.94c0.34,0.31,0.59,0.66,0.75,1.04c0.16,0.37,0.22,0.79,0.2,1.24c-0.03,0.46-0.14,1.01-0.33,1.62
		c-0.16,0.51-0.37,0.96-0.61,1.35c-0.23,0.37-0.53,0.66-0.88,0.86c-0.36,0.21-0.8,0.33-1.32,0.36c-0.54,0.03-1.18-0.05-1.94-0.24
		c-0.39-0.09-0.77-0.2-1.15-0.32c-0.38-0.12-0.76-0.23-1.14-0.36l-3.4-1.09c-0.18-0.06-0.38-0.12-0.58-0.2
		c-0.2-0.07-0.4-0.15-0.58-0.22c-0.19-0.08-0.36-0.16-0.5-0.23c-0.14-0.07-0.24-0.13-0.3-0.18c-0.13-0.11-0.19-0.24-0.18-0.41
		c0-0.21,0.02-0.43,0.05-0.64c0.03-0.23,0.05-0.44,0.05-0.62c0.01-0.27-0.13-0.46-0.39-0.54c-0.23-0.08-0.43,0.02-0.54,0.24
		c-0.08,0.15-0.13,0.28-0.17,0.39c-0.14,0.43-0.26,0.87-0.35,1.3c-0.09,0.41-0.21,0.84-0.35,1.26c-0.12,0.38-0.26,0.77-0.42,1.14
		c-0.16,0.38-0.31,0.78-0.44,1.17c-0.06,0.18-0.05,0.33,0.01,0.46C3.14,85.67,3.26,85.76,3.42,85.81"/>
	<path class="st0" d="M9.77,67.01c0.16,0.09,0.33,0.07,0.48-0.04c0.11-0.07,0.22-0.18,0.32-0.31c0.09-0.12,0.18-0.24,0.26-0.37
		c0.07-0.11,0.13-0.2,0.17-0.26c0.17-0.22,0.33-0.37,0.48-0.45c0.15-0.08,0.29-0.13,0.43-0.14c0.14-0.02,0.28,0.02,0.43,0.07
		c0.17,0.07,0.34,0.15,0.52,0.25c1.34,0.73,2.69,1.47,4.01,2.22l4,2.26c0.16,0.08,0.31,0.18,0.48,0.28c0.15,0.09,0.28,0.2,0.39,0.32
		c0.1,0.11,0.17,0.23,0.2,0.36c0.04,0.13,0.02,0.28-0.03,0.44c-0.04,0.09-0.09,0.21-0.15,0.34c-0.07,0.14-0.13,0.29-0.19,0.43
		c-0.06,0.15-0.09,0.3-0.09,0.43c0,0.18,0.09,0.33,0.25,0.42c0.08,0.04,0.16,0.06,0.23,0.06c0.12,0,0.23-0.05,0.33-0.15
		c0.11-0.11,0.19-0.22,0.25-0.33c0.21-0.38,0.41-0.77,0.59-1.17c0.18-0.38,0.37-0.76,0.57-1.13c0.18-0.33,0.37-0.65,0.56-0.96
		c0.2-0.31,0.39-0.64,0.57-0.98c0.04-0.07,0.07-0.17,0.09-0.27c0.03-0.16-0.04-0.3-0.18-0.38c-0.17-0.09-0.34-0.1-0.51-0.02
		c-0.13,0.06-0.24,0.14-0.33,0.24c-0.25,0.28-0.44,0.54-0.58,0.77c-0.11,0.19-0.24,0.32-0.37,0.4c-0.12,0.07-0.29,0.08-0.52,0.03
		c-0.26-0.06-0.64-0.23-1.15-0.5c-0.89-0.48-1.67-0.9-2.36-1.25c-0.68-0.36-1.31-0.69-1.9-1c-0.58-0.31-1.15-0.6-1.69-0.89
		c-0.54-0.28-1.12-0.59-1.73-0.92c-0.08-0.04-0.16-0.09-0.23-0.14c0.22-0.07,0.45-0.12,0.69-0.15c0.38-0.06,0.74-0.12,1.07-0.19
		l4.12-0.89c1.12-0.24,2.04-0.44,2.78-0.6l0.5-0.11c0.5-0.11,0.91-0.2,1.21-0.27l0.16-0.04c0.33-0.07,0.57-0.12,0.74-0.16
		c0.19-0.04,0.31-0.07,0.36-0.08c0.06-0.01,0.09-0.02,0.09-0.02c0.57-0.1,1.14-0.21,1.7-0.33c0.56-0.11,1.13-0.23,1.68-0.35
		c0.07-0.01,0.15-0.02,0.24-0.04c0.09-0.02,0.18-0.04,0.27-0.06c0.1-0.02,0.19-0.06,0.27-0.1c0.12-0.06,0.19-0.15,0.23-0.25
		c0.09-0.24,0.01-0.47-0.22-0.62c-0.17-0.11-0.35-0.22-0.54-0.33c-1.13-0.61-2.1-1.14-2.93-1.6c-0.83-0.45-1.57-0.86-2.23-1.22
		l-3.53-1.91c-0.11-0.06-0.29-0.16-0.52-0.29c-0.23-0.13-0.47-0.28-0.72-0.43c-0.24-0.15-0.46-0.31-0.65-0.47
		c-0.23-0.19-0.31-0.31-0.33-0.36c-0.04-0.09-0.03-0.21,0.02-0.36c0.07-0.19,0.15-0.38,0.22-0.57c0.08-0.2,0.15-0.39,0.19-0.56
		c0.06-0.25-0.03-0.45-0.25-0.57c-0.19-0.1-0.34-0.07-0.44-0.03c-0.12,0.05-0.23,0.16-0.31,0.33c-0.16,0.3-0.32,0.6-0.46,0.92
		c-0.15,0.31-0.3,0.61-0.45,0.9c-0.2,0.37-0.41,0.72-0.62,1.06c-0.22,0.36-0.44,0.72-0.63,1.08c-0.06,0.12-0.1,0.24-0.1,0.37
		c0,0.1,0.03,0.29,0.27,0.42c0.27,0.15,0.53,0.08,0.71-0.17c0.13-0.18,0.26-0.39,0.4-0.62c0.12-0.21,0.27-0.4,0.43-0.57
		c0.08-0.08,0.21-0.18,0.5-0.1c0.15,0.04,0.3,0.1,0.44,0.17c0.15,0.07,0.3,0.16,0.46,0.24c0.89,0.48,1.78,0.96,2.67,1.43
		c0.89,0.47,1.77,0.96,2.65,1.45l2.07,1.12c0.08,0.04,0.12,0.07,0.15,0.1c-1.57,0.32-2.95,0.61-4.13,0.85
		c-1.22,0.26-2.32,0.49-3.3,0.7c-0.98,0.21-1.87,0.41-2.67,0.58c-0.81,0.17-1.6,0.34-2.42,0.5c-0.31,0.1-0.57,0.17-0.77,0.2
		c-0.22,0.04-0.41,0.07-0.56,0.12c-0.18,0.05-0.33,0.12-0.46,0.21c-0.13,0.1-0.26,0.26-0.39,0.49c-0.11,0.2-0.2,0.39-0.29,0.57
		c-0.08,0.18-0.18,0.36-0.28,0.55c-0.13,0.25-0.27,0.49-0.41,0.71c-0.14,0.24-0.28,0.48-0.42,0.73c-0.06,0.11-0.09,0.25-0.1,0.43
		C9.52,66.83,9.68,66.96,9.77,67.01"/>
	<path class="st0" d="M21.12,48.45c0.13-0.08,0.27-0.19,0.4-0.35c0.12-0.13,0.24-0.26,0.38-0.4c0.11-0.11,0.25-0.17,0.38-0.2
		c0.06,0,0.19,0.02,0.45,0.17c0.22,0.12,0.42,0.24,0.59,0.37l0.3,0.22c0.26,0.19,0.51,0.39,0.77,0.59c0.26,0.2,0.52,0.4,0.79,0.6
		l5.76,4.31c0.19,0.14,0.38,0.3,0.57,0.48c0.15,0.15,0.24,0.28,0.24,0.41c0.01,0.14-0.01,0.28-0.08,0.44
		c-0.08,0.18-0.16,0.35-0.23,0.5c-0.08,0.17-0.15,0.32-0.19,0.46c-0.09,0.28,0.05,0.44,0.15,0.51c0.12,0.09,0.23,0.12,0.32,0.12
		c0.11,0,0.2-0.04,0.25-0.08c0.13-0.09,0.24-0.19,0.33-0.31l0.16-0.22c0.23-0.31,0.43-0.62,0.59-0.9c0.14-0.26,0.33-0.55,0.56-0.86
		c0.21-0.28,0.44-0.56,0.68-0.82c0.25-0.27,0.49-0.56,0.71-0.85c0.12-0.16,0.23-0.32,0.33-0.49c0.15-0.25,0.09-0.49-0.14-0.67
		c-0.08-0.06-0.29-0.17-0.55,0.03c-0.12,0.09-0.25,0.21-0.4,0.35c-0.14,0.13-0.28,0.26-0.43,0.4c-0.13,0.11-0.25,0.18-0.36,0.21
		c-0.17,0.03-0.33-0.01-0.52-0.11c-0.22-0.12-0.41-0.25-0.57-0.37l-3.97-2.95c-0.65-0.49-1.29-0.98-1.92-1.47
		c-0.63-0.49-1.28-0.99-1.93-1.47c-0.18-0.13-0.33-0.26-0.46-0.37c-0.1-0.08-0.16-0.18-0.19-0.29c-0.03-0.1-0.01-0.22,0.05-0.37
		c0.07-0.17,0.2-0.39,0.4-0.66c0.12-0.16,0.21-0.31,0.26-0.46c0.05-0.13,0.08-0.37-0.21-0.59h0c-0.05-0.04-0.12-0.07-0.21-0.09
		c-0.09-0.03-0.16-0.03-0.23-0.03l-0.08,0.01l-1.06,1.42c-0.11,0.15-0.22,0.31-0.32,0.48c-0.1,0.16-0.2,0.31-0.3,0.45
		c-0.22,0.3-0.46,0.58-0.71,0.86c-0.26,0.28-0.51,0.58-0.74,0.89l-0.13,0.17c-0.07,0.09-0.13,0.19-0.19,0.31
		c-0.1,0.19-0.06,0.39,0.12,0.52C20.79,48.58,20.99,48.53,21.12,48.45"/>
	<path class="st0" d="M27.28,40.29c0.15-0.08,0.31-0.19,0.48-0.31c0.17-0.12,0.35-0.22,0.54-0.31c0.16-0.07,0.34-0.08,0.55-0.01
		c1.43,0.48,2.84,1.02,4.2,1.6c1.37,0.59,2.74,1.18,4.12,1.76l4.5,1.83c0.08,0.03,0.17,0.06,0.27,0.07c0.02,0,0.05,0,0.07,0
		c0.12,0,0.23-0.05,0.32-0.14c0.12-0.12,0.17-0.24,0.14-0.36c-0.01-0.07-0.04-0.15-0.08-0.23c-0.51-1.16-1.03-2.31-1.55-3.45
		c-0.52-1.13-1.03-2.28-1.54-3.44c-0.3-0.69-0.59-1.37-0.88-2.05c-0.29-0.7-0.59-1.39-0.89-2.04c-0.04-0.09-0.1-0.23-0.19-0.42
		c-0.08-0.18-0.16-0.36-0.24-0.56l-0.23-0.55c-0.06-0.15-0.11-0.27-0.12-0.32c-0.03-0.16-0.02-0.3,0.04-0.42
		c0.07-0.15,0.15-0.29,0.23-0.41c0.1-0.15,0.17-0.29,0.21-0.41c0.05-0.13,0.05-0.33-0.17-0.55l0,0c-0.08-0.08-0.19-0.13-0.3-0.15
		c-0.14-0.02-0.28,0.03-0.38,0.13c-0.21,0.22-0.41,0.45-0.59,0.68c-0.17,0.22-0.36,0.43-0.56,0.64c-0.28,0.29-0.59,0.57-0.91,0.84
		c-0.33,0.28-0.65,0.57-0.94,0.87c-0.11,0.11-0.16,0.24-0.17,0.4c-0.01,0.16,0.05,0.3,0.17,0.41c0.2,0.2,0.46,0.22,0.71,0.05
		c0.18-0.12,0.37-0.26,0.57-0.43c0.18-0.15,0.37-0.27,0.55-0.36c0.08-0.04,0.2-0.06,0.38,0.11c0.01,0.01,0.09,0.1,0.37,0.63
		c0.2,0.39,0.45,0.87,0.72,1.43c0.28,0.57,0.57,1.18,0.9,1.84c0.32,0.66,0.62,1.29,0.9,1.9l0.74,1.61c0.22,0.47,0.36,0.79,0.43,0.96
		c0.01,0.03,0.03,0.08,0.06,0.16c0.02,0.06,0.05,0.13,0.06,0.21c0.01,0.03,0.01,0.05,0.01,0.08c-0.09-0.02-0.28-0.07-0.65-0.21
		c-0.45-0.17-0.99-0.38-1.62-0.64c-0.63-0.25-1.32-0.54-2.05-0.84c-0.73-0.31-1.43-0.6-2.09-0.89c-0.66-0.28-1.25-0.54-1.76-0.76
		c-0.51-0.22-0.85-0.38-1.04-0.47l-0.11-0.06c-0.04-0.02-0.05-0.04-0.07-0.05c-0.1-0.1-0.1-0.17-0.06-0.25
		c0.08-0.16,0.19-0.31,0.32-0.47c0.15-0.18,0.28-0.34,0.39-0.49c0.24-0.32,0.07-0.54-0.01-0.62c-0.12-0.12-0.29-0.17-0.45-0.16
		c-0.16,0.02-0.31,0.08-0.42,0.2c-0.31,0.33-0.62,0.67-0.91,1.02c-0.28,0.34-0.58,0.68-0.89,0.99c-0.21,0.21-0.44,0.42-0.67,0.61
		c-0.25,0.2-0.49,0.42-0.71,0.65l-0.15,0.15c-0.1,0.11-0.19,0.24-0.26,0.38c-0.1,0.2-0.07,0.4,0.07,0.54
		C26.85,40.38,27.07,40.41,27.28,40.29"/>
	<path class="st0" d="M41.09,26.85c0.18-0.1,0.38-0.21,0.61-0.33c0.2-0.11,0.41-0.19,0.62-0.22c0.16-0.03,0.33,0.06,0.53,0.28
		c0.04,0.04,0.07,0.07,0.09,0.1l0.31,0.42c0.63,0.84,1.25,1.67,1.89,2.49c0.63,0.82,1.26,1.65,1.88,2.49
		c0.2,0.26,0.43,0.56,0.7,0.91c0.27,0.34,0.53,0.68,0.78,1.02c0.24,0.32,0.45,0.64,0.63,0.93c0.2,0.34,0.25,0.54,0.26,0.64
		c0.01,0.17-0.04,0.33-0.15,0.49c-0.12,0.19-0.25,0.38-0.4,0.54c-0.16,0.18-0.28,0.34-0.38,0.49c-0.2,0.28-0.12,0.47-0.05,0.56
		c0.14,0.19,0.28,0.23,0.39,0.23c0.1,0,0.18-0.04,0.22-0.06c0.13-0.08,0.25-0.16,0.37-0.25c0.16-0.12,0.31-0.24,0.46-0.37
		c0.14-0.12,0.28-0.23,0.42-0.34l7.33-5.47c0.29-0.21,0.33-0.47,0.32-0.64l-0.02-0.07c-0.18-0.38-0.31-0.69-0.42-0.93l-0.3-0.68
		c-0.09-0.2-0.14-0.32-0.15-0.33c-0.01-0.04-0.03-0.09-0.09-0.25c-0.04-0.07-0.06-0.13-0.08-0.16c-0.03-0.14-0.1-0.26-0.2-0.36
		c-0.07-0.06-0.26-0.19-0.55,0.02c-0.14,0.1-0.2,0.3-0.18,0.59c0.01,0.23,0.04,0.48,0.08,0.77c0.04,0.27,0.07,0.55,0.09,0.84
		c0.02,0.26,0,0.48-0.07,0.65c-0.04,0.1-0.1,0.2-0.19,0.31c-0.1,0.12-0.22,0.25-0.35,0.37c-0.14,0.13-0.28,0.26-0.44,0.39
		c-0.16,0.13-0.3,0.25-0.43,0.35l-0.48,0.36c-0.09,0.07-0.25,0.19-0.47,0.34c-0.22,0.16-0.45,0.31-0.69,0.48
		c-0.24,0.16-0.47,0.31-0.69,0.43c-0.26,0.15-0.39,0.19-0.44,0.2c-0.12,0.02-0.23,0-0.34-0.06c-0.13-0.07-0.26-0.16-0.37-0.27
		c-0.12-0.11-0.24-0.23-0.34-0.36c-0.11-0.13-0.2-0.26-0.29-0.37l-1.83-2.45c-0.03-0.04-0.09-0.12-0.18-0.22
		c-0.07-0.09-0.15-0.19-0.21-0.29c-0.06-0.1-0.11-0.2-0.16-0.32c0.03-0.04,0.08-0.09,0.16-0.16c0.08-0.07,0.16-0.15,0.25-0.22
		l0.25-0.21c0.08-0.06,0.14-0.11,0.19-0.15c0.2-0.15,0.42-0.32,0.67-0.52c0.24-0.19,0.49-0.35,0.74-0.48
		c0.24-0.13,0.47-0.2,0.69-0.23c0.19-0.03,0.35,0.03,0.5,0.16l0.06,0.03c0.02,0.01,0.08,0.04,0.21,0.16
		c0.11,0.11,0.23,0.21,0.34,0.31c0.13,0.11,0.25,0.2,0.37,0.27c0.24,0.14,0.41,0.06,0.49,0c0.15-0.11,0.18-0.25,0.19-0.34
		c0-0.11-0.03-0.22-0.08-0.33c-0.05-0.09-0.11-0.18-0.19-0.26c-0.06-0.07-0.11-0.13-0.14-0.18c-0.17-0.22-0.33-0.43-0.5-0.64
		c-0.17-0.2-0.33-0.41-0.49-0.63c-0.16-0.21-0.32-0.43-0.47-0.66c-0.15-0.23-0.31-0.45-0.48-0.67c-0.09-0.12-0.18-0.23-0.27-0.33
		c-0.15-0.17-0.36-0.19-0.56-0.04c-0.14,0.1-0.2,0.24-0.19,0.39c0.01,0.09,0.02,0.18,0.03,0.27l0.03,0.07
		c0.18,0.29,0.29,0.57,0.31,0.84c0.02,0.25-0.09,0.5-0.32,0.74c-0.24,0.24-0.5,0.47-0.79,0.69c-0.28,0.22-0.57,0.43-0.84,0.64
		c-0.06,0.05-0.14,0.11-0.24,0.19c-0.09,0.07-0.18,0.14-0.27,0.2c-0.09,0.06-0.18,0.11-0.27,0.15c-0.04,0.02-0.08,0.03-0.11,0.03
		c-0.06-0.06-0.13-0.14-0.2-0.23l-0.27-0.36c-0.27-0.35-0.53-0.7-0.8-1.05c-0.27-0.34-0.53-0.7-0.79-1.05
		c-0.13-0.17-0.26-0.36-0.39-0.55c-0.12-0.18-0.21-0.37-0.26-0.54c-0.05-0.17-0.05-0.32-0.01-0.48c0.04-0.15,0.16-0.3,0.36-0.45
		l0.68-0.51c0.21-0.15,0.43-0.31,0.66-0.48c0.23-0.17,0.46-0.32,0.69-0.46c0.22-0.14,0.44-0.25,0.64-0.34
		c0.18-0.09,0.33-0.14,0.44-0.15c0.16-0.02,0.33,0.01,0.5,0.11c0.2,0.11,0.39,0.23,0.58,0.36c0.2,0.13,0.38,0.24,0.55,0.33
		c0.29,0.15,0.48,0.08,0.6-0.01l0.02-0.01c0.14-0.14,0.14-0.35-0.02-0.64c-0.12-0.21-0.25-0.43-0.41-0.64
		c-0.14-0.18-0.25-0.34-0.34-0.47c-0.09-0.14-0.17-0.25-0.24-0.35c-0.14-0.18-0.31-0.37-0.53-0.56c-0.08-0.07-0.26-0.16-0.52-0.03
		c-0.14,0.07-0.27,0.15-0.4,0.24l-0.17,0.13c-0.72,0.53-1.42,1.07-2.09,1.6c-0.68,0.53-1.37,1.06-2.09,1.59
		c-0.36,0.27-0.72,0.53-1.08,0.77c-0.37,0.25-0.73,0.51-1.08,0.77c-0.09,0.07-0.2,0.15-0.34,0.24c-0.15,0.1-0.28,0.21-0.39,0.32
		c-0.12,0.12-0.21,0.23-0.28,0.35c-0.1,0.17-0.09,0.35,0.02,0.51C40.5,26.83,40.72,27.05,41.09,26.85"/>
	<path class="st0" d="M60.69,20.43c-0.05-0.05-0.1-0.12-0.15-0.22c-0.06-0.13-0.13-0.27-0.23-0.45c-0.24-0.45-0.51-0.97-0.8-1.55
		c-0.29-0.58-0.56-1.1-0.8-1.56l-0.31-0.58c-0.12-0.23-0.16-0.43-0.12-0.59c0.02-0.08,0.12-0.26,0.58-0.5
		c0.4-0.21,0.81-0.35,1.2-0.42c0.16-0.02,0.31-0.04,0.47-0.04c0.23,0,0.44,0.03,0.65,0.08c0.35,0.09,0.68,0.26,0.99,0.51
		c0.31,0.25,0.58,0.59,0.81,1.02c0.28,0.52,0.42,0.99,0.44,1.39c0.02,0.4-0.06,0.77-0.23,1.09c-0.17,0.33-0.43,0.63-0.77,0.9
		c-0.35,0.28-0.75,0.54-1.2,0.77c-0.23,0.12-0.36,0.16-0.42,0.17C60.74,20.47,60.71,20.44,60.69,20.43 M54.41,17.32
		c0.13-0.02,0.27-0.06,0.44-0.13l0.47-0.2c0.15-0.07,0.3-0.11,0.45-0.13c0.13-0.02,0.26,0,0.38,0.06c0.12,0.06,0.23,0.19,0.33,0.38
		C57,18.26,57.51,19.23,58,20.2c0.49,0.97,1,1.94,1.51,2.91l1.87,3.53c0.11,0.2,0.16,0.38,0.14,0.53c-0.02,0.16-0.06,0.3-0.15,0.43
		c-0.09,0.14-0.2,0.26-0.32,0.36c-0.14,0.11-0.28,0.22-0.41,0.32c-0.14,0.1-0.25,0.2-0.33,0.28c-0.14,0.14-0.17,0.31-0.08,0.46
		c0.09,0.17,0.2,0.33,0.38,0.35h0.02c0.1,0,0.22-0.04,0.39-0.13c0.35-0.19,0.7-0.4,1.04-0.62c0.32-0.21,0.66-0.41,1.01-0.6
		c0.39-0.21,0.81-0.4,1.23-0.58c0.44-0.18,0.88-0.38,1.28-0.6c0.25-0.13,0.42-0.25,0.53-0.36c0.09-0.09,0.22-0.29,0.05-0.61
		c-0.09-0.17-0.24-0.24-0.42-0.2c-0.11,0.02-0.21,0.06-0.32,0.12c-0.05,0.02-0.07,0.03-0.07,0.03l-0.04,0.01
		c-0.26,0.08-0.49,0.15-0.68,0.23c-0.17,0.07-0.33,0.1-0.48,0.1h0c-0.13,0-0.24-0.04-0.36-0.13c-0.09-0.06-0.23-0.21-0.41-0.54
		l-1.87-3.53c-0.18-0.33-0.19-0.46-0.19-0.5c0,0,0.02-0.07,0.25-0.19c0.37-0.2,0.74-0.27,1.08-0.22c0.36,0.05,0.73,0.18,1.09,0.37
		c0.36,0.2,0.73,0.44,1.09,0.74c0.38,0.3,0.76,0.59,1.13,0.84c0.83,0.73,1.77,1.23,2.77,1.51c1.02,0.28,2.08,0.24,3.18-0.12
		c0.09-0.03,0.19-0.07,0.32-0.12c0.13-0.05,0.25-0.11,0.37-0.17c0.31-0.16,0.51-0.3,0.63-0.43l0.04-0.07
		c0.07-0.21,0.07-0.37,0.01-0.48c-0.05-0.09-0.2-0.28-0.52-0.19c-0.13,0.04-0.27,0.06-0.45,0.08c-0.5,0.14-1.01,0.15-1.51,0.03
		c-0.53-0.13-1.05-0.33-1.55-0.6c-0.51-0.27-1.02-0.58-1.51-0.94c-0.5-0.36-0.96-0.7-1.41-1.02c-0.45-0.33-0.87-0.59-1.25-0.8
		c-0.25-0.14-0.49-0.22-0.71-0.26c0.15-0.22,0.3-0.46,0.44-0.7c0.2-0.37,0.37-0.75,0.48-1.15c0.12-0.4,0.17-0.81,0.16-1.22
		c-0.01-0.43-0.12-0.84-0.33-1.23c-0.37-0.7-0.82-1.22-1.33-1.54c-0.5-0.32-1.03-0.51-1.57-0.56c-0.53-0.06-1.06-0.02-1.57,0.12
		c-0.5,0.14-0.95,0.31-1.33,0.51c-0.44,0.23-0.87,0.47-1.31,0.72c-0.43,0.25-0.86,0.49-1.29,0.72l-1.49,0.79
		c-0.12,0.06-0.25,0.12-0.38,0.18c-0.14,0.06-0.28,0.13-0.41,0.19c-0.14,0.07-0.27,0.16-0.38,0.26c-0.08,0.07-0.25,0.27-0.07,0.61
		C54.06,17.26,54.23,17.34,54.41,17.32"/>
	<path class="st0" d="M71.59,14.03c0.49,0.34,1.04,0.6,1.64,0.77c0.59,0.17,1.22,0.29,1.86,0.36c0.63,0.07,1.23,0.17,1.79,0.31
		c0.55,0.13,1.05,0.33,1.48,0.59c0.41,0.25,0.72,0.65,0.91,1.17c0.13,0.36,0.19,0.71,0.18,1.03c-0.02,0.32-0.09,0.62-0.23,0.9
		c-0.14,0.28-0.33,0.53-0.58,0.74c-0.25,0.21-0.55,0.38-0.89,0.51c-0.46,0.17-0.96,0.21-1.48,0.12c-0.51-0.08-0.96-0.31-1.32-0.68
		c-0.09-0.09-0.19-0.2-0.29-0.35l-0.29-0.44c-0.1-0.15-0.2-0.27-0.29-0.36c-0.19-0.19-0.37-0.16-0.46-0.13
		c-0.02,0.01-0.04,0.01-0.07,0.01c-0.07,0-0.13,0.02-0.19,0.04c-0.09,0.03-0.17,0.1-0.21,0.19c-0.06,0.1-0.06,0.23-0.02,0.4
		c0.09,0.33,0.18,0.62,0.27,0.88c0.09,0.26,0.19,0.55,0.3,0.86c0.05,0.13,0.1,0.31,0.16,0.52c0.06,0.23,0.13,0.45,0.21,0.66
		c0.08,0.22,0.16,0.4,0.25,0.55c0.12,0.22,0.27,0.28,0.37,0.28c0.05,0,0.08-0.01,0.11-0.02c0.23-0.08,0.38-0.2,0.46-0.36
		c0.06-0.13,0.11-0.26,0.14-0.41c0.02-0.11,0.05-0.22,0.08-0.31c0.02-0.05,0.07-0.09,0.16-0.12c0.11-0.04,0.24-0.05,0.39-0.05
		c0.18,0.01,0.36,0.01,0.56,0.01c0.21,0.01,0.42,0,0.65-0.02c0.24-0.02,0.49-0.07,0.74-0.16c0.64-0.25,1.21-0.56,1.69-0.94
		c0.48-0.38,0.86-0.83,1.13-1.33c0.27-0.5,0.42-1.06,0.45-1.67c0.03-0.61-0.08-1.26-0.34-1.95c-0.25-0.64-0.63-1.19-1.13-1.66
		c-0.51-0.46-1.1-0.78-1.77-0.94c-0.52-0.12-1.11-0.21-1.74-0.27c-0.62-0.06-1.24-0.15-1.82-0.26c-0.57-0.11-1.09-0.3-1.55-0.55
		c-0.44-0.24-0.73-0.59-0.9-1.05c-0.11-0.3-0.16-0.6-0.13-0.88c0.02-0.28,0.1-0.55,0.23-0.78c0.13-0.24,0.32-0.45,0.55-0.64
		c0.23-0.19,0.5-0.34,0.8-0.44c0.35-0.13,0.74-0.14,1.17-0.03c0.43,0.11,0.82,0.34,1.17,0.72c0.1,0.08,0.19,0.19,0.28,0.32
		c0.1,0.15,0.19,0.3,0.28,0.43c0.1,0.15,0.19,0.27,0.3,0.37c0.18,0.19,0.34,0.19,0.45,0.14c0.01,0,0.04-0.01,0.09-0.01
		c0.06-0.01,0.13-0.02,0.2-0.05c0.09-0.04,0.17-0.1,0.22-0.2c0.04-0.08,0.05-0.2,0.02-0.38c-0.18-0.66-0.4-1.3-0.64-1.93
		c-0.05-0.13-0.09-0.28-0.14-0.46c-0.05-0.19-0.11-0.38-0.17-0.56c-0.06-0.18-0.14-0.34-0.21-0.46c-0.17-0.27-0.38-0.23-0.46-0.2
		c-0.24,0.09-0.39,0.23-0.46,0.43c-0.06,0.16-0.09,0.32-0.11,0.47c-0.01,0.13-0.04,0.22-0.06,0.29c0,0-0.03,0.01-0.1,0
		c-0.28-0.06-0.6-0.09-0.98-0.11c-0.39-0.02-0.73,0.02-1.01,0.12c-0.56,0.2-1.07,0.49-1.52,0.84c-0.45,0.36-0.81,0.77-1.07,1.23
		c-0.26,0.46-0.42,0.98-0.47,1.54c-0.05,0.56,0.04,1.15,0.26,1.76C70.71,13.15,71.09,13.68,71.59,14.03"/>
	<path class="st0" d="M82.58,5.44c0.16,0.02,0.33,0.02,0.53-0.01c0.17-0.03,0.35-0.05,0.55-0.06c0.16-0.02,0.3,0.03,0.41,0.09
		c0.04,0.04,0.13,0.13,0.24,0.41c0.1,0.24,0.17,0.45,0.22,0.66l0.09,0.36c0.07,0.31,0.15,0.63,0.22,0.94
		c0.07,0.32,0.14,0.64,0.22,0.97l1.68,7c0.06,0.23,0.1,0.48,0.13,0.73c0.02,0.21,0,0.37-0.07,0.46c-0.08,0.12-0.19,0.21-0.34,0.29
		c-0.17,0.09-0.34,0.17-0.5,0.24c-0.17,0.08-0.32,0.16-0.44,0.23c-0.25,0.16-0.24,0.38-0.21,0.49c0.07,0.31,0.29,0.38,0.41,0.39
		c0.05,0,0.1,0.01,0.15,0.01c0.1,0,0.2-0.01,0.3-0.04l0.26-0.06c0.38-0.09,0.72-0.2,1.03-0.32c0.29-0.12,0.61-0.22,0.98-0.31
		c0.34-0.08,0.69-0.15,1.05-0.2c0.36-0.05,0.73-0.11,1.09-0.2c0.2-0.05,0.39-0.1,0.57-0.17c0.27-0.1,0.39-0.32,0.32-0.6
		c-0.02-0.09-0.11-0.31-0.45-0.32c-0.15,0-0.32,0-0.52,0.01c-0.19,0.01-0.38,0.02-0.59,0.03c-0.17,0.01-0.31-0.02-0.41-0.07
		c-0.15-0.08-0.25-0.21-0.33-0.42c-0.09-0.24-0.16-0.45-0.2-0.65l-1.17-4.8c-0.19-0.79-0.37-1.58-0.54-2.36
		c-0.17-0.79-0.35-1.57-0.55-2.37c-0.06-0.22-0.09-0.41-0.12-0.58c-0.02-0.13-0.01-0.24,0.04-0.34c0.04-0.09,0.13-0.18,0.27-0.26
		c0.16-0.09,0.41-0.17,0.73-0.25c0.19-0.05,0.36-0.11,0.5-0.19c0.12-0.07,0.3-0.23,0.21-0.58c-0.02-0.06-0.05-0.13-0.1-0.21
		c-0.06-0.08-0.11-0.13-0.16-0.16l-0.07-0.04L86.27,3.6c-0.18,0.04-0.37,0.1-0.56,0.17c-0.18,0.06-0.35,0.12-0.52,0.16
		c-0.35,0.09-0.72,0.16-1.1,0.21c-0.39,0.05-0.77,0.13-1.13,0.22L82.75,4.4c-0.11,0.03-0.23,0.07-0.35,0.12
		C82.19,4.6,82.1,4.78,82.16,5C82.24,5.33,82.45,5.42,82.58,5.44"/>
	<path class="st0" d="M92.63,5.99c0.11,0.07,0.25,0.09,0.42,0.07c0.15-0.02,0.25-0.17,0.36-0.41c0.09-0.2,0.18-0.42,0.27-0.66
		c0.09-0.24,0.18-0.47,0.25-0.68c0.1-0.26,0.15-0.35,0.17-0.38c0.21-0.25,0.43-0.43,0.67-0.53c0.25-0.1,0.51-0.18,0.79-0.21
		l1.19-0.14c0.3-0.03,0.58-0.05,0.84-0.03c0.23,0.01,0.29,0.06,0.3,0.06c0.02,0.06,0.04,0.17,0.06,0.32
		C98,3.58,98.01,3.7,98.02,3.76l1.06,9.33c0.04,0.35,0.06,0.64,0.05,0.88c-0.01,0.22-0.06,0.4-0.14,0.55
		c-0.08,0.14-0.21,0.26-0.39,0.36c-0.19,0.1-0.47,0.2-0.85,0.28c-0.01,0-0.06,0.02-0.2,0.04c-0.15,0.02-0.3,0.06-0.43,0.13
		c-0.11,0.06-0.28,0.2-0.24,0.51c0.04,0.35,0.3,0.38,0.38,0.38c0.12,0,0.23,0,0.34-0.02c0.45-0.05,0.92-0.12,1.39-0.2
		c0.44-0.08,0.9-0.15,1.36-0.2c0.5-0.06,1.02-0.1,1.53-0.12c0.52-0.03,1.04-0.07,1.55-0.13c0.18-0.02,0.31-0.04,0.41-0.07
		c0.13-0.04,0.29-0.16,0.24-0.55c-0.01-0.12-0.09-0.4-0.56-0.4h-0.77c-0.26,0-0.52-0.04-0.77-0.13c-0.21-0.07-0.36-0.25-0.44-0.54
		c-0.06-0.19-0.1-0.39-0.13-0.58c-0.03-0.2-0.06-0.4-0.08-0.6c-0.1-1.13-0.23-2.27-0.4-3.4c-0.16-1.11-0.29-2.25-0.39-3.38
		l-0.23-2.36c-0.03-0.28-0.04-0.49-0.03-0.63c0.02-0.16,0.05-0.21,0.06-0.22c0.02-0.03,0.04-0.03,0.05-0.03
		c0.08,0,0.17-0.01,0.27-0.02c0.1-0.01,0.24-0.03,0.39-0.05c0.15-0.02,0.32-0.05,0.51-0.07c0.25-0.03,0.52-0.05,0.81-0.06
		c0.28-0.01,0.56-0.01,0.81,0c0.24,0.01,0.45,0.06,0.63,0.12c0.15,0.06,0.26,0.14,0.32,0.25c0.08,0.16,0.13,0.33,0.14,0.53
		c0.01,0.21,0.02,0.42,0.02,0.6c0,0.21,0.03,0.38,0.07,0.52c0.03,0.1,0.14,0.32,0.5,0.29c0.2-0.02,0.45-0.15,0.53-0.63
		c0.05-0.31,0.08-0.66,0.08-1.06c0-0.39-0.01-0.79-0.02-1.21c-0.01-0.39,0.01-0.7,0.07-0.94c0.05-0.19,0.02-0.39-0.08-0.59
		c-0.06-0.13-0.23-0.35-0.64-0.31c-0.09,0.01-0.22,0.06-0.31,0.26c-0.04,0.08-0.09,0.18-0.15,0.29c-0.06,0.1-0.13,0.2-0.21,0.29
		c-0.07,0.07-0.16,0.13-0.27,0.16c-0.18,0.05-0.37,0.08-0.56,0.11c-0.2,0.03-0.39,0.06-0.58,0.07c-0.62,0.07-1.21,0.15-1.79,0.22
		c-0.57,0.08-1.16,0.15-1.78,0.22c-0.77,0.09-1.56,0.17-2.37,0.24C95.96,1.94,95.17,2,94.4,2.05c-0.16,0.01-0.28-0.01-0.37-0.06
		c-0.1-0.06-0.18-0.11-0.24-0.18c-0.07-0.07-0.13-0.14-0.18-0.19c-0.12-0.14-0.25-0.15-0.34-0.14c-0.21,0.02-0.38,0.1-0.5,0.23
		c-0.1,0.12-0.17,0.26-0.21,0.42c-0.04,0.15-0.05,0.32-0.04,0.49c0.01,0.16,0.01,0.31,0.01,0.45c0.01,0.66-0.01,1.18-0.07,1.55
		c-0.07,0.4-0.08,0.71-0.06,0.94C92.43,5.77,92.51,5.91,92.63,5.99"/>
	<path class="st0" d="M109.36,1.35c0.15,0.05,0.32,0.11,0.52,0.16c0.19,0.05,0.38,0.13,0.59,0.22c0.18,0.09,0.33,0.22,0.44,0.4
		c0.65,1.04,1.3,2.06,1.95,3.05c0.65,0.99,1.29,2.01,1.95,3.05c0.13,0.19,0.19,0.41,0.19,0.64c0,0.27-0.01,0.6-0.03,1l-0.08,1.7
		c-0.01,0.23-0.03,0.48-0.04,0.73c-0.02,0.26-0.04,0.49-0.07,0.71c-0.03,0.22-0.07,0.41-0.11,0.57c-0.05,0.19-0.1,0.26-0.12,0.28
		c-0.12,0.12-0.27,0.19-0.47,0.21c-0.24,0.03-0.47,0.05-0.7,0.08c-0.25,0.02-0.45,0.07-0.62,0.14c-0.11,0.05-0.35,0.2-0.25,0.59
		c0.01,0.14,0.08,0.24,0.21,0.28c0.07,0.02,0.13,0.03,0.18,0.03c0.47,0.02,0.94,0.02,1.41-0.01c0.45-0.03,0.91-0.03,1.37,0
		c0.5,0.02,1,0.07,1.5,0.13c0.51,0.07,1.03,0.12,1.53,0.14h0.04c0.24,0,0.37-0.12,0.43-0.21c0.07-0.12,0.11-0.25,0.12-0.4v-0.04
		l-0.01-0.03c-0.07-0.19-0.2-0.32-0.39-0.38c-0.14-0.04-0.3-0.07-0.49-0.09c-0.17-0.01-0.35-0.03-0.53-0.05
		c-0.16-0.02-0.31-0.06-0.44-0.14c-0.12-0.06-0.21-0.18-0.29-0.33c-0.08-0.16-0.11-0.4-0.1-0.72l0.18-3.86
		c0.01-0.25,0.09-0.52,0.24-0.8c0.15-0.29,0.35-0.58,0.58-0.87c0.23-0.28,0.48-0.57,0.75-0.85c0.27-0.28,0.51-0.55,0.73-0.8
		c0.48-0.56,0.95-1.13,1.43-1.68c0.47-0.56,0.96-1.11,1.46-1.64c0.12-0.14,0.26-0.23,0.4-0.28c0.16-0.05,0.31-0.09,0.45-0.1
		c0.16-0.02,0.31-0.04,0.45-0.07c0.18-0.04,0.33-0.14,0.41-0.29c0.07-0.14,0.08-0.26,0.05-0.37c-0.02-0.07-0.08-0.17-0.23-0.24
		c-0.17-0.08-0.36-0.13-0.56-0.14c-0.34-0.02-0.68-0.01-1.03,0.02c-0.32,0.03-0.65,0.04-0.97,0.02c-0.29-0.01-0.58-0.05-0.86-0.09
		c-0.31-0.06-0.61-0.09-0.91-0.1c-0.15-0.01-0.27,0-0.35,0.02c-0.11,0.03-0.25,0.12-0.27,0.43c-0.01,0.28,0.14,0.47,0.41,0.53
		c0.18,0.04,0.39,0.08,0.61,0.1c0.2,0.02,0.38,0.06,0.54,0.12c0.07,0.02,0.14,0.06,0.13,0.22c0,0.01-0.03,0.09-0.22,0.36
		c-0.17,0.24-0.37,0.52-0.62,0.86c-0.26,0.34-0.53,0.7-0.84,1.09c-0.3,0.39-0.59,0.76-0.87,1.1c-0.28,0.34-0.53,0.64-0.74,0.9
		c-0.25,0.31-0.37,0.43-0.42,0.47c-0.02,0.02-0.06,0.05-0.1,0.08c-0.03-0.05-0.06-0.09-0.1-0.15c-0.31-0.42-0.61-0.86-0.9-1.32
		c-0.29-0.46-0.58-0.92-0.87-1.4c-0.11-0.16-0.25-0.36-0.41-0.59c-0.16-0.23-0.32-0.47-0.46-0.71c-0.15-0.24-0.28-0.47-0.39-0.69
		c-0.12-0.24-0.14-0.38-0.14-0.45c0-0.08,0.02-0.11,0.12-0.13c0.17-0.02,0.36-0.03,0.56-0.03c0.22,0,0.43-0.01,0.62-0.03
		c0.28-0.03,0.44-0.22,0.45-0.51c0.01-0.13-0.06-0.26-0.21-0.37c-0.13-0.09-0.24-0.14-0.34-0.14c-0.51-0.02-1.02-0.02-1.52,0
		c-0.49,0.02-0.98,0.02-1.47,0c-0.35-0.01-0.7-0.06-1.03-0.12c-0.36-0.07-0.72-0.11-1.09-0.13c-0.11,0-0.22,0-0.32,0.01
		c-0.07,0.01-0.31,0.06-0.32,0.39C109.03,1.09,109.14,1.27,109.36,1.35"/>
	<path class="st0" d="M141.91,5.75c0.88,0.09,1.62,0.36,2.21,0.78c0.6,0.43,1.07,0.97,1.42,1.61c0.35,0.65,0.58,1.38,0.7,2.17
		c0.12,0.8,0.13,1.62,0.05,2.43c-0.08,0.73-0.25,1.49-0.49,2.24c-0.24,0.75-0.58,1.44-1.03,2.05c-0.43,0.6-0.99,1.07-1.65,1.41
		c-0.65,0.34-1.44,0.45-2.37,0.35c-0.95-0.1-1.74-0.4-2.32-0.87c-0.59-0.47-1.06-1.06-1.37-1.73c-0.32-0.68-0.52-1.43-0.6-2.23
		c-0.08-0.8-0.08-1.59,0.01-2.34c0.07-0.73,0.23-1.48,0.45-2.22c0.23-0.74,0.56-1.4,0.98-1.98c0.42-0.57,0.96-1.02,1.61-1.34
		c0.49-0.24,1.07-0.36,1.74-0.36C141.47,5.72,141.69,5.73,141.91,5.75 M134.5,16.01c0.43,0.83,1.03,1.57,1.79,2.19
		c0.76,0.62,1.67,1.09,2.69,1.4c0.74,0.22,1.48,0.33,2.21,0.33c0.3,0,0.6-0.02,0.9-0.06c1.03-0.13,1.99-0.43,2.87-0.9
		c0.88-0.48,1.66-1.12,2.31-1.91c0.66-0.79,1.14-1.7,1.44-2.71c0.31-1.06,0.41-2.1,0.28-3.1c-0.13-0.99-0.44-1.91-0.93-2.74
		c-0.48-0.82-1.13-1.55-1.92-2.17c-0.79-0.61-1.69-1.08-2.69-1.37c-1.04-0.31-2.06-0.41-3.04-0.3c-0.99,0.12-1.91,0.41-2.74,0.88
		c-0.84,0.47-1.58,1.11-2.2,1.9c-0.62,0.79-1.1,1.72-1.41,2.77c-0.31,1.05-0.43,2.08-0.34,3.06
		C133.81,14.26,134.07,15.18,134.5,16.01"/>
	<path class="st0" d="M148.6,21.94c-0.1,0.21-0.05,0.42,0.16,0.56c0.13,0.08,0.24,0.15,0.34,0.2c0.33,0.16,0.67,0.3,1.02,0.41
		c0.33,0.11,0.67,0.24,1,0.4c0.43,0.2,0.85,0.43,1.25,0.67c0.41,0.25,0.84,0.48,1.28,0.69l0.18,0.08c0.14,0.06,0.28,0.11,0.44,0.12
		c0.02,0,0.04,0,0.05,0c0.19,0,0.33-0.09,0.41-0.25c0.11-0.24,0.05-0.48-0.17-0.66c-0.16-0.13-0.35-0.26-0.59-0.41
		c-0.21-0.13-0.41-0.28-0.59-0.44c-0.15-0.14-0.23-0.32-0.23-0.55c0,0,0-0.04,0.05-0.14c0.05-0.11,0.09-0.24,0.15-0.38
		c0.05-0.13,0.11-0.27,0.17-0.4l0.37-0.77c0.25-0.52,0.5-1.04,0.76-1.54c0.26-0.51,0.51-1.03,0.76-1.55
		c0.03-0.07,0.07-0.09,0.11-0.09c0.08-0.01,0.18,0,0.29,0.03c0.12,0.04,0.23,0.08,0.35,0.15c0.13,0.07,0.24,0.12,0.32,0.16
		l0.47,0.23c0.26,0.13,0.55,0.28,0.87,0.45c0.3,0.17,0.52,0.31,0.65,0.44c0.19,0.16,0.29,0.34,0.3,0.54
		c0.02,0.24,0.01,0.46-0.02,0.68l-0.11,0.63c-0.06,0.37,0.12,0.51,0.24,0.57c0.18,0.08,0.32,0.04,0.41-0.01
		c0.09-0.06,0.18-0.13,0.25-0.23c0.07-0.09,0.13-0.19,0.17-0.3c0.03-0.09,0.07-0.16,0.1-0.23c0.12-0.26,0.24-0.52,0.34-0.78
		c0.1-0.25,0.2-0.5,0.33-0.75c0.12-0.25,0.25-0.5,0.37-0.74c0.13-0.24,0.26-0.49,0.38-0.75c0.03-0.06,0.07-0.16,0.1-0.29
		c0.06-0.2-0.01-0.37-0.18-0.45c-0.25-0.12-0.44-0.06-0.56,0.02c-0.12,0.08-0.24,0.19-0.35,0.33c-0.1,0.12-0.21,0.25-0.34,0.38
		c-0.11,0.12-0.23,0.2-0.38,0.25c-0.09,0.03-0.21,0.04-0.36,0.01c-0.17-0.03-0.36-0.07-0.57-0.14c-0.21-0.07-0.43-0.15-0.64-0.25
		c-0.22-0.1-0.43-0.19-0.63-0.29l-0.63-0.3c-0.13-0.06-0.26-0.12-0.37-0.17c-0.09-0.04-0.16-0.08-0.22-0.14
		c-0.04-0.04-0.06-0.09-0.07-0.15c-0.01-0.04,0-0.15,0.1-0.35c0.25-0.53,0.5-1.05,0.74-1.58c0.24-0.53,0.49-1.05,0.74-1.58
		c0.11-0.22,0.22-0.43,0.34-0.61c0.09-0.14,0.25-0.23,0.46-0.26c0.09,0,0.25,0.01,0.58,0.12c0.29,0.09,0.55,0.2,0.77,0.3l0.38,0.18
		c0.13,0.06,0.3,0.15,0.51,0.25c0.21,0.11,0.42,0.22,0.64,0.35c0.22,0.12,0.42,0.25,0.62,0.37c0.18,0.12,0.32,0.22,0.41,0.31
		c0.18,0.18,0.26,0.37,0.26,0.58c0,0.25-0.03,0.48-0.09,0.7c-0.06,0.24-0.11,0.46-0.14,0.65c-0.05,0.27,0.07,0.49,0.32,0.61
		c0.13,0.06,0.26,0.06,0.36,0c0.09-0.04,0.16-0.11,0.22-0.2c0.05-0.07,0.1-0.16,0.14-0.25l0.11-0.23c0.05-0.09,0.12-0.25,0.23-0.46
		c0.11-0.22,0.22-0.45,0.32-0.68c0.11-0.24,0.19-0.46,0.26-0.65c0.04-0.13,0.14-0.42-0.09-0.58c-0.02-0.01-0.06-0.03-0.12-0.06
		c-0.07-0.04-0.16-0.08-0.26-0.13l-0.38-0.19c-0.54-0.26-1.07-0.51-1.6-0.75c-0.53-0.24-1.06-0.5-1.59-0.75l-2.71-1.3
		c-0.09-0.04-0.26-0.13-0.51-0.25c-0.25-0.13-0.52-0.26-0.8-0.39c-0.31-0.15-0.55-0.26-0.72-0.33c-0.19-0.08-0.34-0.13-0.46-0.15
		c-0.16-0.02-0.27,0.01-0.36,0.07c-0.07,0.05-0.12,0.13-0.17,0.22l0,0c-0.09,0.18-0.05,0.36,0.09,0.49
		c0.09,0.09,0.21,0.17,0.36,0.24c0.13,0.07,0.27,0.15,0.42,0.24c0.13,0.07,0.24,0.16,0.33,0.27c0.08,0.1,0.13,0.22,0.15,0.38
		c0.02,0.15-0.03,0.35-0.15,0.6c-0.56,1.17-1.1,2.32-1.62,3.46c-0.52,1.14-1.06,2.29-1.62,3.46l-0.31,0.65
		c-0.1,0.21-0.21,0.44-0.34,0.68c-0.12,0.24-0.25,0.48-0.37,0.72c-0.13,0.23-0.24,0.43-0.35,0.6c-0.14,0.21-0.2,0.28-0.24,0.3
		c-0.16,0.15-0.33,0.19-0.57,0.12c-0.05,0-0.14-0.02-0.31-0.08c-0.16-0.05-0.31-0.1-0.47-0.15c-0.17-0.05-0.34-0.08-0.48-0.07
		C148.76,21.69,148.64,21.85,148.6,21.94"/>
	<path class="st0" d="M168.99,34.04c0.37,0.29,0.75,0.56,1.13,0.82c0.39,0.26,0.76,0.53,1.11,0.81c0.4,0.31,0.8,0.64,1.18,0.98
		c0.38,0.34,0.78,0.68,1.19,1c0.14,0.11,0.25,0.19,0.34,0.24c0.04,0.02,0.09,0.04,0.15,0.04c0.11,0,0.25-0.06,0.41-0.27
		c0.07-0.1,0.21-0.35-0.12-0.68l-0.55-0.54c-0.19-0.19-0.34-0.4-0.46-0.63c-0.1-0.2-0.08-0.43,0.06-0.7
		c0.09-0.18,0.2-0.35,0.31-0.51c0.12-0.17,0.24-0.33,0.37-0.49c0.71-0.87,1.42-1.78,2.1-2.7c0.68-0.92,1.38-1.82,2.09-2.69
		l1.49-1.84c0.18-0.22,0.32-0.38,0.42-0.47c0.12-0.1,0.18-0.12,0.2-0.12c0.03-0.01,0.04,0,0.06,0.01c0.06,0.06,0.13,0.11,0.2,0.17
		c0.08,0.06,0.19,0.14,0.32,0.23c0.12,0.09,0.26,0.19,0.41,0.31c0.2,0.16,0.41,0.33,0.62,0.52c0.21,0.19,0.4,0.38,0.57,0.57
		c0.16,0.18,0.28,0.36,0.36,0.53c0.07,0.15,0.09,0.28,0.06,0.4c-0.05,0.17-0.14,0.33-0.27,0.48c-0.14,0.16-0.28,0.31-0.41,0.44
		c-0.15,0.15-0.25,0.29-0.31,0.42c-0.05,0.09-0.12,0.33,0.16,0.55c0.16,0.12,0.43,0.21,0.82-0.07c0.25-0.18,0.52-0.41,0.8-0.69
		c0.28-0.28,0.55-0.57,0.83-0.87c0.26-0.28,0.5-0.5,0.71-0.62c0.17-0.11,0.29-0.26,0.36-0.48c0.05-0.14,0.08-0.42-0.24-0.67
		c-0.07-0.06-0.2-0.11-0.4-0.04c-0.09,0.03-0.19,0.06-0.31,0.09c-0.11,0.03-0.23,0.05-0.35,0.06c-0.13,0-0.2-0.02-0.31-0.07
		c-0.16-0.1-0.32-0.2-0.48-0.32c-0.16-0.12-0.31-0.23-0.46-0.35c-0.49-0.38-0.97-0.75-1.43-1.09c-0.46-0.34-0.93-0.71-1.42-1.09
		c-0.61-0.48-1.23-0.97-1.86-1.49c-0.63-0.52-1.24-1.03-1.82-1.53c-0.12-0.1-0.19-0.21-0.22-0.3c-0.03-0.11-0.05-0.21-0.05-0.3
		c0-0.1,0-0.19,0.01-0.27c0.01-0.18-0.07-0.28-0.14-0.34c-0.17-0.13-0.35-0.2-0.52-0.18c-0.16,0.01-0.31,0.06-0.45,0.16
		c-0.13,0.08-0.25,0.19-0.37,0.32c-0.11,0.12-0.21,0.23-0.31,0.33c-0.46,0.48-0.84,0.84-1.13,1.05c-0.32,0.24-0.56,0.45-0.7,0.64
		c-0.13,0.16-0.17,0.31-0.14,0.45c0.03,0.13,0.12,0.24,0.25,0.35c0.12,0.09,0.3,0.06,0.54-0.04c0.2-0.08,0.42-0.17,0.66-0.28
		c0.23-0.11,0.45-0.21,0.66-0.31c0.25-0.12,0.36-0.14,0.38-0.15c0.32-0.03,0.61,0,0.85,0.09c0.25,0.1,0.49,0.23,0.71,0.4l0.95,0.74
		c0.23,0.18,0.44,0.37,0.62,0.57c0.16,0.18,0.17,0.25,0.17,0.25c-0.03,0.05-0.09,0.14-0.18,0.27c-0.1,0.14-0.17,0.23-0.21,0.28
		l-5.78,7.39c-0.22,0.28-0.41,0.5-0.59,0.66c-0.16,0.15-0.32,0.25-0.48,0.29c-0.15,0.05-0.33,0.04-0.53-0.02
		c-0.21-0.06-0.48-0.19-0.8-0.39c-0.02-0.01-0.06-0.03-0.17-0.12c-0.12-0.09-0.25-0.16-0.4-0.21c-0.11-0.03-0.34-0.06-0.53,0.2
		c-0.22,0.28-0.05,0.48,0,0.54C168.81,33.89,168.9,33.97,168.99,34.04"/>
	<path class="st0" d="M186.19,39.05c-0.31-0.32-0.55-0.55-0.7-0.71l-0.16-0.17l1.28-0.49c0.41-0.16,0.77-0.3,1.09-0.43
		c0.32-0.13,0.64-0.26,0.94-0.37c0.2-0.08,0.43-0.16,0.68-0.26c-0.02,0.04-0.04,0.07-0.06,0.12c-0.15,0.3-0.32,0.65-0.54,1.07
		c-0.21,0.42-0.44,0.87-0.69,1.36c-0.21,0.41-0.4,0.81-0.58,1.19C186.91,39.8,186.49,39.36,186.19,39.05 M182.33,38.01
		c-0.68,0.27-1.37,0.55-2.06,0.83c-0.09,0.04-0.23,0.09-0.42,0.17c-0.18,0.08-0.37,0.15-0.57,0.22l-0.56,0.21
		c-0.23,0.08-0.3,0.1-0.34,0.1c-0.17,0.03-0.3,0.02-0.41-0.04c-0.14-0.08-0.27-0.16-0.38-0.24c-0.14-0.1-0.27-0.18-0.39-0.22
		c-0.13-0.05-0.32-0.05-0.55,0.16c-0.08,0.08-0.14,0.18-0.16,0.3c-0.02,0.1-0.01,0.24,0.12,0.38c0.21,0.22,0.41,0.41,0.61,0.57
		c0.18,0.14,0.38,0.32,0.57,0.53c0.29,0.3,0.56,0.61,0.81,0.94c0.26,0.34,0.55,0.67,0.84,0.97c0.11,0.11,0.24,0.17,0.39,0.18
		c0.17,0.01,0.3-0.05,0.42-0.15c0.2-0.19,0.23-0.45,0.07-0.71c-0.12-0.19-0.25-0.38-0.41-0.59c-0.15-0.19-0.26-0.38-0.34-0.56
		c-0.04-0.09-0.06-0.2,0.12-0.37c0.01-0.01,0.07-0.06,0.44-0.26c0.27-0.15,0.61-0.32,1.02-0.52c0.42-0.2,0.89-0.42,1.4-0.64
		c0.48-0.21,0.99-0.42,1.52-0.62c0.12,0.08,0.25,0.19,0.39,0.33c0.18,0.17,0.36,0.35,0.54,0.53c0.19,0.19,0.36,0.38,0.53,0.57
		c0.17,0.19,0.31,0.34,0.42,0.45l0.26,0.27c0.15,0.15,0.29,0.31,0.41,0.47c0.1,0.13,0.15,0.24,0.15,0.33c0,0-0.01,0.04-0.05,0.15
		c-0.05,0.11-0.09,0.23-0.14,0.36c-0.2,0.46-0.4,0.91-0.59,1.35c-0.19,0.43-0.37,0.83-0.53,1.18l-0.42,0.92
		c-0.12,0.25-0.21,0.43-0.28,0.55c-0.02,0.03-0.04,0.07-0.06,0.11c-0.01,0.02-0.03,0.04-0.05,0.06c-0.12,0.12-0.19,0.09-0.25,0.06
		c-0.15-0.09-0.31-0.2-0.46-0.35c-0.17-0.16-0.33-0.3-0.48-0.41c-0.31-0.24-0.54-0.09-0.62-0.01c-0.13,0.12-0.19,0.28-0.18,0.45
		c0.01,0.17,0.07,0.31,0.18,0.43c0.32,0.33,0.65,0.65,0.99,0.94c0.33,0.29,0.66,0.6,0.96,0.92c0.2,0.21,0.4,0.45,0.59,0.69
		c0.19,0.25,0.4,0.5,0.62,0.73l0.15,0.15c0.1,0.11,0.23,0.2,0.38,0.28c0.09,0.05,0.18,0.06,0.25,0.06c0.14,0,0.23-0.06,0.29-0.12
		c0.18-0.18,0.22-0.4,0.11-0.62c-0.08-0.15-0.18-0.31-0.3-0.5c-0.11-0.17-0.21-0.35-0.3-0.55c-0.07-0.16-0.07-0.34,0.01-0.55
		c0.53-1.42,1.09-2.84,1.67-4.21c0.59-1.39,1.2-2.78,1.84-4.13c0.32-0.73,0.66-1.46,0.99-2.21c0.34-0.75,0.67-1.49,0.99-2.22
		c0.04-0.08,0.06-0.17,0.08-0.27c0.03-0.15-0.02-0.28-0.12-0.39c-0.12-0.12-0.24-0.18-0.35-0.16c-0.07,0.01-0.16,0.04-0.24,0.08
		c-1.18,0.47-2.35,0.94-3.52,1.4c-1.17,0.46-2.34,0.93-3.53,1.4C183.7,37.46,183.01,37.74,182.33,38.01"/>
	<path class="st0" d="M195.73,49.61c0.04-0.06,0.11-0.12,0.2-0.18c0.12-0.08,0.25-0.17,0.42-0.29c0.42-0.3,0.9-0.63,1.43-1
		c0.53-0.36,1.01-0.7,1.43-1l0.54-0.38c0.19-0.14,0.37-0.2,0.52-0.2c0.02,0,0.03,0,0.05,0c0.09,0.01,0.28,0.08,0.58,0.51
		c0.26,0.37,0.46,0.75,0.57,1.13c0.11,0.38,0.15,0.75,0.11,1.11c-0.04,0.36-0.17,0.72-0.37,1.05c-0.2,0.34-0.51,0.65-0.91,0.94
		c-0.48,0.34-0.93,0.55-1.32,0.62s-0.76,0.05-1.11-0.08c-0.35-0.13-0.68-0.34-0.99-0.64c-0.32-0.31-0.63-0.67-0.93-1.08
		c-0.15-0.21-0.2-0.33-0.22-0.39C195.7,49.65,195.72,49.62,195.73,49.61 M189.16,51.32c-0.16-0.01-0.31-0.03-0.44-0.09
		c-0.15-0.07-0.28-0.16-0.4-0.28c-0.13-0.13-0.25-0.25-0.37-0.36c-0.12-0.12-0.23-0.22-0.32-0.29c-0.15-0.11-0.32-0.12-0.47-0.02
		c-0.15,0.11-0.31,0.24-0.3,0.42c0.01,0.1,0.06,0.22,0.19,0.4c0.24,0.33,0.49,0.65,0.75,0.95c0.26,0.29,0.5,0.6,0.73,0.92
		c0.26,0.36,0.5,0.75,0.73,1.14c0.24,0.41,0.49,0.81,0.77,1.19c0.16,0.23,0.3,0.38,0.42,0.48c0.1,0.08,0.31,0.18,0.61-0.03
		c0.15-0.11,0.21-0.27,0.15-0.44c-0.04-0.1-0.09-0.21-0.16-0.31c-0.03-0.04-0.04-0.06-0.04-0.06h0l-0.01-0.05
		c-0.11-0.24-0.22-0.46-0.32-0.65c-0.09-0.16-0.14-0.32-0.16-0.46c-0.02-0.13,0.01-0.25,0.07-0.38c0.07-0.14,0.24-0.3,0.48-0.48
		l3.25-2.32c0.31-0.22,0.44-0.25,0.46-0.26c0,0,0.07,0.01,0.23,0.21c0.25,0.35,0.37,0.69,0.36,1.04c0,0.37-0.08,0.75-0.22,1.13
		c-0.15,0.39-0.34,0.79-0.58,1.18c-0.25,0.41-0.48,0.83-0.68,1.24c-0.61,0.92-0.99,1.91-1.12,2.95c-0.14,1.04,0.04,2.1,0.54,3.14
		c0.04,0.08,0.1,0.18,0.16,0.3c0.07,0.12,0.14,0.23,0.22,0.35c0.2,0.28,0.37,0.47,0.52,0.57l0.08,0.03
		c0.07,0.01,0.13,0.02,0.19,0.02c0.12,0,0.22-0.03,0.29-0.08c0.08-0.06,0.25-0.23,0.12-0.55c-0.06-0.13-0.1-0.26-0.14-0.44
		c-0.21-0.48-0.28-0.98-0.23-1.49c0.06-0.54,0.19-1.08,0.38-1.62c0.2-0.55,0.45-1.09,0.73-1.62c0.29-0.54,0.56-1.05,0.82-1.53
		c0.26-0.48,0.47-0.94,0.63-1.35c0.1-0.27,0.16-0.52,0.17-0.74c0.24,0.12,0.49,0.23,0.76,0.34c0.39,0.15,0.79,0.27,1.2,0.33
		c0.41,0.06,0.83,0.06,1.24-0.01c0.42-0.07,0.81-0.24,1.17-0.49c0.65-0.46,1.1-0.97,1.35-1.52c0.24-0.54,0.36-1.09,0.35-1.64
		c-0.01-0.54-0.12-1.06-0.33-1.54c-0.2-0.47-0.43-0.9-0.69-1.25c-0.29-0.4-0.58-0.8-0.89-1.19c-0.3-0.39-0.6-0.79-0.88-1.18
		l-0.98-1.37c-0.08-0.11-0.15-0.23-0.23-0.35c-0.08-0.13-0.16-0.26-0.25-0.38c-0.09-0.13-0.2-0.24-0.31-0.34
		c-0.08-0.07-0.31-0.21-0.62,0.01c-0.16,0.11-0.22,0.29-0.17,0.47c0.03,0.12,0.1,0.27,0.19,0.42c0.08,0.14,0.17,0.29,0.27,0.44
		c0.08,0.14,0.15,0.29,0.19,0.43c0.04,0.13,0.04,0.26-0.01,0.39c-0.04,0.13-0.15,0.25-0.33,0.38c-0.89,0.64-1.79,1.27-2.68,1.88
		c-0.89,0.62-1.79,1.24-2.68,1.89l-3.25,2.32C189.48,51.25,189.31,51.32,189.16,51.32"/>
	<path class="st0" d="M204.77,57.51c0.2,0.01,0.42,0.02,0.66,0.02c0.27,0,0.53,0,0.78-0.01c0.29-0.01,0.38,0.02,0.41,0.03
		c0.31,0.11,0.55,0.25,0.74,0.44c0.18,0.19,0.35,0.41,0.47,0.66l0.55,1.07c0.14,0.26,0.25,0.53,0.33,0.78
		c0.09,0.29,0.05,0.3,0.05,0.3c-0.05,0.04-0.14,0.09-0.28,0.17c-0.15,0.08-0.25,0.14-0.31,0.17l-8.33,4.31
		c-0.31,0.16-0.58,0.28-0.81,0.36c-0.21,0.07-0.39,0.09-0.56,0.06c-0.16-0.02-0.32-0.1-0.47-0.24c-0.17-0.15-0.36-0.38-0.57-0.69
		c-0.01-0.02-0.04-0.06-0.11-0.18c-0.07-0.14-0.16-0.25-0.27-0.35c-0.09-0.08-0.28-0.19-0.57-0.05c-0.31,0.16-0.25,0.42-0.22,0.49
		c0.04,0.11,0.09,0.21,0.14,0.31c0.21,0.41,0.44,0.82,0.69,1.22c0.24,0.39,0.46,0.79,0.67,1.2c0.23,0.44,0.45,0.91,0.66,1.38
		c0.2,0.46,0.43,0.93,0.67,1.4c0.08,0.16,0.15,0.28,0.21,0.36c0.05,0.06,0.13,0.13,0.26,0.13c0.09,0,0.2-0.03,0.34-0.1
		c0.11-0.06,0.34-0.23,0.18-0.67l-0.28-0.72c-0.09-0.24-0.15-0.5-0.16-0.77c-0.01-0.22,0.11-0.42,0.35-0.61
		c0.16-0.12,0.32-0.23,0.5-0.33c0.18-0.1,0.36-0.2,0.54-0.29c1.02-0.5,2.04-1.03,3.04-1.58c0.98-0.54,1.99-1.07,3.02-1.57l2.12-1.05
		c0.25-0.13,0.44-0.22,0.58-0.25c0.16-0.04,0.21-0.03,0.23-0.03c0.03,0.01,0.04,0.02,0.05,0.04c0.03,0.08,0.07,0.16,0.11,0.24
		c0.05,0.09,0.11,0.21,0.19,0.35c0.07,0.13,0.16,0.28,0.25,0.45c0.12,0.23,0.23,0.47,0.35,0.73c0.11,0.26,0.21,0.52,0.29,0.76
		c0.07,0.23,0.11,0.44,0.11,0.63c0,0.17-0.04,0.3-0.12,0.38c-0.12,0.14-0.26,0.24-0.44,0.32c-0.2,0.09-0.38,0.17-0.56,0.24
		c-0.2,0.07-0.35,0.16-0.46,0.25c-0.08,0.06-0.25,0.25-0.09,0.56c0.09,0.18,0.3,0.37,0.78,0.28c0.3-0.06,0.64-0.16,1.02-0.3
		c0.37-0.14,0.74-0.29,1.12-0.45c0.36-0.15,0.66-0.24,0.9-0.27h0c0.19-0.03,0.37-0.12,0.52-0.28c0.1-0.11,0.25-0.35,0.06-0.71
		c-0.04-0.08-0.14-0.19-0.35-0.2c-0.09-0.01-0.2-0.02-0.32-0.04c-0.11-0.02-0.23-0.05-0.34-0.09c-0.09-0.04-0.18-0.1-0.25-0.2
		c-0.11-0.15-0.21-0.32-0.31-0.48c-0.09-0.17-0.19-0.35-0.28-0.52c-0.29-0.55-0.57-1.08-0.84-1.59c-0.28-0.5-0.56-1.03-0.84-1.58
		c-0.36-0.69-0.71-1.4-1.07-2.13c-0.36-0.73-0.69-1.45-1.02-2.15c-0.06-0.14-0.09-0.27-0.07-0.37c0.02-0.11,0.04-0.21,0.08-0.29
		c0.04-0.09,0.08-0.17,0.12-0.24c0.08-0.16,0.05-0.29,0.01-0.37c-0.1-0.19-0.23-0.32-0.4-0.38c-0.15-0.05-0.3-0.07-0.47-0.04
		c-0.15,0.02-0.31,0.07-0.47,0.14c-0.14,0.06-0.28,0.11-0.42,0.17c-0.62,0.25-1.11,0.41-1.47,0.49c-0.39,0.08-0.69,0.17-0.91,0.29
		c-0.18,0.09-0.29,0.21-0.31,0.35c-0.03,0.12,0,0.27,0.08,0.42C204.33,57.46,204.51,57.49,204.77,57.51"/>
	<path class="st0" d="M214.4,73.22c-0.16,0.11-0.34,0.2-0.55,0.27c-0.22,0.07-0.41,0.14-0.58,0.2c-1.02,0.33-2.07,0.65-3.11,0.95
		c-1,0.29-2.05,0.61-3.12,0.96l-0.68,0.22c-0.11,0.04-0.22,0.08-0.34,0.12c-0.11,0.05-0.22,0.09-0.33,0.14
		c-0.72,0.31-1.28,0.7-1.67,1.15c-0.4,0.45-0.67,0.97-0.82,1.53c-0.15,0.55-0.19,1.15-0.12,1.78c0.07,0.61,0.2,1.25,0.4,1.88
		c0.17,0.53,0.39,1.07,0.65,1.61c0.26,0.54,0.58,1.05,0.96,1.51c0.44,0.54,0.95,0.91,1.52,1.11c0.52,0.18,1.07,0.27,1.64,0.27
		c0.03,0,0.07,0,0.1,0c0.6-0.01,1.21-0.1,1.82-0.26c0.6-0.16,1.18-0.33,1.73-0.5c0.33-0.11,0.66-0.22,1-0.33
		c0.33-0.11,0.66-0.22,0.99-0.33c0.37-0.12,0.8-0.26,1.29-0.42c0.49-0.16,0.96-0.31,1.42-0.45c0.44-0.13,0.84-0.24,1.19-0.31
		c0.38-0.07,0.47-0.04,0.48-0.04c0.01,0.01,0.06,0.06,0.16,0.27c0.08,0.17,0.18,0.35,0.29,0.54c0.11,0.19,0.24,0.36,0.37,0.5
		c0.22,0.22,0.44,0.22,0.58,0.17c0.12-0.04,0.32-0.16,0.33-0.52v-0.03L220,85.15c-0.11-0.33-0.23-0.67-0.35-1
		c-0.12-0.32-0.24-0.65-0.34-0.98c-0.1-0.32-0.19-0.65-0.27-0.97c-0.08-0.34-0.17-0.67-0.28-1c-0.04-0.12-0.09-0.22-0.15-0.31
		c-0.05-0.07-0.19-0.23-0.48-0.13c-0.3,0.09-0.4,0.29-0.43,0.43c-0.04,0.16-0.04,0.34-0.02,0.54c0.02,0.18,0.05,0.36,0.08,0.54
		c0.02,0.14,0.01,0.27-0.04,0.37c-0.03,0.07-0.12,0.18-0.38,0.3c-0.24,0.12-0.53,0.23-0.85,0.33c-0.33,0.1-0.67,0.21-1.03,0.31
		c-0.36,0.1-0.69,0.2-0.97,0.29l-3.95,1.27c-0.36,0.11-0.72,0.19-1.08,0.22c-0.65,0.09-1.21,0.1-1.68,0.04
		c-0.46-0.06-0.87-0.19-1.21-0.41c-0.34-0.21-0.64-0.51-0.88-0.9c-0.25-0.4-0.48-0.91-0.67-1.52c-0.16-0.51-0.26-1-0.29-1.45
		c-0.02-0.43,0.05-0.84,0.22-1.21c0.17-0.38,0.46-0.73,0.87-1.06c0.41-0.33,0.99-0.65,1.72-0.93c0.37-0.15,0.74-0.29,1.12-0.41
		c0.38-0.13,0.76-0.25,1.14-0.37l3.4-1.09c0.18-0.06,0.38-0.12,0.59-0.18c0.21-0.06,0.41-0.11,0.61-0.15
		c0.2-0.05,0.38-0.08,0.55-0.11c0.15-0.02,0.27-0.03,0.35-0.02c0.17,0.02,0.29,0.09,0.39,0.23c0.12,0.18,0.24,0.37,0.33,0.55
		c0.11,0.2,0.21,0.39,0.32,0.54c0.15,0.22,0.38,0.3,0.63,0.22c0.22-0.07,0.34-0.26,0.3-0.51c-0.03-0.17-0.06-0.31-0.09-0.41
		c-0.14-0.44-0.3-0.86-0.47-1.26c-0.17-0.39-0.32-0.81-0.45-1.23c-0.12-0.38-0.23-0.77-0.31-1.17c-0.09-0.4-0.2-0.81-0.32-1.21
		c-0.06-0.18-0.15-0.3-0.28-0.36c-0.12-0.06-0.27-0.07-0.43-0.02c-0.15,0.05-0.25,0.15-0.29,0.29c-0.04,0.11-0.05,0.23-0.03,0.35
		c0.01,0.11,0.03,0.21,0.06,0.31c0.02,0.1,0.05,0.18,0.07,0.25l0.06,0.2c0.06,0.2,0.06,0.35-0.01,0.48
		C214.66,73,214.55,73.12,214.4,73.22"/>
	<path class="st0" d="M5.77,129.58c0.62-0.04,1.22-0.08,1.79-0.15c0.35-0.04,0.69-0.08,1.04-0.12c0.35-0.04,0.69-0.08,1.04-0.12
		c0.39-0.04,0.83-0.09,1.35-0.16c0.51-0.06,1-0.11,1.48-0.16c0.47-0.05,0.89-0.07,1.23-0.07c0.45,0,0.47,0.05,0.47,0.05
		c0.01,0.01,0.05,0.08,0.1,0.3c0.05,0.19,0.1,0.39,0.17,0.59c0.07,0.21,0.16,0.41,0.26,0.56c0.14,0.23,0.33,0.29,0.47,0.29
		c0.02,0,0.04,0,0.06,0c0.12-0.01,0.34-0.09,0.43-0.45l0.01-0.03l0-0.04c-0.04-0.35-0.08-0.7-0.14-1.05
		c-0.06-0.34-0.1-0.68-0.14-1.03c-0.04-0.33-0.06-0.66-0.07-1c-0.01-0.35-0.04-0.69-0.07-1.03c-0.01-0.12-0.04-0.23-0.08-0.34
		c-0.03-0.08-0.16-0.25-0.45-0.23c-0.31,0.04-0.45,0.2-0.51,0.34c-0.07,0.15-0.11,0.32-0.12,0.52c-0.01,0.18-0.02,0.36-0.03,0.55
		c-0.01,0.15-0.04,0.26-0.11,0.36c-0.04,0.05-0.14,0.14-0.43,0.21c-0.26,0.07-0.57,0.12-0.9,0.16c-0.34,0.04-0.7,0.07-1.07,0.1
		c-0.38,0.03-0.71,0.06-1.01,0.09l-4.13,0.44c-0.37,0.04-0.74,0.04-1.1,0.01c-0.65-0.04-1.2-0.14-1.65-0.29
		c-0.44-0.15-0.81-0.37-1.11-0.64c-0.29-0.28-0.53-0.63-0.69-1.06c-0.17-0.44-0.29-0.98-0.35-1.62c-0.06-0.54-0.06-1.03,0.01-1.47
		c0.06-0.43,0.21-0.82,0.46-1.15c0.24-0.33,0.6-0.62,1.06-0.86c0.47-0.24,1.1-0.44,1.87-0.57c0.39-0.07,0.79-0.13,1.18-0.18
		c0.4-0.05,0.8-0.1,1.19-0.14l3.55-0.38c0.19-0.02,0.39-0.04,0.61-0.06c0.21-0.02,0.42-0.03,0.63-0.03c0.2,0,0.39,0,0.56,0.01
		c0.19,0.01,0.29,0.03,0.35,0.05c0.16,0.05,0.27,0.15,0.33,0.3c0.08,0.2,0.16,0.41,0.22,0.61c0.06,0.22,0.13,0.42,0.2,0.59
		c0.1,0.25,0.31,0.37,0.57,0.34c0.23-0.02,0.38-0.19,0.4-0.44c0.01-0.17,0.01-0.31,0-0.42c-0.05-0.45-0.12-0.9-0.2-1.33
		c-0.09-0.43-0.15-0.86-0.2-1.3c-0.05-0.41-0.07-0.82-0.07-1.21c-0.01-0.42-0.03-0.83-0.08-1.25c-0.04-0.36-0.27-0.56-0.62-0.52
		c-0.15,0.02-0.27,0.09-0.35,0.22c-0.06,0.1-0.09,0.22-0.1,0.34c-0.01,0.11-0.01,0.21-0.01,0.32c0,0.1,0.01,0.19,0.02,0.26
		l0.02,0.21c0.02,0.2-0.01,0.36-0.1,0.47c-0.11,0.13-0.24,0.22-0.41,0.29c-0.18,0.07-0.37,0.12-0.59,0.15
		c-0.23,0.03-0.43,0.06-0.61,0.08c-1.09,0.12-2.18,0.22-3.24,0.31c-1.06,0.09-2.16,0.19-3.25,0.31L4.2,118.2
		c-0.12,0.01-0.24,0.03-0.36,0.05c-0.12,0.02-0.24,0.04-0.35,0.07c-0.76,0.16-1.39,0.43-1.87,0.8c-0.48,0.36-0.85,0.81-1.11,1.33
		c-0.26,0.51-0.42,1.09-0.48,1.72c-0.06,0.62-0.05,1.27,0.02,1.93c0.06,0.57,0.17,1.14,0.31,1.71c0.15,0.58,0.36,1.14,0.63,1.67
		c0.33,0.62,0.75,1.09,1.27,1.39c0.5,0.3,1.06,0.5,1.66,0.61C4.52,129.58,5.14,129.62,5.77,129.58"/>
	<path class="st0" d="M12.69,149.07l3.84-1.17c0.13-0.04,0.31-0.09,0.58-0.16c0.26-0.07,0.53-0.14,0.81-0.21
		c0.28-0.06,0.54-0.11,0.8-0.13c0.29-0.03,0.43-0.01,0.49,0.02c0.09,0.04,0.17,0.12,0.24,0.27c0.09,0.19,0.17,0.37,0.25,0.56
		c0.08,0.2,0.17,0.38,0.27,0.53c0.14,0.21,0.35,0.29,0.57,0.22c0.18-0.05,0.26-0.16,0.31-0.23c0.07-0.13,0.08-0.31,0.02-0.51
		c-0.1-0.32-0.21-0.65-0.33-0.97c-0.12-0.32-0.22-0.64-0.32-0.96c-0.12-0.39-0.23-0.79-0.32-1.19c-0.1-0.41-0.2-0.81-0.33-1.21
		c-0.04-0.13-0.1-0.24-0.19-0.33c-0.07-0.07-0.23-0.19-0.49-0.11c-0.29,0.09-0.43,0.32-0.37,0.63c0.04,0.21,0.09,0.46,0.17,0.72
		c0.06,0.24,0.1,0.47,0.1,0.71c0,0.11-0.03,0.28-0.28,0.42c-0.14,0.08-0.28,0.15-0.43,0.2c-0.16,0.06-0.32,0.11-0.49,0.16
		c-0.97,0.29-1.93,0.59-2.89,0.89c-0.96,0.3-1.93,0.59-2.9,0.87l-2.25,0.68c-0.08,0.03-0.13,0.04-0.17,0.04
		c0.88-1.34,1.64-2.52,2.3-3.54c0.68-1.05,1.28-2,1.81-2.84c0.53-0.84,1.02-1.61,1.47-2.31c0.44-0.7,0.89-1.38,1.34-2.07
		c0.15-0.29,0.28-0.52,0.4-0.69c0.13-0.18,0.23-0.34,0.31-0.48c0.09-0.16,0.15-0.32,0.17-0.48c0.03-0.17,0-0.37-0.08-0.62
		c-0.07-0.21-0.13-0.42-0.21-0.61c-0.07-0.18-0.14-0.38-0.2-0.59c-0.08-0.27-0.15-0.53-0.22-0.79c-0.07-0.27-0.14-0.54-0.23-0.81
		c-0.03-0.11-0.11-0.23-0.23-0.37c-0.2-0.22-0.41-0.2-0.52-0.17c-0.17,0.05-0.28,0.18-0.31,0.37c-0.02,0.13-0.02,0.28,0,0.44
		c0.02,0.15,0.05,0.3,0.08,0.45c0.03,0.13,0.05,0.23,0.06,0.3c0.03,0.27,0.03,0.5-0.01,0.66c-0.04,0.16-0.11,0.3-0.2,0.41
		c-0.09,0.1-0.21,0.19-0.35,0.25c-0.16,0.07-0.34,0.13-0.54,0.19c-1.46,0.44-2.94,0.88-4.4,1.29l-4.41,1.26
		c-0.17,0.05-0.35,0.1-0.53,0.14c-0.17,0.04-0.34,0.06-0.5,0.05c-0.15-0.01-0.28-0.04-0.4-0.11c-0.11-0.06-0.21-0.18-0.29-0.34
		c-0.04-0.09-0.09-0.21-0.14-0.35c-0.06-0.15-0.11-0.3-0.17-0.43c-0.07-0.15-0.15-0.27-0.24-0.37c-0.13-0.13-0.3-0.16-0.47-0.11
		c-0.22,0.06-0.34,0.23-0.34,0.46c0,0.16,0.02,0.3,0.06,0.41c0.13,0.42,0.27,0.84,0.42,1.24c0.15,0.39,0.28,0.8,0.41,1.2
		c0.1,0.35,0.2,0.71,0.29,1.07c0.08,0.37,0.18,0.74,0.29,1.1c0.02,0.08,0.07,0.17,0.13,0.25c0.1,0.13,0.25,0.19,0.4,0.14
		c0.18-0.06,0.31-0.18,0.37-0.35c0.05-0.14,0.07-0.27,0.06-0.41c-0.03-0.38-0.08-0.69-0.14-0.95c-0.05-0.21-0.06-0.4-0.02-0.55
		c0.03-0.13,0.15-0.26,0.34-0.39c0.22-0.14,0.61-0.3,1.16-0.47c0.97-0.3,1.82-0.56,2.55-0.8c0.73-0.23,1.41-0.45,2.04-0.65
		c0.63-0.2,1.24-0.39,1.82-0.58c0.58-0.19,1.21-0.39,1.87-0.59c0.09-0.03,0.18-0.05,0.26-0.07c-0.11,0.21-0.23,0.41-0.37,0.6
		c-0.22,0.3-0.43,0.6-0.62,0.9l-2.27,3.55c-0.61,0.96-1.12,1.76-1.52,2.4c-0.4,0.64-0.71,1.13-0.94,1.48
		c-0.23,0.35-0.39,0.61-0.5,0.78l-0.07,0.12c-0.06,0.1-0.1,0.16-0.12,0.19c-0.03,0.05-0.05,0.08-0.05,0.08
		c-0.33,0.48-0.65,0.96-0.96,1.44c-0.31,0.48-0.63,0.96-0.93,1.44c-0.04,0.05-0.08,0.12-0.14,0.2c-0.05,0.08-0.1,0.16-0.15,0.23
		c-0.05,0.09-0.09,0.18-0.12,0.26c-0.04,0.13-0.03,0.25,0.02,0.34c0.09,0.19,0.26,0.3,0.46,0.3c0.04,0,0.09,0,0.13-0.01
		c0.19-0.04,0.39-0.09,0.61-0.16c1.22-0.37,2.29-0.69,3.19-0.96C11.16,149.53,11.97,149.29,12.69,149.07"/>
	<path class="st0" d="M19.84,156.72c0.74-0.33,1.47-0.66,2.21-1.01c0.2-0.1,0.38-0.18,0.54-0.23c0.12-0.05,0.23-0.06,0.34-0.04
		c0.1,0.02,0.2,0.09,0.31,0.21c0.12,0.14,0.25,0.36,0.39,0.66c0.09,0.18,0.18,0.33,0.29,0.45c0.09,0.1,0.29,0.25,0.61,0.09h0
		c0.06-0.03,0.11-0.08,0.18-0.15c0.07-0.07,0.11-0.14,0.13-0.19l0.03-0.07l-0.76-1.59c-0.08-0.17-0.17-0.34-0.28-0.52
		c-0.09-0.16-0.18-0.32-0.26-0.48c-0.16-0.33-0.3-0.68-0.43-1.03c-0.13-0.36-0.28-0.72-0.44-1.06l-0.09-0.19
		c-0.05-0.1-0.11-0.21-0.19-0.32c-0.13-0.18-0.32-0.23-0.52-0.14c-0.31,0.15-0.35,0.38-0.35,0.5c0.01,0.16,0.05,0.33,0.12,0.51
		c0.06,0.17,0.12,0.34,0.17,0.52c0.05,0.15,0.04,0.3-0.01,0.43c-0.03,0.05-0.11,0.15-0.35,0.32c-0.21,0.14-0.41,0.26-0.6,0.35
		l-0.33,0.16c-0.29,0.14-0.58,0.27-0.88,0.41c-0.3,0.13-0.6,0.27-0.9,0.42l-6.51,3.06c-0.21,0.1-0.45,0.19-0.69,0.28
		c-0.2,0.07-0.36,0.07-0.47,0.02c-0.13-0.06-0.25-0.15-0.35-0.28c-0.12-0.15-0.23-0.3-0.34-0.44c-0.11-0.15-0.21-0.28-0.32-0.39
		c-0.21-0.21-0.42-0.16-0.52-0.11c-0.29,0.14-0.31,0.37-0.3,0.49c0.01,0.15,0.05,0.3,0.12,0.44l0.12,0.24
		c0.17,0.36,0.34,0.68,0.52,0.94c0.17,0.25,0.33,0.55,0.5,0.89c0.15,0.32,0.28,0.65,0.4,0.99c0.12,0.34,0.26,0.69,0.42,1.03
		c0.08,0.18,0.18,0.36,0.28,0.52c0.1,0.16,0.25,0.25,0.41,0.25c0.08,0,0.16-0.02,0.24-0.06c0.09-0.04,0.29-0.17,0.23-0.5
		c-0.03-0.15-0.06-0.32-0.12-0.51c-0.05-0.18-0.1-0.37-0.15-0.56c-0.04-0.17-0.05-0.31-0.01-0.42c0.05-0.16,0.16-0.29,0.34-0.41
		c0.21-0.13,0.41-0.24,0.59-0.33l4.47-2.11C18.37,157.38,19.11,157.04,19.84,156.72"/>
	<path class="st0" d="M27.68,171.6c0.74-0.13,1.48-0.27,2.19-0.42c0.1-0.02,0.25-0.05,0.45-0.09c0.19-0.04,0.39-0.08,0.6-0.11
		l0.58-0.1c0.17-0.03,0.28-0.04,0.34-0.05c0.16,0.01,0.3,0.05,0.4,0.13c0.13,0.1,0.25,0.2,0.35,0.31c0.12,0.13,0.23,0.23,0.35,0.31
		c0.12,0.07,0.31,0.12,0.57-0.04c0.1-0.06,0.17-0.15,0.22-0.26c0.04-0.09,0.06-0.24-0.05-0.4c-0.17-0.26-0.35-0.5-0.53-0.72
		c-0.18-0.21-0.35-0.44-0.5-0.69c-0.22-0.34-0.43-0.7-0.62-1.08c-0.19-0.39-0.41-0.76-0.64-1.11c-0.08-0.13-0.2-0.21-0.35-0.25
		c-0.15-0.04-0.3-0.01-0.44,0.07c-0.24,0.15-0.31,0.4-0.21,0.68c0.08,0.21,0.18,0.43,0.29,0.66c0.11,0.21,0.19,0.42,0.23,0.62
		c0.02,0.09,0.02,0.21-0.19,0.34c-0.02,0.01-0.12,0.07-0.7,0.22c-0.42,0.11-0.94,0.25-1.56,0.39c-0.61,0.14-1.28,0.3-2,0.46
		c-0.71,0.17-1.4,0.31-2.05,0.45l-1.74,0.36c-0.51,0.11-0.86,0.18-1.06,0.21l-0.15,0.02c-0.07,0.01-0.14,0.02-0.22,0.02
		c-0.04,0.01-0.06,0-0.08,0c0.04-0.09,0.13-0.26,0.35-0.59c0.26-0.4,0.59-0.88,0.98-1.44c0.39-0.56,0.82-1.17,1.28-1.81
		c0.47-0.65,0.91-1.26,1.33-1.84c0.42-0.58,0.8-1.1,1.13-1.54c0.33-0.45,0.56-0.75,0.69-0.91c0.02-0.03,0.05-0.06,0.08-0.09
		c0.02-0.02,0.04-0.04,0.06-0.05c0.12-0.07,0.19-0.06,0.25,0c0.14,0.11,0.27,0.25,0.39,0.42c0.14,0.18,0.27,0.35,0.39,0.49
		c0.18,0.21,0.41,0.26,0.61,0.13c0.14-0.09,0.23-0.23,0.26-0.41c0.02-0.17-0.02-0.32-0.1-0.45c-0.25-0.39-0.52-0.76-0.79-1.11
		c-0.27-0.35-0.53-0.72-0.77-1.09c-0.17-0.25-0.31-0.52-0.45-0.79c-0.14-0.29-0.3-0.57-0.47-0.83l-0.12-0.18
		c-0.08-0.12-0.19-0.24-0.31-0.34c-0.17-0.14-0.37-0.16-0.54-0.05c-0.21,0.14-0.29,0.35-0.22,0.58c0.05,0.16,0.11,0.34,0.2,0.54
		c0.07,0.19,0.14,0.39,0.19,0.59c0.04,0.17,0,0.35-0.11,0.54c-0.79,1.29-1.63,2.55-2.5,3.74c-0.88,1.2-1.76,2.41-2.63,3.62
		c-0.45,0.65-0.92,1.31-1.39,1.99c-0.47,0.67-0.93,1.33-1.39,1.98c-0.05,0.07-0.09,0.16-0.13,0.25c-0.05,0.14-0.04,0.28,0.05,0.41
		c0.09,0.14,0.2,0.21,0.32,0.22h0.02c0.07,0,0.15-0.01,0.22-0.03c1.25-0.24,2.48-0.48,3.71-0.74c1.22-0.25,2.46-0.5,3.7-0.74
		C26.22,171.86,26.95,171.73,27.68,171.6"/>
	<path class="st0" d="M34.92,184.6c-0.01,0.03-0.04,0.09-0.14,0.22c-0.09,0.12-0.19,0.24-0.28,0.37c-0.1,0.14-0.17,0.26-0.23,0.39
		c-0.11,0.25-0.02,0.41,0.05,0.48c0.13,0.14,0.26,0.15,0.36,0.16c0.11-0.01,0.21-0.05,0.31-0.12c0.09-0.06,0.17-0.13,0.25-0.21
		c0.06-0.07,0.12-0.12,0.16-0.16c0.2-0.18,0.4-0.37,0.59-0.56c0.19-0.18,0.38-0.37,0.58-0.55c0.2-0.18,0.4-0.35,0.61-0.53
		c0.21-0.18,0.42-0.35,0.62-0.54c0.11-0.1,0.21-0.2,0.31-0.3c0.15-0.17,0.15-0.38-0.01-0.56c-0.15-0.16-0.3-0.17-0.4-0.15
		c-0.09,0.02-0.18,0.03-0.27,0.06l-0.07,0.04c-0.27,0.21-0.54,0.34-0.81,0.38c-0.25,0.04-0.5-0.04-0.77-0.25
		c-0.27-0.22-0.52-0.46-0.76-0.71c-0.24-0.26-0.48-0.52-0.72-0.78c-0.05-0.06-0.13-0.13-0.21-0.22c-0.08-0.08-0.15-0.16-0.23-0.25
		c-0.07-0.08-0.13-0.17-0.17-0.26c-0.02-0.04-0.03-0.07-0.04-0.1c0.05-0.07,0.12-0.14,0.22-0.23l0.33-0.3
		c0.32-0.29,0.65-0.59,0.97-0.89c0.32-0.3,0.64-0.6,0.97-0.89c0.16-0.14,0.33-0.29,0.51-0.44c0.17-0.14,0.35-0.24,0.52-0.31
		c0.16-0.06,0.31-0.08,0.47-0.06c0.15,0.03,0.31,0.13,0.48,0.32l0.57,0.63c0.17,0.19,0.35,0.4,0.54,0.61
		c0.19,0.22,0.36,0.43,0.52,0.65c0.16,0.21,0.3,0.42,0.4,0.6c0.1,0.17,0.17,0.32,0.19,0.43c0.04,0.17,0.02,0.33-0.06,0.51
		c-0.09,0.21-0.19,0.41-0.3,0.61c-0.11,0.2-0.2,0.4-0.28,0.57c-0.12,0.3-0.03,0.49,0.06,0.59l0.02,0.02
		c0.15,0.13,0.37,0.11,0.64-0.07c0.19-0.13,0.39-0.29,0.59-0.47c0.17-0.15,0.31-0.28,0.44-0.38c0.13-0.11,0.23-0.2,0.32-0.28
		c0.17-0.15,0.33-0.34,0.51-0.57c0.06-0.09,0.13-0.27-0.02-0.52c-0.08-0.13-0.18-0.26-0.28-0.37l-0.14-0.16
		c-0.6-0.66-1.19-1.31-1.79-1.93c-0.59-0.62-1.18-1.27-1.78-1.93c-0.3-0.33-0.59-0.67-0.87-1.01c-0.28-0.34-0.57-0.67-0.87-1
		c-0.08-0.08-0.17-0.19-0.27-0.32c-0.12-0.14-0.23-0.26-0.36-0.36c-0.13-0.11-0.25-0.19-0.37-0.25c-0.18-0.08-0.36-0.06-0.5,0.07
		c-0.19,0.18-0.21,0.42-0.05,0.67c0.11,0.17,0.24,0.36,0.39,0.57c0.13,0.19,0.23,0.39,0.28,0.6c0.04,0.16-0.03,0.34-0.23,0.55
		c-0.03,0.05-0.07,0.08-0.09,0.11l-0.39,0.35c-0.78,0.7-1.55,1.41-2.3,2.11c-0.76,0.7-1.53,1.4-2.3,2.1
		c-0.24,0.22-0.52,0.48-0.83,0.78c-0.31,0.3-0.63,0.59-0.94,0.87c-0.3,0.28-0.6,0.51-0.87,0.71c-0.32,0.23-0.52,0.3-0.62,0.31
		c-0.17,0.02-0.33-0.01-0.51-0.1c-0.2-0.1-0.39-0.22-0.57-0.35c-0.2-0.14-0.37-0.25-0.52-0.34c-0.3-0.17-0.48-0.07-0.56,0
		c-0.32,0.29-0.17,0.55-0.11,0.63c0.09,0.12,0.18,0.23,0.28,0.34c0.13,0.15,0.27,0.29,0.41,0.42c0.13,0.13,0.26,0.26,0.38,0.39
		l6.14,6.79c0.19,0.21,0.4,0.27,0.56,0.27c0.04,0,0.07,0,0.1-0.01l0.07-0.02c0.37-0.21,0.66-0.38,0.89-0.5l0.64-0.36
		c0.19-0.11,0.31-0.17,0.32-0.18c0.03-0.01,0.08-0.03,0.23-0.12c0.08-0.05,0.13-0.08,0.16-0.09c0.14-0.04,0.25-0.12,0.33-0.23
		c0.06-0.08,0.17-0.28-0.07-0.54c-0.12-0.13-0.31-0.17-0.61-0.12c-0.22,0.03-0.48,0.08-0.76,0.15c-0.27,0.06-0.55,0.12-0.83,0.17
		c-0.25,0.04-0.47,0.04-0.66-0.01c-0.1-0.03-0.2-0.08-0.32-0.16c-0.13-0.09-0.27-0.2-0.4-0.31c-0.14-0.12-0.28-0.26-0.43-0.4
		c-0.14-0.14-0.27-0.27-0.38-0.4l-0.4-0.44c-0.08-0.09-0.2-0.23-0.38-0.43c-0.18-0.21-0.36-0.42-0.54-0.64
		c-0.19-0.22-0.35-0.44-0.49-0.65c-0.17-0.24-0.23-0.37-0.24-0.42c-0.03-0.12-0.02-0.23,0.03-0.35c0.06-0.14,0.13-0.27,0.23-0.4
		c0.1-0.13,0.22-0.26,0.33-0.37c0.12-0.12,0.23-0.23,0.34-0.32l2.27-2.05c0.04-0.04,0.11-0.1,0.2-0.2c0.08-0.08,0.18-0.16,0.27-0.23
		c0.1-0.07,0.19-0.13,0.31-0.19c0.04,0.03,0.1,0.07,0.17,0.14c0.08,0.07,0.16,0.15,0.24,0.23l0.24,0.23
		c0.07,0.07,0.13,0.13,0.17,0.17c0.17,0.18,0.36,0.39,0.58,0.62c0.21,0.22,0.39,0.46,0.55,0.69c0.15,0.22,0.25,0.45,0.29,0.67
		c0.04,0.19,0,0.35-0.11,0.51L34.92,184.6z"/>
	<path class="st0" d="M49.77,190.69c-0.11,0.38-0.32,0.76-0.63,1.14c-0.37,0.46-0.75,0.78-1.12,0.95c-0.36,0.17-0.73,0.24-1.09,0.21
		c-0.37-0.03-0.75-0.15-1.13-0.36c-0.39-0.21-0.79-0.48-1.18-0.8c-0.2-0.17-0.28-0.27-0.32-0.32c-0.05-0.07-0.03-0.11-0.03-0.12
		c0.02-0.06,0.07-0.14,0.15-0.22c0.09-0.1,0.2-0.23,0.33-0.39c0.33-0.4,0.7-0.84,1.12-1.33c0.42-0.49,0.8-0.94,1.12-1.34l0.42-0.51
		c0.17-0.2,0.33-0.31,0.5-0.34c0.01,0,0.03,0,0.04,0c0.1,0,0.3,0.06,0.65,0.34c0.35,0.29,0.64,0.61,0.85,0.94
		c0.21,0.34,0.34,0.69,0.4,1.05C49.9,189.93,49.88,190.31,49.77,190.69 M50.93,193.37c0.5-0.61,0.8-1.22,0.9-1.82
		c0.09-0.58,0.06-1.15-0.09-1.67c-0.15-0.52-0.4-0.99-0.72-1.4c-0.32-0.41-0.66-0.75-0.99-1.03c-0.38-0.31-0.77-0.62-1.17-0.92
		c-0.4-0.3-0.78-0.6-1.16-0.91l-1.31-1.07c-0.1-0.08-0.21-0.18-0.31-0.28c-0.11-0.11-0.22-0.21-0.34-0.3
		c-0.12-0.1-0.25-0.18-0.39-0.25c-0.1-0.05-0.35-0.12-0.59,0.17c-0.12,0.15-0.14,0.33-0.05,0.5c0.07,0.11,0.16,0.23,0.29,0.35
		c0.12,0.11,0.24,0.23,0.37,0.36c0.12,0.11,0.22,0.23,0.3,0.37c0.07,0.12,0.1,0.24,0.09,0.37c-0.01,0.13-0.08,0.29-0.22,0.45
		c-0.69,0.85-1.39,1.69-2.09,2.52c-0.7,0.83-1.4,1.67-2.1,2.52l-2.53,3.09c-0.15,0.18-0.29,0.29-0.43,0.33
		c-0.15,0.05-0.3,0.06-0.45,0.03c-0.16-0.03-0.31-0.08-0.45-0.16c-0.16-0.09-0.31-0.17-0.45-0.26c-0.15-0.09-0.28-0.15-0.39-0.2
		c-0.18-0.07-0.35-0.03-0.46,0.1c-0.11,0.14-0.23,0.32-0.18,0.48c0.03,0.1,0.12,0.2,0.29,0.33c0.31,0.26,0.64,0.5,0.97,0.72
		c0.32,0.21,0.64,0.45,0.94,0.7c0.35,0.29,0.69,0.59,1.01,0.91c0.33,0.33,0.68,0.65,1.05,0.95c0.22,0.18,0.39,0.29,0.54,0.35
		c0.12,0.05,0.35,0.09,0.58-0.19c0.12-0.15,0.13-0.32,0.03-0.47c-0.07-0.09-0.15-0.18-0.23-0.25c-0.04-0.03-0.06-0.05-0.06-0.05
		l-0.03-0.04c-0.17-0.21-0.33-0.39-0.47-0.54c-0.13-0.13-0.22-0.27-0.28-0.4c-0.05-0.12-0.06-0.24-0.03-0.39
		c0.02-0.11,0.1-0.29,0.34-0.59l2.53-3.09c0.24-0.29,0.34-0.35,0.38-0.37c0,0,0.07-0.01,0.27,0.15c0.33,0.27,0.54,0.57,0.62,0.91
		c0.09,0.36,0.12,0.74,0.08,1.14c-0.04,0.42-0.12,0.85-0.25,1.29c-0.14,0.47-0.25,0.94-0.34,1.37c-0.35,1.05-0.45,2.1-0.31,3.14
		c0.14,1.04,0.59,2.01,1.34,2.89c0.07,0.07,0.14,0.15,0.24,0.24c0.1,0.09,0.2,0.19,0.3,0.27c0.27,0.22,0.48,0.35,0.65,0.42
		l0.04,0.01l0.05-0.01c0.22-0.02,0.36-0.08,0.45-0.18c0.06-0.08,0.19-0.29-0.03-0.56c-0.09-0.11-0.16-0.23-0.25-0.39
		c-0.32-0.41-0.53-0.87-0.61-1.38c-0.08-0.53-0.1-1.09-0.05-1.66c0.05-0.58,0.14-1.17,0.28-1.76c0.14-0.6,0.27-1.16,0.4-1.69
		c0.13-0.54,0.21-1.04,0.25-1.46c0.03-0.29,0.02-0.54-0.03-0.76c0.26,0.06,0.54,0.1,0.82,0.13c0.42,0.05,0.83,0.05,1.24,0
		c0.42-0.05,0.82-0.16,1.19-0.33C50.32,193.97,50.66,193.71,50.93,193.37"/>
	<path class="st0" d="M61.45,199.99c0.09-0.02,0.19-0.08,0.32-0.22c0.4-0.54,0.77-1.12,1.12-1.7c0.07-0.12,0.16-0.25,0.28-0.4
		c0.12-0.16,0.23-0.32,0.33-0.48c0.1-0.16,0.18-0.31,0.23-0.45c0.11-0.3-0.05-0.44-0.13-0.49c-0.21-0.13-0.42-0.17-0.63-0.1
		c-0.16,0.06-0.3,0.12-0.44,0.21c-0.1,0.06-0.19,0.1-0.26,0.13c0,0-0.03-0.01-0.06-0.08c-0.13-0.25-0.3-0.53-0.52-0.84
		c-0.22-0.31-0.46-0.56-0.72-0.71c-0.51-0.31-1.05-0.54-1.61-0.67c-0.56-0.13-1.11-0.15-1.64-0.07c-0.53,0.08-1.03,0.28-1.5,0.59
		c-0.47,0.31-0.88,0.74-1.22,1.3c-0.38,0.62-0.56,1.25-0.53,1.86c0.04,0.59,0.18,1.19,0.41,1.77c0.24,0.57,0.53,1.13,0.88,1.68
		c0.33,0.54,0.63,1.07,0.87,1.59c0.24,0.51,0.39,1.03,0.45,1.53c0.06,0.48-0.06,0.97-0.35,1.44c-0.2,0.33-0.44,0.59-0.7,0.78
		c-0.26,0.19-0.55,0.32-0.85,0.38c-0.3,0.06-0.62,0.07-0.94,0c-0.32-0.06-0.64-0.19-0.95-0.38c-0.42-0.26-0.76-0.62-1.02-1.09
		c-0.25-0.46-0.35-0.95-0.29-1.46c0.01-0.13,0.04-0.28,0.09-0.44c0.06-0.18,0.11-0.34,0.16-0.5c0.06-0.18,0.09-0.32,0.11-0.46
		c0.03-0.26-0.1-0.39-0.19-0.44c-0.02-0.01-0.04-0.02-0.06-0.05c-0.04-0.05-0.09-0.09-0.15-0.13c-0.08-0.05-0.18-0.07-0.29-0.05
		c-0.11,0.02-0.22,0.09-0.32,0.23c-0.2,0.28-0.37,0.53-0.52,0.76c-0.15,0.23-0.31,0.49-0.49,0.77c-0.07,0.12-0.17,0.27-0.31,0.45
		c-0.14,0.19-0.27,0.38-0.39,0.57c-0.12,0.2-0.22,0.37-0.28,0.54c-0.14,0.33,0,0.47,0.1,0.53c0.21,0.13,0.39,0.17,0.57,0.14
		c0.14-0.03,0.27-0.08,0.4-0.14c0.1-0.06,0.2-0.1,0.3-0.13c0.06-0.02,0.14,0.02,0.2,0.05c0.1,0.06,0.19,0.15,0.28,0.27
		c0.1,0.14,0.22,0.29,0.34,0.45c0.12,0.16,0.26,0.33,0.42,0.5c0.16,0.18,0.35,0.34,0.58,0.48c0.59,0.35,1.19,0.6,1.79,0.74
		c0.35,0.08,0.7,0.12,1.04,0.12c0.24,0,0.48-0.02,0.71-0.06c0.56-0.1,1.1-0.33,1.59-0.68c0.49-0.35,0.93-0.84,1.32-1.47
		c0.35-0.59,0.55-1.24,0.6-1.92c0.05-0.68-0.07-1.34-0.36-1.97c-0.23-0.48-0.52-1-0.87-1.53c-0.34-0.52-0.65-1.05-0.92-1.59
		c-0.27-0.52-0.44-1.04-0.53-1.56c-0.08-0.49,0.01-0.93,0.27-1.36c0.17-0.27,0.37-0.49,0.6-0.65c0.24-0.16,0.49-0.26,0.75-0.3
		c0.27-0.04,0.55-0.03,0.84,0.03c0.29,0.07,0.57,0.18,0.84,0.35c0.32,0.19,0.57,0.5,0.75,0.9c0.18,0.41,0.24,0.86,0.16,1.37
		c0,0.13-0.03,0.27-0.08,0.42c-0.06,0.17-0.11,0.34-0.17,0.49c-0.06,0.17-0.09,0.32-0.11,0.46c-0.04,0.27,0.09,0.39,0.16,0.44
		c0.01,0.01,0.04,0.03,0.07,0.06c0.05,0.05,0.11,0.09,0.16,0.13C61.25,200,61.35,200.02,61.45,199.99"/>
	<path class="st0" d="M72.71,201.46l-1.6-0.76c-0.17-0.08-0.35-0.15-0.54-0.22c-0.18-0.06-0.35-0.13-0.5-0.21
		c-0.33-0.16-0.66-0.33-0.98-0.53c-0.33-0.2-0.67-0.38-1.02-0.55l-0.19-0.09c-0.1-0.05-0.22-0.09-0.35-0.13
		c-0.21-0.06-0.39,0.02-0.49,0.22c-0.15,0.31-0.03,0.52,0.05,0.61c0.1,0.12,0.24,0.22,0.42,0.32c0.15,0.09,0.31,0.18,0.46,0.29
		c0.13,0.09,0.22,0.21,0.26,0.33c0.01,0.06,0.02,0.19-0.07,0.47c-0.07,0.24-0.16,0.46-0.25,0.65l-0.16,0.33
		c-0.14,0.29-0.28,0.58-0.42,0.87c-0.14,0.29-0.29,0.59-0.43,0.89l-3.09,6.5c-0.1,0.21-0.22,0.43-0.36,0.65
		c-0.11,0.18-0.23,0.28-0.35,0.31c-0.13,0.04-0.28,0.04-0.44,0.01c-0.19-0.04-0.37-0.09-0.54-0.13c-0.18-0.05-0.34-0.08-0.49-0.1
		c-0.21-0.03-0.39,0.07-0.47,0.25c-0.14,0.29-0.01,0.48,0.07,0.57c0.11,0.11,0.23,0.2,0.37,0.26l0.25,0.12c0.36,0.17,0.69,0.3,1,0.4
		c0.28,0.09,0.6,0.21,0.95,0.38c0.32,0.15,0.63,0.32,0.94,0.51c0.31,0.19,0.64,0.37,0.97,0.53c0.18,0.09,0.37,0.16,0.55,0.23
		c0.07,0.03,0.13,0.04,0.19,0.04c0.18,0,0.34-0.11,0.44-0.3c0.04-0.09,0.11-0.31-0.14-0.53c-0.12-0.1-0.25-0.2-0.42-0.32
		c-0.15-0.11-0.31-0.22-0.48-0.34c-0.14-0.1-0.23-0.2-0.27-0.31c-0.06-0.15-0.06-0.32,0.01-0.53c0.08-0.24,0.16-0.45,0.25-0.63
		l2.11-4.47c0.35-0.74,0.7-1.46,1.06-2.18c0.36-0.72,0.72-1.44,1.06-2.18c0.1-0.2,0.19-0.38,0.27-0.52
		c0.06-0.11,0.14-0.19,0.24-0.24c0.09-0.05,0.21-0.06,0.37-0.03c0.18,0.03,0.43,0.12,0.72,0.26c0.18,0.08,0.35,0.14,0.51,0.17
		c0.13,0.02,0.37,0.01,0.53-0.32c0.03-0.06,0.04-0.13,0.05-0.23c0-0.1,0-0.17-0.02-0.23L72.71,201.46z"/>
	<path class="st0" d="M85.8,208.19c0.01,0.18-0.02,0.36-0.09,0.54c-0.08,0.2-0.16,0.39-0.23,0.56c-0.08,0.19-0.13,0.36-0.15,0.51
		c-0.01,0.1,0,0.35,0.33,0.46c0.19,0.06,0.47,0.05,0.75-0.35c0.17-0.25,0.34-0.56,0.51-0.93c0.16-0.36,0.32-0.73,0.48-1.1
		c0.15-0.36,0.3-0.64,0.45-0.83c0.12-0.15,0.18-0.34,0.18-0.57c0-0.15-0.07-0.42-0.45-0.55c-0.09-0.03-0.23-0.04-0.39,0.1
		c-0.07,0.06-0.16,0.13-0.26,0.2c-0.1,0.07-0.2,0.12-0.31,0.17c-0.09,0.04-0.2,0.05-0.31,0.04c-0.19-0.04-0.37-0.08-0.56-0.13
		c-0.19-0.06-0.38-0.11-0.56-0.17c-0.59-0.19-1.16-0.37-1.72-0.54c-0.55-0.17-1.12-0.34-1.71-0.53c-0.74-0.24-1.49-0.49-2.26-0.76
		c-0.77-0.27-1.51-0.54-2.23-0.81c-0.15-0.06-0.25-0.13-0.31-0.2c-0.07-0.1-0.12-0.18-0.15-0.26c-0.04-0.1-0.06-0.18-0.09-0.26
		c-0.06-0.17-0.17-0.24-0.25-0.27c-0.21-0.07-0.39-0.06-0.55,0.01c-0.14,0.07-0.26,0.17-0.36,0.3c-0.09,0.12-0.17,0.27-0.24,0.43
		l-0.18,0.42c-0.26,0.61-0.5,1.07-0.7,1.38c-0.22,0.33-0.37,0.61-0.44,0.84c-0.06,0.19-0.05,0.35,0.02,0.47
		c0.07,0.11,0.19,0.19,0.35,0.24c0.14,0.05,0.3-0.05,0.5-0.22c0.16-0.14,0.34-0.3,0.52-0.49c0.18-0.18,0.35-0.35,0.52-0.52
		c0.19-0.19,0.28-0.25,0.31-0.27c0.3-0.14,0.6-0.2,0.83-0.2c0.27,0.01,0.54,0.05,0.8,0.14l1.14,0.37c0.29,0.09,0.55,0.2,0.78,0.32
		c0.21,0.11,0.24,0.18,0.25,0.18c-0.01,0.06-0.04,0.17-0.07,0.32c-0.05,0.17-0.08,0.28-0.1,0.34l-2.9,8.93
		c-0.11,0.34-0.22,0.61-0.32,0.82c-0.1,0.19-0.22,0.34-0.35,0.44c-0.13,0.09-0.3,0.15-0.5,0.16c-0.22,0.02-0.51-0.01-0.89-0.09
		c-0.02,0-0.07-0.01-0.2-0.05c-0.15-0.05-0.3-0.06-0.44-0.06c-0.12,0.01-0.33,0.06-0.43,0.36c-0.11,0.34,0.12,0.47,0.19,0.5
		c0.11,0.05,0.21,0.09,0.32,0.13c0.44,0.14,0.89,0.28,1.35,0.39c0.44,0.11,0.89,0.24,1.32,0.38c0.48,0.16,0.97,0.33,1.44,0.52
		c0.49,0.19,0.98,0.37,1.46,0.53c0.17,0.05,0.3,0.09,0.4,0.1c0.02,0,0.04,0.01,0.06,0.01c0.13,0,0.28-0.08,0.39-0.41
		c0.04-0.11,0.08-0.4-0.34-0.6l-0.7-0.32c-0.24-0.11-0.46-0.26-0.65-0.44c-0.16-0.15-0.22-0.37-0.18-0.68
		c0.02-0.19,0.06-0.39,0.12-0.58c0.06-0.2,0.12-0.39,0.18-0.58c0.38-1.08,0.73-2.18,1.05-3.26c0.32-1.09,0.67-2.18,1.04-3.24
		l0.77-2.24c0.09-0.27,0.17-0.46,0.24-0.58c0.08-0.14,0.13-0.17,0.15-0.18c0.03-0.01,0.04-0.01,0.06,0
		c0.08,0.03,0.16,0.06,0.25,0.09c0.1,0.04,0.23,0.07,0.38,0.12c0.15,0.04,0.31,0.09,0.5,0.15c0.24,0.08,0.5,0.17,0.76,0.28
		c0.26,0.1,0.51,0.22,0.73,0.34c0.21,0.11,0.39,0.24,0.52,0.37C85.73,207.95,85.79,208.07,85.8,208.19"/>
	<path class="st0" d="M94.67,215.07c-0.77-0.13-1.36-0.23-1.79-0.3c-0.44-0.07-0.77-0.12-0.98-0.16l-0.23-0.04l0.73-1.16
		c0.23-0.37,0.44-0.7,0.62-1c0.18-0.3,0.36-0.58,0.54-0.86c0.12-0.18,0.25-0.38,0.4-0.61c0.01,0.04,0.01,0.08,0.02,0.13
		c0.06,0.32,0.12,0.72,0.2,1.18c0.08,0.46,0.17,0.96,0.26,1.5C94.51,214.23,94.59,214.66,94.67,215.07 M99.87,222.59
		c-0.15-0.07-0.33-0.15-0.53-0.22c-0.19-0.07-0.38-0.16-0.56-0.26c-0.15-0.09-0.26-0.24-0.31-0.45c-0.42-1.46-0.81-2.93-1.16-4.38
		c-0.35-1.46-0.68-2.95-0.98-4.41c-0.17-0.78-0.34-1.57-0.52-2.37c-0.18-0.8-0.35-1.59-0.52-2.37c-0.02-0.08-0.05-0.17-0.09-0.26
		c-0.07-0.14-0.18-0.22-0.33-0.24c-0.17-0.03-0.3,0-0.38,0.08c-0.05,0.06-0.1,0.13-0.15,0.2c-0.67,1.08-1.34,2.16-2,3.22
		c-0.67,1.07-1.34,2.14-2.01,3.22l-1.18,1.89c-0.39,0.62-0.78,1.26-1.16,1.89c-0.05,0.08-0.13,0.21-0.24,0.39
		c-0.1,0.17-0.21,0.34-0.32,0.52c-0.12,0.18-0.23,0.34-0.33,0.5c-0.13,0.2-0.18,0.25-0.21,0.28c-0.11,0.13-0.23,0.2-0.35,0.21
		c-0.35,0.05-0.67,0.02-0.9,0.09c-0.13,0.04-0.29,0.15-0.34,0.45c-0.02,0.12,0,0.23,0.05,0.33c0.04,0.09,0.13,0.21,0.33,0.24
		c0.3,0.05,0.58,0.08,0.83,0.09c0.23,0.01,0.49,0.03,0.77,0.08c0.4,0.07,0.8,0.16,1.21,0.28c0.42,0.12,0.84,0.21,1.25,0.28
		c0.15,0.03,0.29,0,0.42-0.09c0.13-0.09,0.22-0.21,0.25-0.37c0.05-0.28-0.09-0.5-0.36-0.62c-0.2-0.08-0.42-0.16-0.68-0.23
		c-0.23-0.06-0.43-0.15-0.61-0.25c-0.08-0.04-0.17-0.13-0.12-0.37c0-0.01,0.02-0.09,0.2-0.46c0.13-0.28,0.31-0.62,0.52-1.03
		c0.21-0.4,0.45-0.84,0.75-1.35c0.26-0.45,0.55-0.92,0.85-1.4c0.15,0,0.31,0.01,0.5,0.03c0.25,0.03,0.5,0.06,0.75,0.11
		c0.27,0.04,0.52,0.09,0.77,0.14c0.25,0.05,0.45,0.09,0.61,0.11l0.36,0.06c0.21,0.04,0.41,0.08,0.61,0.13
		c0.16,0.04,0.26,0.1,0.32,0.18c0,0,0.02,0.03,0.05,0.15c0.03,0.11,0.06,0.24,0.1,0.37c0.09,0.4,0.18,0.79,0.27,1.18l0.06,0.26
		c0.1,0.46,0.19,0.88,0.28,1.26l0.2,0.99c0.06,0.27,0.09,0.47,0.11,0.61c0.01,0.04,0.01,0.08,0.02,0.12c0,0.03,0,0.06,0,0.08
		c-0.03,0.17-0.1,0.19-0.17,0.2c-0.18,0.02-0.37,0.02-0.58-0.01c-0.23-0.02-0.44-0.04-0.63-0.05c-0.38,0-0.49,0.25-0.5,0.36
		c-0.03,0.17,0.01,0.33,0.13,0.47c0.11,0.13,0.24,0.2,0.4,0.23c0.46,0.08,0.91,0.14,1.35,0.17c0.44,0.04,0.89,0.09,1.32,0.17
		c0.3,0.05,0.59,0.12,0.88,0.21c0.3,0.09,0.62,0.17,0.93,0.22l0.21,0.04c0.07,0.01,0.15,0.02,0.23,0.02c0.07,0,0.16-0.01,0.23-0.02
		c0.31-0.05,0.38-0.25,0.4-0.36C100.2,222.9,100.1,222.7,99.87,222.59"/>
	<path class="st0" d="M109.73,216.34c-0.43-0.3-0.94-0.61-1.51-0.91c-0.55-0.29-1.09-0.6-1.58-0.94c-0.49-0.32-0.9-0.69-1.22-1.1
		c-0.31-0.39-0.45-0.82-0.43-1.32c0.01-0.32,0.08-0.61,0.21-0.86c0.13-0.25,0.3-0.47,0.51-0.63c0.21-0.17,0.46-0.3,0.75-0.38
		c0.29-0.09,0.58-0.12,0.9-0.11c0.37,0.01,0.74,0.16,1.09,0.42c0.36,0.26,0.63,0.63,0.81,1.12c0.06,0.11,0.11,0.25,0.14,0.4
		c0.03,0.18,0.06,0.35,0.1,0.51c0.03,0.17,0.08,0.32,0.13,0.46c0.1,0.24,0.25,0.3,0.36,0.3c0.02,0,0.05,0,0.09,0.02
		c0.06,0.02,0.14,0.03,0.2,0.03c0.09,0,0.2-0.03,0.28-0.1c0.07-0.06,0.12-0.17,0.17-0.35c0.08-0.68,0.13-1.36,0.14-2.03
		c0.01-0.14,0.02-0.3,0.05-0.48c0.03-0.2,0.05-0.39,0.05-0.58c0.01-0.19,0-0.36-0.02-0.5c-0.05-0.31-0.26-0.36-0.35-0.36
		c-0.25-0.02-0.45,0.06-0.59,0.22c-0.11,0.13-0.21,0.26-0.28,0.4c-0.06,0.11-0.12,0.19-0.17,0.24c0,0-0.04,0-0.09-0.04
		c-0.23-0.15-0.52-0.31-0.86-0.48c-0.35-0.17-0.68-0.26-0.98-0.27c-0.6-0.02-1.18,0.05-1.73,0.2c-0.55,0.16-1.04,0.41-1.46,0.73
		c-0.42,0.33-0.77,0.75-1.02,1.25c-0.26,0.5-0.4,1.08-0.43,1.72c-0.03,0.73,0.12,1.37,0.45,1.88c0.32,0.5,0.73,0.95,1.22,1.34
		c0.49,0.38,1.02,0.73,1.59,1.04c0.55,0.3,1.07,0.63,1.54,0.96c0.46,0.33,0.84,0.7,1.14,1.11c0.29,0.39,0.42,0.87,0.39,1.43
		c-0.02,0.38-0.09,0.73-0.23,1.02c-0.14,0.29-0.32,0.54-0.56,0.75c-0.23,0.2-0.51,0.36-0.82,0.46c-0.31,0.1-0.65,0.15-1.02,0.13
		c-0.49-0.02-0.97-0.17-1.42-0.45c-0.44-0.28-0.76-0.66-0.96-1.13c-0.06-0.12-0.1-0.26-0.13-0.43c-0.04-0.18-0.07-0.35-0.1-0.51
		c-0.03-0.17-0.08-0.32-0.13-0.45c-0.1-0.24-0.28-0.29-0.37-0.29c-0.02,0-0.05-0.01-0.08-0.02c-0.06-0.02-0.13-0.03-0.2-0.04
		c-0.09,0-0.19,0.03-0.27,0.09c-0.09,0.07-0.14,0.18-0.17,0.36c-0.04,0.34-0.07,0.65-0.09,0.92c-0.02,0.27-0.03,0.58-0.05,0.92
		c-0.01,0.14-0.02,0.32-0.05,0.54c-0.03,0.24-0.05,0.47-0.06,0.69c-0.01,0.23,0,0.43,0.02,0.6c0.04,0.37,0.26,0.42,0.35,0.42
		c0.02,0,0.04,0,0.06,0c0.21,0,0.39-0.05,0.51-0.16c0.11-0.09,0.2-0.2,0.28-0.32c0.06-0.1,0.13-0.18,0.2-0.26
		c0.04-0.04,0.12-0.05,0.19-0.05c0.12,0.01,0.24,0.04,0.38,0.1c0.16,0.07,0.33,0.15,0.52,0.23c0.19,0.08,0.39,0.16,0.6,0.23
		c0.23,0.08,0.48,0.13,0.74,0.14c0.69,0.02,1.34-0.06,1.92-0.23c0.59-0.17,1.11-0.44,1.55-0.8c0.44-0.36,0.8-0.82,1.06-1.37
		c0.26-0.55,0.41-1.2,0.43-1.93c0.01-0.68-0.12-1.35-0.42-1.97C110.71,217.26,110.28,216.74,109.73,216.34"/>
	<path class="st0" d="M135.35,207.94c-0.04-0.39-0.04-0.7,0.01-0.94v0c0.03-0.19,0-0.39-0.11-0.58c-0.07-0.13-0.26-0.34-0.66-0.27
		c-0.09,0.02-0.22,0.08-0.3,0.27c-0.04,0.09-0.08,0.19-0.13,0.3c-0.05,0.1-0.12,0.2-0.19,0.3c-0.07,0.08-0.15,0.14-0.26,0.18
		c-0.18,0.06-0.37,0.11-0.56,0.15c-0.19,0.04-0.38,0.08-0.57,0.11c-0.61,0.11-1.2,0.22-1.77,0.33c-0.56,0.11-1.15,0.22-1.76,0.33
		c-0.76,0.14-1.55,0.27-2.35,0.39c-0.8,0.12-1.59,0.23-2.35,0.33c-0.16,0.02-0.28,0.01-0.37-0.04c-0.1-0.05-0.19-0.1-0.25-0.16
		c-0.07-0.07-0.14-0.13-0.2-0.18c-0.1-0.1-0.23-0.14-0.35-0.12c-0.21,0.04-0.37,0.13-0.48,0.27c-0.09,0.12-0.15,0.27-0.18,0.43
		c-0.03,0.15-0.03,0.32-0.01,0.5l0.04,0.45c0.05,0.66,0.06,1.18,0.03,1.55c-0.04,0.4-0.04,0.71,0,0.95c0.03,0.2,0.12,0.34,0.24,0.4
		c0.11,0.06,0.26,0.08,0.42,0.05c0.16-0.03,0.24-0.18,0.34-0.43c0.08-0.2,0.16-0.43,0.23-0.68c0.07-0.24,0.14-0.48,0.21-0.7
		c0.08-0.27,0.13-0.36,0.14-0.39c0.19-0.26,0.41-0.45,0.64-0.57c0.24-0.12,0.5-0.21,0.78-0.26l1.18-0.21
		c0.29-0.05,0.57-0.08,0.84-0.08h0.02c0.28,0,0.28,0.04,0.28,0.04c0.02,0.06,0.05,0.16,0.08,0.31c0.04,0.17,0.06,0.28,0.07,0.35
		l1.64,9.24c0.06,0.34,0.09,0.64,0.1,0.88c0,0.22-0.03,0.4-0.1,0.55c-0.07,0.15-0.19,0.28-0.37,0.38c-0.19,0.12-0.46,0.23-0.83,0.33
		c-0.02,0.01-0.07,0.03-0.2,0.05c-0.15,0.03-0.29,0.08-0.42,0.16c-0.1,0.06-0.27,0.21-0.21,0.52c0.06,0.32,0.29,0.36,0.38,0.36h0.02
		c0.12-0.01,0.23-0.02,0.34-0.04c0.45-0.08,0.91-0.18,1.37-0.29c0.43-0.11,0.89-0.21,1.34-0.29c0.52-0.09,1.03-0.16,1.52-0.22
		c0.51-0.06,1.03-0.13,1.54-0.22c0.18-0.03,0.31-0.06,0.41-0.09c0.13-0.05,0.27-0.18,0.2-0.57c-0.02-0.12-0.11-0.39-0.63-0.36
		l-0.73,0.05c-0.26,0.02-0.53-0.01-0.78-0.08c-0.21-0.06-0.37-0.23-0.48-0.51c-0.07-0.19-0.13-0.38-0.17-0.57
		c-0.04-0.2-0.08-0.4-0.12-0.6c-0.17-1.12-0.38-2.25-0.61-3.37c-0.23-1.11-0.43-2.24-0.6-3.35l-0.38-2.34
		c-0.05-0.28-0.07-0.49-0.07-0.63c0.01-0.16,0.04-0.21,0.05-0.23c0.02-0.02,0.03-0.03,0.05-0.03c0.08-0.01,0.17-0.02,0.26-0.04
		c0.1-0.02,0.23-0.05,0.39-0.08c0.15-0.03,0.32-0.07,0.51-0.1c0.25-0.04,0.52-0.08,0.8-0.11c0.29-0.03,0.55-0.06,0.82-0.05
		c0.24,0,0.45,0.03,0.63,0.08c0.16,0.05,0.27,0.12,0.33,0.22c0.09,0.15,0.15,0.32,0.18,0.51c0.03,0.22,0.05,0.42,0.06,0.6
		c0.02,0.21,0.05,0.38,0.1,0.51c0.04,0.1,0.16,0.31,0.51,0.25c0.2-0.03,0.44-0.18,0.49-0.66c0.03-0.31,0.04-0.66,0.02-1.06
		C135.42,208.75,135.38,208.35,135.35,207.94"/>
	<path class="st0" d="M144.77,211.02c-0.74,0.24-1.31,0.43-1.72,0.57c-0.42,0.15-0.73,0.25-0.94,0.32l-0.22,0.07
		c0.04-0.54,0.08-1,0.11-1.37c0.03-0.43,0.06-0.83,0.08-1.17c0.02-0.35,0.05-0.68,0.07-1.01c0.02-0.21,0.04-0.45,0.06-0.72
		c0.03,0.03,0.05,0.06,0.08,0.1c0.2,0.26,0.44,0.58,0.73,0.95c0.29,0.38,0.6,0.78,0.93,1.21
		C144.24,210.34,144.51,210.69,144.77,211.02 M152.89,215.23c-0.17,0.01-0.36,0.02-0.57,0.05c-0.19,0.03-0.4,0.04-0.62,0.03
		c-0.18-0.01-0.34-0.09-0.49-0.25c-1.05-1.1-2.09-2.22-3.07-3.33c-1.01-1.14-1.99-2.3-2.92-3.44l-1.57-1.85
		c-0.53-0.63-1.06-1.25-1.57-1.85c-0.05-0.06-0.12-0.13-0.21-0.19c-0.12-0.09-0.26-0.11-0.41-0.06c-0.16,0.05-0.26,0.14-0.3,0.25
		c-0.02,0.07-0.03,0.16-0.03,0.25c-0.09,1.27-0.18,2.53-0.27,3.78c-0.09,1.25-0.18,2.52-0.27,3.78l-0.16,2.22
		c-0.05,0.73-0.1,1.47-0.14,2.21c-0.01,0.1-0.02,0.25-0.03,0.45c-0.01,0.2-0.02,0.4-0.04,0.62c-0.02,0.2-0.04,0.4-0.06,0.58
		c-0.02,0.24-0.04,0.31-0.06,0.35c-0.04,0.16-0.11,0.28-0.21,0.35c-0.13,0.09-0.26,0.18-0.38,0.24c-0.15,0.08-0.27,0.17-0.37,0.26
		c-0.09,0.09-0.19,0.27-0.09,0.56v0c0.04,0.11,0.11,0.2,0.2,0.27c0.07,0.06,0.16,0.08,0.25,0.08c0.05,0,0.1-0.01,0.15-0.03
		c0.3-0.1,0.55-0.2,0.78-0.31c0.2-0.1,0.45-0.19,0.72-0.29c0.39-0.13,0.79-0.24,1.2-0.32c0.42-0.09,0.84-0.2,1.24-0.33
		c0.14-0.05,0.26-0.14,0.33-0.28c0.08-0.14,0.09-0.29,0.04-0.44c-0.09-0.27-0.31-0.41-0.61-0.38c-0.22,0.02-0.45,0.06-0.71,0.12
		c-0.23,0.05-0.44,0.07-0.65,0.06c-0.1,0-0.21-0.04-0.28-0.27c-0.01-0.02-0.02-0.1-0.04-0.5c-0.01-0.31-0.02-0.69-0.02-1.15
		c0-0.46,0.01-0.98,0.03-1.54c0.02-0.55,0.06-1.09,0.1-1.63c0.13-0.07,0.28-0.14,0.46-0.21c0.23-0.09,0.47-0.18,0.71-0.25
		c0.26-0.08,0.5-0.16,0.74-0.23c0.24-0.07,0.44-0.13,0.59-0.18l0.35-0.12c0.2-0.06,0.4-0.12,0.6-0.17c0.16-0.04,0.28-0.03,0.36,0.01
		c0,0,0.03,0.02,0.11,0.11c0.08,0.09,0.17,0.19,0.26,0.28c0.33,0.38,0.65,0.75,0.96,1.11c0.31,0.36,0.59,0.69,0.83,0.99l0.64,0.78
		c0.18,0.22,0.3,0.38,0.38,0.49l0.07,0.1c0.02,0.03,0.03,0.05,0.03,0.07c0.05,0.16,0,0.21-0.06,0.25c-0.14,0.1-0.32,0.19-0.51,0.26
		c-0.21,0.08-0.41,0.17-0.57,0.25c-0.36,0.18-0.31,0.45-0.28,0.56c0.05,0.17,0.17,0.29,0.33,0.35c0.16,0.06,0.31,0.07,0.46,0.02
		c0.43-0.14,0.86-0.3,1.28-0.48c0.41-0.17,0.83-0.33,1.25-0.47c0.29-0.09,0.58-0.17,0.88-0.23c0.31-0.06,0.62-0.14,0.93-0.24
		l0.2-0.06c0.14-0.05,0.28-0.12,0.41-0.22c0.18-0.13,0.25-0.32,0.19-0.51C153.32,215.36,153.12,215.23,152.89,215.23"/>
	<path class="st0" d="M155.84,206.19c-0.05-0.05-0.1-0.13-0.14-0.22c-0.06-0.13-0.13-0.28-0.21-0.46c-0.23-0.46-0.48-0.98-0.76-1.57
		c-0.28-0.59-0.53-1.11-0.76-1.57l-0.29-0.59c-0.12-0.23-0.16-0.43-0.11-0.59c0.02-0.08,0.13-0.26,0.59-0.49
		c0.41-0.2,0.81-0.33,1.21-0.39c0.14-0.02,0.27-0.03,0.4-0.03c0.25,0,0.49,0.03,0.72,0.1c0.35,0.1,0.68,0.28,0.98,0.53
		c0.3,0.25,0.56,0.6,0.78,1.04c0.26,0.53,0.4,1,0.41,1.41c0.01,0.4-0.08,0.77-0.25,1.08c-0.18,0.32-0.45,0.62-0.79,0.88
		c-0.36,0.27-0.77,0.52-1.21,0.74c-0.23,0.11-0.36,0.15-0.43,0.16C155.89,206.23,155.86,206.2,155.84,206.19 M167.83,208.96
		c-0.13,0.03-0.27,0.05-0.46,0.06c-0.5,0.13-1.01,0.13-1.51-0.01c-0.52-0.14-1.04-0.36-1.54-0.63c-0.51-0.29-1.01-0.62-1.49-0.98
		c-0.49-0.37-0.95-0.72-1.38-1.06c-0.44-0.34-0.85-0.62-1.23-0.83c-0.25-0.14-0.48-0.23-0.7-0.28c0.16-0.22,0.31-0.45,0.46-0.69
		c0.21-0.36,0.39-0.74,0.52-1.13c0.13-0.4,0.19-0.8,0.19-1.22c0-0.43-0.1-0.84-0.3-1.23c-0.35-0.71-0.78-1.24-1.29-1.57
		c-0.5-0.33-1.02-0.53-1.55-0.61c-0.54-0.07-1.07-0.05-1.57,0.08c-0.5,0.12-0.95,0.28-1.35,0.48c-0.44,0.22-0.88,0.45-1.32,0.69
		c-0.44,0.24-0.87,0.46-1.31,0.68l-1.51,0.75c-0.12,0.06-0.25,0.12-0.39,0.17c-0.14,0.06-0.28,0.12-0.42,0.19
		c-0.14,0.07-0.27,0.15-0.39,0.25c-0.08,0.07-0.26,0.27-0.09,0.61c0.08,0.18,0.25,0.27,0.44,0.24c0.13-0.01,0.27-0.05,0.44-0.12
		c0.15-0.06,0.31-0.13,0.48-0.19c0.16-0.06,0.31-0.1,0.46-0.12c0.13-0.01,0.26,0.01,0.38,0.07c0.12,0.06,0.23,0.19,0.32,0.39
		c0.49,0.98,0.97,1.96,1.43,2.94c0.47,0.98,0.94,1.96,1.43,2.95l1.78,3.58c0.1,0.2,0.14,0.39,0.13,0.53
		c-0.02,0.16-0.07,0.3-0.16,0.42c-0.09,0.14-0.2,0.25-0.33,0.35c-0.13,0.1-0.26,0.19-0.37,0.27l-0.04,0.03
		c-0.14,0.1-0.26,0.19-0.34,0.27c-0.14,0.13-0.18,0.3-0.1,0.46c0.08,0.17,0.19,0.34,0.36,0.36c0.01,0,0.02,0,0.04,0
		c0.1,0,0.22-0.04,0.39-0.12c0.36-0.18,0.72-0.38,1.06-0.59c0.32-0.2,0.67-0.4,1.02-0.57c0.4-0.2,0.82-0.38,1.25-0.55
		c0.44-0.17,0.88-0.36,1.3-0.57c0.25-0.12,0.43-0.24,0.54-0.34c0.09-0.09,0.23-0.29,0.07-0.61c-0.08-0.17-0.23-0.25-0.42-0.22
		c-0.11,0.02-0.22,0.06-0.33,0.11c-0.05,0.02-0.07,0.03-0.06,0.03l-0.05,0.01c-0.26,0.07-0.49,0.14-0.69,0.21
		c-0.18,0.06-0.32,0.09-0.48,0.09c-0.13,0-0.25-0.05-0.36-0.14c-0.12-0.09-0.26-0.28-0.39-0.55l-1.78-3.58
		c-0.17-0.34-0.18-0.47-0.18-0.5c0,0,0.02-0.07,0.25-0.19c0.38-0.19,0.74-0.25,1.09-0.19c0.36,0.06,0.73,0.2,1.08,0.4
		c0.36,0.2,0.72,0.46,1.07,0.76c0.37,0.32,0.75,0.61,1.11,0.87c0.81,0.75,1.73,1.28,2.73,1.58c1.01,0.31,2.08,0.29,3.19-0.03
		c0.09-0.03,0.19-0.07,0.32-0.12c0.13-0.05,0.25-0.1,0.37-0.16c0.31-0.15,0.52-0.29,0.65-0.42l0.04-0.07
		c0.07-0.21,0.08-0.37,0.02-0.48C168.3,209.07,168.16,208.88,167.83,208.96"/>
	<path class="st0" d="M177.18,201.49l-0.68,0.36c-0.23,0.13-0.48,0.21-0.74,0.25c-0.22,0.04-0.43-0.05-0.65-0.27
		c-0.14-0.14-0.28-0.29-0.39-0.45c-0.12-0.17-0.24-0.33-0.35-0.5c-0.63-0.95-1.29-1.89-1.96-2.81c-0.67-0.9-1.32-1.84-1.95-2.79
		l-1.32-1.97c-0.16-0.23-0.27-0.41-0.32-0.54c-0.06-0.15-0.06-0.21-0.05-0.23c0.01-0.03,0.01-0.04,0.03-0.05
		c0.07-0.04,0.15-0.09,0.23-0.14c0.08-0.06,0.19-0.14,0.32-0.23c0.12-0.09,0.26-0.19,0.42-0.3c0.21-0.15,0.44-0.29,0.68-0.44
		c0.24-0.15,0.49-0.27,0.71-0.38c0.22-0.1,0.43-0.17,0.61-0.19c0.16-0.02,0.3,0,0.4,0.06c0.15,0.1,0.27,0.23,0.38,0.4
		c0.11,0.18,0.21,0.36,0.3,0.52c0.1,0.18,0.2,0.32,0.31,0.42c0.08,0.07,0.28,0.21,0.57,0.02c0.16-0.11,0.32-0.35,0.17-0.81
		c-0.09-0.29-0.24-0.61-0.43-0.97c-0.19-0.35-0.38-0.7-0.59-1.05c-0.2-0.33-0.32-0.62-0.39-0.86c-0.05-0.19-0.17-0.35-0.35-0.48
		c-0.12-0.09-0.37-0.2-0.71,0.03c-0.08,0.05-0.17,0.16-0.15,0.37c0.01,0.09,0.01,0.2,0,0.32c-0.01,0.12-0.02,0.24-0.05,0.35
		c-0.02,0.1-0.08,0.19-0.16,0.27c-0.14,0.13-0.29,0.25-0.44,0.36c-0.16,0.12-0.32,0.23-0.47,0.34c-0.51,0.36-1,0.7-1.47,1.04
		c-0.46,0.34-0.95,0.68-1.46,1.04c-0.64,0.44-1.29,0.88-1.97,1.33c-0.68,0.44-1.35,0.88-2,1.28c-0.13,0.08-0.25,0.12-0.35,0.12h0
		c-0.12,0-0.22-0.02-0.3-0.04c-0.1-0.03-0.18-0.06-0.25-0.08c-0.13-0.05-0.26-0.04-0.37,0.03c-0.18,0.12-0.29,0.27-0.32,0.44
		c-0.03,0.15-0.03,0.31,0.02,0.47c0.04,0.15,0.1,0.3,0.19,0.46l0.23,0.39c0.32,0.58,0.55,1.05,0.67,1.39
		c0.13,0.38,0.26,0.66,0.4,0.86c0.12,0.17,0.25,0.26,0.39,0.27c0.13,0,0.26-0.04,0.41-0.14c0.13-0.09,0.14-0.27,0.13-0.53
		c-0.01-0.22-0.03-0.45-0.07-0.71c-0.03-0.25-0.06-0.49-0.1-0.73c-0.04-0.28-0.03-0.38-0.03-0.41c0.07-0.32,0.18-0.58,0.34-0.78
		c0.17-0.21,0.37-0.4,0.6-0.56l0.99-0.68c0.24-0.17,0.49-0.31,0.73-0.43c0.22-0.1,0.29-0.09,0.29-0.09
		c0.04,0.04,0.11,0.13,0.21,0.25c0.1,0.14,0.17,0.23,0.21,0.28l5.35,7.71c0.2,0.29,0.35,0.54,0.46,0.76
		c0.09,0.19,0.14,0.38,0.14,0.55c0,0.16-0.06,0.33-0.18,0.5c-0.12,0.19-0.32,0.4-0.61,0.65c-0.01,0.01-0.05,0.05-0.16,0.13
		c-0.13,0.09-0.23,0.19-0.31,0.32c-0.07,0.1-0.15,0.3,0.03,0.56c0.11,0.16,0.24,0.2,0.33,0.2c0.08,0,0.15-0.03,0.18-0.05
		c0.11-0.05,0.2-0.11,0.3-0.18c0.38-0.27,0.76-0.55,1.12-0.84c0.36-0.29,0.73-0.57,1.1-0.82c0.43-0.29,0.86-0.57,1.29-0.83
		c0.44-0.27,0.88-0.55,1.3-0.85c0.15-0.1,0.26-0.19,0.33-0.25c0.1-0.09,0.18-0.27-0.05-0.6
		C177.8,201.48,177.59,201.27,177.18,201.49"/>
	<path class="st0" d="M191.39,186.37c-0.28-0.53-0.63-1.04-1.05-1.52c-0.42-0.47-0.82-0.92-1.22-1.32c-0.25-0.25-0.49-0.5-0.74-0.74
		c-0.25-0.25-0.49-0.49-0.74-0.74c-0.27-0.28-0.59-0.6-0.96-0.97c-0.36-0.36-0.71-0.72-1.04-1.06c-0.32-0.34-0.59-0.65-0.81-0.93
		c-0.24-0.3-0.25-0.41-0.25-0.41c0-0.01,0.03-0.08,0.17-0.26c0.12-0.15,0.24-0.32,0.36-0.5c0.13-0.19,0.22-0.38,0.28-0.55
		c0.1-0.3,0-0.49-0.11-0.6c-0.11-0.11-0.3-0.2-0.61-0.06l-0.06,0.04c-0.25,0.25-0.5,0.5-0.74,0.76c-0.23,0.25-0.47,0.5-0.72,0.74
		c-0.24,0.24-0.49,0.47-0.74,0.67c-0.27,0.22-0.53,0.46-0.77,0.69c-0.09,0.09-0.16,0.18-0.21,0.27c-0.04,0.07-0.11,0.27,0.1,0.49
		c0.22,0.23,0.44,0.23,0.58,0.19c0.16-0.04,0.32-0.12,0.49-0.23c0.15-0.1,0.3-0.2,0.45-0.31c0.12-0.09,0.23-0.13,0.35-0.14
		c0.07,0.01,0.21,0.03,0.44,0.2c0.21,0.16,0.44,0.36,0.68,0.61c0.24,0.25,0.49,0.51,0.74,0.79c0.25,0.28,0.48,0.52,0.69,0.74
		l2.9,2.97c0.26,0.27,0.49,0.55,0.68,0.86c0.37,0.54,0.63,1.04,0.79,1.48c0.15,0.44,0.22,0.86,0.18,1.27
		c-0.04,0.4-0.17,0.8-0.41,1.19c-0.24,0.4-0.6,0.83-1.06,1.28c-0.39,0.37-0.78,0.68-1.17,0.9c-0.38,0.22-0.78,0.33-1.19,0.35
		c-0.41,0.01-0.86-0.09-1.33-0.3c-0.48-0.22-1.02-0.59-1.6-1.12c-0.3-0.27-0.58-0.54-0.87-0.82c-0.29-0.28-0.57-0.56-0.85-0.85
		l-2.49-2.55c-0.13-0.14-0.28-0.29-0.42-0.45c-0.15-0.16-0.28-0.31-0.41-0.48c-0.13-0.16-0.24-0.3-0.34-0.44
		c-0.11-0.15-0.16-0.25-0.18-0.3c-0.06-0.16-0.05-0.3,0.03-0.45c0.1-0.19,0.22-0.37,0.34-0.55c0.14-0.19,0.25-0.37,0.34-0.53
		c0.13-0.24,0.1-0.47-0.09-0.66c-0.16-0.17-0.38-0.19-0.59-0.04c-0.14,0.09-0.25,0.18-0.33,0.26c-0.32,0.31-0.63,0.65-0.92,0.98
		c-0.28,0.33-0.58,0.65-0.9,0.96c-0.3,0.29-0.6,0.56-0.91,0.81c-0.32,0.26-0.64,0.54-0.93,0.83c-0.13,0.13-0.2,0.27-0.2,0.41
		c0,0.14,0.06,0.27,0.18,0.4c0.11,0.11,0.25,0.16,0.39,0.14c0.11-0.02,0.23-0.06,0.33-0.13c0.09-0.06,0.18-0.12,0.26-0.19
		c0.08-0.06,0.14-0.12,0.19-0.17l0.15-0.15c0.15-0.15,0.29-0.22,0.43-0.21c0.17,0.01,0.32,0.05,0.48,0.14
		c0.17,0.1,0.33,0.22,0.48,0.37c0.17,0.16,0.31,0.31,0.44,0.43c0.76,0.78,1.52,1.57,2.24,2.35c0.72,0.78,1.48,1.57,2.25,2.36
		l0.5,0.51c0.08,0.09,0.17,0.17,0.26,0.25c0.09,0.08,0.18,0.16,0.27,0.24c0.6,0.5,1.19,0.83,1.78,0.98
		c0.33,0.08,0.65,0.13,0.98,0.13c0.25,0,0.5-0.03,0.75-0.07c0.56-0.12,1.12-0.35,1.65-0.69c0.52-0.33,1.02-0.74,1.5-1.21
		c0.4-0.39,0.79-0.83,1.15-1.3c0.37-0.48,0.68-0.99,0.93-1.53c0.29-0.64,0.39-1.26,0.31-1.86
		C191.85,187.47,191.67,186.91,191.39,186.37"/>
	<path class="st0" d="M204.53,173.68c-0.28-0.32-0.5-0.58-0.67-0.77l-0.48-0.56c-0.14-0.17-0.23-0.27-0.24-0.28
		c-0.02-0.03-0.05-0.08-0.16-0.21c-0.06-0.07-0.1-0.11-0.12-0.14c-0.07-0.13-0.17-0.22-0.29-0.28c-0.08-0.04-0.31-0.11-0.52,0.18
		c-0.1,0.14-0.1,0.34,0,0.62c0.08,0.21,0.18,0.45,0.3,0.71c0.12,0.25,0.22,0.51,0.33,0.78c0.09,0.24,0.14,0.46,0.12,0.64
		c-0.01,0.1-0.04,0.22-0.1,0.35c-0.06,0.14-0.14,0.3-0.23,0.45c-0.09,0.16-0.2,0.32-0.31,0.5c-0.11,0.17-0.21,0.32-0.31,0.45
		l-0.35,0.48c-0.07,0.09-0.19,0.24-0.35,0.46c-0.17,0.21-0.34,0.43-0.52,0.66c-0.18,0.22-0.36,0.43-0.54,0.61
		c-0.21,0.23-0.32,0.3-0.37,0.32c-0.11,0.05-0.22,0.06-0.34,0.04c-0.14-0.03-0.29-0.07-0.43-0.15c-0.15-0.07-0.3-0.16-0.43-0.25
		c-0.14-0.1-0.27-0.19-0.38-0.27l-2.46-1.82c-0.04-0.03-0.12-0.08-0.23-0.16c-0.1-0.06-0.19-0.14-0.28-0.22
		c-0.09-0.08-0.17-0.16-0.25-0.27c0.02-0.04,0.05-0.11,0.1-0.19c0.05-0.09,0.11-0.18,0.17-0.28l0.18-0.28
		c0.05-0.08,0.1-0.15,0.14-0.2c0.15-0.2,0.31-0.43,0.5-0.69c0.18-0.25,0.36-0.47,0.57-0.67c0.19-0.19,0.39-0.33,0.59-0.42
		c0.18-0.07,0.35-0.07,0.53,0.01l0.06,0.02c0.02,0,0.09,0.01,0.25,0.09c0.14,0.07,0.28,0.13,0.42,0.2c0.15,0.07,0.29,0.12,0.43,0.15
		c0.26,0.06,0.41-0.06,0.46-0.14c0.11-0.16,0.11-0.29,0.08-0.38c-0.03-0.1-0.09-0.2-0.18-0.29c-0.07-0.07-0.16-0.14-0.25-0.2
		c-0.08-0.05-0.14-0.09-0.19-0.13c-0.22-0.16-0.44-0.32-0.66-0.47c-0.22-0.14-0.44-0.3-0.65-0.46c-0.22-0.16-0.43-0.32-0.64-0.49
		c-0.21-0.18-0.43-0.34-0.65-0.51c-0.12-0.09-0.24-0.17-0.35-0.24c-0.2-0.11-0.41-0.07-0.55,0.12c-0.13,0.17-0.11,0.33-0.07,0.43
		c0.03,0.08,0.07,0.17,0.11,0.25l0.05,0.06c0.26,0.22,0.44,0.46,0.54,0.72c0.09,0.24,0.06,0.5-0.09,0.8
		c-0.16,0.3-0.35,0.6-0.55,0.89c-0.21,0.29-0.42,0.58-0.62,0.86c-0.05,0.06-0.11,0.15-0.17,0.25c-0.06,0.09-0.13,0.18-0.2,0.27
		c-0.07,0.09-0.14,0.16-0.21,0.22c-0.04,0.03-0.07,0.05-0.1,0.06c-0.07-0.04-0.17-0.09-0.27-0.17l-0.36-0.27
		c-0.35-0.26-0.71-0.52-1.07-0.78c-0.36-0.26-0.71-0.52-1.06-0.78c-0.17-0.13-0.35-0.27-0.54-0.42c-0.17-0.14-0.31-0.29-0.41-0.45
		c-0.1-0.14-0.14-0.29-0.15-0.45c-0.01-0.15,0.07-0.33,0.22-0.53l0.51-0.69c0.15-0.21,0.32-0.42,0.5-0.65
		c0.18-0.23,0.35-0.44,0.53-0.64c0.18-0.2,0.35-0.37,0.51-0.52c0.15-0.13,0.28-0.23,0.38-0.28c0.16-0.07,0.32-0.08,0.51-0.04
		c0.22,0.05,0.44,0.1,0.66,0.17c0.24,0.07,0.44,0.12,0.62,0.16c0.31,0.06,0.49-0.06,0.57-0.18l0.01-0.02
		c0.1-0.18,0.03-0.38-0.2-0.61c-0.17-0.17-0.36-0.33-0.58-0.49c-0.18-0.14-0.34-0.25-0.46-0.35c-0.13-0.1-0.24-0.19-0.34-0.26
		c-0.18-0.14-0.4-0.27-0.66-0.39c-0.1-0.04-0.3-0.07-0.51,0.13c-0.11,0.11-0.22,0.22-0.31,0.34l-0.13,0.17
		c-0.53,0.72-1.05,1.43-1.54,2.13c-0.49,0.7-1,1.41-1.54,2.13c-0.27,0.36-0.54,0.71-0.81,1.05c-0.28,0.34-0.55,0.69-0.81,1.05
		c-0.07,0.09-0.16,0.2-0.26,0.33c-0.11,0.14-0.2,0.28-0.28,0.42c-0.08,0.14-0.14,0.28-0.17,0.42c-0.05,0.19,0.02,0.36,0.17,0.48
		c0.21,0.15,0.45,0.13,0.67-0.08c0.15-0.14,0.31-0.31,0.48-0.49c0.16-0.17,0.34-0.3,0.53-0.4c0.15-0.07,0.34-0.04,0.59,0.11
		c0.05,0.02,0.08,0.04,0.12,0.07l0.42,0.31c0.84,0.62,1.68,1.24,2.52,1.84c0.84,0.6,1.68,1.21,2.52,1.84
		c0.26,0.19,0.57,0.42,0.93,0.66c0.36,0.25,0.7,0.49,1.04,0.75c0.33,0.24,0.62,0.48,0.87,0.71c0.29,0.27,0.4,0.44,0.43,0.54
		c0.06,0.16,0.06,0.33,0,0.52c-0.06,0.22-0.14,0.43-0.22,0.64c-0.09,0.22-0.17,0.41-0.23,0.57c-0.11,0.33,0.02,0.48,0.11,0.55
		c0.13,0.09,0.24,0.13,0.33,0.13c0.15,0,0.25-0.09,0.3-0.14c0.1-0.11,0.19-0.23,0.28-0.34c0.12-0.16,0.23-0.32,0.33-0.48
		c0.1-0.15,0.2-0.3,0.31-0.44l5.44-7.36c0.21-0.29,0.19-0.54,0.13-0.71L204.53,173.68z"/>
	<path class="st0" d="M214.42,156.4c-0.16-0.1-0.35-0.21-0.55-0.31c-1.15-0.57-2.14-1.07-2.98-1.5c-0.84-0.43-1.6-0.81-2.27-1.15
		l-3.59-1.8c-0.11-0.06-0.29-0.15-0.53-0.27c-0.24-0.13-0.48-0.26-0.73-0.41c-0.24-0.14-0.47-0.29-0.67-0.45
		c-0.24-0.18-0.32-0.3-0.34-0.34c-0.04-0.09-0.04-0.21,0.01-0.36c0.06-0.19,0.13-0.39,0.2-0.58c0.08-0.2,0.13-0.39,0.17-0.57
		c0.05-0.25-0.05-0.45-0.26-0.56c-0.14-0.07-0.49-0.18-0.74,0.32c-0.15,0.3-0.3,0.61-0.43,0.93c-0.13,0.31-0.28,0.62-0.43,0.91
		c-0.18,0.36-0.38,0.73-0.58,1.08c-0.21,0.37-0.41,0.74-0.59,1.1c-0.06,0.12-0.09,0.24-0.09,0.38c0,0.1,0.04,0.29,0.28,0.41
		c0.28,0.14,0.53,0.06,0.7-0.2c0.12-0.18,0.25-0.4,0.37-0.64c0.12-0.22,0.26-0.42,0.41-0.58c0.08-0.08,0.21-0.18,0.5-0.12
		c0.16,0.04,0.31,0.09,0.45,0.15c0.15,0.07,0.31,0.14,0.47,0.22c0.9,0.45,1.8,0.9,2.71,1.34c0.91,0.44,1.8,0.9,2.7,1.36l2.11,1.05
		c0.08,0.04,0.12,0.06,0.15,0.09c-1.56,0.37-2.93,0.7-4.1,0.99c-1.21,0.3-2.3,0.57-3.27,0.81c-0.97,0.25-1.85,0.47-2.65,0.67
		c-0.8,0.2-1.59,0.39-2.4,0.58c-0.31,0.12-0.56,0.19-0.76,0.23c-0.21,0.04-0.4,0.09-0.56,0.14c-0.18,0.05-0.33,0.13-0.45,0.22
		c-0.13,0.1-0.25,0.27-0.37,0.51c-0.1,0.2-0.19,0.4-0.27,0.58c-0.07,0.18-0.16,0.37-0.26,0.56c-0.13,0.25-0.25,0.5-0.39,0.73
		c-0.14,0.24-0.27,0.49-0.39,0.75c-0.06,0.11-0.08,0.25-0.09,0.43c0,0.3,0.16,0.43,0.26,0.48c0.16,0.08,0.33,0.06,0.48-0.05
		c0.11-0.08,0.21-0.19,0.31-0.31c0.09-0.12,0.17-0.25,0.25-0.38c0.06-0.12,0.12-0.2,0.16-0.26c0.16-0.22,0.32-0.38,0.47-0.47
		c0.14-0.09,0.29-0.14,0.42-0.16c0.14-0.01,0.28,0.01,0.43,0.06c0.17,0.06,0.35,0.14,0.52,0.23c1.4,0.7,2.78,1.4,4.08,2.08
		l4.07,2.12c0.16,0.08,0.32,0.17,0.48,0.26c0.15,0.09,0.29,0.19,0.4,0.31c0.1,0.1,0.17,0.22,0.21,0.35
		c0.04,0.12,0.03,0.28-0.02,0.44c-0.03,0.1-0.08,0.21-0.14,0.35c-0.07,0.15-0.12,0.29-0.17,0.43c-0.06,0.15-0.08,0.3-0.08,0.44
		c0.01,0.18,0.1,0.33,0.27,0.41c0.08,0.04,0.15,0.06,0.23,0.06c0.12,0,0.24-0.05,0.34-0.16c0.11-0.12,0.19-0.23,0.24-0.34
		c0.2-0.4,0.39-0.8,0.55-1.19c0.16-0.37,0.34-0.76,0.53-1.15c0.17-0.33,0.34-0.66,0.53-0.98c0.2-0.33,0.38-0.67,0.55-1
		c0.04-0.07,0.06-0.16,0.08-0.27c0.02-0.16-0.05-0.3-0.19-0.37c-0.17-0.08-0.35-0.09-0.51,0c-0.13,0.07-0.23,0.15-0.33,0.26
		c-0.24,0.3-0.42,0.56-0.55,0.79c-0.11,0.19-0.23,0.33-0.36,0.41c-0.12,0.07-0.29,0.09-0.52,0.05c-0.26-0.05-0.65-0.2-1.16-0.46
		c-0.9-0.45-1.7-0.84-2.4-1.18c-0.69-0.33-1.34-0.64-1.93-0.93c-0.59-0.29-1.17-0.56-1.72-0.83c-0.55-0.26-1.14-0.55-1.77-0.86
		c-0.08-0.04-0.16-0.08-0.24-0.13c0.22-0.08,0.45-0.14,0.68-0.18c0.37-0.06,0.73-0.14,1.07-0.22l4.09-1.02
		c1.11-0.28,2.03-0.51,2.76-0.69l1.7-0.43c0.41-0.1,0.7-0.18,0.89-0.23c0.19-0.05,0.31-0.08,0.36-0.09c0.06-0.01,0.1-0.03,0.09-0.03
		c0.57-0.12,1.13-0.25,1.69-0.38c0.56-0.13,1.12-0.27,1.67-0.41c0.06-0.01,0.14-0.03,0.24-0.05c0.09-0.02,0.18-0.04,0.27-0.07
		c0.1-0.03,0.19-0.06,0.27-0.11c0.14-0.08,0.2-0.19,0.22-0.26C214.74,156.77,214.65,156.55,214.42,156.4"/>
	<path class="st0" d="M217.21,141.17c-0.46-0.39-1.05-0.7-1.75-0.92c-0.66-0.19-1.33-0.23-2.01-0.11c-0.68,0.12-1.29,0.4-1.82,0.83
		c-0.41,0.34-0.84,0.75-1.27,1.22c-0.43,0.46-0.87,0.9-1.32,1.29c-0.44,0.38-0.9,0.68-1.38,0.89c-0.45,0.2-0.91,0.23-1.38,0.08
		c-0.3-0.09-0.57-0.24-0.78-0.43c-0.21-0.19-0.37-0.41-0.48-0.66c-0.11-0.25-0.17-0.53-0.18-0.82c-0.01-0.3,0.04-0.6,0.13-0.9
		c0.11-0.35,0.34-0.68,0.69-0.95c0.35-0.28,0.77-0.44,1.29-0.49c0.12-0.03,0.27-0.04,0.43-0.03c0.18,0.02,0.35,0.03,0.52,0.04
		c0.18,0.01,0.34,0.01,0.47-0.01c0.26-0.03,0.35-0.16,0.39-0.27c0.01-0.01,0.01-0.04,0.04-0.08c0.04-0.06,0.07-0.12,0.09-0.19
		c0.03-0.1,0.02-0.2-0.03-0.3c-0.05-0.08-0.13-0.16-0.29-0.25c-0.63-0.25-1.28-0.48-1.92-0.66c-0.13-0.04-0.28-0.1-0.45-0.17
		c-0.19-0.08-0.37-0.15-0.55-0.2c-0.18-0.06-0.35-0.09-0.49-0.11c-0.33-0.04-0.42,0.16-0.44,0.24c-0.08,0.24-0.06,0.45,0.06,0.63
		c0.09,0.14,0.19,0.26,0.31,0.38c0.09,0.08,0.15,0.16,0.19,0.22c0,0-0.01,0.03-0.06,0.08c-0.21,0.18-0.44,0.42-0.68,0.71
		c-0.25,0.3-0.43,0.59-0.51,0.87c-0.18,0.57-0.27,1.15-0.26,1.72c0.01,0.57,0.12,1.11,0.33,1.6c0.21,0.49,0.53,0.93,0.94,1.31
		c0.42,0.38,0.94,0.67,1.55,0.86c0.7,0.22,1.36,0.24,1.94,0.05c0.57-0.18,1.11-0.46,1.61-0.83c0.49-0.37,0.97-0.79,1.42-1.26
		c0.43-0.45,0.88-0.87,1.33-1.24c0.43-0.36,0.9-0.63,1.37-0.81c0.45-0.17,0.95-0.18,1.48-0.01c0.37,0.12,0.68,0.28,0.93,0.49
		c0.25,0.21,0.44,0.45,0.58,0.73c0.14,0.28,0.21,0.58,0.23,0.91c0.02,0.32-0.03,0.67-0.14,1.02c-0.15,0.47-0.42,0.89-0.81,1.25
		c-0.38,0.36-0.82,0.57-1.34,0.64c-0.13,0.02-0.27,0.03-0.45,0.02l-0.53-0.04c-0.18-0.01-0.34-0.01-0.47,0.01
		c-0.26,0.04-0.35,0.19-0.38,0.29c-0.01,0.02-0.02,0.04-0.04,0.07c-0.04,0.06-0.06,0.11-0.08,0.18c-0.03,0.09-0.02,0.19,0.02,0.29
		c0.05,0.1,0.14,0.19,0.3,0.26c0.32,0.13,0.6,0.23,0.87,0.32c0.26,0.09,0.55,0.18,0.87,0.28c0.13,0.05,0.3,0.11,0.51,0.19
		c0.22,0.09,0.44,0.17,0.65,0.24c0.22,0.07,0.42,0.11,0.59,0.14c0.04,0.01,0.08,0.01,0.12,0.01c0.26,0,0.34-0.14,0.37-0.23v0
		c0.07-0.23,0.07-0.43,0-0.58c-0.06-0.13-0.14-0.25-0.24-0.36c-0.08-0.08-0.14-0.17-0.2-0.26c-0.03-0.05-0.02-0.14,0-0.2
		c0.04-0.11,0.1-0.23,0.19-0.34c0.11-0.13,0.23-0.28,0.35-0.44c0.13-0.16,0.25-0.33,0.38-0.52c0.14-0.2,0.25-0.43,0.32-0.68
		c0.19-0.66,0.29-1.3,0.27-1.91c-0.01-0.62-0.13-1.19-0.37-1.71C218.03,142.02,217.67,141.56,217.21,141.17"/>
	<path class="st0" d="M221.27,130.62c-0.1-0.02-0.33-0.03-0.48,0.27c-0.07,0.14-0.14,0.3-0.21,0.48c-0.06,0.17-0.14,0.36-0.21,0.54
		c-0.06,0.16-0.14,0.27-0.24,0.34c-0.13,0.1-0.3,0.14-0.52,0.12c-0.25-0.02-0.48-0.04-0.67-0.08l-4.85-0.95
		c-0.8-0.16-1.59-0.32-2.37-0.49c-0.79-0.17-1.57-0.34-2.38-0.49c-0.22-0.04-0.41-0.09-0.57-0.13c-0.13-0.03-0.22-0.09-0.3-0.18
		c-0.07-0.08-0.11-0.19-0.12-0.35c-0.01-0.18,0.01-0.44,0.07-0.77c0.04-0.19,0.05-0.37,0.04-0.53c-0.01-0.13-0.08-0.37-0.44-0.44
		c-0.06-0.01-0.14-0.01-0.23,0.01c-0.1,0.02-0.17,0.04-0.22,0.08l-0.06,0.04l-0.34,1.73c-0.04,0.18-0.06,0.38-0.08,0.58
		c-0.02,0.19-0.04,0.37-0.08,0.54c-0.07,0.36-0.16,0.72-0.27,1.08c-0.11,0.38-0.21,0.75-0.28,1.12l-0.04,0.21
		c-0.02,0.11-0.04,0.24-0.04,0.37c-0.01,0.22,0.12,0.38,0.34,0.42c0.34,0.07,0.51-0.09,0.57-0.19c0.09-0.13,0.16-0.29,0.21-0.49
		c0.05-0.17,0.1-0.34,0.17-0.52c0.05-0.15,0.15-0.26,0.26-0.34c0.05-0.02,0.18-0.06,0.47-0.05c0.25,0.01,0.49,0.04,0.69,0.07
		l0.36,0.07c0.32,0.06,0.63,0.13,0.95,0.19c0.31,0.07,0.64,0.13,0.97,0.2l7.06,1.4c0.23,0.04,0.47,0.11,0.72,0.19
		c0.2,0.06,0.33,0.15,0.39,0.26c0.07,0.12,0.11,0.27,0.12,0.43c0.01,0.19,0.01,0.38,0.01,0.56c0,0.19,0.01,0.35,0.03,0.5
		c0.03,0.22,0.16,0.36,0.35,0.4c0.05,0.01,0.09,0.01,0.13,0.01c0.23,0,0.35-0.13,0.4-0.22c0.08-0.13,0.14-0.27,0.16-0.42l0.05-0.27
		c0.07-0.39,0.12-0.75,0.14-1.07c0.01-0.31,0.06-0.65,0.13-1.01c0.07-0.34,0.15-0.69,0.26-1.04c0.11-0.35,0.2-0.71,0.27-1.07
		c0.04-0.2,0.07-0.39,0.08-0.59C221.71,130.88,221.55,130.68,221.27,130.62"/>
	<path class="st0" d="M222.66,124.72c-0.09-0.07-0.18-0.14-0.25-0.21c-0.05-0.04-0.05-0.13-0.04-0.2c0.01-0.11,0.05-0.24,0.11-0.37
		c0.08-0.16,0.16-0.33,0.25-0.51c0.09-0.18,0.18-0.38,0.26-0.59c0.09-0.22,0.15-0.47,0.17-0.74c0.04-0.69-0.01-1.34-0.15-1.93
		c-0.15-0.6-0.39-1.13-0.73-1.59c-0.34-0.45-0.79-0.83-1.33-1.11c-0.54-0.28-1.18-0.45-1.91-0.51c-0.68-0.04-1.35,0.07-1.98,0.33
		c-0.63,0.27-1.17,0.67-1.59,1.21c-0.33,0.42-0.65,0.92-0.97,1.47c-0.31,0.54-0.65,1.06-1,1.54c-0.35,0.47-0.73,0.87-1.15,1.17
		c-0.4,0.3-0.83,0.42-1.33,0.38c-0.32-0.03-0.6-0.11-0.85-0.25c-0.25-0.14-0.45-0.31-0.61-0.53c-0.16-0.22-0.28-0.48-0.35-0.76
		c-0.07-0.29-0.1-0.6-0.07-0.91c0.03-0.37,0.19-0.74,0.47-1.08c0.28-0.35,0.66-0.6,1.15-0.76c0.12-0.06,0.25-0.1,0.41-0.12
		c0.18-0.02,0.35-0.05,0.52-0.07c0.18-0.03,0.33-0.06,0.46-0.11c0.26-0.09,0.31-0.25,0.32-0.34c0-0.02,0.01-0.05,0.02-0.09
		c0.02-0.06,0.04-0.13,0.04-0.2c0.01-0.1-0.03-0.2-0.09-0.28c-0.06-0.07-0.16-0.13-0.34-0.18c-0.66-0.11-1.34-0.18-2.02-0.23
		c-0.14-0.01-0.3-0.03-0.48-0.07c-0.2-0.04-0.39-0.06-0.58-0.08c-0.19-0.01-0.36-0.02-0.5,0c-0.33,0.04-0.37,0.27-0.38,0.33
		c-0.02,0.25,0.04,0.45,0.19,0.6c0.12,0.12,0.25,0.22,0.38,0.3c0.1,0.06,0.19,0.13,0.23,0.18c0,0.01-0.01,0.04-0.04,0.09
		c-0.17,0.22-0.33,0.5-0.51,0.84c-0.18,0.34-0.28,0.67-0.31,0.96c-0.05,0.6-0.01,1.18,0.13,1.74c0.14,0.56,0.36,1.06,0.67,1.49
		c0.31,0.44,0.71,0.8,1.2,1.08c0.49,0.28,1.06,0.45,1.7,0.5c0.74,0.06,1.37-0.06,1.9-0.37c0.51-0.3,0.98-0.69,1.39-1.17
		c0.4-0.47,0.78-0.99,1.11-1.54c0.32-0.54,0.67-1.04,1.03-1.5c0.35-0.44,0.74-0.81,1.16-1.09c0.4-0.27,0.89-0.38,1.44-0.33
		c0.39,0.03,0.73,0.12,1.01,0.27c0.29,0.15,0.53,0.35,0.72,0.59c0.19,0.24,0.34,0.53,0.43,0.84c0.09,0.31,0.12,0.66,0.09,1.02
		c-0.04,0.49-0.21,0.96-0.51,1.4c-0.29,0.43-0.69,0.74-1.17,0.92c-0.12,0.05-0.27,0.09-0.44,0.11c-0.18,0.03-0.36,0.06-0.52,0.08
		c-0.17,0.03-0.33,0.06-0.45,0.11c-0.25,0.09-0.3,0.27-0.31,0.36c0,0.02-0.01,0.05-0.02,0.08c-0.02,0.06-0.04,0.13-0.04,0.19
		c-0.01,0.1,0.02,0.19,0.08,0.28c0.07,0.09,0.18,0.15,0.35,0.19c0.34,0.05,0.64,0.09,0.92,0.12c0.27,0.03,0.57,0.06,0.91,0.09
		c0.14,0.01,0.32,0.04,0.54,0.07c0.23,0.04,0.46,0.07,0.69,0.09c0.13,0.01,0.26,0.02,0.38,0.02c0.08,0,0.16,0,0.23-0.01
		c0.36-0.03,0.43-0.22,0.43-0.33c0.02-0.24-0.02-0.44-0.13-0.57C222.88,124.9,222.78,124.8,222.66,124.72"/>
</g>
</svg>
