<?xml version="1.0" encoding="UTF-8" standalone="no"?>
<svg
   viewBox="0 0 576 512"
   version="1.1"
   id="svg491"
   xmlns="http://www.w3.org/2000/svg"
   xmlns:svg="http://www.w3.org/2000/svg">
  <!--! Font Awesome Pro 6.4.0 by @fontawesome - https://fontawesome.com License - https://fontawesome.com/license (Commercial License) Copyright 2023 Fonticons, Inc. -->
  <defs
     id="defs485">
    <style
       id="style483">
            .fa-secondary {
                fill: #a8dadc;
            }

            .fa-primary {
                fill: #457b9d;
            }
        </style>
  </defs>
  <path
     id="path459"
     style="fill:#457b9d"
     class="fa-primary"
     d="m 417.02539,0 c -17.69998,0 -32,14.300018 -32,32 0,34.199966 -15.90042,65.000033 -45.40039,96 H 110.42578 c 15.19999,15.89998 33.80041,31.80002 55.40039,48 h 118.5 c -23.59997,17.69998 -49.70003,35.20041 -77,53.40039 l -1.60156,1 C 158.82466,261.60036 108.62575,295.10082 70.425781,333.30078 31.32582,372.50074 1.0253906,420.20006 1.0253906,480 c 0,17.69998 14.3000174,32 32.0000004,32 17.699982,0 32,-14.30002 32,-32 H 257.21094 c -0.0237,-0.71416 -0.10938,-1.41359 -0.10938,-2.13281 0,-22.49475 6.12109,-43.62803 16.74219,-61.86719 H 84.925781 c 7.999992,-12.49999 18.299229,-24.9004 30.699219,-37.40039 33.29997,-33.29997 78.39966,-63.50003 127.09961,-96 l 1.60156,-1 c 30.91489,-20.56598 63.19711,-42.16786 92.59766,-65.41992 11.51618,-19.1977 28.57613,-34.7387 49.00976,-44.1875 35.94478,-37.92597 63.0918,-83.511152 63.0918,-139.99219 0,-17.699982 -14.30002,-32 -32,-32 z" />
  <path
     id="path461"
     style="fill:#a8dadc"
     class="fa-secondary"
     d="M 33.025391,0 C 15.325408,0 1.0253906,14.300018 1.0253906,32 c 0,59.79994 30.3004294,107.49965 69.4003904,146.59961 27.999972,27.99997 62.498859,53.50041 97.298829,77.40039 11.79999,-8.09999 23.80157,-16.10001 35.60156,-24 l 3.89844,-2.59961 C 213.2246,225.40039 219.1254,221.4 225.02539,217.5 183.22543,189.40003 144.92497,162.60036 115.625,133.40039 103.22501,120.9004 92.925773,108.49999 84.925781,96 H 365.125 C 378.12499,75.500021 385.02539,54.499977 385.02539,32 H 65.025391 c 0,-17.699982 -14.300018,-32 -32,-32 z M 282.32617,256 c -13.09999,8.99999 -26.40001,17.89962 -39.5,26.59961 l -4,2.70117 c -4.59999,3.1 -9.20078,6.19922 -13.80078,9.19922 20.89998,13.99999 40.8008,27.70001 59.30078,41.5 h -118.5 c -21.59998,16.19998 -40.2004,32.10002 -55.40039,48 h 190.09375 c 16.40716,-14.09926 36.47219,-24.04974 58.53516,-28.07812 C 338.6209,337.9407 324.72824,312.681 321.72656,284.32031 308.82832,274.64141 295.66138,265.15837 282.32617,256 Z" />
  <path
     style="color:#000000;font-variation-settings:normal;display:inline;vector-effect:none;fill:#457b9d;fill-opacity:1;stroke-width:61.9;stroke-linecap:round;stroke-linejoin:miter;stroke-miterlimit:4;stroke-dasharray:none;stroke-dashoffset:0;stroke-opacity:1;-inkscape-stroke:none;paint-order:stroke fill markers;stop-color:#000000"
     d="m 432.05234,352.76758 c 30.10594,0 56.32771,-16.6299 69.98047,-41.20478 6.38373,-11.49068 10.0195,-24.71836 10.0195,-38.79522 0,-44.18278 -35.81716,-80 -79.99997,-80 -44.18281,0 -79.99997,35.81722 -79.99997,80 0,44.18278 35.81716,80 79.99997,80 z m -50.9,32 c -51.4,0 -93.1,41.7 -93.1,93.1 0,19.3 15.6,34.9 34.9,34.9 h 218.2 c 19.3,0 34.9,-15.6 34.9,-34.9 0,-38.6421 -23.56847,-71.80185 -57.10841,-85.88226 -6.99615,-2.93705 -14.42616,-5.04395 -22.16663,-6.1973 -4.51102,-0.67215 -9.12748,-1.02044 -13.82496,-1.02044 z"
     id="path7591-7" />
</svg>
