<svg id="Layer_1" data-name="Layer 1" xmlns="http://www.w3.org/2000/svg" width="384" height="512.39" viewBox="0 0 384 512.39"><path d="M302.5,256.39a64,64,0,1,0,64,64A64.06,64.06,0,0,0,302.5,256.39Zm0,112a48,48,0,1,1,48-48A48,48,0,0,1,302.5,368.39Z" transform="translate(-32)"/><path d="M342.5,416.39h-80a72,72,0,0,0-72,72,23.94,23.94,0,0,0,24,24h176a23.94,23.94,0,0,0,24-24A72,72,0,0,0,342.5,416.39Zm48,80h-176a8,8,0,0,1-8-8,56,56,0,0,1,56-56h80a56,56,0,0,1,56,56A8,8,0,0,1,390.5,496.39Z" transform="translate(-32)"/><path d="M188.79,448H59.09a286.22,286.22,0,0,1,41.37-80H239.65a78.6,78.6,0,0,1-9.47-16H112.1c26.24-31.3,62.79-62.67,114.6-88.88.16-.08.35-.21.51-.29C413.7,168.7,416,9.59,416,8a8,8,0,0,0-16,0c0,.48-.32,16.12-6.41,40H54.41C48.32,24.12,48,8.48,48,8A8,8,0,0,0,32,8c0,1.55,2.55,153.2,175.7,248C34.55,350.8,32,502.4,32,504a8,8,0,1,0,16,0c0-.48.32-16.12,6.41-40H181A80.77,80.77,0,0,1,188.79,448ZM59.09,64H388.9a286.22,286.22,0,0,1-41.37,80h-247A284.87,284.87,0,0,1,59.09,64Zm53,96h222c-24.7,30.5-60.3,61.1-110.1,86.9C174.2,221.1,138.6,190.5,112.1,160Z" transform="translate(-32)"/></svg>