<svg width="384" height="100" viewBox="0 0 384 100" fill="none" xmlns="http://www.w3.org/2000/svg">
<mask id="mask0_20_1398" style="mask-type:luminance" maskUnits="userSpaceOnUse" x="0" y="0" width="384" height="100">
<path d="M0 100H384V0H0V100Z" fill="white"/>
</mask>
<g mask="url(#mask0_20_1398)">
<path d="M83.911 98.7471C77.4008 97.4116 73.2075 91.0536 74.5439 84.5473C75.8418 78.2201 81.8962 74.0804 88.2169 75.0884C90.1779 75.201 92.1005 74.9554 93.9897 74.326C102.123 71.6242 106.521 62.8433 103.815 54.7149C102.274 50.084 98.7591 46.6632 94.5146 45.0769C94.2329 44.9925 93.9513 44.8978 93.6749 44.7929L93.5085 44.7264C92.2541 44.2224 91.0662 43.5009 89.9987 42.5542C89.6864 42.2753 89.392 41.9862 89.1155 41.6843C84.9887 37.0918 84.8863 30.194 88.99 25.5758C93.4009 20.6097 101.007 20.1569 105.976 24.5678C109.017 27.267 110.366 31.1585 109.946 34.9119C109.734 36.8026 109.073 38.6525 107.955 40.3001C107.834 40.4767 107.709 40.6532 107.578 40.8246C106.437 42.4826 105.605 44.3912 105.174 46.4867C103.452 54.8761 108.861 63.0762 117.255 64.798C122.032 65.778 126.743 64.4501 130.237 61.582C130.46 61.3978 130.677 61.211 130.887 61.0165L131.015 60.9142C132.078 60.0801 133.299 59.4123 134.653 58.962C135.05 58.8316 135.447 58.719 135.846 58.632C141.821 57.3195 147.906 60.6839 149.87 66.5788C151.966 72.8804 148.557 79.6887 142.249 81.7841C138.332 83.0864 134.22 82.2651 131.164 79.9445C129.743 78.8674 128.553 77.4679 127.713 75.8048C127.575 75.4697 127.426 75.137 127.265 74.807C126.402 73.057 125.194 71.4425 123.645 70.066C117.235 64.3784 107.425 64.9618 101.736 71.3683C98.5363 74.9682 97.3203 79.6401 98.009 84.0535C98.1088 84.4501 98.1882 84.8543 98.2471 85.2611C98.4365 86.5967 98.4058 87.986 98.1191 89.3855C98.0346 89.7923 97.9296 90.194 97.8067 90.5829C95.9814 96.3958 90.0115 99.9983 83.911 98.7471Z" fill="#13A337"/>
<path d="M154.586 -0.000747681C149.395 -0.000747681 144.705 3.37651 143.123 8.41169C143.002 8.80058 142.897 9.20227 142.813 9.61164C142.526 11.006 142.495 12.3979 142.685 13.7334C142.744 14.1402 142.823 14.5445 142.923 14.9385C143.609 19.352 142.396 24.0264 139.196 27.6262C136.129 31.0802 131.869 32.8405 127.586 32.8405C123.923 32.8405 120.244 31.551 117.287 28.9285C115.738 27.552 114.527 25.9376 113.667 24.185C113.506 23.8575 113.357 23.5275 113.219 23.1897C112.379 21.5267 111.186 20.1272 109.768 19.0475C107.695 17.474 105.135 16.5913 102.482 16.5913C101.223 16.5913 99.9428 16.7883 98.6833 17.2079C95.4986 18.2671 93.0538 20.5238 91.6816 23.3126C93.6017 22.1305 95.793 21.5344 97.9921 21.5344C100.834 21.5344 103.686 22.5322 105.977 24.5662C109.018 27.2655 110.367 31.1596 109.945 34.9129C109.794 36.2689 109.41 37.607 108.79 38.8633C109.182 38.6228 109.558 38.3618 109.917 38.0804L110.042 37.978C110.255 37.7836 110.472 37.5968 110.695 37.4126C113.419 35.1739 116.882 33.8767 120.541 33.8767C121.572 33.8767 122.625 33.9816 123.677 34.1965C132.071 35.9184 137.48 44.1185 135.757 52.5079C135.327 54.6033 134.493 56.512 133.354 58.1699C133.223 58.3413 133.098 58.5153 132.977 58.6944C132.662 59.1575 132.383 59.6385 132.14 60.1323C132.913 59.6564 133.753 59.2624 134.652 58.9631C135.048 58.83 135.448 58.72 135.847 58.6305C136.715 58.4411 137.585 58.349 138.443 58.349C143.502 58.349 148.191 61.5369 149.868 66.5772C150.908 69.6986 150.595 72.9454 149.249 75.6805C150.229 75.0792 151.141 74.3245 151.942 73.4187C156.046 68.8006 155.943 61.9028 151.816 57.3077C151.54 57.0084 151.246 56.7192 150.933 56.4404C149.866 55.4937 148.675 54.7696 147.423 54.2682L147.257 54.2016C146.981 54.0967 146.699 54.0021 146.417 53.9176C142.173 52.3314 138.655 48.9106 137.114 44.2797C134.411 36.1538 138.809 27.3704 146.942 24.666C148.537 24.1364 150.16 23.8805 151.806 23.8805C152.108 23.8805 152.41 23.8882 152.715 23.9061C153.352 24.0059 153.987 24.0571 154.615 24.0571C160.208 24.0571 165.221 20.1374 166.388 14.4447C167.724 7.93836 163.531 1.58298 157.021 0.247429C156.204 0.0811234 155.388 -0.000747681 154.586 -0.000747681Z" fill="#9BC431"/>
<path d="M97.9916 21.5333C95.7926 21.5333 93.6012 22.132 91.6812 23.3141C90.3346 26.0491 90.0223 29.2959 91.0617 32.4148C92.7385 37.4551 97.431 40.6455 102.487 40.6455C103.347 40.6455 104.218 40.5534 105.085 40.3615C105.485 40.2745 105.882 40.1645 106.278 40.0315C107.177 39.7347 108.017 39.3381 108.79 38.8648C109.409 37.6086 109.793 36.2705 109.944 34.9119C110.367 31.1585 109.018 27.267 105.976 24.5678C103.685 22.5337 100.833 21.5333 97.9916 21.5333ZM138.442 58.348C137.585 58.348 136.714 58.4401 135.847 58.632C135.447 58.719 135.048 58.8315 134.654 58.962C133.755 59.2614 132.913 59.6554 132.14 60.1313C131.523 61.3875 131.139 62.7256 130.985 64.0816C130.563 67.835 131.914 71.7291 134.956 74.4283C137.247 76.4598 140.099 77.4602 142.94 77.4602C145.137 77.4602 147.328 76.8615 149.248 75.6794C150.595 72.9444 150.907 69.7002 149.87 66.5788C148.191 61.5385 143.501 58.348 138.442 58.348Z" fill="#009C3B"/>
<path d="M120.806 52.011C121.572 54.3111 120.328 56.798 118.026 57.563C115.722 58.328 113.236 57.0846 112.471 54.7819C111.703 52.4818 112.95 49.9949 115.251 49.2299C117.555 48.4649 120.041 49.7109 120.806 52.011Z" fill="#DA004C"/>
<path d="M3.89305 68.4954V60.5562H13.9411H14.5402V59.9576V57.5781V56.9794H13.9411H3.89305V48.8638H14.6784H15.2749V48.2676V45.9215V45.3228H14.6784H0.598312H-0.000732422V45.9215V71.4735V72.0722H0.598312H14.7475H15.3466V71.4735V69.094V68.4954H14.7475H3.89305Z" fill="black"/>
<path d="M38.4226 45.3238H37.8235V45.9225V60.9027C37.8235 65.5695 34.9256 68.7062 30.612 68.7062C26.3188 68.7062 23.4362 65.5695 23.4362 60.9027V45.9225V45.3238H22.8372H20.0365H19.4375V45.9225V60.762C19.4375 67.6265 24.0327 72.4212 30.612 72.4212C37.1912 72.4212 41.7865 67.6265 41.7865 60.762V45.9225V45.3238H41.19H38.4226Z" fill="black"/>
<path d="M51.5587 59.4298V48.8989H53.727C58.0227 48.8989 60.8003 50.9994 60.8003 54.2513C60.8003 57.3983 58.0381 59.4298 53.7628 59.4298H51.5587ZM55.798 62.8198C61.2176 62.129 64.7632 58.803 64.7632 54.2513C64.7632 48.9961 60.2397 45.3246 53.7628 45.3246H48.2281H47.6316V45.9208V71.4728V72.0715H48.2281H50.9596H51.5587V71.4728V63.723L60.2525 71.9077L60.4214 72.0689L60.657 72.0715L64.369 72.1073L65.9255 72.1201L64.7786 71.0685L55.798 62.8198Z" fill="black"/>
<path d="M81.1503 68.8106C75.4415 68.8106 71.1355 64.4483 71.1355 58.6634C71.1355 52.917 75.4415 48.5854 81.1503 48.5854C86.9743 48.5854 91.1984 52.8223 91.1984 58.6634C91.1984 64.5429 86.9743 68.8106 81.1503 68.8106ZM81.1503 44.9728C73.181 44.9728 67.1726 50.8599 67.1726 58.6634C67.1726 66.5053 73.181 72.4206 81.1503 72.4206C89.158 72.4206 95.1971 66.5053 95.1971 58.6634C95.1971 50.8599 89.158 44.9728 81.1503 44.9728Z" fill="black"/>
<path d="M171.064 68.5307H165.358V60.1362H170.362C172.195 60.1362 176.455 60.5583 176.455 64.4729C176.455 66.9751 174.389 68.5307 171.064 68.5307ZM165.358 48.8633H170.434C173.941 48.8633 175.721 50.1477 175.721 52.6781C175.721 54.9117 173.401 56.5952 170.329 56.5952H165.358V48.8633ZM176.204 58.1789C178.34 56.915 179.579 54.881 179.579 52.5374C179.579 48.0881 176.099 45.3249 170.503 45.3249H162.063H161.464V45.921V71.473V72.0717H162.063H171.205C176.76 72.0717 180.347 69.1857 180.347 64.7185C180.347 61.7174 178.89 59.4377 176.204 58.1789Z" fill="black"/>
<path d="M185.493 45.3238H184.894V45.9225V71.472V72.0707H185.493H188.225H188.824V71.472V45.9225V45.3238H188.225H185.493Z" fill="black"/>
<path d="M207.207 68.8106C201.498 68.8106 197.192 64.4483 197.192 58.6634C197.192 52.917 201.498 48.5854 207.207 48.5854C213.031 48.5854 217.255 52.8223 217.255 58.6634C217.255 64.5429 213.031 68.8106 207.207 68.8106ZM207.207 44.9728C199.237 44.9728 193.229 50.8599 193.229 58.6634C193.229 66.5053 199.237 72.4206 207.207 72.4206C215.214 72.4206 221.254 66.5053 221.254 58.6634C221.254 50.8599 215.214 44.9728 207.207 44.9728Z" fill="black"/>
<path d="M226.224 45.3238H225.625V45.9225V71.472V72.0707H226.224H228.956H229.555V71.472V45.9225V45.3238H228.956H226.224Z" fill="black"/>
<path d="M257.919 45.3238H257.597L257.42 45.595L248.36 59.4571L239.334 45.595L239.157 45.3238H238.832H236.415H235.816V45.9225V71.472V72.0707H236.415H238.937H239.536V71.472V52.3828L247.16 63.8578L247.336 64.1265H247.659H249.2H249.522L249.702 63.8527L257.215 52.2805V71.472V72.0707H257.814H260.336H260.935V71.472V45.9225V45.3238H260.336H257.919Z" fill="black"/>
<path d="M271.657 62.0553L276.542 49.8972L281.247 62.0553H271.657ZM278.753 45.6986L278.602 45.3225H278.198H274.906H274.504L274.353 45.6935L263.846 71.2455L263.506 72.0719H264.399H267.236H267.64L267.791 71.6958L270.162 65.8061H282.691L284.959 71.6882L285.107 72.0719H285.517H288.425H289.308L288.981 71.2507L278.753 45.6986Z" fill="black"/>
<path d="M304.149 59.3599H303.55V59.9586V62.3022V62.9009H304.149H312.157C311.338 66.6159 308.199 68.8111 303.624 68.8111C297.936 68.8111 293.646 64.4642 293.646 58.6973C293.646 52.9329 297.936 48.5834 303.624 48.5834C308.174 48.5834 311.489 51.3364 312.067 55.5938L312.137 56.1106H312.659H315.252H315.907L315.846 55.4556C315.273 49.3817 310.132 44.9733 303.624 44.9733C299.925 44.9733 296.459 46.314 293.863 48.7497C291.167 51.2801 289.683 54.7878 289.683 58.6282C289.683 62.512 291.165 66.0581 293.861 68.6116C296.454 71.0677 299.92 72.4212 303.624 72.4212C310.885 72.4212 315.954 67.67 315.954 60.8669V59.9586V59.3599H315.357H304.149Z" fill="black"/>
<path d="M320.995 45.3238H320.396V45.9225V71.472V72.0707H320.995H323.726H324.326V71.472V45.9225V45.3238H323.726H320.995Z" fill="black"/>
<path d="M350.273 45.3238H349.674V45.9225V65.769L333.615 45.549L333.436 45.3238H333.147H331.186H330.587V45.9225V71.472V72.0707H331.186H333.672H334.271V71.472V52.2728L350.017 71.8481L350.197 72.0707H350.483H352.726H353.322V71.472V45.9225V45.3238H352.726H350.273Z" fill="black"/>
<path d="M383.405 59.3599H372.197H371.601V59.9586V62.3022V62.9009H372.197H380.205C379.386 66.6159 376.247 68.8111 371.672 68.8111C365.984 68.8111 361.693 64.4642 361.693 58.6973C361.693 52.9329 365.984 48.5834 371.672 48.5834C376.221 48.5834 379.537 51.3364 380.115 55.5938L380.184 56.1106H380.707H383.3H383.958L383.896 55.4556C383.323 49.3817 378.18 44.9733 371.672 44.9733C367.973 44.9733 364.507 46.314 361.911 48.7497C359.215 51.2801 357.73 54.7878 357.73 58.6282C357.73 62.512 359.215 66.0581 361.908 68.6116C364.502 71.0677 367.968 72.4212 371.672 72.4212C378.933 72.4212 384.004 67.67 384.004 60.8669V59.9586V59.3599H383.405Z" fill="black"/>
</g>
</svg>
