<svg width="70" height="70" viewBox="0 0 70 70" fill="none" xmlns="http://www.w3.org/2000/svg">
<g clip-path="url(#clip0)">
<path d="M37.4267 50.3405C37.3306 50.3405 37.1178 50.4369 36.9873 50.9121C36.7046 52.2368 36.5256 53.5815 36.4519 54.9342C36.3283 55.5402 35.3879 56.3116 34.6121 55.8708C34.1392 55.5977 33.643 55.3672 33.1294 55.1821C32.6208 54.9692 32.0948 54.801 31.5573 54.6793C30.6787 54.4796 30.5345 53.3019 30.8709 52.7372C31.7409 51.7013 32.5282 50.5983 33.2255 49.4383C33.4657 48.9838 33.3559 48.7496 33.2873 48.7014C32.7442 48.3947 32.2193 48.0567 31.7152 47.689C31.6191 47.6477 31.3857 47.6408 31.0768 48.0403C30.3005 49.1557 29.612 50.33 29.0174 51.5526C28.6673 52.0623 27.5071 52.4411 26.958 51.711C26.6242 51.2723 26.2545 50.8622 25.8527 50.4852C25.4663 50.0927 25.0459 49.7355 24.5965 49.4177C23.8551 48.8943 24.1915 47.7166 24.6857 47.3516C25.8828 46.7268 27.0303 46.0107 28.1181 45.2097C28.5025 44.8791 28.4888 44.6519 28.4545 44.521C28.0904 44.0414 27.7557 43.54 27.4522 43.0196C27.3698 42.9508 27.1639 42.8475 26.7177 43.0954C25.5851 43.8355 24.511 44.6621 23.505 45.5678C22.9901 45.8984 21.7751 45.802 21.5417 44.9204C21.4068 44.3867 21.2253 43.8658 20.9994 43.364C20.7869 42.8544 20.532 42.3637 20.2374 41.8971C19.7637 41.1326 20.5257 40.1753 21.1161 40.0238C22.4615 39.9 23.7952 39.6698 25.1045 39.3351C25.5781 39.1905 25.6537 38.977 25.6674 38.8668C25.5014 38.262 25.3708 37.648 25.2761 37.0279C25.2349 36.9315 25.077 36.7593 24.5896 36.8213C23.2597 37.0656 21.9513 37.4157 20.6767 37.8682C20.0726 37.9783 18.988 37.4205 19.1184 36.4908C19.193 35.9432 19.2206 35.3902 19.2008 34.8379C19.2006 34.2886 19.1546 33.7404 19.0635 33.1988C18.9056 32.3035 19.9765 31.7112 20.5806 31.8214C21.8687 32.2292 23.186 32.5378 24.521 32.7442C25.0358 32.7855 25.2074 32.6065 25.2074 32.517C25.2743 31.8925 25.3844 31.2735 25.537 30.6643C25.537 30.5542 25.4408 30.3475 24.9603 30.2098C23.6395 29.9301 22.2992 29.7528 20.9513 29.6795C20.3541 29.5487 19.5784 28.6189 20.0177 27.8269C20.2891 27.3543 20.5188 26.8589 20.7042 26.3462C20.9187 25.8369 21.0864 25.309 21.2053 24.7691C21.4044 23.8806 22.6263 23.7498 23.148 24.0804C24.1817 24.9537 25.2811 25.7458 26.4362 26.4495C26.8893 26.6837 27.1227 26.5804 27.1708 26.5046C27.4771 25.9586 27.8164 25.4319 28.1867 24.9275C28.1867 24.8311 28.1867 24.5969 27.8298 24.287C26.7163 23.5171 25.5432 22.8378 24.3219 22.2553C23.8208 21.8972 23.4501 20.7333 24.1709 20.1892C25.0384 19.5094 25.8078 18.7121 26.4568 17.8201C26.9785 17.0832 28.1456 17.4206 28.5163 17.9096C29.1332 19.1139 29.8472 20.2656 30.6512 21.3531C30.9738 21.7457 31.2072 21.725 31.3377 21.6906C31.8315 21.3051 32.3473 20.9487 32.8822 20.6231C32.944 20.5473 33.047 20.3338 32.793 19.8931C32.0612 18.7522 31.2393 17.6721 30.3354 16.6631C29.999 16.1534 30.102 14.9275 30.9738 14.7072C31.5068 14.5647 32.0279 14.3805 32.5321 14.1562C33.0376 13.9405 33.5264 13.6873 33.9943 13.3986C34.7563 12.9096 35.7105 13.6741 35.8615 14.2664C35.9842 15.6186 36.2138 16.9589 36.548 18.2746C36.6922 18.7429 36.905 18.8256 37.0079 18.8325C37.6134 18.6689 38.2276 18.5401 38.8477 18.4468C38.9369 18.3986 39.1154 18.2402 39.0536 17.7581C38.7852 16.4241 38.411 15.1137 37.9347 13.8394C37.8248 13.2402 38.3809 12.1521 39.3076 12.276C40.3828 12.3519 41.4631 12.3033 42.5272 12.1314C43.4265 11.973 44.0168 13.0474 43.9001 13.6534C43.4921 14.9477 43.1846 16.2716 42.9803 17.6135C42.9391 18.1231 43.1176 18.2677 43.2137 18.3022C43.653 18.3573 44.0786 18.4468 44.5042 18.5294L45.987 10.0033H11.6633L3 58.9975H37.3718L38.8477 50.6229C38.3672 50.554 37.8935 50.4783 37.4267 50.3405Z" fill="#DB316C"/>
<path d="M62.106 10.0029L53.4771 58.9971H58.3716L67.0006 10.0029H62.106Z" fill="#DB316C"/>
<path d="M55.7969 34.5C55.7959 34.7903 55.74 35.0777 55.6321 35.3471C55.5768 35.4789 55.5102 35.6056 55.433 35.7259C55.3463 35.8525 55.2499 35.9723 55.1447 36.084L47.1267 44.1418C46.6976 44.5475 46.1278 44.7694 45.5382 44.7603C44.9487 44.7512 44.3859 44.5119 43.9694 44.0932C43.553 43.6745 43.3156 43.1094 43.3078 42.5179C43.3 41.9264 43.5224 41.3552 43.9277 40.9256L48.0466 36.7934H30.3699C29.769 36.7934 29.1928 36.5539 28.768 36.1277C28.3432 35.7015 28.1045 35.1234 28.1045 34.5207C28.1045 33.9179 28.3432 33.3398 28.768 32.9136C29.1928 32.4874 29.769 32.248 30.3699 32.248H48.0466L43.9277 28.1158C43.7145 27.905 43.5448 27.6542 43.4282 27.3777C43.3116 27.1011 43.2504 26.8043 43.2482 26.504C43.246 26.2038 43.3027 25.906 43.4152 25.6278C43.5277 25.3495 43.6937 25.0962 43.9037 24.8823C44.1137 24.6684 44.3637 24.4981 44.6394 24.3811C44.915 24.2642 45.2109 24.2028 45.5102 24.2006C46.1147 24.1961 46.6961 24.4326 47.1267 24.8582L55.131 32.8884C55.2361 32.9978 55.3325 33.1152 55.4193 33.2397C55.4964 33.3576 55.563 33.482 55.6184 33.6116C55.7355 33.8931 55.7961 34.195 55.7969 34.5Z" fill="#4B9BD9"/>
</g>
<defs>
<clipPath id="clip0">
<rect width="64" height="49" fill="white" transform="translate(3 10)"/>
</clipPath>
</defs>
</svg>
