<?xml version="1.0" encoding="UTF-8" standalone="no"?>
<svg
   xmlns:dc="http://purl.org/dc/elements/1.1/"
   xmlns:cc="http://creativecommons.org/ns#"
   xmlns:rdf="http://www.w3.org/1999/02/22-rdf-syntax-ns#"
   xmlns:svg="http://www.w3.org/2000/svg"
   xmlns="http://www.w3.org/2000/svg"
   xmlns:sodipodi="http://sodipodi.sourceforge.net/DTD/sodipodi-0.dtd"
   xmlns:inkscape="http://www.inkscape.org/namespaces/inkscape"
   version="1.1"
   id="svg2"
   xml:space="preserve"
   width="290.79999"
   height="294.73334"
   viewBox="0 0 290.79999 294.73334"
   sodipodi:docname="EN V Funded by the EU_WHITE.eps"><metadata
     id="metadata8"><rdf:RDF><cc:Work
         rdf:about=""><dc:format>image/svg+xml</dc:format><dc:type
           rdf:resource="http://purl.org/dc/dcmitype/StillImage" /></cc:Work></rdf:RDF></metadata><defs
     id="defs6" /><sodipodi:namedview
     pagecolor="#ffffff"
     bordercolor="#666666"
     borderopacity="1"
     objecttolerance="10"
     gridtolerance="10"
     guidetolerance="10"
     inkscape:pageopacity="0"
     inkscape:pageshadow="2"
     inkscape:window-width="640"
     inkscape:window-height="480"
     id="namedview4" /><g
     id="g10"
     inkscape:groupmode="layer"
     inkscape:label="ink_ext_XXXXXX"
     transform="matrix(1.3333333,0,0,-1.3333333,0,294.73333)"><g
       id="g12"
       transform="scale(0.1)"><path
         d="m 1517.08,1351.24 -37.16,27.17 -37.11,-27.17 14.11,43.86 -37.74,27.12 46.53,-0.05 14.21,44.48 14.26,-44.43 h 46.53 l -37.75,-27.12 z m -51.04,-193.18 -37.16,27.17 -37.16,-27.17 14.16,43.86 -37.73,27.12 46.46,-0.05 14.27,44.49 14.27,-44.44 h 46.47 l -37.74,-27.12 z m -154.56,569.54 14.12,-43.85 -37.12,27.16 -37.21,-27.16 14.13,43.85 -37.7,27.17 46.52,-0.1 14.22,44.49 14.21,-44.39 h 46.57 z m 13.58,-710.52 -37.15,27.12 -37.16,-27.12 14.11,43.86 -37.7,27.12 46.48,-0.05 14.27,44.44 14.2,-44.39 h 46.53 l -37.74,-27.12 z M 1132.97,966 1095.84,993.121 1058.68,966 l 14.12,43.86 -37.72,27.11 46.53,-0.04 14.21,44.48 14.23,-44.44 h 46.53 l -37.75,-27.11 z m -51.41,840.39 14.24,44.43 14.23,-44.39 h 46.53 l -37.75,-27.11 14.14,-43.86 -37.15,27.12 -37.16,-27.12 14.14,43.86 -37.73,27.11 z m -140.646,-789.31 -37.129,27.12 -37.168,-27.12 14.121,43.86 -37.726,27.12 46.523,-0.05 14.219,44.44 14.238,-44.39 h 46.524 l -37.715,-27.12 z m -51.691,737.64 14.238,44.49 14.238,-44.44 h 46.524 l -37.715,-27.12 14.121,-43.85 -37.137,27.11 -37.16,-27.11 14.113,43.85 -37.715,27.12 z m -103.426,-168.09 14.141,-43.86 -37.161,27.12 -37.156,-27.12 14.141,43.86 -37.727,27.12 46.504,-0.05 14.238,44.48 14.239,-44.43 h 46.504 z m 14.141,-428.57 -37.161,27.17 -37.156,-27.17 14.141,43.86 -37.727,27.12 46.504,-0.05 14.238,44.49 14.239,-44.44 h 46.504 l -37.723,-27.12 z m -149.543,263.62 46.523,-0.1 14.238,44.54 14.239,-44.44 h 46.503 l -37.714,-27.12 14.113,-43.85 -37.141,27.12 -37.156,-27.12 14.141,43.85 z m 764.215,192.55 14.27,44.48 14.27,-44.43 h 46.47 l -37.74,-27.07 14.16,-43.86 -37.16,27.12 -37.16,-27.12 14.16,43.86 -37.73,27.07 z M 215.629,1991.27 V 817.211 H 1976.68 V 1991.27 H 215.629"
         style="fill:#ffffff;fill-opacity:1;fill-rule:nonzero;stroke:none"
         id="path14" /><path
         d="m 401.332,481.969 v 150.32 h 103.047 v -25.418 h -72.695 v -35.582 h 62.754 v -25.43 h -62.754 v -63.89 h -30.352"
         style="fill:#ffffff;fill-opacity:1;fill-rule:nonzero;stroke:none"
         id="path16" /><path
         d="m 600.875,481.969 v 16.312 c -3.965,-5.82 -9.18,-10.402 -15.637,-13.75 -6.465,-3.34 -13.281,-5.019 -20.457,-5.019 -7.316,0 -13.879,1.609 -19.687,4.828 -5.813,3.199 -10.02,7.711 -12.617,13.531 -2.598,5.801 -3.899,13.84 -3.899,24.09 v 68.91 h 28.82 v -50.039 c 0,-15.312 0.528,-24.703 1.59,-28.141 1.055,-3.461 2.989,-6.203 5.793,-8.211 2.801,-2.019 6.356,-3.019 10.664,-3.019 4.922,0 9.325,1.34 13.223,4.051 3.895,2.687 6.562,6.039 7.996,10.047 1.438,3.992 2.16,13.793 2.16,29.371 v 45.941 h 28.809 V 481.969 h -26.758"
         style="fill:#ffffff;fill-opacity:1;fill-rule:nonzero;stroke:none"
         id="path18" /><path
         d="m 756.527,481.969 h -28.816 v 55.582 c 0,11.758 -0.617,19.359 -1.848,22.808 -1.23,3.461 -3.23,6.129 -5.996,8.063 -2.773,1.898 -6.101,2.867 -10,2.867 -4.988,0 -9.461,-1.379 -13.426,-4.098 -3.964,-2.75 -6.691,-6.371 -8.156,-10.882 -1.472,-4.508 -2.207,-12.848 -2.207,-25.02 v -49.32 H 657.27 v 108.902 h 26.757 v -16 c 9.504,12.309 21.465,18.461 35.891,18.461 6.355,0 12.168,-1.141 17.43,-3.441 5.265,-2.282 9.25,-5.211 11.945,-8.762 2.703,-3.559 4.578,-7.59 5.645,-12.109 1.054,-4.508 1.589,-10.961 1.589,-19.372 v -67.679"
         style="fill:#ffffff;fill-opacity:1;fill-rule:nonzero;stroke:none"
         id="path20" /><path
         d="m 808.727,538.781 c 0,-11.621 1.601,-20.031 4.812,-25.23 4.649,-7.512 11.145,-11.27 19.484,-11.27 6.629,0 12.266,2.821 16.915,8.449 4.648,5.649 6.972,14.059 6.972,25.29 0,12.5 -2.246,21.511 -6.758,27.011 -4.511,5.508 -10.293,8.258 -17.336,8.258 -6.836,0 -12.558,-2.73 -17.175,-8.16 -4.61,-5.43 -6.914,-13.547 -6.914,-24.348 z m 76.894,-56.812 h -26.758 v 16 c -4.445,-6.219 -9.687,-10.848 -15.742,-13.899 -6.047,-3.031 -12.148,-4.558 -18.301,-4.558 -12.511,0 -23.222,5.039 -32.148,15.129 -8.918,10.078 -13.379,24.148 -13.379,42.199 0,18.449 4.336,32.48 13.016,42.09 8.683,9.601 19.66,14.402 32.921,14.402 12.168,0 22.696,-5.062 31.583,-15.184 v 54.141 h 28.808 v -150.32"
         style="fill:#ffffff;fill-opacity:1;fill-rule:nonzero;stroke:none"
         id="path22" /><path
         d="m 978.734,545.75 c -0.203,8.34 -2.351,14.68 -6.453,19.031 -4.101,4.328 -9.101,6.508 -14.98,6.508 -6.289,0 -11.485,-2.301 -15.586,-6.879 -4.102,-4.578 -6.113,-10.801 -6.047,-18.66 z m -1.64,-29.121 28.716,-4.809 c -3.7,-10.539 -9.525,-18.55 -17.486,-24.058 -7.969,-5.492 -17.929,-8.25 -29.89,-8.25 -18.938,0 -32.95,6.179 -42.043,18.558 -7.176,9.91 -10.77,22.418 -10.77,37.539 0,18.039 4.727,32.172 14.16,42.391 9.434,10.219 21.356,15.332 35.782,15.332 16.199,0 28.984,-5.352 38.347,-16.043 9.37,-10.707 13.84,-27.09 13.43,-49.168 h -72.188 c 0.215,-8.551 2.528,-15.199 6.973,-19.949 4.441,-4.75 9.98,-7.133 16.621,-7.133 4.512,0 8.301,1.242 11.375,3.699 3.078,2.461 5.402,6.422 6.973,11.891"
         style="fill:#ffffff;fill-opacity:1;fill-rule:nonzero;stroke:none"
         id="path24" /><path
         d="m 1053.79,538.781 c 0,-11.621 1.61,-20.031 4.82,-25.23 4.65,-7.512 11.14,-11.27 19.48,-11.27 6.63,0 12.27,2.821 16.91,8.449 4.65,5.649 6.98,14.059 6.98,25.29 0,12.5 -2.25,21.511 -6.76,27.011 -4.51,5.508 -10.29,8.258 -17.33,8.258 -6.84,0 -12.56,-2.73 -17.18,-8.16 -4.61,-5.43 -6.92,-13.547 -6.92,-24.348 z m 76.9,-56.812 h -26.76 v 16 c -4.44,-6.219 -9.69,-10.848 -15.74,-13.899 -6.05,-3.031 -12.15,-4.558 -18.3,-4.558 -12.51,0 -23.22,5.039 -32.15,15.129 -8.92,10.078 -13.38,24.148 -13.38,42.199 0,18.449 4.34,32.48 13.03,42.09 8.67,9.601 19.65,14.402 32.91,14.402 12.17,0 22.69,-5.062 31.58,-15.184 v 54.141 h 28.81 v -150.32"
         style="fill:#ffffff;fill-opacity:1;fill-rule:nonzero;stroke:none"
         id="path26" /><path
         d="m 1244.82,538.781 c 0,-11.281 1.78,-19.621 5.33,-25.019 4.99,-7.66 11.62,-11.481 19.89,-11.481 6.36,0 11.78,2.707 16.25,8.149 4.49,5.429 6.72,13.992 6.72,25.679 0,12.442 -2.25,21.422 -6.76,26.922 -4.52,5.508 -10.3,8.258 -17.34,8.258 -6.9,0 -12.65,-2.687 -17.23,-8.059 -4.58,-5.359 -6.86,-13.511 -6.86,-24.449 z m -28.6,-56.812 v 150.32 h 28.8 v -54.141 c 8.89,10.122 19.42,15.184 31.59,15.184 13.26,0 24.22,-4.801 32.91,-14.402 8.68,-9.61 13.02,-23.399 13.02,-41.379 0,-18.59 -4.42,-32.922 -13.28,-42.961 -8.84,-10.059 -19.6,-15.078 -32.24,-15.078 -6.22,0 -12.36,1.547 -18.41,4.668 -6.05,3.109 -11.26,7.699 -15.64,13.789 v -16 h -26.75"
         style="fill:#ffffff;fill-opacity:1;fill-rule:nonzero;stroke:none"
         id="path28" /><path
         d="m 1332.08,590.871 h 30.65 l 26.05,-77.32 25.43,77.32 h 29.84 l -38.45,-104.801 -6.87,-18.961 c -2.53,-6.371 -4.95,-11.211 -7.23,-14.57 -2.3,-3.34 -4.92,-6.07 -7.9,-8.148 -2.97,-2.09 -6.63,-3.711 -10.97,-4.871 -4.34,-1.161 -9.25,-1.75 -14.71,-1.75 -5.54,0 -10.97,0.589 -16.3,1.75 l -2.57,22.562 c 4.51,-0.891 8.57,-1.344 12.2,-1.344 6.69,0 11.66,1.973 14.87,5.903 3.21,3.937 5.67,8.949 7.38,15.019 l -41.42,109.211"
         style="fill:#ffffff;fill-opacity:1;fill-rule:nonzero;stroke:none"
         id="path30" /><path
         d="m 1570.79,590.871 v -22.973 h -19.69 v -43.886 c 0,-8.883 0.18,-14.063 0.57,-15.532 0.37,-1.468 1.23,-2.691 2.55,-3.64 1.34,-0.961 2.96,-1.442 4.88,-1.442 2.66,0 6.52,0.93 11.58,2.774 l 2.46,-22.352 c -6.7,-2.871 -14.29,-4.308 -22.75,-4.308 -5.21,0 -9.89,0.867 -14.06,2.617 -4.17,1.742 -7.22,3.992 -9.18,6.769 -1.94,2.762 -3.3,6.512 -4.05,11.223 -0.6,3.348 -0.92,10.109 -0.92,20.309 v 47.468 h -13.22 v 22.973 h 13.22 V 612.5 l 28.92,16.82 v -38.449 h 19.69"
         style="fill:#ffffff;fill-opacity:1;fill-rule:nonzero;stroke:none"
         id="path32" /><path
         d="m 1619.51,632.289 v -55.258 c 9.28,10.86 20.4,16.301 33.32,16.301 6.63,0 12.61,-1.23 17.95,-3.691 5.33,-2.461 9.34,-5.61 12.04,-9.43 2.7,-3.832 4.55,-8.07 5.53,-12.723 1,-4.648 1.49,-11.867 1.49,-21.629 v -63.89 h -28.81 v 57.519 c 0,11.422 -0.55,18.672 -1.64,21.742 -1.09,3.09 -3.03,5.532 -5.79,7.329 -2.77,1.82 -6.24,2.73 -10.41,2.73 -4.79,0 -9.06,-1.168 -12.82,-3.5 -3.76,-2.32 -6.51,-5.82 -8.26,-10.5 -1.73,-4.68 -2.6,-11.609 -2.6,-20.769 v -54.551 h -28.82 v 150.32 h 28.82"
         style="fill:#ffffff;fill-opacity:1;fill-rule:nonzero;stroke:none"
         id="path34" /><path
         d="m 1783.76,545.75 c -0.2,8.34 -2.35,14.68 -6.45,19.031 -4.1,4.328 -9.1,6.508 -14.98,6.508 -6.29,0 -11.49,-2.301 -15.59,-6.879 -4.1,-4.578 -6.11,-10.801 -6.04,-18.66 z m -1.64,-29.121 28.71,-4.809 c -3.69,-10.539 -9.52,-18.55 -17.48,-24.058 -7.96,-5.492 -17.93,-8.25 -29.89,-8.25 -18.93,0 -32.95,6.179 -42.04,18.558 -7.18,9.91 -10.77,22.418 -10.77,37.539 0,18.039 4.73,32.172 14.16,42.391 9.43,10.219 21.36,15.332 35.78,15.332 16.2,0 28.99,-5.352 38.35,-16.043 9.37,-10.707 13.84,-27.09 13.43,-49.168 h -72.19 c 0.22,-8.551 2.53,-15.199 6.97,-19.949 4.45,-4.75 9.98,-7.133 16.62,-7.133 4.52,0 8.31,1.242 11.38,3.699 3.08,2.461 5.4,6.422 6.97,11.891"
         style="fill:#ffffff;fill-opacity:1;fill-rule:nonzero;stroke:none"
         id="path36" /><path
         d="m 307.758,229.969 v 150.32 h 111.465 v -25.43 h -81.114 v -33.328 h 75.469 v -25.32 h -75.469 v -40.91 h 83.985 V 229.969 H 307.758"
         style="fill:#ffffff;fill-opacity:1;fill-rule:nonzero;stroke:none"
         id="path38" /><path
         d="m 519.301,229.969 v 16.312 c -3.965,-5.82 -9.18,-10.402 -15.633,-13.75 -6.465,-3.34 -13.281,-5.019 -20.461,-5.019 -7.312,0 -13.875,1.609 -19.687,4.82 -5.809,3.207 -10.02,7.719 -12.618,13.539 -2.597,5.801 -3.894,13.84 -3.894,24.09 v 68.91 h 28.816 v -50.043 c 0,-15.308 0.528,-24.699 1.594,-28.148 1.055,-3.45 2.988,-6.192 5.789,-8.2 2.805,-2.019 6.359,-3.031 10.664,-3.031 4.922,0 9.328,1.352 13.223,4.063 3.898,2.687 6.562,6.039 8,10.039 1.433,4 2.156,13.789 2.156,29.379 v 45.941 h 28.809 V 229.969 h -26.758"
         style="fill:#ffffff;fill-opacity:1;fill-rule:nonzero;stroke:none"
         id="path40" /><path
         d="m 603.48,229.969 h -28.808 v 108.902 h 26.758 v -15.48 c 4.582,7.3 8.703,12.129 12.355,14.449 3.66,2.332 7.813,3.488 12.461,3.488 6.563,0 12.891,-1.816 18.973,-5.437 l -8.926,-25.121 c -4.852,3.152 -9.363,4.718 -13.535,4.718 -4.031,0 -7.449,-1.117 -10.254,-3.328 -2.801,-2.23 -5.008,-6.238 -6.609,-12.051 -1.614,-5.808 -2.415,-17.98 -2.415,-36.507 v -33.633"
         style="fill:#ffffff;fill-opacity:1;fill-rule:nonzero;stroke:none"
         id="path42" /><path
         d="m 680.492,284.422 c 0,-10.813 2.559,-19.082 7.688,-24.82 5.125,-5.743 11.453,-8.614 18.972,-8.614 7.52,0 13.821,2.871 18.918,8.614 5.086,5.738 7.637,14.078 7.637,25.019 0,10.66 -2.551,18.867 -7.637,24.609 -5.097,5.739 -11.398,8.61 -18.918,8.61 -7.519,0 -13.847,-2.871 -18.972,-8.61 -5.129,-5.742 -7.688,-14.019 -7.688,-24.808 z m -29.531,1.539 c 0,9.57 2.355,18.828 7.07,27.777 4.719,8.961 11.399,15.801 20.051,20.512 8.641,4.719 18.301,7.078 28.965,7.078 16.473,0 29.98,-5.348 40.508,-16.047 10.527,-10.699 15.789,-24.222 15.789,-40.551 0,-16.48 -5.321,-30.128 -15.946,-40.968 -10.636,-10.832 -24.015,-16.25 -40.148,-16.25 -9.98,0 -19.5,2.258 -28.555,6.769 -9.062,4.508 -15.945,11.117 -20.664,19.84 -4.715,8.711 -7.07,19.328 -7.07,31.84"
         style="fill:#ffffff;fill-opacity:1;fill-rule:nonzero;stroke:none"
         id="path44" /><path
         d="m 813.59,286.262 c 0,-12.242 2.422,-21.274 7.285,-27.121 4.844,-5.84 10.762,-8.762 17.734,-8.762 6.7,0 12.266,2.68 16.719,8.051 4.434,5.359 6.66,14.16 6.66,26.402 0,11.406 -2.285,19.887 -6.875,25.43 -4.57,5.527 -10.254,8.297 -17.011,8.297 -7.051,0 -12.891,-2.707 -17.539,-8.149 -4.649,-5.43 -6.973,-13.488 -6.973,-24.148 z m -28.508,52.609 h 26.867 v -16 c 3.496,5.469 8.203,9.91 14.16,13.328 5.938,3.422 12.539,5.129 19.786,5.129 12.636,0 23.378,-4.957 32.187,-14.867 8.828,-9.922 13.242,-23.731 13.242,-41.43 0,-18.179 -4.453,-32.32 -13.34,-42.39 -8.886,-10.09 -19.648,-15.129 -32.304,-15.129 -6.016,0 -11.465,1.199 -16.348,3.59 -4.883,2.386 -10.039,6.488 -15.43,12.308 v -54.871 h -28.82 v 150.332"
         style="fill:#ffffff;fill-opacity:1;fill-rule:nonzero;stroke:none"
         id="path46" /><path
         d="m 978.883,293.75 c -0.207,8.34 -2.356,14.68 -6.457,19.02 -4.102,4.339 -9.102,6.519 -14.981,6.519 -6.289,0 -11.484,-2.301 -15.586,-6.879 -4.101,-4.578 -6.113,-10.801 -6.043,-18.66 z m -1.641,-29.121 28.708,-4.82 c -3.69,-10.528 -9.52,-18.539 -17.477,-24.047 -7.969,-5.5 -17.93,-8.25 -29.895,-8.25 -18.933,0 -32.949,6.179 -42.039,18.547 -7.18,9.921 -10.773,22.429 -10.773,37.543 0,18.046 4.726,32.179 14.16,42.398 9.433,10.219 21.359,15.328 35.781,15.328 16.203,0 28.984,-5.348 38.352,-16.047 9.361,-10.699 13.841,-27.09 13.431,-49.172 h -72.193 c 0.215,-8.539 2.531,-15.187 6.973,-19.937 4.445,-4.75 9.98,-7.133 16.621,-7.133 4.511,0 8.3,1.231 11.379,3.691 3.074,2.469 5.398,6.43 6.972,11.899"
         style="fill:#ffffff;fill-opacity:1;fill-rule:nonzero;stroke:none"
         id="path48" /><path
         d="m 1091.05,282.27 c -3.69,-1.231 -9.53,-2.711 -17.53,-4.411 -8,-1.718 -13.23,-3.39 -15.69,-5.027 -3.76,-2.66 -5.64,-6.043 -5.64,-10.141 0,-4.05 1.51,-7.531 4.51,-10.472 3.01,-2.938 6.84,-4.41 11.49,-4.41 5.19,0 10.14,1.711 14.87,5.132 3.48,2.598 5.77,5.77 6.87,9.528 0.75,2.461 1.12,7.152 1.12,14.051 z m -38.55,23.371 -26.15,4.718 c 2.94,10.532 8,18.321 15.18,23.379 7.18,5.063 17.84,7.59 31.99,7.59 12.85,0 22.42,-1.527 28.71,-4.558 6.29,-3.051 10.71,-6.911 13.28,-11.59 2.56,-4.68 3.84,-13.282 3.84,-25.801 l -0.3,-33.629 c 0,-9.57 0.46,-16.621 1.38,-21.168 0.92,-4.543 2.65,-9.41 5.18,-14.613 h -28.51 c -0.75,1.91 -1.68,4.75 -2.77,8.519 -0.48,1.703 -0.82,2.832 -1.01,3.383 -4.93,-4.789 -10.2,-8.383 -15.81,-10.769 -5.6,-2.391 -11.58,-3.59 -17.93,-3.59 -11.22,0 -20.05,3.039 -26.51,9.117 -6.46,6.082 -9.7,13.781 -9.7,23.082 0,6.148 1.48,11.641 4.42,16.449 2.94,4.828 7.06,8.52 12.35,11.078 5.3,2.563 12.94,4.801 22.92,6.723 13.47,2.519 22.79,4.879 27.99,7.07 v 2.867 c 0,5.543 -1.37,9.493 -4.1,11.84 -2.74,2.371 -7.89,3.551 -15.48,3.551 -5.13,0 -9.13,-1.019 -12,-3.027 -2.87,-2.024 -5.2,-5.563 -6.97,-10.621"
         style="fill:#ffffff;fill-opacity:1;fill-rule:nonzero;stroke:none"
         id="path50" /><path
         d="M 1246.81,229.969 H 1218 v 55.582 c 0,11.75 -0.61,19.359 -1.84,22.808 -1.23,3.461 -3.24,6.129 -6,8.063 -2.77,1.898 -6.1,2.867 -10,2.867 -4.99,0 -9.47,-1.379 -13.43,-4.098 -3.97,-2.75 -6.69,-6.371 -8.15,-10.882 -1.48,-4.52 -2.21,-12.848 -2.21,-25.02 v -49.32 h -28.82 v 108.902 h 26.77 v -16 c 9.5,12.309 21.47,18.457 35.89,18.457 6.36,0 12.17,-1.137 17.43,-3.437 5.27,-2.282 9.25,-5.211 11.94,-8.762 2.71,-3.559 4.59,-7.598 5.65,-12.109 1.05,-4.508 1.58,-10.969 1.58,-19.372 v -67.679"
         style="fill:#ffffff;fill-opacity:1;fill-rule:nonzero;stroke:none"
         id="path52" /><path
         d="m 1334.39,380.289 h 30.35 v -81.41 c 0,-12.918 0.37,-21.301 1.12,-25.117 1.3,-6.153 4.4,-11.09 9.28,-14.821 4.89,-3.73 11.57,-5.589 20.05,-5.589 8.61,0 15.11,1.757 19.48,5.277 4.38,3.519 7,7.84 7.9,12.973 0.88,5.128 1.33,13.636 1.33,25.539 v 83.148 h 30.35 V 301.34 c 0,-18.051 -0.82,-30.801 -2.46,-38.238 -1.64,-7.473 -4.67,-13.75 -9.07,-18.872 -4.41,-5.14 -10.3,-9.218 -17.69,-12.261 -7.38,-3.039 -17.03,-4.559 -28.92,-4.559 -14.36,0 -25.24,1.649 -32.66,4.969 -7.41,3.312 -13.28,7.621 -17.58,12.922 -4.31,5.301 -7.14,10.847 -8.51,16.66 -1.98,8.617 -2.97,21.328 -2.97,38.148 v 80.18"
         style="fill:#ffffff;fill-opacity:1;fill-rule:nonzero;stroke:none"
         id="path54" /><path
         d="m 1585.09,229.969 h -28.81 v 55.582 c 0,11.75 -0.61,19.359 -1.84,22.808 -1.23,3.461 -3.23,6.129 -6,8.063 -2.77,1.898 -6.1,2.867 -10,2.867 -4.99,0 -9.47,-1.379 -13.43,-4.098 -3.97,-2.75 -6.68,-6.371 -8.15,-10.882 -1.47,-4.52 -2.21,-12.848 -2.21,-25.02 v -49.32 h -28.82 v 108.902 h 26.77 v -16 c 9.5,12.309 21.47,18.457 35.89,18.457 6.36,0 12.17,-1.137 17.43,-3.437 5.27,-2.282 9.25,-5.211 11.95,-8.762 2.7,-3.559 4.58,-7.598 5.64,-12.109 1.06,-4.508 1.58,-10.969 1.58,-19.372 v -67.679"
         style="fill:#ffffff;fill-opacity:1;fill-rule:nonzero;stroke:none"
         id="path56" /><path
         d="m 1614.32,229.969 v 108.902 h 28.81 V 229.969 Z m 0,123.66 v 26.66 h 28.81 v -26.66 h -28.81"
         style="fill:#ffffff;fill-opacity:1;fill-rule:nonzero;stroke:none"
         id="path58" /><path
         d="m 1695.53,284.422 c 0,-10.813 2.57,-19.082 7.69,-24.82 5.13,-5.743 11.45,-8.614 18.97,-8.614 7.52,0 13.83,2.871 18.92,8.614 5.1,5.738 7.64,14.078 7.64,25.019 0,10.66 -2.54,18.867 -7.64,24.609 -5.09,5.739 -11.4,8.61 -18.92,8.61 -7.52,0 -13.84,-2.871 -18.97,-8.61 -5.12,-5.742 -7.69,-14.019 -7.69,-24.808 z m -29.53,1.539 c 0,9.57 2.35,18.828 7.08,27.777 4.71,8.961 11.4,15.801 20.04,20.512 8.65,4.719 18.3,7.078 28.96,7.078 16.48,0 29.99,-5.348 40.51,-16.047 10.53,-10.699 15.79,-24.222 15.79,-40.551 0,-16.48 -5.31,-30.128 -15.94,-40.968 -10.63,-10.832 -24.02,-16.25 -40.14,-16.25 -9.99,0 -19.5,2.258 -28.56,6.769 -9.06,4.508 -15.95,11.117 -20.66,19.84 -4.73,8.711 -7.08,19.328 -7.08,31.84"
         style="fill:#ffffff;fill-opacity:1;fill-rule:nonzero;stroke:none"
         id="path60" /><path
         d="m 1899.99,229.969 h -28.81 v 55.582 c 0,11.75 -0.62,19.359 -1.85,22.808 -1.23,3.461 -3.23,6.129 -6,8.063 -2.77,1.898 -6.1,2.867 -10,2.867 -4.99,0 -9.47,-1.379 -13.42,-4.098 -3.98,-2.75 -6.69,-6.371 -8.16,-10.882 -1.47,-4.52 -2.2,-12.848 -2.2,-25.02 v -49.32 h -28.82 v 108.902 h 26.77 v -16 c 9.5,12.309 21.46,18.457 35.88,18.457 6.36,0 12.17,-1.137 17.44,-3.437 5.26,-2.282 9.24,-5.211 11.94,-8.762 2.7,-3.559 4.58,-7.598 5.64,-12.109 1.06,-4.508 1.59,-10.969 1.59,-19.372 v -67.679"
         style="fill:#ffffff;fill-opacity:1;fill-rule:nonzero;stroke:none"
         id="path62" /></g></g></svg>
