<?xml version="1.0" encoding="UTF-8" standalone="no"?>
<svg id="Layer_1" data-name="Layer 1" width="1081.82" height="154.58" viewBox="0 0 1081.82 154.58" version="1.1" xmlns="http://www.w3.org/2000/svg" xmlns:svg="http://www.w3.org/2000/svg">
   <defs id="defs259">
      <style id="style257">
         .cls-1 {
            fill: #477c9e;
         }

         .cls-2 {
            fill: #1D3443;
         }

         .cls-3 {
            fill: #e63a47;
         }

      </style>
   </defs>
   <g id="g311">
      <path class="cls-2" d="M145.29,42h12.59v70H145.29Z" id="path261" />
      <path class="cls-2" d="M192.58,112V81.59c0-3.67-.43-6.23-1.3-7.7a4.68,4.68,0,0,0-4.4-2.2,6.76,6.76,0,0,0-4.5,1.6,8.86,8.86,0,0,0-2.7,4V112h-11.9V62h9.5l1.4,5.8h.3a16.27,16.27,0,0,1,4.9-5,14.43,14.43,0,0,1,8.1-2.05,14.85,14.85,0,0,1,5.35.9,9,9,0,0,1,3.95,3,13.92,13.92,0,0,1,2.4,5.5,38.2,38.2,0,0,1,.8,8.55V112Z" id="path263" />
      <path class="cls-2" d="M209.18,62h5.4v-2.8q0-9.49,3.55-13.75t10.15-4.25a29.19,29.19,0,0,1,11,1.8l-2.2,10.1a12.54,12.54,0,0,0-3.2-.85,27.17,27.17,0,0,0-2.9-.15c-1.93,0-3.16.75-3.7,2.25a25.56,25.56,0,0,0-.8,7.65H235v10.6h-8.5V112h-11.9V72.59h-5.4Z" id="path265" />
      <path class="cls-2" d="M273.18,108.29a19,19,0,0,1-6.8,3.6,28.92,28.92,0,0,1-9,1.4,20.53,20.53,0,0,1-8.95-1.8,15.73,15.73,0,0,1-6.15-5.2A23.71,23.71,0,0,1,238.73,98,48.47,48.47,0,0,1,237.58,87q0-13.5,5.35-19.95t14.85-6.45a20.49,20.49,0,0,1,6.2.95,13.5,13.5,0,0,1,5.35,3.2,16.16,16.16,0,0,1,3.8,6,26.37,26.37,0,0,1,1.45,9.45,46.38,46.38,0,0,1-.25,4.7q-.25,2.51-.75,5.4h-24.5q.21,6.19,2.63,9.5c1.61,2.2,4.21,3.3,7.77,3.3a16.66,16.66,0,0,0,5.91-1,15.81,15.81,0,0,0,4.09-2.1ZM257.5,70.79a6.41,6.41,0,0,0-5.79,3q-1.92,3-2.23,8.55h14c.2-3.8-.2-6.68-1.22-8.65A5,5,0,0,0,257.5,70.79Z" id="path267" />
      <path class="cls-2" d="M311.68,109.29a17.09,17.09,0,0,1-6,3,25.25,25.25,0,0,1-7,1,18,18,0,0,1-8.55-1.85,15.09,15.09,0,0,1-5.65-5.3,23.91,23.91,0,0,1-3.15-8.3A56.91,56.91,0,0,1,280.38,87q0-13.09,4.7-19.7t13.8-6.6a28,28,0,0,1,7.35.8,24.06,24.06,0,0,1,5,2l-2.8,9.9A18.85,18.85,0,0,0,305,72a15.18,15.18,0,0,0-3.95-.45,6.83,6.83,0,0,0-6.3,3.65q-2.1,3.65-2.1,11.75a24.91,24.91,0,0,0,2.15,11.1,7.16,7.16,0,0,0,6.85,4.3,12.33,12.33,0,0,0,4.25-.65,15.27,15.27,0,0,0,3.25-1.65Z" id="path269" />
      <path class="cls-2" d="M313.28,62h5.5v-9.4l11.9-3.7V62h9.7v10.6h-9.7v21.8a15.48,15.48,0,0,0,.85,6.1,3.08,3.08,0,0,0,3.05,1.8,11.15,11.15,0,0,0,2.7-.3,17.21,17.21,0,0,0,2.6-.9l1.5,9.5a26.3,26.3,0,0,1-5.1,1.85,24.27,24.27,0,0,1-6.1.75q-5.7,0-8.55-3.3t-2.85-11.1V72.59h-5.5Z" id="path271" />
      <path class="cls-2" d="M345.88,47.89a6.79,6.79,0,0,1,1.9-5,7.19,7.19,0,0,1,5.4-1.95,8,8,0,0,1,5.6,1.9,6.42,6.42,0,0,1,2.1,5,6.11,6.11,0,0,1-2.1,4.9,8.32,8.32,0,0,1-5.6,1.8,7.43,7.43,0,0,1-5.4-1.85A6.45,6.45,0,0,1,345.88,47.89Zm1.4,14.1h11.9v50h-11.9Z" id="path273" />
      <path class="cls-2" d="M367,87q0-13.3,5.2-19.8t14.5-6.5q10,0,14.9,6.6t4.9,19.7q0,13.4-5.2,19.85t-14.6,6.45Q367,113.29,367,87Zm12.3,0q0,7.5,1.7,11.6t5.7,4.1a6,6,0,0,0,5.65-3.55q1.85-3.56,1.85-12.15,0-7.69-1.7-11.7a5.92,5.92,0,0,0-5.8-4c-2.34,0-4.15,1.18-5.45,3.55S379.28,81.26,379.28,87Z" id="path275" />
      <path class="cls-2" d="M424.78,62v29.9c0,3.93.36,6.67,1.1,8.2a4,4,0,0,0,4,2.3,6.16,6.16,0,0,0,4.7-2,11.94,11.94,0,0,0,2.7-5V62h11.9v34.8c0,2.73.1,5.42.3,8a42.32,42.32,0,0,0,1.1,7.15h-9l-2.1-6.8h-.3A17,17,0,0,1,434,111a13.62,13.62,0,0,1-8,2.3,16.33,16.33,0,0,1-5.5-.85,9.14,9.14,0,0,1-4.1-3,14.55,14.55,0,0,1-2.6-5.75,39.56,39.56,0,0,1-.9-9.25V62Z" id="path277" />
      <path class="cls-2" d="M474.68,98.69a5,5,0,0,0-1.35-3.55,15.33,15.33,0,0,0-3.45-2.7c-1.4-.83-2.89-1.68-4.45-2.55a23.69,23.69,0,0,1-4.45-3.2,15.48,15.48,0,0,1-3.45-4.6,15.17,15.17,0,0,1-1.35-6.8q0-7,3.8-10.8t11.2-3.8a35.17,35.17,0,0,1,8.3,1,22.23,22.23,0,0,1,6.2,2.35l-2.8,9.2a39.54,39.54,0,0,0-4.6-1.55,19.77,19.77,0,0,0-5.3-.75q-4.91,0-4.9,4.1a4.1,4.1,0,0,0,1.35,3.15,19,19,0,0,0,3.45,2.45q2.1,1.2,4.45,2.5a23,23,0,0,1,4.45,3.25,15.67,15.67,0,0,1,3.45,4.75,15.84,15.84,0,0,1,1.35,6.9q0,6.9-4.2,11.1t-12.5,4.2a32.46,32.46,0,0,1-8.05-1,20.52,20.52,0,0,1-6.35-2.6l3.3-9.6a26,26,0,0,0,4.85,2.1,18.35,18.35,0,0,0,5.75.9,6.48,6.48,0,0,0,3.8-1A3.81,3.81,0,0,0,474.68,98.69Z" id="path279" />
      <path class="cls-2" d="M513.58,42q1.8-.3,4-.45l4.6-.3c1.56-.1,3.08-.17,4.55-.2s2.76,0,3.89,0a33.19,33.19,0,0,1,13.86,2.55,22,22,0,0,1,8.89,7.2,29.29,29.29,0,0,1,4.75,11.15,68.57,68.57,0,0,1,1.41,14.5,69.94,69.94,0,0,1-1.35,14,32.33,32.33,0,0,1-4.75,11.7,24.35,24.35,0,0,1-9.2,8q-5.81,3-14.61,3c-.86,0-2,0-3.5-.1s-3-.15-4.59-.25l-4.6-.3c-1.47-.1-2.6-.22-3.4-.35ZM532,52.59c-1.07,0-2.15,0-3.25,0a14.72,14.72,0,0,0-2.56.25v48.2a4.59,4.59,0,0,0,1.06.15l1.6.1,1.59.1,1.06,0a12.32,12.32,0,0,0,7.4-2.1,14.22,14.22,0,0,0,4.54-5.6,28,28,0,0,0,2.31-8.05,68,68,0,0,0,.65-9.55,71.37,71.37,0,0,0-.55-8.9,25,25,0,0,0-2.1-7.55,12.92,12.92,0,0,0-4.4-5.2A12.78,12.78,0,0,0,532,52.59Z" id="path281" />
      <path class="cls-2" d="M566.47,47.89a6.83,6.83,0,0,1,1.9-5,7.21,7.21,0,0,1,5.4-1.95,8,8,0,0,1,5.6,1.9,6.42,6.42,0,0,1,2.1,5,6.11,6.11,0,0,1-2.1,4.9,8.3,8.3,0,0,1-5.6,1.8,7.45,7.45,0,0,1-5.4-1.85A6.48,6.48,0,0,1,566.47,47.89Zm1.4,14.1h11.9v50h-11.9Z" id="path283" />
      <path class="cls-2" d="M606.17,98.69a5,5,0,0,0-1.35-3.55,15.33,15.33,0,0,0-3.45-2.7q-2.1-1.25-4.45-2.55a24,24,0,0,1-4.45-3.2,15.48,15.48,0,0,1-3.45-4.6,15.17,15.17,0,0,1-1.35-6.8q0-7,3.8-10.8t11.2-3.8a35.11,35.11,0,0,1,8.3,1,22.11,22.11,0,0,1,6.2,2.35l-2.8,9.2a38.91,38.91,0,0,0-4.6-1.55,19.71,19.71,0,0,0-5.3-.75c-3.26,0-4.9,1.37-4.9,4.1a4.1,4.1,0,0,0,1.35,3.15,19,19,0,0,0,3.45,2.45c1.4.8,2.89,1.63,4.45,2.5a22.7,22.7,0,0,1,4.45,3.25,15.67,15.67,0,0,1,3.45,4.75,15.84,15.84,0,0,1,1.35,6.9q0,6.9-4.2,11.1t-12.5,4.2a32.57,32.57,0,0,1-8-1,20.62,20.62,0,0,1-6.35-2.6l3.3-9.6a26.29,26.29,0,0,0,4.85,2.1,18.4,18.4,0,0,0,5.75.9,6.46,6.46,0,0,0,3.8-1A3.81,3.81,0,0,0,606.17,98.69Z" id="path285" />
      <path class="cls-2" d="M658.17,108.29a19,19,0,0,1-6.8,3.6,28.92,28.92,0,0,1-9,1.4,20.53,20.53,0,0,1-9-1.8,15.73,15.73,0,0,1-6.15-5.2A23.71,23.71,0,0,1,623.72,98,48.47,48.47,0,0,1,622.57,87q0-13.5,5.35-19.95t14.85-6.45a20.49,20.49,0,0,1,6.2.95,13.5,13.5,0,0,1,5.35,3.2,16.16,16.16,0,0,1,3.8,6,26.37,26.37,0,0,1,1.45,9.45,46.38,46.38,0,0,1-.25,4.7q-.26,2.51-.76,5.4H634.07q.21,6.19,2.63,9.5c1.61,2.2,4.21,3.3,7.77,3.3a16.66,16.66,0,0,0,5.91-1,15.81,15.81,0,0,0,4.09-2.1Zm-15.68-37.5a6.41,6.41,0,0,0-5.79,3q-1.92,3-2.23,8.55h14q.3-5.7-1.22-8.65A5,5,0,0,0,642.49,70.79Z" id="path287" />
      <path class="cls-2" d="M667.27,65a27,27,0,0,1,7.5-2.9A43.26,43.26,0,0,1,685,61q8.5,0,11.85,4.4t3.35,12.5c0,3.13-.08,6.22-.25,9.25s-.28,6-.35,8.9,0,5.7.15,8.4a33.43,33.43,0,0,0,1.35,7.65h-9.7l-1.9-6.1h-.4a13.4,13.4,0,0,1-4.5,4.8,13,13,0,0,1-7.3,1.9,11.65,11.65,0,0,1-9.3-4q-3.39-3.94-3.4-10.55,0-9,6.4-12.8t17.3-3.2q.5-5.81-.75-8.4t-5.35-2.6a28.75,28.75,0,0,0-6.2.7,23,23,0,0,0-5.7,2Zm14.3,37.5a6.85,6.85,0,0,0,4.4-1.35,8.87,8.87,0,0,0,2.5-3v-8.3a19.8,19.8,0,0,0-4.4-.1,11.89,11.89,0,0,0-3.7.9,6,6,0,0,0-2.55,2,5.88,5.88,0,0,0-1,3.45,7.55,7.55,0,0,0,1.25,4.7A4.13,4.13,0,0,0,681.57,102.49Z" id="path289" />
      <path class="cls-2" d="M725.27,98.69a5,5,0,0,0-1.35-3.55,15.33,15.33,0,0,0-3.45-2.7q-2.1-1.25-4.45-2.55a24,24,0,0,1-4.45-3.2,15.48,15.48,0,0,1-3.45-4.6,15.17,15.17,0,0,1-1.35-6.8q0-7,3.8-10.8t11.2-3.8a35.11,35.11,0,0,1,8.3,1,22.11,22.11,0,0,1,6.2,2.35l-2.8,9.2a38.91,38.91,0,0,0-4.6-1.55,19.77,19.77,0,0,0-5.3-.75q-4.91,0-4.9,4.1A4.1,4.1,0,0,0,720,78.14a19,19,0,0,0,3.45,2.45q2.1,1.2,4.45,2.5a22.7,22.7,0,0,1,4.45,3.25,15.67,15.67,0,0,1,3.45,4.75,15.84,15.84,0,0,1,1.35,6.9q0,6.9-4.2,11.1t-12.5,4.2a32.52,32.52,0,0,1-8.05-1,20.62,20.62,0,0,1-6.35-2.6l3.3-9.6a26.29,26.29,0,0,0,4.85,2.1,18.35,18.35,0,0,0,5.75.9,6.46,6.46,0,0,0,3.8-1A3.81,3.81,0,0,0,725.27,98.69Z" id="path291" />
      <path class="cls-2" d="M777.27,108.29a19.08,19.08,0,0,1-6.8,3.6,29,29,0,0,1-9,1.4,20.5,20.5,0,0,1-9-1.8,15.73,15.73,0,0,1-6.15-5.2A23.71,23.71,0,0,1,742.82,98,47.91,47.91,0,0,1,741.67,87q0-13.5,5.35-19.95t14.85-6.45a20.53,20.53,0,0,1,6.2.95,13.57,13.57,0,0,1,5.35,3.2,16.28,16.28,0,0,1,3.8,6,26.37,26.37,0,0,1,1.45,9.45,46.38,46.38,0,0,1-.25,4.7q-.25,2.51-.76,5.4H753.17q.21,6.19,2.63,9.5t7.77,3.3a16.66,16.66,0,0,0,5.91-1,16,16,0,0,0,4.09-2.1Zm-15.68-37.5a6.4,6.4,0,0,0-5.79,3,17.9,17.9,0,0,0-2.23,8.55h14q.3-5.7-1.22-8.65A5,5,0,0,0,761.59,70.79Z" id="path293" />
      <path class="cls-2" d="M803.07,98.69a5,5,0,0,0-1.35-3.55,15.33,15.33,0,0,0-3.45-2.7q-2.1-1.25-4.45-2.55a23.69,23.69,0,0,1-4.45-3.2,15.48,15.48,0,0,1-3.45-4.6,15.17,15.17,0,0,1-1.35-6.8q0-7,3.8-10.8t11.2-3.8a35.17,35.17,0,0,1,8.3,1,22.11,22.11,0,0,1,6.2,2.35l-2.8,9.2a39.54,39.54,0,0,0-4.6-1.55,19.77,19.77,0,0,0-5.3-.75q-4.9,0-4.9,4.1a4.1,4.1,0,0,0,1.35,3.15,19,19,0,0,0,3.45,2.45q2.1,1.2,4.45,2.5a22.7,22.7,0,0,1,4.45,3.25,15.67,15.67,0,0,1,3.45,4.75A15.84,15.84,0,0,1,815,98q0,6.9-4.2,11.1t-12.5,4.2a32.52,32.52,0,0,1-8-1,20.62,20.62,0,0,1-6.35-2.6l3.3-9.6a26.29,26.29,0,0,0,4.85,2.1,18.35,18.35,0,0,0,5.75.9,6.48,6.48,0,0,0,3.8-1A3.81,3.81,0,0,0,803.07,98.69Z" id="path295" />
      <path class="cls-2" d="M881.07,53.59h-16.6V112h-12.6V53.59h-16.6V42h45.8Z" id="path297" />
      <path class="cls-2" d="M873.87,87q0-13.3,5.2-19.8t14.5-6.5q10,0,14.9,6.6t4.9,19.7q0,13.4-5.2,19.85t-14.6,6.45Q873.86,113.29,873.87,87Zm12.3,0q0,7.5,1.7,11.6t5.7,4.1a6,6,0,0,0,5.65-3.55q1.85-3.56,1.85-12.15,0-7.69-1.7-11.7a5.92,5.92,0,0,0-5.8-4c-2.34,0-4.15,1.18-5.45,3.55S886.17,81.26,886.17,87Z" id="path299" />
      <path class="cls-2" d="M918.37,87q0-13.3,5.2-19.8t14.5-6.5q10,0,14.9,6.6t4.9,19.7q0,13.4-5.2,19.85t-14.6,6.45Q918.36,113.29,918.37,87Zm12.3,0q0,7.5,1.7,11.6t5.7,4.1a6,6,0,0,0,5.65-3.55q1.85-3.56,1.85-12.15,0-7.69-1.7-11.7a5.92,5.92,0,0,0-5.8-4c-2.34,0-4.15,1.18-5.45,3.55S930.67,81.26,930.67,87Z" id="path301" />
      <path class="cls-2" d="M976.77,95.79a12.75,12.75,0,0,0,.7,5,2.37,2.37,0,0,0,2.3,1.5,9.26,9.26,0,0,0,1.85-.2,12.35,12.35,0,0,0,2.15-.7l1.1,9.6a13.92,13.92,0,0,1-4.1,1.5c-1.94.47-11.74-.13-13.4-1.8s-2.5-4.5-2.5-8.5V42h11.9Z" id="path303" />
      <path class="cls-2" d="M1003.67,91.29h-2.8V112H989V42h11.9v41.3l2.4-1.4,8.3-19.9h12.9l-9.2,19.8-4.3,3.4,4.7,3.4,10.2,23.4h-13.4Z" id="path305" />
      <path class="cls-2" d="M1029.77,47.89a6.79,6.79,0,0,1,1.9-5,7.17,7.17,0,0,1,5.4-1.95,8,8,0,0,1,5.6,1.9,6.42,6.42,0,0,1,2.1,5,6.11,6.11,0,0,1-2.1,4.9,8.32,8.32,0,0,1-5.6,1.8,7.41,7.41,0,0,1-5.4-1.85A6.45,6.45,0,0,1,1029.77,47.89Zm1.4,14.1h11.9v50h-11.9Z" id="path307" />
      <path class="cls-2" d="M1048.76,62h5.5v-9.4l11.9-3.7V62h9.7v10.6h-9.7v21.8a15.67,15.67,0,0,0,.85,6.1,3.09,3.09,0,0,0,3,1.8,11.15,11.15,0,0,0,2.7-.3,17.21,17.21,0,0,0,2.6-.9l1.5,9.5a25.83,25.83,0,0,1-5.1,1.85,24.22,24.22,0,0,1-6.1.75q-5.7,0-8.55-3.3t-2.85-11.1V72.59h-5.5Z" id="path309" />
   </g>
   <g id="g367">
      <g id="g355">
         <path class="cls-1" d="M20.4,96.87a1.51,1.51,0,0,1,.33.38,1.48,1.48,0,0,0-.22-.29Z" id="path313" />
         <path class="cls-1" d="M10.91,58.41a1.49,1.49,0,0,1-.24-.49l-3-11.31,3,11.31A1.49,1.49,0,0,0,10.91,58.41Z" id="path315" />
         <path class="cls-1" d="M11.46,58.9a1.53,1.53,0,0,0,.41.14,1.72,1.72,0,0,1-.4-.14l-.09,0Z" id="path317" />
         <path class="cls-1" d="M11.37,58.86a1.75,1.75,0,0,1-.38-.34l.09.11A2.09,2.09,0,0,0,11.37,58.86Z" id="path319" />
         <polygon class="cls-1" points="20.45 55.52 17.57 44.57 15.87 38.13 17.57 44.57 20.45 55.52" id="polygon321" />
         <path class="cls-1" d="M19.77,96.55a1.56,1.56,0,0,1,.47.22l0,0s0,0,0,0A1.67,1.67,0,0,0,19.77,96.55Z" id="path323" />
         <path class="cls-1" d="M93.87,57l.1.08s-.06-.08-.1-.11a3.08,3.08,0,0,1-.24-.27,3.15,3.15,0,0,0,.22.29Z" id="path325" />
         <path class="cls-1" d="M102.53,95.76a1.48,1.48,0,0,1,.38.33l-.09-.11A2,2,0,0,0,102.53,95.76Z" id="path327" />
         <path class="cls-1" d="M102.38,95.7a1.21,1.21,0,0,1,.14,0l-.14-.06a2.06,2.06,0,0,0-.35-.12A1.48,1.48,0,0,1,102.38,95.7Z" id="path329" />
         <path class="cls-1" d="M77.24,40.4a1.18,1.18,0,0,0,.28.22,1.18,1.18,0,0,1-.26-.24.52.52,0,0,1-.11-.1,1,1,0,0,0,.08.11Z" id="path331" />
         <path class="cls-1" d="M38.06,31.27a1.72,1.72,0,0,0-.49-.24l-11.27-3h0l11.27,3A1.72,1.72,0,0,1,38.06,31.27Z" id="path333" />
         <path class="cls-1" d="M38.16,31.35a1.54,1.54,0,0,1,.34.38,1.34,1.34,0,0,0-.23-.29A.48.48,0,0,0,38.16,31.35Z" id="path335" />
         <path class="cls-1" d="M35.16,40.81a1.51,1.51,0,0,0,.63,0,1.51,1.51,0,0,1-.63,0l-11-2.89-6.4-1.69,6.4,1.69Z" id="path337" />
         <path class="cls-1" d="M38.56,31.86l-.05-.12s0,.08,0,.12a1.66,1.66,0,0,1,.14.37A1.63,1.63,0,0,0,38.56,31.86Z" id="path339" />
         <path class="cls-1" d="M75.21,32.9l1.62,6.76L75.21,32.9a1.8,1.8,0,0,1,0-.61A1.58,1.58,0,0,0,75.21,32.9Z" id="path341" />
         <path class="cls-1" d="M36.84,113.36a1.37,1.37,0,0,1,.38.34l-.09-.12A1.23,1.23,0,0,0,36.84,113.36Z" id="path343" />
         <path class="cls-1" d="M75.74,123.26a1.54,1.54,0,0,1-.34-.38,1.7,1.7,0,0,0,.23.3Z" id="path345" />
         <path class="cls-1" d="M75.34,127.35a5.49,5.49,0,0,1-3.67-3.22,5.45,5.45,0,0,1-.25-3.32l1.24-5.23L73,114a5.47,5.47,0,0,1,6.7-4l8.8,2.32,4.7,1.24L92,108.92l-2.33-8.83a5.46,5.46,0,0,1,4-6.7L95.15,93l5.3-1.26A5.47,5.47,0,0,1,107,95.69l1.92,7.32a57.86,57.86,0,0,0,0-51.32L107,58.92a5.45,5.45,0,0,1-6.55,3.91l-5.36-1.27-1.4-.34a5.39,5.39,0,0,1-2.6-1.45,5.5,5.5,0,0,1-1.42-5.25L92,45.72,93.23,41l-4.69,1.24-8.81,2.32a5.46,5.46,0,0,1-6.7-4l-.34-1.42L71.42,33.8a5.44,5.44,0,0,1,3.92-6.54l7.22-1.91a58.61,58.61,0,0,0-51.31,0l7.31,1.93a5.46,5.46,0,0,1,3.92,6.54l-1.26,5.29-.35,1.48a5.45,5.45,0,0,1-6.7,4l-8.83-2.32L20.67,41l1.24,4.71,2.32,8.79a5.47,5.47,0,0,1-4,6.71l-1.54.36-5.22,1.25a5.48,5.48,0,0,1-5.13-1.45A5.59,5.59,0,0,1,6.9,58.92L5,51.54a57.86,57.86,0,0,0,.17,52l2.24-8.51A5.44,5.44,0,0,1,10,91.69a5.39,5.39,0,0,1,3.92-.54l4.36,1,2.41.58a5.35,5.35,0,0,1,2.59,1.45,5.48,5.48,0,0,1,1.42,5.25l-2.47,9.37L21.13,113l4.36-1.15,9.14-2.41a5.5,5.5,0,0,1,5.26,1.42,5.42,5.42,0,0,1,1.44,2.59l.6,2.52,1,4.25A5.46,5.46,0,0,1,39,126.72L30.42,129a57.89,57.89,0,0,0,52.31.31ZM46.06,107.88A32.64,32.64,0,0,1,41.81,106l-3.1-1.63-12.1,3.24,3.24-12.1-1.64-3.11a31.79,31.79,0,0,1-2.76-7.31l-9.87-5.75L9.87,76.06l6-3.47,10.6-6.18a32.42,32.42,0,0,1,1.81-4.14l1.64-3.11L26.61,47l12.2,3.26,3.1-1.62a31.53,31.53,0,0,1,4.77-2l6.06-10.4L57,28.94l4.26,7.29L67.33,46.7a31.54,31.54,0,0,1,4.57,1.95L75,50.27,87.27,47,84,59.27l1.62,3.09a33.13,33.13,0,0,1,2.06,4.93l10.37,6,7.45,4.33L98,82,87.4,88.21a32.12,32.12,0,0,1-1.79,4.14L84,95.44l3.27,12.21L75.1,104.39,72,106a32.5,32.5,0,0,1-5,2.11l-6,10.37L56.59,126l-4.37-7.51Z" id="path347" />
         <path class="cls-1" d="M38.38,122.78a1.47,1.47,0,0,0,.59-.54,1.47,1.47,0,0,1-.59.54A1.42,1.42,0,0,1,38,123L25.6,126.23,38,123A1.42,1.42,0,0,0,38.38,122.78Z" id="path349" />
         <path class="cls-1" d="M75.36,122.8l0,.07s0-.05,0-.07a1.52,1.52,0,0,1-.16-.42A1.5,1.5,0,0,0,75.36,122.8Z" id="path351" />
         <path class="cls-1" d="M37.43,114a1.26,1.26,0,0,0-.13-.23,1,1,0,0,1,.11.23,1.2,1.2,0,0,1,.13.28A1.36,1.36,0,0,0,37.43,114Z" id="path353" />
      </g>
      <path class="cls-3" d="M103.23,57.92l2.94-11.17,6-22.76a1.56,1.56,0,0,0-1.9-1.91l-22.76,6L76.33,31a1.52,1.52,0,0,0-1,.88,1.24,1.24,0,0,0-.14.38,1.8,1.8,0,0,0,0,.61l1.62,6.76a1.48,1.48,0,0,0,.23.51l.09.11a.52.52,0,0,0,.11.1,1.18,1.18,0,0,0,.26.24l0,0a1.43,1.43,0,0,0,.5.18l.13,0a1.52,1.52,0,0,0,.56,0h0l11-2.89,6.41-1.69a1.52,1.52,0,0,1,1.5.4,1.55,1.55,0,0,1,.41,1.5l-1.7,6.43-2.88,11h0a1.5,1.5,0,0,0,0,.56s0,.08,0,.13a1.88,1.88,0,0,0,.18.5l0,0a3.08,3.08,0,0,0,.24.27s.06.08.1.11l.11.08a1.5,1.5,0,0,0,.51.24L101.36,59a1.63,1.63,0,0,0,1.87-1.12Z" id="path357" />
      <path class="cls-3" d="M20.28,56.72a1.52,1.52,0,0,0,.17-1.2l-2.88-11-1.7-6.44a1.51,1.51,0,0,1,0-.42,1.56,1.56,0,0,1,1.53-1.53,1.3,1.3,0,0,1,.43,0l6.4,1.69,11,2.89a1.56,1.56,0,0,0,1.2-.17,1.32,1.32,0,0,0,.28-.25c0-.06.12-.09.17-.15a1.64,1.64,0,0,0,.26-.57l1.62-6.77a1.64,1.64,0,0,0,0-.54.69.69,0,0,1,0-.13,1.66,1.66,0,0,0-.14-.37s0-.08,0-.12h0a1.54,1.54,0,0,0-.34-.38l-.1-.08a1.72,1.72,0,0,0-.49-.24l-11.27-3-22.67-6A1.55,1.55,0,0,0,1.73,24l6,22.62,3,11.31a1.49,1.49,0,0,0,.24.49l.08.11a1.75,1.75,0,0,0,.38.34h0l.09,0a1.72,1.72,0,0,0,.4.14l.13,0a1.4,1.4,0,0,0,.54,0l6.77-1.61a1.64,1.64,0,0,0,.57-.26c.05,0,.08-.1.13-.15A1.53,1.53,0,0,0,20.28,56.72Z" id="path359" />
      <path class="cls-3" d="M112,131.81a1.49,1.49,0,0,0,.21-.76,1.3,1.3,0,0,0,0-.43l-6-22.66-3-11.27a1.72,1.72,0,0,0-.24-.49.76.76,0,0,1-.08-.11,1.48,1.48,0,0,0-.38-.33h0a1.21,1.21,0,0,0-.14,0,1.48,1.48,0,0,0-.35-.13l-.13,0a1.63,1.63,0,0,0-.54,0l-6.77,1.61a1.49,1.49,0,0,0-.72.44,1.55,1.55,0,0,0-.46.85,1.46,1.46,0,0,0,0,.62l2.89,11,1.69,6.4a1.46,1.46,0,0,1,0,.83,1.54,1.54,0,0,1-.4.67,1.62,1.62,0,0,1-.67.4,1.56,1.56,0,0,1-.83,0l-6.42-1.69-11-2.89a1.56,1.56,0,0,0-1.2.17,1.64,1.64,0,0,0-.31.28,1.48,1.48,0,0,0-.4.7l-1.62,6.76a1.7,1.7,0,0,0,0,.55s0,.08,0,.12a1.52,1.52,0,0,0,.16.42s0,0,0,.07h0a1.54,1.54,0,0,0,.34.38l.1.08a1.72,1.72,0,0,0,.49.24l11.32,3,22.62,6a1.51,1.51,0,0,0,.42.05,1.47,1.47,0,0,0,.77-.22A1.61,1.61,0,0,0,112,131.81Z" id="path361" />
      <path class="cls-3" d="M39,122.24a1.55,1.55,0,0,0,.18-1.16l-1.61-6.76a1.2,1.2,0,0,0-.13-.28,1,1,0,0,0-.11-.23.44.44,0,0,0-.08-.11,1.37,1.37,0,0,0-.38-.34,0,0,0,0,0,0,0,1.5,1.5,0,0,0-.5-.18l-.13,0a1.51,1.51,0,0,0-.56,0l-11.3,3-6.09,1.6a1.52,1.52,0,0,1-1.19-.16,1.83,1.83,0,0,1-.31-.24,1.76,1.76,0,0,1-.4-.67,1.56,1.56,0,0,1,0-.83L17.88,110l3-11.53a1.5,1.5,0,0,0,0-.56.69.69,0,0,0,0-.13,1.58,1.58,0,0,0-.18-.5l0,0a1.51,1.51,0,0,0-.33-.38l-.12-.08,0,0a1.56,1.56,0,0,0-.47-.22L13,94.94a1.54,1.54,0,0,0-1.65.66,1.78,1.78,0,0,0-.22.46L7.88,108.43,2.19,130A1.57,1.57,0,0,0,4.1,131.9l21.5-5.67L38,123a1.42,1.42,0,0,0,.35-.17A1.47,1.47,0,0,0,39,122.24Z" id="path363" />
      <path class="cls-3" d="m 73.874614,72.251391 a 10.93,10.93 0 0 0 -10.93,-10.92 h -12.14 a 10.94,10.94 0 0 0 -10.93,10.92 v 12.15 a 10.93,10.93 0 0 0 10.93,10.92 h 12.14 a 10.94,10.94 0 0 0 10.93,-10.92 z m -10.93,13.71 h -12.14 a 1.52,1.52 0 0 1 -1.11,-0.46 1.56,1.56 0 0 1 -0.46,-1.1 v -12.15 a 1.57,1.57 0 0 1 1.57,-1.59 h 12.14 a 1.58,1.58 0 0 1 1.11,0.46 1.6,1.6 0 0 1 0.46,1.11 v 12.17 a 1.56,1.56 0 0 1 -1.57,1.56 z" id="path365" />
   </g>
</svg>
