<svg id="Layer_1" data-name="Layer 1" xmlns="http://www.w3.org/2000/svg" width="1087.09" height="121.19" viewBox="0 0 1087.09 121.19">
  <defs>
    <style>
      .cls-1, .cls-5 {
        fill: #477c9e;
      }

      .cls-1 {
        stroke: #477c9e;
        stroke-width: 6px;
      }

      .cls-1, .cls-4 {
        stroke-miterlimit: 10;
      }

      .cls-2, .cls-4 {
        fill: #e63a47;
      }

      .cls-3 {
        fill: #fff;
      }

      .cls-4 {
        stroke: #fff;
      }

      .cls-5 {
        font-size: 100px;
        font-family: PTSans-NarrowBold, PT Sans Narrow;
        font-weight: 700;
      }

      .cls-6, .cls-7 {
        fill: #414142;
      }

      .cls-7 {
        letter-spacing: -0.03em;
      }

      .cls-8 {
        letter-spacing: -0.1em;
      }
    </style>
  </defs>
  <g>
    <path class="cls-1" d="M13.37,58.72a45.78,45.78,0,0,1,5.27-20.85l-3-11.18a54.38,54.38,0,0,0,0,65.06l3-11.19A45.65,45.65,0,0,1,13.37,58.72Z"/>
    <path class="cls-1" d="M105,58.91a45.7,45.7,0,0,1-5.19,21.51l3,11.22a54.38,54.38,0,0,0,0-64.84L99.8,38A45.71,45.71,0,0,1,105,58.91Z"/>
    <path class="cls-1" d="M80.43,18.61l11.19-3a54.36,54.36,0,0,0-64.84,0l11.2,3A45.85,45.85,0,0,1,80.43,18.61Z"/>
    <path class="cls-1" d="M58.86,105.05a45.72,45.72,0,0,1-21-5.26l-11.18,3a54.37,54.37,0,0,0,65.05,0l-11.18-3A45.72,45.72,0,0,1,58.86,105.05Z"/>
  </g>
  <g>
    <path class="cls-2" d="M102.78,47.05a3.69,3.69,0,0,1-.87-.1l-7.49-1.78a3.75,3.75,0,0,1-2.34-1.71,3.7,3.7,0,0,1-.4-2.87l5-18.82-18.81,5a3.89,3.89,0,0,1-1,.12h0A3.7,3.7,0,0,1,73.25,24l-1.78-7.5A3.69,3.69,0,0,1,74.14,12l37.6-9.91a3.42,3.42,0,0,1,1-.13,3.73,3.73,0,0,1,3.59,4.68l-9.91,37.6A3.72,3.72,0,0,1,102.78,47.05Z"/>
    <path class="cls-3" d="M112.7,4a1.73,1.73,0,0,1,1.66,2.17l-9.91,37.6A1.76,1.76,0,0,1,102.38,45l-7.5-1.79a1.72,1.72,0,0,1-1.27-2.12l5.08-19.26a1.72,1.72,0,0,0-2.11-2.11L77.32,24.81a1.76,1.76,0,0,1-2.12-1.27L73.41,16A1.72,1.72,0,0,1,74.65,14l37.6-9.91A1.74,1.74,0,0,1,112.7,4m0-4h0a5.59,5.59,0,0,0-1.47.19L73.63,10.1A5.7,5.7,0,0,0,69.52,17l1.78,7.49a5.71,5.71,0,0,0,5.57,4.4,5.59,5.59,0,0,0,1.47-.19l15.49-4.08L89.74,40.08a5.74,5.74,0,0,0,4.21,7l7.5,1.79a5.9,5.9,0,0,0,1.33.15,5.72,5.72,0,0,0,5.53-4.26l9.92-37.6a5.7,5.7,0,0,0-1-4.95A5.78,5.78,0,0,0,112.7,0Z"/>
  </g>
  <g>
    <path class="cls-2" d="M15.73,47.06a3.73,3.73,0,0,1-3.6-2.78L2.22,6.68a3.69,3.69,0,0,1,.65-3.22A3.74,3.74,0,0,1,5.81,2a3.9,3.9,0,0,1,1,.13L44.37,12A3.75,3.75,0,0,1,47,16.51L45.26,24a3.71,3.71,0,0,1-3.62,2.87,3.42,3.42,0,0,1-1-.13l-18.8-4.95,4.95,18.8a3.72,3.72,0,0,1-2.74,4.58L16.6,47a3.7,3.7,0,0,1-.87.11Z"/>
    <path class="cls-3" d="M5.81,4a1.74,1.74,0,0,1,.45.06L43.86,14A1.72,1.72,0,0,1,45.1,16l-1.79,7.5a1.71,1.71,0,0,1-2.12,1.27L21.93,19.73a1.72,1.72,0,0,0-2.11,2.11L24.9,41.1a1.72,1.72,0,0,1-1.27,2.12L16.13,45a1.83,1.83,0,0,1-.4.05,1.75,1.75,0,0,1-1.67-1.29L4.15,6.17A1.73,1.73,0,0,1,5.81,4m0-4h0A5.78,5.78,0,0,0,1.28,2.24a5.71,5.71,0,0,0-1,5l9.92,37.6a5.73,5.73,0,0,0,5.53,4.27,5.9,5.9,0,0,0,1.33-.16l7.5-1.78a5.74,5.74,0,0,0,4.21-7L24.68,24.59l15.49,4.09a6,6,0,0,0,1.47.19,5.69,5.69,0,0,0,5.56-4.4L49,17a5.69,5.69,0,0,0-4.11-6.86L7.28.19A6,6,0,0,0,5.81,0Z"/>
  </g>
  <g>
    <path class="cls-2" d="M112.7,116.32a3.83,3.83,0,0,1-1-.12l-37.6-9.91a3.7,3.7,0,0,1-2.67-4.47l1.78-7.5a3.71,3.71,0,0,1,3.62-2.86,3.89,3.89,0,0,1,1,.12l18.8,5L91.68,77.73a3.71,3.71,0,0,1,2.74-4.57l7.49-1.79a4.3,4.3,0,0,1,.87-.1,3.72,3.72,0,0,1,3.6,2.78l9.91,37.6a3.69,3.69,0,0,1-.65,3.22A3.73,3.73,0,0,1,112.7,116.32Z"/>
    <path class="cls-3" d="M102.78,73.27a1.73,1.73,0,0,1,1.66,1.29l9.92,37.6a1.72,1.72,0,0,1-2.11,2.11l-37.6-9.92a1.72,1.72,0,0,1-1.24-2.07l1.79-7.49a1.72,1.72,0,0,1,1.67-1.33,1.74,1.74,0,0,1,.45.06L96.58,98.6a1.72,1.72,0,0,0,2.11-2.11L94.8,81.75l-1.19-4.53a1.73,1.73,0,0,1,1.27-2.12l7.5-1.78a1.75,1.75,0,0,1,.4,0m0-4a5.38,5.38,0,0,0-1.33.16L94,71.21a5.74,5.74,0,0,0-4.21,7l1.19,4.53,2.9,11L78.34,89.65a5.59,5.59,0,0,0-1.47-.19,5.71,5.71,0,0,0-5.57,4.4l-1.78,7.5a5.69,5.69,0,0,0,4.11,6.86l37.6,9.91a5.6,5.6,0,0,0,1.47.2,5.78,5.78,0,0,0,4.53-2.24,5.71,5.71,0,0,0,1-5l-9.92-37.6a5.73,5.73,0,0,0-5.53-4.27Z"/>
  </g>
  <g>
    <path class="cls-2" d="M5.72,116.23a3.73,3.73,0,0,1-2.94-1.45,3.69,3.69,0,0,1-.65-3.22L12,74a3.72,3.72,0,0,1,3.6-2.78,4.3,4.3,0,0,1,.87.1L24,73.07a3.71,3.71,0,0,1,2.74,4.57l-5,18.82,18.81-5a3.81,3.81,0,0,1,.95-.12,3.72,3.72,0,0,1,3.63,2.86l1.78,7.5a3.75,3.75,0,0,1-2.67,4.47l-37.6,9.91A3.89,3.89,0,0,1,5.72,116.23Z"/>
    <path class="cls-3" d="M15.64,73.18a1.83,1.83,0,0,1,.4,0L23.54,75a1.73,1.73,0,0,1,1.27,2.12L19.73,96.4a1.72,1.72,0,0,0,2.11,2.11L41.1,93.43a1.71,1.71,0,0,1,2.12,1.27L45,102.19a1.74,1.74,0,0,1-1.24,2.07l-37.6,9.92a1.74,1.74,0,0,1-2.11-2.11L14,74.47a1.74,1.74,0,0,1,1.67-1.29m0-4h0a5.74,5.74,0,0,0-5.54,4.27L.19,111.05a5.72,5.72,0,0,0,5.53,7.18A5.59,5.59,0,0,0,7.19,118l37.6-9.91a5.69,5.69,0,0,0,4.11-6.86l-1.79-7.5a5.7,5.7,0,0,0-5.57-4.4,5.57,5.57,0,0,0-1.46.19L24.59,93.64l4.09-15.49a5.74,5.74,0,0,0-4.21-7L17,69.34a5.44,5.44,0,0,0-1.33-.16Z"/>
  </g>
  <path class="cls-4" d="M65.24,68.74H53.4a3.92,3.92,0,0,1-3.92-3.92V53a3.92,3.92,0,0,1,3.92-3.92H65.24A3.93,3.93,0,0,1,69.17,53V64.82A3.93,3.93,0,0,1,65.24,68.74ZM41.4,37.05A3.92,3.92,0,0,0,37.48,41V76.82a3.92,3.92,0,0,0,3.92,3.92H77.24a3.93,3.93,0,0,0,3.93-3.92V41a3.93,3.93,0,0,0-3.93-3.92Z"/>
  <text class="cls-5" transform="translate(142.63 93.89)">I<tspan class="cls-6" x="23.8" y="0">nfectious </tspan><tspan x="369.39" y="0">D</tspan><tspan class="cls-6" x="422.89" y="0">iseases</tspan><tspan class="cls-7" x="677.29" y="0"> </tspan><tspan class="cls-8" x="694.78" y="0">T</tspan><tspan class="cls-6" x="731.68" y="0">oolkit</tspan></text>
</svg>
