<?xml version="1.0" encoding="UTF-8" standalone="no"?>
<svg id="Layer_1" data-name="Layer 1" width="116.0072" height="115.96471" viewBox="0 0 116.00721 115.96471" version="1.1" xmlns="http://www.w3.org/2000/svg" xmlns:svg="http://www.w3.org/2000/svg">
   <defs id="defs20">
      <style id="style18">
         .cls-1 {
            fill: #477c9e;
         }

         .cls-3 {
            fill: #e63a47;
         }

      </style>
   </defs>
   <g id="g128" transform="translate(1.0860861,-19.436803)">
      <g id="g116">
         <path class="cls-1" d="m 20.4,96.87 a 1.51,1.51 0 0 1 0.33,0.38 1.48,1.48 0 0 0 -0.22,-0.29 z" id="path74" />
         <path class="cls-1" d="m 10.91,58.41 a 1.49,1.49 0 0 1 -0.24,-0.49 l -3,-11.31 3,11.31 a 1.49,1.49 0 0 0 0.24,0.49 z" id="path76" />
         <path class="cls-1" d="m 11.46,58.9 a 1.53,1.53 0 0 0 0.41,0.14 1.72,1.72 0 0 1 -0.4,-0.14 h -0.09 z" id="path78" />
         <path class="cls-1" d="m 11.37,58.86 a 1.75,1.75 0 0 1 -0.38,-0.34 l 0.09,0.11 a 2.09,2.09 0 0 0 0.29,0.23 z" id="path80" />
         <polygon class="cls-1" points="15.87,38.13 17.57,44.57 20.45,55.52 17.57,44.57 " id="polygon82" />
         <path class="cls-1" d="m 19.77,96.55 a 1.56,1.56 0 0 1 0.47,0.22 v 0 c 0,0 0,0 0,0 a 1.67,1.67 0 0 0 -0.47,-0.22 z" id="path84" />
         <path class="cls-1" d="m 93.87,57 0.1,0.08 c 0,0 -0.06,-0.08 -0.1,-0.11 a 3.08,3.08 0 0 1 -0.24,-0.27 3.15,3.15 0 0 0 0.22,0.29 z" id="path86" />
         <path class="cls-1" d="m 102.53,95.76 a 1.48,1.48 0 0 1 0.38,0.33 l -0.09,-0.11 a 2,2 0 0 0 -0.29,-0.22 z" id="path88" />
         <path class="cls-1" d="m 102.38,95.7 a 1.21,1.21 0 0 1 0.14,0 l -0.14,-0.06 a 2.06,2.06 0 0 0 -0.35,-0.12 1.48,1.48 0 0 1 0.35,0.18 z" id="path90" />
         <path class="cls-1" d="m 77.24,40.4 a 1.18,1.18 0 0 0 0.28,0.22 1.18,1.18 0 0 1 -0.26,-0.24 0.52,0.52 0 0 1 -0.11,-0.1 1,1 0 0 0 0.08,0.11 z" id="path92" />
         <path class="cls-1" d="m 38.06,31.27 a 1.72,1.72 0 0 0 -0.49,-0.24 l -11.27,-3 v 0 l 11.27,3 a 1.72,1.72 0 0 1 0.49,0.24 z" id="path94" />
         <path class="cls-1" d="m 38.16,31.35 a 1.54,1.54 0 0 1 0.34,0.38 1.34,1.34 0 0 0 -0.23,-0.29 0.48,0.48 0 0 0 -0.11,-0.09 z" id="path96" />
         <path class="cls-1" d="m 35.16,40.81 a 1.51,1.51 0 0 0 0.63,0 1.51,1.51 0 0 1 -0.63,0 l -11,-2.89 -6.4,-1.69 6.4,1.69 z" id="path98" />
         <path class="cls-1" d="m 38.56,31.86 -0.05,-0.12 c 0,0 0,0.08 0,0.12 a 1.66,1.66 0 0 1 0.14,0.37 1.63,1.63 0 0 0 -0.09,-0.37 z" id="path100" />
         <path class="cls-1" d="m 75.21,32.9 1.62,6.76 -1.62,-6.76 a 1.8,1.8 0 0 1 0,-0.61 1.58,1.58 0 0 0 0,0.61 z" id="path102" />
         <path class="cls-1" d="m 36.84,113.36 a 1.37,1.37 0 0 1 0.38,0.34 l -0.09,-0.12 a 1.23,1.23 0 0 0 -0.29,-0.22 z" id="path104" />
         <path class="cls-1" d="m 75.74,123.26 a 1.54,1.54 0 0 1 -0.34,-0.38 1.7,1.7 0 0 0 0.23,0.3 z" id="path106" />
         <path class="cls-1" d="m 75.34,127.35 a 5.49,5.49 0 0 1 -3.67,-3.22 5.45,5.45 0 0 1 -0.25,-3.32 L 72.66,115.58 73,114 a 5.47,5.47 0 0 1 6.7,-4 l 8.8,2.32 4.7,1.24 -1.2,-4.64 -2.33,-8.83 a 5.46,5.46 0 0 1 4,-6.7 l 1.48,-0.39 5.3,-1.26 a 5.47,5.47 0 0 1 6.55,3.95 l 1.92,7.32 a 57.86,57.86 0 0 0 0,-51.32 L 107,58.92 a 5.45,5.45 0 0 1 -6.55,3.91 l -5.36,-1.27 -1.4,-0.34 a 5.39,5.39 0 0 1 -2.6,-1.45 5.5,5.5 0 0 1 -1.42,-5.25 L 92,45.72 93.23,41 l -4.69,1.24 -8.81,2.32 a 5.46,5.46 0 0 1 -6.7,-4 L 72.69,39.14 71.42,33.8 a 5.44,5.44 0 0 1 3.92,-6.54 l 7.22,-1.91 a 58.61,58.61 0 0 0 -51.31,0 l 7.31,1.93 a 5.46,5.46 0 0 1 3.92,6.54 l -1.26,5.29 -0.35,1.48 a 5.45,5.45 0 0 1 -6.7,4 L 25.34,42.27 20.67,41 l 1.24,4.71 2.32,8.79 a 5.47,5.47 0 0 1 -4,6.71 l -1.54,0.36 -5.22,1.25 A 5.48,5.48 0 0 1 8.34,61.37 5.59,5.59 0 0 1 6.9,58.92 L 5,51.54 a 57.86,57.86 0 0 0 0.17,52 L 7.41,95.03 A 5.44,5.44 0 0 1 10,91.69 5.39,5.39 0 0 1 13.92,91.15 l 4.36,1 2.41,0.58 a 5.35,5.35 0 0 1 2.59,1.45 5.48,5.48 0 0 1 1.42,5.25 l -2.47,9.37 -1.1,4.2 4.36,-1.15 9.14,-2.41 a 5.5,5.5 0 0 1 5.26,1.42 5.42,5.42 0 0 1 1.44,2.59 l 0.6,2.52 1,4.25 A 5.46,5.46 0 0 1 39,126.72 L 30.42,129 a 57.89,57.89 0 0 0 52.31,0.31 z M 46.06,107.88 A 32.64,32.64 0 0 1 41.81,106 l -3.1,-1.63 -12.1,3.24 3.24,-12.1 -1.64,-3.11 a 31.79,31.79 0 0 1 -2.76,-7.31 l -9.87,-5.75 -5.71,-3.28 6,-3.47 10.6,-6.18 a 32.42,32.42 0 0 1 1.81,-4.14 L 29.92,59.16 26.61,47 l 12.2,3.26 3.1,-1.62 a 31.53,31.53 0 0 1 4.77,-2 l 6.06,-10.4 4.26,-7.3 4.26,7.29 6.07,10.47 a 31.54,31.54 0 0 1 4.57,1.95 L 75,50.27 87.27,47 84,59.27 l 1.62,3.09 a 33.13,33.13 0 0 1 2.06,4.93 l 10.37,6 7.45,4.33 L 98,82 87.4,88.21 a 32.12,32.12 0 0 1 -1.79,4.14 L 84,95.44 87.27,107.65 75.1,104.39 72,106 a 32.5,32.5 0 0 1 -5,2.11 l -6,10.37 -4.41,7.52 -4.37,-7.51 z" id="path108" />
         <path class="cls-1" d="m 38.38,122.78 a 1.47,1.47 0 0 0 0.59,-0.54 1.47,1.47 0 0 1 -0.59,0.54 A 1.42,1.42 0 0 1 38,123 L 25.6,126.23 38,123 a 1.42,1.42 0 0 0 0.38,-0.22 z" id="path110" />
         <path class="cls-1" d="m 75.36,122.8 v 0.07 c 0,0 0,-0.05 0,-0.07 a 1.52,1.52 0 0 1 -0.16,-0.42 1.5,1.5 0 0 0 0.16,0.42 z" id="path112" />
         <path class="cls-1" d="m 37.43,114 a 1.26,1.26 0 0 0 -0.13,-0.23 1,1 0 0 1 0.11,0.23 1.2,1.2 0 0 1 0.13,0.28 1.36,1.36 0 0 0 -0.11,-0.28 z" id="path114" />
      </g>
      <path class="cls-3" d="m 103.23,57.92 2.94,-11.17 6,-22.76 a 1.56,1.56 0 0 0 -1.9,-1.91 l -22.76,6 L 76.33,31 a 1.52,1.52 0 0 0 -1,0.88 1.24,1.24 0 0 0 -0.14,0.38 1.8,1.8 0 0 0 0,0.61 l 1.62,6.76 a 1.48,1.48 0 0 0 0.23,0.51 l 0.09,0.11 a 0.52,0.52 0 0 0 0.11,0.1 1.18,1.18 0 0 0 0.26,0.24 v 0 a 1.43,1.43 0 0 0 0.5,0.18 h 0.13 a 1.52,1.52 0 0 0 0.56,0 v 0 l 11,-2.89 6.41,-1.69 a 1.52,1.52 0 0 1 1.5,0.4 1.55,1.55 0 0 1 0.41,1.5 l -1.7,6.43 -2.88,11 v 0 a 1.5,1.5 0 0 0 0,0.56 c 0,0 0,0.08 0,0.13 a 1.88,1.88 0 0 0 0.18,0.5 v 0 a 3.08,3.08 0 0 0 0.24,0.27 c 0,0 0.06,0.08 0.1,0.11 l 0.11,0.08 a 1.5,1.5 0 0 0 0.51,0.24 l 6.79,1.59 a 1.63,1.63 0 0 0 1.87,-1.12 z" id="path118" />
      <path class="cls-3" d="m 20.28,56.72 a 1.52,1.52 0 0 0 0.17,-1.2 l -2.88,-11 -1.7,-6.44 a 1.51,1.51 0 0 1 0,-0.42 1.56,1.56 0 0 1 1.53,-1.53 1.3,1.3 0 0 1 0.43,0 l 6.4,1.69 11,2.89 a 1.56,1.56 0 0 0 1.2,-0.17 1.32,1.32 0 0 0 0.28,-0.25 c 0,-0.06 0.12,-0.09 0.17,-0.15 a 1.64,1.64 0 0 0 0.26,-0.57 l 1.62,-6.77 a 1.64,1.64 0 0 0 0,-0.54 0.69,0.69 0 0 1 0,-0.13 1.66,1.66 0 0 0 -0.14,-0.37 c 0,0 0,-0.08 0,-0.12 v 0 a 1.54,1.54 0 0 0 -0.34,-0.38 l -0.1,-0.08 a 1.72,1.72 0 0 0 -0.49,-0.24 l -11.27,-3 -22.67,-6 A 1.55,1.55 0 0 0 1.73,24 l 6,22.62 3,11.31 a 1.49,1.49 0 0 0 0.24,0.49 l 0.08,0.11 a 1.75,1.75 0 0 0 0.38,0.34 v 0 h 0.09 a 1.72,1.72 0 0 0 0.4,0.14 h 0.13 a 1.4,1.4 0 0 0 0.54,0 l 6.77,-1.61 a 1.64,1.64 0 0 0 0.57,-0.26 c 0.05,0 0.08,-0.1 0.13,-0.15 a 1.53,1.53 0 0 0 0.22,-0.27 z" id="path120" />
      <path class="cls-3" d="m 112,131.81 a 1.49,1.49 0 0 0 0.21,-0.76 1.3,1.3 0 0 0 0,-0.43 l -6,-22.66 -3,-11.27 a 1.72,1.72 0 0 0 -0.24,-0.49 0.76,0.76 0 0 1 -0.08,-0.11 1.48,1.48 0 0 0 -0.38,-0.33 v 0 a 1.21,1.21 0 0 0 -0.14,0 1.48,1.48 0 0 0 -0.35,-0.13 h -0.13 a 1.63,1.63 0 0 0 -0.54,0 l -6.77,1.61 a 1.49,1.49 0 0 0 -0.72,0.44 1.55,1.55 0 0 0 -0.46,0.85 1.46,1.46 0 0 0 0,0.62 l 2.89,11 1.69,6.4 a 1.46,1.46 0 0 1 0,0.83 1.54,1.54 0 0 1 -0.4,0.67 1.62,1.62 0 0 1 -0.67,0.4 1.56,1.56 0 0 1 -0.83,0 l -6.42,-1.69 -11,-2.89 a 1.56,1.56 0 0 0 -1.2,0.17 1.64,1.64 0 0 0 -0.31,0.28 1.48,1.48 0 0 0 -0.4,0.7 l -1.62,6.76 a 1.7,1.7 0 0 0 0,0.55 c 0,0 0,0.08 0,0.12 a 1.52,1.52 0 0 0 0.16,0.42 c 0,0 0,0 0,0.07 v 0 a 1.54,1.54 0 0 0 0.34,0.38 l 0.1,0.08 a 1.72,1.72 0 0 0 0.49,0.24 l 11.32,3 22.62,6 a 1.51,1.51 0 0 0 0.42,0.05 1.47,1.47 0 0 0 0.77,-0.22 1.61,1.61 0 0 0 0.65,-0.66 z" id="path122" />
      <path class="cls-3" d="m 39,122.24 a 1.55,1.55 0 0 0 0.18,-1.16 l -1.61,-6.76 a 1.2,1.2 0 0 0 -0.13,-0.28 1,1 0 0 0 -0.11,-0.23 0.44,0.44 0 0 0 -0.08,-0.11 1.37,1.37 0 0 0 -0.38,-0.34 1.5,1.5 0 0 0 -0.5,-0.18 h -0.13 a 1.51,1.51 0 0 0 -0.56,0 l -11.3,3 -6.09,1.6 a 1.52,1.52 0 0 1 -1.19,-0.16 1.83,1.83 0 0 1 -0.31,-0.24 1.76,1.76 0 0 1 -0.4,-0.67 1.56,1.56 0 0 1 0,-0.83 l 1.49,-5.88 3,-11.53 a 1.5,1.5 0 0 0 0,-0.56 0.69,0.69 0 0 0 0,-0.13 1.58,1.58 0 0 0 -0.18,-0.5 v 0 A 1.51,1.51 0 0 0 20.37,96.9 l -0.12,-0.08 v 0 A 1.56,1.56 0 0 0 19.78,96.6 L 13,94.94 a 1.54,1.54 0 0 0 -1.65,0.66 1.78,1.78 0 0 0 -0.22,0.46 L 7.88,108.43 2.19,130 a 1.57,1.57 0 0 0 1.91,1.9 L 25.6,126.23 38,123 a 1.42,1.42 0 0 0 0.35,-0.17 1.47,1.47 0 0 0 0.65,-0.59 z" id="path124" />
      <path class="cls-3" d="m 73.6349,71.209768 a 10.93,10.93 0 0 0 -10.93,-10.92 h -12.14 a 10.94,10.94 0 0 0 -10.93,10.92 v 12.15 a 10.93,10.93 0 0 0 10.93,10.92 h 12.14 a 10.94,10.94 0 0 0 10.93,-10.92 z m -10.93,13.71 h -12.14 a 1.52,1.52 0 0 1 -1.11,-0.46 1.56,1.56 0 0 1 -0.46,-1.1 v -12.15 a 1.57,1.57 0 0 1 1.57,-1.59 h 12.14 a 1.58,1.58 0 0 1 1.11,0.46 1.6,1.6 0 0 1 0.46,1.11 v 12.17 a 1.56,1.56 0 0 1 -1.57,1.56 z" id="path126" />
   </g>
</svg>
