<svg viewBox="0 0 285.15 124.13" xmlns="http://www.w3.org/2000/svg">
   <defs>
      <style>
         .cls-1 {
            fill: #477c9e;
         }

         .cls-2 {
            fill: #1D3443;
         }

         .cls-3 {
            fill: #e63a47;
         }

      </style>
   </defs>
   <g transform="matrix(.50054 0 0 .50054 41.594 -20.485)">
      <path class="cls-2" d="m145.29 42h12.59v70h-12.59z" />
      <path class="cls-2" d="m192.58 112v-30.41c0-3.67-0.43-6.23-1.3-7.7a4.68 4.68 0 0 0-4.4-2.2 6.76 6.76 0 0 0-4.5 1.6 8.86 8.86 0 0 0-2.7 4v34.71h-11.9v-50h9.5l1.4 5.8h0.3a16.27 16.27 0 0 1 4.9-5 14.43 14.43 0 0 1 8.1-2.05 14.85 14.85 0 0 1 5.35 0.9 9 9 0 0 1 3.95 3 13.92 13.92 0 0 1 2.4 5.5 38.2 38.2 0 0 1 0.8 8.55v33.3z" />
      <path class="cls-2" d="m209.18 62h5.4v-2.8q0-9.49 3.55-13.75t10.15-4.25a29.19 29.19 0 0 1 11 1.8l-2.2 10.1a12.54 12.54 0 0 0-3.2-0.85 27.17 27.17 0 0 0-2.9-0.15c-1.93 0-3.16 0.75-3.7 2.25a25.56 25.56 0 0 0-0.8 7.65h8.52v10.6h-8.5v39.4h-11.9v-39.41h-5.4z" />
      <path class="cls-2" d="m273.18 108.29a19 19 0 0 1-6.8 3.6 28.92 28.92 0 0 1-9 1.4 20.53 20.53 0 0 1-8.95-1.8 15.73 15.73 0 0 1-6.15-5.2 23.71 23.71 0 0 1-3.55-8.29 48.47 48.47 0 0 1-1.15-11q0-13.5 5.35-19.95t14.85-6.45a20.49 20.49 0 0 1 6.2 0.95 13.5 13.5 0 0 1 5.35 3.2 16.16 16.16 0 0 1 3.8 6 26.37 26.37 0 0 1 1.45 9.45 46.38 46.38 0 0 1-0.25 4.7q-0.25 2.51-0.75 5.4h-24.5q0.21 6.19 2.63 9.5c1.61 2.2 4.21 3.3 7.77 3.3a16.66 16.66 0 0 0 5.91-1 15.81 15.81 0 0 0 4.09-2.1zm-15.68-37.5a6.41 6.41 0 0 0-5.79 3q-1.92 3-2.23 8.55h14c0.2-3.8-0.2-6.68-1.22-8.65a5 5 0 0 0-4.76-2.9z" />
      <path class="cls-2" d="m311.68 109.29a17.09 17.09 0 0 1-6 3 25.25 25.25 0 0 1-7 1 18 18 0 0 1-8.55-1.85 15.09 15.09 0 0 1-5.65-5.3 23.91 23.91 0 0 1-3.15-8.3 56.91 56.91 0 0 1-0.95-10.84q0-13.09 4.7-19.7t13.8-6.6a28 28 0 0 1 7.35 0.8 24.06 24.06 0 0 1 5 2l-2.8 9.9a18.85 18.85 0 0 0-3.43-1.4 15.18 15.18 0 0 0-3.95-0.45 6.83 6.83 0 0 0-6.3 3.65q-2.1 3.65-2.1 11.75a24.91 24.91 0 0 0 2.15 11.1 7.16 7.16 0 0 0 6.85 4.3 12.33 12.33 0 0 0 4.25-0.65 15.27 15.27 0 0 0 3.25-1.65z" />
      <path class="cls-2" d="m313.28 62h5.5v-9.4l11.9-3.7v13.1h9.7v10.6h-9.7v21.8a15.48 15.48 0 0 0 0.85 6.1 3.08 3.08 0 0 0 3.05 1.8 11.15 11.15 0 0 0 2.7-0.3 17.21 17.21 0 0 0 2.6-0.9l1.5 9.5a26.3 26.3 0 0 1-5.1 1.85 24.27 24.27 0 0 1-6.1 0.75q-5.7 0-8.55-3.3t-2.85-11.1v-26.21h-5.5z" />
      <path class="cls-2" d="m345.88 47.89a6.79 6.79 0 0 1 1.9-5 7.19 7.19 0 0 1 5.4-1.95 8 8 0 0 1 5.6 1.9 6.42 6.42 0 0 1 2.1 5 6.11 6.11 0 0 1-2.1 4.9 8.32 8.32 0 0 1-5.6 1.8 7.43 7.43 0 0 1-5.4-1.85 6.45 6.45 0 0 1-1.9-4.8zm1.4 14.1h11.9v50h-11.9z" />
      <path class="cls-2" d="m367 87q0-13.3 5.2-19.8t14.5-6.5q10 0 14.9 6.6t4.9 19.7q0 13.4-5.2 19.85t-14.6 6.45q-19.7-0.01-19.7-26.3zm12.3 0q0 7.5 1.7 11.6t5.7 4.1a6 6 0 0 0 5.65-3.55q1.85-3.56 1.85-12.15 0-7.69-1.7-11.7a5.92 5.92 0 0 0-5.8-4c-2.34 0-4.15 1.18-5.45 3.55s-1.97 6.41-1.97 12.15z" />
      <path class="cls-2" d="m424.78 62v29.9c0 3.93 0.36 6.67 1.1 8.2a4 4 0 0 0 4 2.3 6.16 6.16 0 0 0 4.7-2 11.94 11.94 0 0 0 2.7-5v-33.4h11.9v34.8c0 2.73 0.1 5.42 0.3 8a42.32 42.32 0 0 0 1.1 7.15h-9l-2.1-6.8h-0.3a17 17 0 0 1-5.18 5.85 13.62 13.62 0 0 1-8 2.3 16.33 16.33 0 0 1-5.5-0.85 9.14 9.14 0 0 1-4.1-3 14.55 14.55 0 0 1-2.6-5.75 39.56 39.56 0 0 1-0.9-9.25v-32.45z" />
      <path class="cls-2" d="m474.68 98.69a5 5 0 0 0-1.35-3.55 15.33 15.33 0 0 0-3.45-2.7c-1.4-0.83-2.89-1.68-4.45-2.55a23.69 23.69 0 0 1-4.45-3.2 15.48 15.48 0 0 1-3.45-4.6 15.17 15.17 0 0 1-1.35-6.8q0-7 3.8-10.8t11.2-3.8a35.17 35.17 0 0 1 8.3 1 22.23 22.23 0 0 1 6.2 2.35l-2.8 9.2a39.54 39.54 0 0 0-4.6-1.55 19.77 19.77 0 0 0-5.3-0.75q-4.91 0-4.9 4.1a4.1 4.1 0 0 0 1.35 3.15 19 19 0 0 0 3.45 2.45q2.1 1.2 4.45 2.5a23 23 0 0 1 4.45 3.25 15.67 15.67 0 0 1 3.45 4.75 15.84 15.84 0 0 1 1.35 6.9q0 6.9-4.2 11.1t-12.5 4.2a32.46 32.46 0 0 1-8.05-1 20.52 20.52 0 0 1-6.35-2.6l3.3-9.6a26 26 0 0 0 4.85 2.1 18.35 18.35 0 0 0 5.75 0.9 6.48 6.48 0 0 0 3.8-1 3.81 3.81 0 0 0 1.5-3.45z" />
   </g>
   <g transform="matrix(.50054 0 0 .50054 -142.73 23.746)">
      <path class="cls-2" d="m513.58 42q1.8-0.3 4-0.45l4.6-0.3c1.56-0.1 3.08-0.17 4.55-0.2s2.76 0 3.89 0a33.19 33.19 0 0 1 13.86 2.55 22 22 0 0 1 8.89 7.2 29.29 29.29 0 0 1 4.75 11.15 68.57 68.57 0 0 1 1.41 14.5 69.94 69.94 0 0 1-1.35 14 32.33 32.33 0 0 1-4.75 11.7 24.35 24.35 0 0 1-9.2 8q-5.81 3-14.61 3c-0.86 0-2 0-3.5-0.1s-3-0.15-4.59-0.25l-4.6-0.3c-1.47-0.1-2.6-0.22-3.4-0.35zm18.42 10.59h-3.25a14.72 14.72 0 0 0-2.56 0.25v48.2a4.59 4.59 0 0 0 1.06 0.15l1.6 0.1 1.59 0.1h1.06a12.32 12.32 0 0 0 7.4-2.1 14.22 14.22 0 0 0 4.54-5.6 28 28 0 0 0 2.31-8.05 68 68 0 0 0 0.65-9.55 71.37 71.37 0 0 0-0.55-8.9 25 25 0 0 0-2.1-7.55 12.92 12.92 0 0 0-4.4-5.2 12.78 12.78 0 0 0-7.35-1.85z" />
      <path class="cls-2" d="m566.47 47.89a6.83 6.83 0 0 1 1.9-5 7.21 7.21 0 0 1 5.4-1.95 8 8 0 0 1 5.6 1.9 6.42 6.42 0 0 1 2.1 5 6.11 6.11 0 0 1-2.1 4.9 8.3 8.3 0 0 1-5.6 1.8 7.45 7.45 0 0 1-5.4-1.85 6.48 6.48 0 0 1-1.9-4.8zm1.4 14.1h11.9v50h-11.9z" />
      <path class="cls-2" d="m606.17 98.69a5 5 0 0 0-1.35-3.55 15.33 15.33 0 0 0-3.45-2.7q-2.1-1.25-4.45-2.55a24 24 0 0 1-4.45-3.2 15.48 15.48 0 0 1-3.45-4.6 15.17 15.17 0 0 1-1.35-6.8q0-7 3.8-10.8t11.2-3.8a35.11 35.11 0 0 1 8.3 1 22.11 22.11 0 0 1 6.2 2.35l-2.8 9.2a38.91 38.91 0 0 0-4.6-1.55 19.71 19.71 0 0 0-5.3-0.75c-3.26 0-4.9 1.37-4.9 4.1a4.1 4.1 0 0 0 1.35 3.15 19 19 0 0 0 3.45 2.45c1.4 0.8 2.89 1.63 4.45 2.5a22.7 22.7 0 0 1 4.45 3.25 15.67 15.67 0 0 1 3.45 4.75 15.84 15.84 0 0 1 1.35 6.9q0 6.9-4.2 11.1t-12.5 4.2a32.57 32.57 0 0 1-8-1 20.62 20.62 0 0 1-6.35-2.6l3.3-9.6a26.29 26.29 0 0 0 4.85 2.1 18.4 18.4 0 0 0 5.75 0.9 6.46 6.46 0 0 0 3.8-1 3.81 3.81 0 0 0 1.45-3.45z" />
      <path class="cls-2" d="m658.17 108.29a19 19 0 0 1-6.8 3.6 28.92 28.92 0 0 1-9 1.4 20.53 20.53 0 0 1-9-1.8 15.73 15.73 0 0 1-6.15-5.2 23.71 23.71 0 0 1-3.5-8.29 48.47 48.47 0 0 1-1.15-11q0-13.5 5.35-19.95t14.85-6.45a20.49 20.49 0 0 1 6.2 0.95 13.5 13.5 0 0 1 5.35 3.2 16.16 16.16 0 0 1 3.8 6 26.37 26.37 0 0 1 1.45 9.45 46.38 46.38 0 0 1-0.25 4.7q-0.26 2.51-0.76 5.4h-24.49q0.21 6.19 2.63 9.5c1.61 2.2 4.21 3.3 7.77 3.3a16.66 16.66 0 0 0 5.91-1 15.81 15.81 0 0 0 4.09-2.1zm-15.68-37.5a6.41 6.41 0 0 0-5.79 3q-1.92 3-2.23 8.55h14q0.3-5.7-1.22-8.65a5 5 0 0 0-4.76-2.9z" />
      <path class="cls-2" d="m667.27 65a27 27 0 0 1 7.5-2.9 43.26 43.26 0 0 1 10.23-1.1q8.5 0 11.85 4.4t3.35 12.5c0 3.13-0.08 6.22-0.25 9.25s-0.28 6-0.35 8.9 0 5.7 0.15 8.4a33.43 33.43 0 0 0 1.35 7.65h-9.7l-1.9-6.1h-0.4a13.4 13.4 0 0 1-4.5 4.8 13 13 0 0 1-7.3 1.9 11.65 11.65 0 0 1-9.3-4q-3.39-3.94-3.4-10.55 0-9 6.4-12.8t17.3-3.2q0.5-5.81-0.75-8.4t-5.35-2.6a28.75 28.75 0 0 0-6.2 0.7 23 23 0 0 0-5.7 2zm14.3 37.5a6.85 6.85 0 0 0 4.4-1.35 8.87 8.87 0 0 0 2.5-3v-8.3a19.8 19.8 0 0 0-4.4-0.1 11.89 11.89 0 0 0-3.7 0.9 6 6 0 0 0-2.55 2 5.88 5.88 0 0 0-1 3.45 7.55 7.55 0 0 0 1.25 4.7 4.13 4.13 0 0 0 3.5 1.69z" />
      <path class="cls-2" d="m725.27 98.69a5 5 0 0 0-1.35-3.55 15.33 15.33 0 0 0-3.45-2.7q-2.1-1.25-4.45-2.55a24 24 0 0 1-4.45-3.2 15.48 15.48 0 0 1-3.45-4.6 15.17 15.17 0 0 1-1.35-6.8q0-7 3.8-10.8t11.2-3.8a35.11 35.11 0 0 1 8.3 1 22.11 22.11 0 0 1 6.2 2.35l-2.8 9.2a38.91 38.91 0 0 0-4.6-1.55 19.77 19.77 0 0 0-5.3-0.75q-4.91 0-4.9 4.1a4.1 4.1 0 0 0 1.33 3.1 19 19 0 0 0 3.45 2.45q2.1 1.2 4.45 2.5a22.7 22.7 0 0 1 4.45 3.25 15.67 15.67 0 0 1 3.45 4.75 15.84 15.84 0 0 1 1.35 6.9q0 6.9-4.2 11.1t-12.5 4.2a32.52 32.52 0 0 1-8.05-1 20.62 20.62 0 0 1-6.35-2.6l3.3-9.6a26.29 26.29 0 0 0 4.85 2.1 18.35 18.35 0 0 0 5.75 0.9 6.46 6.46 0 0 0 3.8-1 3.81 3.81 0 0 0 1.52-3.4z" />
      <path class="cls-2" d="m777.27 108.29a19.08 19.08 0 0 1-6.8 3.6 29 29 0 0 1-9 1.4 20.5 20.5 0 0 1-9-1.8 15.73 15.73 0 0 1-6.15-5.2 23.71 23.71 0 0 1-3.5-8.29 47.91 47.91 0 0 1-1.15-11q0-13.5 5.35-19.95t14.85-6.45a20.53 20.53 0 0 1 6.2 0.95 13.57 13.57 0 0 1 5.35 3.2 16.28 16.28 0 0 1 3.8 6 26.37 26.37 0 0 1 1.45 9.45 46.38 46.38 0 0 1-0.25 4.7q-0.25 2.51-0.76 5.4h-24.49q0.21 6.19 2.63 9.5t7.77 3.3a16.66 16.66 0 0 0 5.91-1 16 16 0 0 0 4.09-2.1zm-15.68-37.5a6.4 6.4 0 0 0-5.79 3 17.9 17.9 0 0 0-2.23 8.55h14q0.3-5.7-1.22-8.65a5 5 0 0 0-4.76-2.9z" />
      <path class="cls-2" d="m803.07 98.69a5 5 0 0 0-1.35-3.55 15.33 15.33 0 0 0-3.45-2.7q-2.1-1.25-4.45-2.55a23.69 23.69 0 0 1-4.45-3.2 15.48 15.48 0 0 1-3.45-4.6 15.17 15.17 0 0 1-1.35-6.8q0-7 3.8-10.8t11.2-3.8a35.17 35.17 0 0 1 8.3 1 22.11 22.11 0 0 1 6.2 2.35l-2.8 9.2a39.54 39.54 0 0 0-4.6-1.55 19.77 19.77 0 0 0-5.3-0.75q-4.9 0-4.9 4.1a4.1 4.1 0 0 0 1.35 3.15 19 19 0 0 0 3.45 2.45q2.1 1.2 4.45 2.5a22.7 22.7 0 0 1 4.45 3.25 15.67 15.67 0 0 1 3.45 4.75 15.84 15.84 0 0 1 1.38 6.86q0 6.9-4.2 11.1t-12.5 4.2a32.52 32.52 0 0 1-8-1 20.62 20.62 0 0 1-6.35-2.6l3.3-9.6a26.29 26.29 0 0 0 4.85 2.1 18.35 18.35 0 0 0 5.75 0.9 6.48 6.48 0 0 0 3.8-1 3.81 3.81 0 0 0 1.42-3.41z" />
   </g>
   <g transform="matrix(.50054 0 0 .50054 -303.77 67.42)">
      <path class="cls-2" d="m881.07 53.59h-16.6v58.41h-12.6v-58.41h-16.6v-11.59h45.8z" />
      <path class="cls-2" d="m873.87 87q0-13.3 5.2-19.8t14.5-6.5q10 0 14.9 6.6t4.9 19.7q0 13.4-5.2 19.85t-14.6 6.45q-19.71-0.01-19.7-26.3zm12.3 0q0 7.5 1.7 11.6t5.7 4.1a6 6 0 0 0 5.65-3.55q1.85-3.56 1.85-12.15 0-7.69-1.7-11.7a5.92 5.92 0 0 0-5.8-4c-2.34 0-4.15 1.18-5.45 3.55s-1.95 6.41-1.95 12.15z" />
      <path class="cls-2" d="m918.37 87q0-13.3 5.2-19.8t14.5-6.5q10 0 14.9 6.6t4.9 19.7q0 13.4-5.2 19.85t-14.6 6.45q-19.71-0.01-19.7-26.3zm12.3 0q0 7.5 1.7 11.6t5.7 4.1a6 6 0 0 0 5.65-3.55q1.85-3.56 1.85-12.15 0-7.69-1.7-11.7a5.92 5.92 0 0 0-5.8-4c-2.34 0-4.15 1.18-5.45 3.55s-1.95 6.41-1.95 12.15z" />
      <path class="cls-2" d="m976.77 95.79a12.75 12.75 0 0 0 0.7 5 2.37 2.37 0 0 0 2.3 1.5 9.26 9.26 0 0 0 1.85-0.2 12.35 12.35 0 0 0 2.15-0.7l1.1 9.6a13.92 13.92 0 0 1-4.1 1.5c-1.94 0.47-11.74-0.13-13.4-1.8s-2.5-4.5-2.5-8.5v-60.19h11.9z" />
      <path class="cls-2" d="m1003.7 91.29h-2.8v20.71h-11.87v-70h11.9v41.3l2.4-1.4 8.3-19.9h12.9l-9.2 19.8-4.3 3.4 4.7 3.4 10.2 23.4h-13.4z" />
      <path class="cls-2" d="m1029.8 47.89a6.79 6.79 0 0 1 1.9-5 7.17 7.17 0 0 1 5.4-1.95 8 8 0 0 1 5.6 1.9 6.42 6.42 0 0 1 2.1 5 6.11 6.11 0 0 1-2.1 4.9 8.32 8.32 0 0 1-5.6 1.8 7.41 7.41 0 0 1-5.4-1.85 6.45 6.45 0 0 1-1.9-4.8zm1.4 14.1h11.9v50h-11.9z" />
      <path class="cls-2" d="m1048.8 62h5.5v-9.4l11.9-3.7v13.1h9.7v10.6h-9.7v21.8a15.67 15.67 0 0 0 0.85 6.1 3.09 3.09 0 0 0 3 1.8 11.15 11.15 0 0 0 2.7-0.3 17.21 17.21 0 0 0 2.6-0.9l1.5 9.5a25.83 25.83 0 0 1-5.1 1.85 24.22 24.22 0 0 1-6.1 0.75q-5.7 0-8.55-3.3t-2.85-11.1v-26.21h-5.5z" />
   </g>
   <g transform="matrix(.85884 0 0 .85884 .93277 -4.4244)">
      <path class="cls-1" d="m20.4 96.87a1.51 1.51 0 0 1 0.33 0.38 1.48 1.48 0 0 0-0.22-0.29z" />
      <path class="cls-1" d="m10.91 58.41a1.49 1.49 0 0 1-0.24-0.49l-3-11.31 3 11.31a1.49 1.49 0 0 0 0.24 0.49z" />
      <path class="cls-1" d="m11.46 58.9a1.53 1.53 0 0 0 0.41 0.14 1.72 1.72 0 0 1-0.4-0.14h-0.09z" />
      <path class="cls-1" d="m11.37 58.86a1.75 1.75 0 0 1-0.38-0.34l0.09 0.11a2.09 2.09 0 0 0 0.29 0.23z" />
      <polygon class="cls-1" points="17.57 44.57 20.45 55.52 17.57 44.57 15.87 38.13" />
      <path class="cls-1" d="m19.77 96.55a1.56 1.56 0 0 1 0.47 0.22 1.67 1.67 0 0 0-0.47-0.22z" />
      <path class="cls-1" d="m93.87 57 0.1 0.08s-0.06-0.08-0.1-0.11a3.08 3.08 0 0 1-0.24-0.27 3.15 3.15 0 0 0 0.22 0.29z" />
      <path class="cls-1" d="m102.53 95.76a1.48 1.48 0 0 1 0.38 0.33l-0.09-0.11a2 2 0 0 0-0.29-0.22z" />
      <path class="cls-1" d="m102.38 95.7a1.21 1.21 0 0 1 0.14 0l-0.14-0.06a2.06 2.06 0 0 0-0.35-0.12 1.48 1.48 0 0 1 0.35 0.18z" />
      <path class="cls-1" d="m77.24 40.4a1.18 1.18 0 0 0 0.28 0.22 1.18 1.18 0 0 1-0.26-0.24 0.52 0.52 0 0 1-0.11-0.1 1 1 0 0 0 0.08 0.11z" />
      <path class="cls-1" d="m38.06 31.27a1.72 1.72 0 0 0-0.49-0.24l-11.27-3 11.27 3a1.72 1.72 0 0 1 0.49 0.24z" />
      <path class="cls-1" d="m38.16 31.35a1.54 1.54 0 0 1 0.34 0.38 1.34 1.34 0 0 0-0.23-0.29 0.48 0.48 0 0 0-0.11-0.09z" />
      <path class="cls-1" d="m35.16 40.81a1.51 1.51 0 0 0 0.63 0 1.51 1.51 0 0 1-0.63 0l-11-2.89-6.4-1.69 6.4 1.69z" />
      <path class="cls-1" d="m38.56 31.86-0.05-0.12v0.12a1.66 1.66 0 0 1 0.14 0.37 1.63 1.63 0 0 0-0.09-0.37z" />
      <path class="cls-1" d="m75.21 32.9 1.62 6.76-1.62-6.76a1.8 1.8 0 0 1 0-0.61 1.58 1.58 0 0 0 0 0.61z" />
      <path class="cls-1" d="m36.84 113.36a1.37 1.37 0 0 1 0.38 0.34l-0.09-0.12a1.23 1.23 0 0 0-0.29-0.22z" />
      <path class="cls-1" d="m75.74 123.26a1.54 1.54 0 0 1-0.34-0.38 1.7 1.7 0 0 0 0.23 0.3z" />
      <path class="cls-1" d="m75.34 127.35a5.49 5.49 0 0 1-3.67-3.22 5.45 5.45 0 0 1-0.25-3.32l1.24-5.23 0.34-1.58a5.47 5.47 0 0 1 6.7-4l8.8 2.32 4.7 1.24-1.2-4.64-2.33-8.83a5.46 5.46 0 0 1 4-6.7l1.48-0.39 5.3-1.26a5.47 5.47 0 0 1 6.55 3.95l1.92 7.32a57.86 57.86 0 0 0 0-51.32l-1.92 7.23a5.45 5.45 0 0 1-6.55 3.91l-5.36-1.27-1.4-0.34a5.39 5.39 0 0 1-2.6-1.45 5.5 5.5 0 0 1-1.42-5.25l2.33-8.8 1.23-4.72-4.69 1.24-8.81 2.32a5.46 5.46 0 0 1-6.7-4l-0.34-1.42-1.27-5.34a5.44 5.44 0 0 1 3.92-6.54l7.22-1.91a58.61 58.61 0 0 0-51.31 0l7.31 1.93a5.46 5.46 0 0 1 3.92 6.54l-1.26 5.29-0.35 1.48a5.45 5.45 0 0 1-6.7 4l-8.83-2.32-4.67-1.27 1.24 4.71 2.32 8.79a5.47 5.47 0 0 1-4 6.71l-1.54 0.36-5.22 1.25a5.48 5.48 0 0 1-5.13-1.45 5.59 5.59 0 0 1-1.44-2.45l-1.9-7.38a57.86 57.86 0 0 0 0.17 52l2.24-8.51a5.44 5.44 0 0 1 2.59-3.34 5.39 5.39 0 0 1 3.92-0.54l4.36 1 2.41 0.58a5.35 5.35 0 0 1 2.59 1.45 5.48 5.48 0 0 1 1.42 5.25l-2.47 9.37-1.1 4.2 4.36-1.15 9.14-2.41a5.5 5.5 0 0 1 5.26 1.42 5.42 5.42 0 0 1 1.44 2.59l0.6 2.52 1 4.25a5.46 5.46 0 0 1-3.93 6.5l-8.58 2.28a57.89 57.89 0 0 0 52.31 0.31zm-29.28-19.47a32.64 32.64 0 0 1-4.25-1.88l-3.1-1.63-12.1 3.24 3.24-12.1-1.64-3.11a31.79 31.79 0 0 1-2.76-7.31l-9.87-5.75-5.71-3.28 6-3.47 10.6-6.18a32.42 32.42 0 0 1 1.81-4.14l1.64-3.11-3.31-12.16 12.2 3.26 3.1-1.62a31.53 31.53 0 0 1 4.77-2l6.06-10.4 4.26-7.3 4.26 7.29 6.07 10.47a31.54 31.54 0 0 1 4.57 1.95l3.1 1.62 12.27-3.27-3.27 12.27 1.62 3.09a33.13 33.13 0 0 1 2.06 4.93l10.37 6 7.45 4.33-7.5 4.38-10.6 6.21a32.12 32.12 0 0 1-1.79 4.14l-1.61 3.09 3.27 12.21-12.17-3.26-3.1 1.61a32.5 32.5 0 0 1-5 2.11l-6 10.37-4.41 7.52-4.37-7.51z" />
      <path class="cls-1" d="m38.38 122.78a1.47 1.47 0 0 0 0.59-0.54 1.47 1.47 0 0 1-0.59 0.54 1.42 1.42 0 0 1-0.38 0.22l-12.4 3.23 12.4-3.23a1.42 1.42 0 0 0 0.38-0.22z" />
      <path class="cls-1" d="m75.36 122.8v0.07-0.07a1.52 1.52 0 0 1-0.16-0.42 1.5 1.5 0 0 0 0.16 0.42z" />
      <path class="cls-1" d="m37.43 114a1.26 1.26 0 0 0-0.13-0.23 1 1 0 0 1 0.11 0.23 1.2 1.2 0 0 1 0.13 0.28 1.36 1.36 0 0 0-0.11-0.28z" />
      <path class="cls-3" d="m103.23 57.92 2.94-11.17 6-22.76a1.56 1.56 0 0 0-1.9-1.91l-22.76 6-11.18 2.92a1.52 1.52 0 0 0-1 0.88 1.24 1.24 0 0 0-0.14 0.38 1.8 1.8 0 0 0 0 0.61l1.62 6.76a1.48 1.48 0 0 0 0.23 0.51l0.09 0.11a0.52 0.52 0 0 0 0.11 0.1 1.18 1.18 0 0 0 0.26 0.24 1.43 1.43 0 0 0 0.5 0.18h0.13a1.52 1.52 0 0 0 0.56 0l11-2.89 6.41-1.69a1.52 1.52 0 0 1 1.5 0.4 1.55 1.55 0 0 1 0.41 1.5l-1.7 6.43-2.88 11a1.5 1.5 0 0 0 0 0.56v0.13a1.88 1.88 0 0 0 0.18 0.5 3.08 3.08 0 0 0 0.24 0.27s0.06 0.08 0.1 0.11l0.11 0.08a1.5 1.5 0 0 0 0.51 0.24l6.79 1.59a1.63 1.63 0 0 0 1.87-1.12z" />
      <path class="cls-3" d="m20.28 56.72a1.52 1.52 0 0 0 0.17-1.2l-2.88-11-1.7-6.44a1.51 1.51 0 0 1 0-0.42 1.56 1.56 0 0 1 1.53-1.53 1.3 1.3 0 0 1 0.43 0l6.4 1.69 11 2.89a1.56 1.56 0 0 0 1.2-0.17 1.32 1.32 0 0 0 0.28-0.25c0-0.06 0.12-0.09 0.17-0.15a1.64 1.64 0 0 0 0.26-0.57l1.62-6.77a1.64 1.64 0 0 0 0-0.54 0.69 0.69 0 0 1 0-0.13 1.66 1.66 0 0 0-0.14-0.37v-0.12a1.54 1.54 0 0 0-0.34-0.38l-0.1-0.08a1.72 1.72 0 0 0-0.49-0.24l-11.27-3-22.67-6a1.55 1.55 0 0 0-2.02 2.06l9 33.93a1.49 1.49 0 0 0 0.24 0.49l0.08 0.11a1.75 1.75 0 0 0 0.38 0.34h0.09a1.72 1.72 0 0 0 0.4 0.14h0.13a1.4 1.4 0 0 0 0.54 0l6.77-1.61a1.64 1.64 0 0 0 0.57-0.26c0.05 0 0.08-0.1 0.13-0.15a1.53 1.53 0 0 0 0.22-0.27z" />
      <path class="cls-3" d="m112 131.81a1.49 1.49 0 0 0 0.21-0.76 1.3 1.3 0 0 0 0-0.43l-6-22.66-3-11.27a1.72 1.72 0 0 0-0.24-0.49 0.76 0.76 0 0 1-0.08-0.11 1.48 1.48 0 0 0-0.38-0.33 1.21 1.21 0 0 0-0.14 0 1.48 1.48 0 0 0-0.35-0.13h-0.13a1.63 1.63 0 0 0-0.54 0l-6.77 1.61a1.49 1.49 0 0 0-0.72 0.44 1.55 1.55 0 0 0-0.46 0.85 1.46 1.46 0 0 0 0 0.62l2.89 11 1.69 6.4a1.46 1.46 0 0 1 0 0.83 1.54 1.54 0 0 1-0.4 0.67 1.62 1.62 0 0 1-0.67 0.4 1.56 1.56 0 0 1-0.83 0l-6.42-1.69-11-2.89a1.56 1.56 0 0 0-1.2 0.17 1.64 1.64 0 0 0-0.31 0.28 1.48 1.48 0 0 0-0.4 0.7l-1.62 6.76a1.7 1.7 0 0 0 0 0.55v0.12a1.52 1.52 0 0 0 0.16 0.42v0.07a1.54 1.54 0 0 0 0.34 0.38l0.1 0.08a1.72 1.72 0 0 0 0.49 0.24l11.32 3 22.62 6a1.51 1.51 0 0 0 0.42 0.05 1.47 1.47 0 0 0 0.77-0.22 1.61 1.61 0 0 0 0.65-0.66z" />
      <path class="cls-3" d="m39 122.24a1.55 1.55 0 0 0 0.18-1.16l-1.61-6.76a1.2 1.2 0 0 0-0.13-0.28 1 1 0 0 0-0.11-0.23 0.44 0.44 0 0 0-0.08-0.11 1.37 1.37 0 0 0-0.38-0.34 1.5 1.5 0 0 0-0.5-0.18h-0.13a1.51 1.51 0 0 0-0.56 0l-11.3 3-6.09 1.6a1.52 1.52 0 0 1-1.19-0.16 1.83 1.83 0 0 1-0.31-0.24 1.76 1.76 0 0 1-0.4-0.67 1.56 1.56 0 0 1 0-0.83l1.49-5.88 3-11.53a1.5 1.5 0 0 0 0-0.56 0.69 0.69 0 0 0 0-0.13 1.58 1.58 0 0 0-0.18-0.5 1.51 1.51 0 0 0-0.33-0.38l-0.12-0.08a1.56 1.56 0 0 0-0.47-0.22l-6.78-1.66a1.54 1.54 0 0 0-1.65 0.66 1.78 1.78 0 0 0-0.22 0.46l-3.25 12.37-5.69 21.57a1.57 1.57 0 0 0 1.91 1.9l21.5-5.67 12.4-3.23a1.42 1.42 0 0 0 0.35-0.17 1.47 1.47 0 0 0 0.65-0.59z" />
      <path class="cls-3" d="m73.875 72.251a10.93 10.93 0 0 0-10.93-10.92h-12.14a10.94 10.94 0 0 0-10.93 10.92v12.15a10.93 10.93 0 0 0 10.93 10.92h12.14a10.94 10.94 0 0 0 10.93-10.92zm-10.93 13.71h-12.14a1.52 1.52 0 0 1-1.11-0.46 1.56 1.56 0 0 1-0.46-1.1v-12.15a1.57 1.57 0 0 1 1.57-1.59h12.14a1.58 1.58 0 0 1 1.11 0.46 1.6 1.6 0 0 1 0.46 1.11v12.17a1.56 1.56 0 0 1-1.57 1.56z" />
   </g>
</svg>
