<?xml version="1.0" encoding="UTF-8" standalone="no"?>
<svg
   id="Layer_1"
   data-name="Layer 1"
   width="285.15201"
   height="124.13184"
   viewBox="0 0 285.15202 124.13184"
   version="1.1"
   xmlns="http://www.w3.org/2000/svg"
   xmlns:svg="http://www.w3.org/2000/svg">
  <defs
     id="defs259">
    <style
       id="style257">
         .cls-1 {
            fill: #477c9e;
         }

         .cls-2 {
            fill: #f5f5f5;
         }

         .cls-3 {
            fill: #e63a47;
         }

      </style>
  </defs>
  <g
     id="g254"
     transform="matrix(0.50054269,0,0,0.50054269,41.594232,-20.484811)">
    <path
       class="cls-2"
       d="m 145.29,42 h 12.59 v 70 h -12.59 z"
       id="path261" />
    <path
       class="cls-2"
       d="M 192.58,112 V 81.59 c 0,-3.67 -0.43,-6.23 -1.3,-7.7 a 4.68,4.68 0 0 0 -4.4,-2.2 6.76,6.76 0 0 0 -4.5,1.6 8.86,8.86 0 0 0 -2.7,4 V 112 h -11.9 V 62 h 9.5 l 1.4,5.8 h 0.3 a 16.27,16.27 0 0 1 4.9,-5 14.43,14.43 0 0 1 8.1,-2.05 14.85,14.85 0 0 1 5.35,0.9 9,9 0 0 1 3.95,3 13.92,13.92 0 0 1 2.4,5.5 38.2,38.2 0 0 1 0.8,8.55 V 112 Z"
       id="path263" />
    <path
       class="cls-2"
       d="m 209.18,62 h 5.4 v -2.8 q 0,-9.49 3.55,-13.75 3.55,-4.26 10.15,-4.25 a 29.19,29.19 0 0 1 11,1.8 l -2.2,10.1 a 12.54,12.54 0 0 0 -3.2,-0.85 27.17,27.17 0 0 0 -2.9,-0.15 c -1.93,0 -3.16,0.75 -3.7,2.25 A 25.56,25.56 0 0 0 226.48,62 H 235 v 10.6 h -8.5 V 112 H 214.6 V 72.59 h -5.4 z"
       id="path265" />
    <path
       class="cls-2"
       d="m 273.18,108.29 a 19,19 0 0 1 -6.8,3.6 28.92,28.92 0 0 1 -9,1.4 20.53,20.53 0 0 1 -8.95,-1.8 15.73,15.73 0 0 1 -6.15,-5.2 23.71,23.71 0 0 1 -3.55,-8.29 48.47,48.47 0 0 1 -1.15,-11 q 0,-13.5 5.35,-19.95 5.35,-6.45 14.85,-6.45 a 20.49,20.49 0 0 1 6.2,0.95 13.5,13.5 0 0 1 5.35,3.2 16.16,16.16 0 0 1 3.8,6 26.37,26.37 0 0 1 1.45,9.45 46.38,46.38 0 0 1 -0.25,4.7 q -0.25,2.51 -0.75,5.4 h -24.5 q 0.21,6.19 2.63,9.5 c 1.61,2.2 4.21,3.3 7.77,3.3 a 16.66,16.66 0 0 0 5.91,-1 15.81,15.81 0 0 0 4.09,-2.1 z M 257.5,70.79 a 6.41,6.41 0 0 0 -5.79,3 q -1.92,3 -2.23,8.55 h 14 c 0.2,-3.8 -0.2,-6.68 -1.22,-8.65 a 5,5 0 0 0 -4.76,-2.9 z"
       id="path267" />
    <path
       class="cls-2"
       d="m 311.68,109.29 a 17.09,17.09 0 0 1 -6,3 25.25,25.25 0 0 1 -7,1 18,18 0 0 1 -8.55,-1.85 15.09,15.09 0 0 1 -5.65,-5.3 23.91,23.91 0 0 1 -3.15,-8.3 A 56.91,56.91 0 0 1 280.38,87 q 0,-13.09 4.7,-19.7 4.7,-6.61 13.8,-6.6 a 28,28 0 0 1 7.35,0.8 24.06,24.06 0 0 1 5,2 l -2.8,9.9 A 18.85,18.85 0 0 0 305,72 a 15.18,15.18 0 0 0 -3.95,-0.45 6.83,6.83 0 0 0 -6.3,3.65 q -2.1,3.65 -2.1,11.75 a 24.91,24.91 0 0 0 2.15,11.1 7.16,7.16 0 0 0 6.85,4.3 12.33,12.33 0 0 0 4.25,-0.65 15.27,15.27 0 0 0 3.25,-1.65 z"
       id="path269" />
    <path
       class="cls-2"
       d="m 313.28,62 h 5.5 v -9.4 l 11.9,-3.7 V 62 h 9.7 v 10.6 h -9.7 v 21.8 a 15.48,15.48 0 0 0 0.85,6.1 3.08,3.08 0 0 0 3.05,1.8 11.15,11.15 0 0 0 2.7,-0.3 17.21,17.21 0 0 0 2.6,-0.9 l 1.5,9.5 a 26.3,26.3 0 0 1 -5.1,1.85 24.27,24.27 0 0 1 -6.1,0.75 q -5.7,0 -8.55,-3.3 -2.85,-3.3 -2.85,-11.1 V 72.59 h -5.5 z"
       id="path271" />
    <path
       class="cls-2"
       d="m 345.88,47.89 a 6.79,6.79 0 0 1 1.9,-5 7.19,7.19 0 0 1 5.4,-1.95 8,8 0 0 1 5.6,1.9 6.42,6.42 0 0 1 2.1,5 6.11,6.11 0 0 1 -2.1,4.9 8.32,8.32 0 0 1 -5.6,1.8 7.43,7.43 0 0 1 -5.4,-1.85 6.45,6.45 0 0 1 -1.9,-4.8 z m 1.4,14.1 h 11.9 v 50 h -11.9 z"
       id="path273" />
    <path
       class="cls-2"
       d="m 367,87 q 0,-13.3 5.2,-19.8 5.2,-6.5 14.5,-6.5 10,0 14.9,6.6 4.9,6.6 4.9,19.7 0,13.4 -5.2,19.85 -5.2,6.45 -14.6,6.45 Q 367,113.29 367,87 Z m 12.3,0 q 0,7.5 1.7,11.6 1.7,4.1 5.7,4.1 a 6,6 0 0 0 5.65,-3.55 q 1.85,-3.56 1.85,-12.15 0,-7.69 -1.7,-11.7 a 5.92,5.92 0 0 0 -5.8,-4 c -2.34,0 -4.15,1.18 -5.45,3.55 -1.3,2.37 -1.97,6.41 -1.97,12.15 z"
       id="path275" />
    <path
       class="cls-2"
       d="m 424.78,62 v 29.9 c 0,3.93 0.36,6.67 1.1,8.2 a 4,4 0 0 0 4,2.3 6.16,6.16 0 0 0 4.7,-2 11.94,11.94 0 0 0 2.7,-5 V 62 h 11.9 v 34.8 c 0,2.73 0.1,5.42 0.3,8 a 42.32,42.32 0 0 0 1.1,7.15 h -9 l -2.1,-6.8 h -0.3 A 17,17 0 0 1 434,111 a 13.62,13.62 0 0 1 -8,2.3 16.33,16.33 0 0 1 -5.5,-0.85 9.14,9.14 0 0 1 -4.1,-3 14.55,14.55 0 0 1 -2.6,-5.75 39.56,39.56 0 0 1 -0.9,-9.25 V 62 Z"
       id="path277" />
    <path
       class="cls-2"
       d="m 474.68,98.69 a 5,5 0 0 0 -1.35,-3.55 15.33,15.33 0 0 0 -3.45,-2.7 c -1.4,-0.83 -2.89,-1.68 -4.45,-2.55 a 23.69,23.69 0 0 1 -4.45,-3.2 15.48,15.48 0 0 1 -3.45,-4.6 15.17,15.17 0 0 1 -1.35,-6.8 q 0,-7 3.8,-10.8 3.8,-3.8 11.2,-3.8 a 35.17,35.17 0 0 1 8.3,1 22.23,22.23 0 0 1 6.2,2.35 l -2.8,9.2 a 39.54,39.54 0 0 0 -4.6,-1.55 19.77,19.77 0 0 0 -5.3,-0.75 q -4.91,0 -4.9,4.1 a 4.1,4.1 0 0 0 1.35,3.15 19,19 0 0 0 3.45,2.45 q 2.1,1.2 4.45,2.5 a 23,23 0 0 1 4.45,3.25 15.67,15.67 0 0 1 3.45,4.75 15.84,15.84 0 0 1 1.35,6.9 q 0,6.9 -4.2,11.1 -4.2,4.2 -12.5,4.2 a 32.46,32.46 0 0 1 -8.05,-1 20.52,20.52 0 0 1 -6.35,-2.6 l 3.3,-9.6 a 26,26 0 0 0 4.85,2.1 18.35,18.35 0 0 0 5.75,0.9 6.48,6.48 0 0 0 3.8,-1 3.81,3.81 0 0 0 1.5,-3.45 z"
       id="path279" />
  </g>
  <g
     id="g264"
     transform="matrix(0.50054269,0,0,0.50054269,-142.7282,23.746241)">
    <path
       class="cls-2"
       d="m 513.58,42 q 1.8,-0.3 4,-0.45 l 4.6,-0.3 c 1.56,-0.1 3.08,-0.17 4.55,-0.2 1.47,-0.03 2.76,0 3.89,0 a 33.19,33.19 0 0 1 13.86,2.55 22,22 0 0 1 8.89,7.2 29.29,29.29 0 0 1 4.75,11.15 68.57,68.57 0 0 1 1.41,14.5 69.94,69.94 0 0 1 -1.35,14 32.33,32.33 0 0 1 -4.75,11.7 24.35,24.35 0 0 1 -9.2,8 q -5.81,3 -14.61,3 c -0.86,0 -2,0 -3.5,-0.1 -1.5,-0.1 -3,-0.15 -4.59,-0.25 l -4.6,-0.3 c -1.47,-0.1 -2.6,-0.22 -3.4,-0.35 z M 532,52.59 c -1.07,0 -2.15,0 -3.25,0 a 14.72,14.72 0 0 0 -2.56,0.25 v 48.2 a 4.59,4.59 0 0 0 1.06,0.15 l 1.6,0.1 1.59,0.1 h 1.06 a 12.32,12.32 0 0 0 7.4,-2.1 14.22,14.22 0 0 0 4.54,-5.6 28,28 0 0 0 2.31,-8.05 68,68 0 0 0 0.65,-9.55 71.37,71.37 0 0 0 -0.55,-8.9 25,25 0 0 0 -2.1,-7.55 12.92,12.92 0 0 0 -4.4,-5.2 12.78,12.78 0 0 0 -7.35,-1.85 z"
       id="path281" />
    <path
       class="cls-2"
       d="m 566.47,47.89 a 6.83,6.83 0 0 1 1.9,-5 7.21,7.21 0 0 1 5.4,-1.95 8,8 0 0 1 5.6,1.9 6.42,6.42 0 0 1 2.1,5 6.11,6.11 0 0 1 -2.1,4.9 8.3,8.3 0 0 1 -5.6,1.8 7.45,7.45 0 0 1 -5.4,-1.85 6.48,6.48 0 0 1 -1.9,-4.8 z m 1.4,14.1 h 11.9 v 50 h -11.9 z"
       id="path283" />
    <path
       class="cls-2"
       d="m 606.17,98.69 a 5,5 0 0 0 -1.35,-3.55 15.33,15.33 0 0 0 -3.45,-2.7 q -2.1,-1.25 -4.45,-2.55 a 24,24 0 0 1 -4.45,-3.2 15.48,15.48 0 0 1 -3.45,-4.6 15.17,15.17 0 0 1 -1.35,-6.8 q 0,-7 3.8,-10.8 3.8,-3.8 11.2,-3.8 a 35.11,35.11 0 0 1 8.3,1 22.11,22.11 0 0 1 6.2,2.35 l -2.8,9.2 a 38.91,38.91 0 0 0 -4.6,-1.55 19.71,19.71 0 0 0 -5.3,-0.75 c -3.26,0 -4.9,1.37 -4.9,4.1 a 4.1,4.1 0 0 0 1.35,3.15 19,19 0 0 0 3.45,2.45 c 1.4,0.8 2.89,1.63 4.45,2.5 a 22.7,22.7 0 0 1 4.45,3.25 15.67,15.67 0 0 1 3.45,4.75 15.84,15.84 0 0 1 1.35,6.9 q 0,6.9 -4.2,11.1 -4.2,4.2 -12.5,4.2 a 32.57,32.57 0 0 1 -8,-1 20.62,20.62 0 0 1 -6.35,-2.6 l 3.3,-9.6 a 26.29,26.29 0 0 0 4.85,2.1 18.4,18.4 0 0 0 5.75,0.9 6.46,6.46 0 0 0 3.8,-1 3.81,3.81 0 0 0 1.45,-3.45 z"
       id="path285" />
    <path
       class="cls-2"
       d="m 658.17,108.29 a 19,19 0 0 1 -6.8,3.6 28.92,28.92 0 0 1 -9,1.4 20.53,20.53 0 0 1 -9,-1.8 15.73,15.73 0 0 1 -6.15,-5.2 23.71,23.71 0 0 1 -3.5,-8.29 48.47,48.47 0 0 1 -1.15,-11 q 0,-13.5 5.35,-19.95 5.35,-6.45 14.85,-6.45 a 20.49,20.49 0 0 1 6.2,0.95 13.5,13.5 0 0 1 5.35,3.2 16.16,16.16 0 0 1 3.8,6 26.37,26.37 0 0 1 1.45,9.45 46.38,46.38 0 0 1 -0.25,4.7 q -0.26,2.51 -0.76,5.4 h -24.49 q 0.21,6.19 2.63,9.5 c 1.61,2.2 4.21,3.3 7.77,3.3 a 16.66,16.66 0 0 0 5.91,-1 15.81,15.81 0 0 0 4.09,-2.1 z m -15.68,-37.5 a 6.41,6.41 0 0 0 -5.79,3 q -1.92,3 -2.23,8.55 h 14 q 0.3,-5.7 -1.22,-8.65 a 5,5 0 0 0 -4.76,-2.9 z"
       id="path287" />
    <path
       class="cls-2"
       d="m 667.27,65 a 27,27 0 0 1 7.5,-2.9 A 43.26,43.26 0 0 1 685,61 q 8.5,0 11.85,4.4 3.35,4.4 3.35,12.5 c 0,3.13 -0.08,6.22 -0.25,9.25 -0.17,3.03 -0.28,6 -0.35,8.9 -0.07,2.9 0,5.7 0.15,8.4 a 33.43,33.43 0 0 0 1.35,7.65 h -9.7 l -1.9,-6.1 h -0.4 a 13.4,13.4 0 0 1 -4.5,4.8 13,13 0 0 1 -7.3,1.9 11.65,11.65 0 0 1 -9.3,-4 q -3.39,-3.94 -3.4,-10.55 0,-9 6.4,-12.8 6.4,-3.8 17.3,-3.2 0.5,-5.81 -0.75,-8.4 -1.25,-2.59 -5.35,-2.6 a 28.75,28.75 0 0 0 -6.2,0.7 23,23 0 0 0 -5.7,2 z m 14.3,37.5 a 6.85,6.85 0 0 0 4.4,-1.35 8.87,8.87 0 0 0 2.5,-3 v -8.3 a 19.8,19.8 0 0 0 -4.4,-0.1 11.89,11.89 0 0 0 -3.7,0.9 6,6 0 0 0 -2.55,2 5.88,5.88 0 0 0 -1,3.45 7.55,7.55 0 0 0 1.25,4.7 4.13,4.13 0 0 0 3.5,1.69 z"
       id="path289" />
    <path
       class="cls-2"
       d="m 725.27,98.69 a 5,5 0 0 0 -1.35,-3.55 15.33,15.33 0 0 0 -3.45,-2.7 q -2.1,-1.25 -4.45,-2.55 a 24,24 0 0 1 -4.45,-3.2 15.48,15.48 0 0 1 -3.45,-4.6 15.17,15.17 0 0 1 -1.35,-6.8 q 0,-7 3.8,-10.8 3.8,-3.8 11.2,-3.8 a 35.11,35.11 0 0 1 8.3,1 22.11,22.11 0 0 1 6.2,2.35 l -2.8,9.2 a 38.91,38.91 0 0 0 -4.6,-1.55 19.77,19.77 0 0 0 -5.3,-0.75 q -4.91,0 -4.9,4.1 a 4.1,4.1 0 0 0 1.33,3.1 19,19 0 0 0 3.45,2.45 q 2.1,1.2 4.45,2.5 a 22.7,22.7 0 0 1 4.45,3.25 15.67,15.67 0 0 1 3.45,4.75 15.84,15.84 0 0 1 1.35,6.9 q 0,6.9 -4.2,11.1 -4.2,4.2 -12.5,4.2 a 32.52,32.52 0 0 1 -8.05,-1 20.62,20.62 0 0 1 -6.35,-2.6 l 3.3,-9.6 a 26.29,26.29 0 0 0 4.85,2.1 18.35,18.35 0 0 0 5.75,0.9 6.46,6.46 0 0 0 3.8,-1 3.81,3.81 0 0 0 1.52,-3.4 z"
       id="path291" />
    <path
       class="cls-2"
       d="m 777.27,108.29 a 19.08,19.08 0 0 1 -6.8,3.6 29,29 0 0 1 -9,1.4 20.5,20.5 0 0 1 -9,-1.8 15.73,15.73 0 0 1 -6.15,-5.2 23.71,23.71 0 0 1 -3.5,-8.29 47.91,47.91 0 0 1 -1.15,-11 q 0,-13.5 5.35,-19.95 5.35,-6.45 14.85,-6.45 a 20.53,20.53 0 0 1 6.2,0.95 13.57,13.57 0 0 1 5.35,3.2 16.28,16.28 0 0 1 3.8,6 26.37,26.37 0 0 1 1.45,9.45 46.38,46.38 0 0 1 -0.25,4.7 q -0.25,2.51 -0.76,5.4 h -24.49 q 0.21,6.19 2.63,9.5 2.42,3.31 7.77,3.3 a 16.66,16.66 0 0 0 5.91,-1 16,16 0 0 0 4.09,-2.1 z m -15.68,-37.5 a 6.4,6.4 0 0 0 -5.79,3 17.9,17.9 0 0 0 -2.23,8.55 h 14 q 0.3,-5.7 -1.22,-8.65 a 5,5 0 0 0 -4.76,-2.9 z"
       id="path293" />
    <path
       class="cls-2"
       d="m 803.07,98.69 a 5,5 0 0 0 -1.35,-3.55 15.33,15.33 0 0 0 -3.45,-2.7 q -2.1,-1.25 -4.45,-2.55 a 23.69,23.69 0 0 1 -4.45,-3.2 15.48,15.48 0 0 1 -3.45,-4.6 15.17,15.17 0 0 1 -1.35,-6.8 q 0,-7 3.8,-10.8 3.8,-3.8 11.2,-3.8 a 35.17,35.17 0 0 1 8.3,1 22.11,22.11 0 0 1 6.2,2.35 l -2.8,9.2 a 39.54,39.54 0 0 0 -4.6,-1.55 19.77,19.77 0 0 0 -5.3,-0.75 q -4.9,0 -4.9,4.1 a 4.1,4.1 0 0 0 1.35,3.15 19,19 0 0 0 3.45,2.45 q 2.1,1.2 4.45,2.5 a 22.7,22.7 0 0 1 4.45,3.25 15.67,15.67 0 0 1 3.45,4.75 A 15.84,15.84 0 0 1 815,98 q 0,6.9 -4.2,11.1 -4.2,4.2 -12.5,4.2 a 32.52,32.52 0 0 1 -8,-1 20.62,20.62 0 0 1 -6.35,-2.6 l 3.3,-9.6 a 26.29,26.29 0 0 0 4.85,2.1 18.35,18.35 0 0 0 5.75,0.9 6.48,6.48 0 0 0 3.8,-1 3.81,3.81 0 0 0 1.42,-3.41 z"
       id="path295" />
  </g>
  <g
     id="g273"
     transform="matrix(0.50054269,0,0,0.50054269,-303.77021,67.420361)">
    <path
       class="cls-2"
       d="m 881.07,53.59 h -16.6 V 112 h -12.6 V 53.59 h -16.6 V 42 h 45.8 z"
       id="path297" />
    <path
       class="cls-2"
       d="m 873.87,87 q 0,-13.3 5.2,-19.8 5.2,-6.5 14.5,-6.5 10,0 14.9,6.6 4.9,6.6 4.9,19.7 0,13.4 -5.2,19.85 -5.2,6.45 -14.6,6.45 -19.71,-0.01 -19.7,-26.3 z m 12.3,0 q 0,7.5 1.7,11.6 1.7,4.1 5.7,4.1 a 6,6 0 0 0 5.65,-3.55 q 1.85,-3.56 1.85,-12.15 0,-7.69 -1.7,-11.7 a 5.92,5.92 0 0 0 -5.8,-4 c -2.34,0 -4.15,1.18 -5.45,3.55 -1.3,2.37 -1.95,6.41 -1.95,12.15 z"
       id="path299" />
    <path
       class="cls-2"
       d="m 918.37,87 q 0,-13.3 5.2,-19.8 5.2,-6.5 14.5,-6.5 10,0 14.9,6.6 4.9,6.6 4.9,19.7 0,13.4 -5.2,19.85 -5.2,6.45 -14.6,6.45 -19.71,-0.01 -19.7,-26.3 z m 12.3,0 q 0,7.5 1.7,11.6 1.7,4.1 5.7,4.1 a 6,6 0 0 0 5.65,-3.55 q 1.85,-3.56 1.85,-12.15 0,-7.69 -1.7,-11.7 a 5.92,5.92 0 0 0 -5.8,-4 c -2.34,0 -4.15,1.18 -5.45,3.55 -1.3,2.37 -1.95,6.41 -1.95,12.15 z"
       id="path301" />
    <path
       class="cls-2"
       d="m 976.77,95.79 a 12.75,12.75 0 0 0 0.7,5 2.37,2.37 0 0 0 2.3,1.5 9.26,9.26 0 0 0 1.85,-0.2 12.35,12.35 0 0 0 2.15,-0.7 l 1.1,9.6 a 13.92,13.92 0 0 1 -4.1,1.5 c -1.94,0.47 -11.74,-0.13 -13.4,-1.8 -1.66,-1.67 -2.5,-4.5 -2.5,-8.5 V 42 h 11.9 z"
       id="path303" />
    <path
       class="cls-2"
       d="m 1003.67,91.29 h -2.8 V 112 H 989 V 42 h 11.9 v 41.3 l 2.4,-1.4 8.3,-19.9 h 12.9 l -9.2,19.8 -4.3,3.4 4.7,3.4 10.2,23.4 h -13.4 z"
       id="path305" />
    <path
       class="cls-2"
       d="m 1029.77,47.89 a 6.79,6.79 0 0 1 1.9,-5 7.17,7.17 0 0 1 5.4,-1.95 8,8 0 0 1 5.6,1.9 6.42,6.42 0 0 1 2.1,5 6.11,6.11 0 0 1 -2.1,4.9 8.32,8.32 0 0 1 -5.6,1.8 7.41,7.41 0 0 1 -5.4,-1.85 6.45,6.45 0 0 1 -1.9,-4.8 z m 1.4,14.1 h 11.9 v 50 h -11.9 z"
       id="path307" />
    <path
       class="cls-2"
       d="m 1048.76,62 h 5.5 v -9.4 l 11.9,-3.7 V 62 h 9.7 v 10.6 h -9.7 v 21.8 a 15.67,15.67 0 0 0 0.85,6.1 3.09,3.09 0 0 0 3,1.8 11.15,11.15 0 0 0 2.7,-0.3 17.21,17.21 0 0 0 2.6,-0.9 l 1.5,9.5 a 25.83,25.83 0 0 1 -5.1,1.85 24.22,24.22 0 0 1 -6.1,0.75 q -5.7,0 -8.55,-3.3 -2.85,-3.3 -2.85,-11.1 V 72.59 h -5.5 z"
       id="path309" />
  </g>
  <g
     id="g367"
     transform="matrix(0.85883563,0,0,0.85883563,0.93276944,-4.6638834)">
    <g
       id="g355">
      <path
         class="cls-1"
         d="m 20.4,96.87 a 1.51,1.51 0 0 1 0.33,0.38 1.48,1.48 0 0 0 -0.22,-0.29 z"
         id="path313" />
      <path
         class="cls-1"
         d="m 10.91,58.41 a 1.49,1.49 0 0 1 -0.24,-0.49 l -3,-11.31 3,11.31 a 1.49,1.49 0 0 0 0.24,0.49 z"
         id="path315" />
      <path
         class="cls-1"
         d="m 11.46,58.9 a 1.53,1.53 0 0 0 0.41,0.14 1.72,1.72 0 0 1 -0.4,-0.14 h -0.09 z"
         id="path317" />
      <path
         class="cls-1"
         d="m 11.37,58.86 a 1.75,1.75 0 0 1 -0.38,-0.34 l 0.09,0.11 a 2.09,2.09 0 0 0 0.29,0.23 z"
         id="path319" />
      <polygon
         class="cls-1"
         points="15.87,38.13 17.57,44.57 20.45,55.52 17.57,44.57 "
         id="polygon321" />
      <path
         class="cls-1"
         d="m 19.77,96.55 a 1.56,1.56 0 0 1 0.47,0.22 v 0 c 0,0 0,0 0,0 a 1.67,1.67 0 0 0 -0.47,-0.22 z"
         id="path323" />
      <path
         class="cls-1"
         d="m 93.87,57 0.1,0.08 c 0,0 -0.06,-0.08 -0.1,-0.11 a 3.08,3.08 0 0 1 -0.24,-0.27 3.15,3.15 0 0 0 0.22,0.29 z"
         id="path325" />
      <path
         class="cls-1"
         d="m 102.53,95.76 a 1.48,1.48 0 0 1 0.38,0.33 l -0.09,-0.11 a 2,2 0 0 0 -0.29,-0.22 z"
         id="path327" />
      <path
         class="cls-1"
         d="m 102.38,95.7 a 1.21,1.21 0 0 1 0.14,0 l -0.14,-0.06 a 2.06,2.06 0 0 0 -0.35,-0.12 1.48,1.48 0 0 1 0.35,0.18 z"
         id="path329" />
      <path
         class="cls-1"
         d="m 77.24,40.4 a 1.18,1.18 0 0 0 0.28,0.22 1.18,1.18 0 0 1 -0.26,-0.24 0.52,0.52 0 0 1 -0.11,-0.1 1,1 0 0 0 0.08,0.11 z"
         id="path331" />
      <path
         class="cls-1"
         d="m 38.06,31.27 a 1.72,1.72 0 0 0 -0.49,-0.24 l -11.27,-3 v 0 l 11.27,3 a 1.72,1.72 0 0 1 0.49,0.24 z"
         id="path333" />
      <path
         class="cls-1"
         d="m 38.16,31.35 a 1.54,1.54 0 0 1 0.34,0.38 1.34,1.34 0 0 0 -0.23,-0.29 0.48,0.48 0 0 0 -0.11,-0.09 z"
         id="path335" />
      <path
         class="cls-1"
         d="m 35.16,40.81 a 1.51,1.51 0 0 0 0.63,0 1.51,1.51 0 0 1 -0.63,0 l -11,-2.89 -6.4,-1.69 6.4,1.69 z"
         id="path337" />
      <path
         class="cls-1"
         d="m 38.56,31.86 -0.05,-0.12 c 0,0 0,0.08 0,0.12 a 1.66,1.66 0 0 1 0.14,0.37 1.63,1.63 0 0 0 -0.09,-0.37 z"
         id="path339" />
      <path
         class="cls-1"
         d="m 75.21,32.9 1.62,6.76 -1.62,-6.76 a 1.8,1.8 0 0 1 0,-0.61 1.58,1.58 0 0 0 0,0.61 z"
         id="path341" />
      <path
         class="cls-1"
         d="m 36.84,113.36 a 1.37,1.37 0 0 1 0.38,0.34 l -0.09,-0.12 a 1.23,1.23 0 0 0 -0.29,-0.22 z"
         id="path343" />
      <path
         class="cls-1"
         d="m 75.74,123.26 a 1.54,1.54 0 0 1 -0.34,-0.38 1.7,1.7 0 0 0 0.23,0.3 z"
         id="path345" />
      <path
         class="cls-1"
         d="m 75.34,127.35 a 5.49,5.49 0 0 1 -3.67,-3.22 5.45,5.45 0 0 1 -0.25,-3.32 L 72.66,115.58 73,114 a 5.47,5.47 0 0 1 6.7,-4 l 8.8,2.32 4.7,1.24 -1.2,-4.64 -2.33,-8.83 a 5.46,5.46 0 0 1 4,-6.7 l 1.48,-0.39 5.3,-1.26 a 5.47,5.47 0 0 1 6.55,3.95 l 1.92,7.32 a 57.86,57.86 0 0 0 0,-51.32 L 107,58.92 a 5.45,5.45 0 0 1 -6.55,3.91 l -5.36,-1.27 -1.4,-0.34 a 5.39,5.39 0 0 1 -2.6,-1.45 5.5,5.5 0 0 1 -1.42,-5.25 L 92,45.72 93.23,41 l -4.69,1.24 -8.81,2.32 a 5.46,5.46 0 0 1 -6.7,-4 L 72.69,39.14 71.42,33.8 a 5.44,5.44 0 0 1 3.92,-6.54 l 7.22,-1.91 a 58.61,58.61 0 0 0 -51.31,0 l 7.31,1.93 a 5.46,5.46 0 0 1 3.92,6.54 l -1.26,5.29 -0.35,1.48 a 5.45,5.45 0 0 1 -6.7,4 L 25.34,42.27 20.67,41 l 1.24,4.71 2.32,8.79 a 5.47,5.47 0 0 1 -4,6.71 l -1.54,0.36 -5.22,1.25 A 5.48,5.48 0 0 1 8.34,61.37 5.59,5.59 0 0 1 6.9,58.92 L 5,51.54 a 57.86,57.86 0 0 0 0.17,52 L 7.41,95.03 A 5.44,5.44 0 0 1 10,91.69 5.39,5.39 0 0 1 13.92,91.15 l 4.36,1 2.41,0.58 a 5.35,5.35 0 0 1 2.59,1.45 5.48,5.48 0 0 1 1.42,5.25 l -2.47,9.37 -1.1,4.2 4.36,-1.15 9.14,-2.41 a 5.5,5.5 0 0 1 5.26,1.42 5.42,5.42 0 0 1 1.44,2.59 l 0.6,2.52 1,4.25 A 5.46,5.46 0 0 1 39,126.72 L 30.42,129 a 57.89,57.89 0 0 0 52.31,0.31 z M 46.06,107.88 A 32.64,32.64 0 0 1 41.81,106 l -3.1,-1.63 -12.1,3.24 3.24,-12.1 -1.64,-3.11 a 31.79,31.79 0 0 1 -2.76,-7.31 l -9.87,-5.75 -5.71,-3.28 6,-3.47 10.6,-6.18 a 32.42,32.42 0 0 1 1.81,-4.14 L 29.92,59.16 26.61,47 l 12.2,3.26 3.1,-1.62 a 31.53,31.53 0 0 1 4.77,-2 l 6.06,-10.4 4.26,-7.3 4.26,7.29 6.07,10.47 a 31.54,31.54 0 0 1 4.57,1.95 L 75,50.27 87.27,47 84,59.27 l 1.62,3.09 a 33.13,33.13 0 0 1 2.06,4.93 l 10.37,6 7.45,4.33 L 98,82 87.4,88.21 a 32.12,32.12 0 0 1 -1.79,4.14 L 84,95.44 87.27,107.65 75.1,104.39 72,106 a 32.5,32.5 0 0 1 -5,2.11 l -6,10.37 -4.41,7.52 -4.37,-7.51 z"
         id="path347" />
      <path
         class="cls-1"
         d="m 38.38,122.78 a 1.47,1.47 0 0 0 0.59,-0.54 1.47,1.47 0 0 1 -0.59,0.54 A 1.42,1.42 0 0 1 38,123 L 25.6,126.23 38,123 a 1.42,1.42 0 0 0 0.38,-0.22 z"
         id="path349" />
      <path
         class="cls-1"
         d="m 75.36,122.8 v 0.07 c 0,0 0,-0.05 0,-0.07 a 1.52,1.52 0 0 1 -0.16,-0.42 1.5,1.5 0 0 0 0.16,0.42 z"
         id="path351" />
      <path
         class="cls-1"
         d="m 37.43,114 a 1.26,1.26 0 0 0 -0.13,-0.23 1,1 0 0 1 0.11,0.23 1.2,1.2 0 0 1 0.13,0.28 1.36,1.36 0 0 0 -0.11,-0.28 z"
         id="path353" />
    </g>
    <path
       class="cls-3"
       d="m 103.23,57.92 2.94,-11.17 6,-22.76 a 1.56,1.56 0 0 0 -1.9,-1.91 l -22.76,6 L 76.33,31 a 1.52,1.52 0 0 0 -1,0.88 1.24,1.24 0 0 0 -0.14,0.38 1.8,1.8 0 0 0 0,0.61 l 1.62,6.76 a 1.48,1.48 0 0 0 0.23,0.51 l 0.09,0.11 a 0.52,0.52 0 0 0 0.11,0.1 1.18,1.18 0 0 0 0.26,0.24 v 0 a 1.43,1.43 0 0 0 0.5,0.18 h 0.13 a 1.52,1.52 0 0 0 0.56,0 v 0 l 11,-2.89 6.41,-1.69 a 1.52,1.52 0 0 1 1.5,0.4 1.55,1.55 0 0 1 0.41,1.5 l -1.7,6.43 -2.88,11 v 0 a 1.5,1.5 0 0 0 0,0.56 c 0,0 0,0.08 0,0.13 a 1.88,1.88 0 0 0 0.18,0.5 v 0 a 3.08,3.08 0 0 0 0.24,0.27 c 0,0 0.06,0.08 0.1,0.11 l 0.11,0.08 a 1.5,1.5 0 0 0 0.51,0.24 l 6.79,1.59 a 1.63,1.63 0 0 0 1.87,-1.12 z"
       id="path357" />
    <path
       class="cls-3"
       d="m 20.28,56.72 a 1.52,1.52 0 0 0 0.17,-1.2 l -2.88,-11 -1.7,-6.44 a 1.51,1.51 0 0 1 0,-0.42 1.56,1.56 0 0 1 1.53,-1.53 1.3,1.3 0 0 1 0.43,0 l 6.4,1.69 11,2.89 a 1.56,1.56 0 0 0 1.2,-0.17 1.32,1.32 0 0 0 0.28,-0.25 c 0,-0.06 0.12,-0.09 0.17,-0.15 a 1.64,1.64 0 0 0 0.26,-0.57 l 1.62,-6.77 a 1.64,1.64 0 0 0 0,-0.54 0.69,0.69 0 0 1 0,-0.13 1.66,1.66 0 0 0 -0.14,-0.37 c 0,0 0,-0.08 0,-0.12 v 0 a 1.54,1.54 0 0 0 -0.34,-0.38 l -0.1,-0.08 a 1.72,1.72 0 0 0 -0.49,-0.24 l -11.27,-3 -22.67,-6 A 1.55,1.55 0 0 0 1.73,24 l 6,22.62 3,11.31 a 1.49,1.49 0 0 0 0.24,0.49 l 0.08,0.11 a 1.75,1.75 0 0 0 0.38,0.34 v 0 h 0.09 a 1.72,1.72 0 0 0 0.4,0.14 h 0.13 a 1.4,1.4 0 0 0 0.54,0 l 6.77,-1.61 a 1.64,1.64 0 0 0 0.57,-0.26 c 0.05,0 0.08,-0.1 0.13,-0.15 a 1.53,1.53 0 0 0 0.22,-0.27 z"
       id="path359" />
    <path
       class="cls-3"
       d="m 112,131.81 a 1.49,1.49 0 0 0 0.21,-0.76 1.3,1.3 0 0 0 0,-0.43 l -6,-22.66 -3,-11.27 a 1.72,1.72 0 0 0 -0.24,-0.49 0.76,0.76 0 0 1 -0.08,-0.11 1.48,1.48 0 0 0 -0.38,-0.33 v 0 a 1.21,1.21 0 0 0 -0.14,0 1.48,1.48 0 0 0 -0.35,-0.13 h -0.13 a 1.63,1.63 0 0 0 -0.54,0 l -6.77,1.61 a 1.49,1.49 0 0 0 -0.72,0.44 1.55,1.55 0 0 0 -0.46,0.85 1.46,1.46 0 0 0 0,0.62 l 2.89,11 1.69,6.4 a 1.46,1.46 0 0 1 0,0.83 1.54,1.54 0 0 1 -0.4,0.67 1.62,1.62 0 0 1 -0.67,0.4 1.56,1.56 0 0 1 -0.83,0 l -6.42,-1.69 -11,-2.89 a 1.56,1.56 0 0 0 -1.2,0.17 1.64,1.64 0 0 0 -0.31,0.28 1.48,1.48 0 0 0 -0.4,0.7 l -1.62,6.76 a 1.7,1.7 0 0 0 0,0.55 c 0,0 0,0.08 0,0.12 a 1.52,1.52 0 0 0 0.16,0.42 c 0,0 0,0 0,0.07 v 0 a 1.54,1.54 0 0 0 0.34,0.38 l 0.1,0.08 a 1.72,1.72 0 0 0 0.49,0.24 l 11.32,3 22.62,6 a 1.51,1.51 0 0 0 0.42,0.05 1.47,1.47 0 0 0 0.77,-0.22 1.61,1.61 0 0 0 0.65,-0.66 z"
       id="path361" />
    <path
       class="cls-3"
       d="m 39,122.24 a 1.55,1.55 0 0 0 0.18,-1.16 l -1.61,-6.76 a 1.2,1.2 0 0 0 -0.13,-0.28 1,1 0 0 0 -0.11,-0.23 0.44,0.44 0 0 0 -0.08,-0.11 1.37,1.37 0 0 0 -0.38,-0.34 1.5,1.5 0 0 0 -0.5,-0.18 h -0.13 a 1.51,1.51 0 0 0 -0.56,0 l -11.3,3 -6.09,1.6 a 1.52,1.52 0 0 1 -1.19,-0.16 1.83,1.83 0 0 1 -0.31,-0.24 1.76,1.76 0 0 1 -0.4,-0.67 1.56,1.56 0 0 1 0,-0.83 l 1.49,-5.88 3,-11.53 a 1.5,1.5 0 0 0 0,-0.56 0.69,0.69 0 0 0 0,-0.13 1.58,1.58 0 0 0 -0.18,-0.5 v 0 A 1.51,1.51 0 0 0 20.37,96.9 l -0.12,-0.08 v 0 A 1.56,1.56 0 0 0 19.78,96.6 L 13,94.94 a 1.54,1.54 0 0 0 -1.65,0.66 1.78,1.78 0 0 0 -0.22,0.46 L 7.88,108.43 2.19,130 a 1.57,1.57 0 0 0 1.91,1.9 L 25.6,126.23 38,123 a 1.42,1.42 0 0 0 0.35,-0.17 1.47,1.47 0 0 0 0.65,-0.59 z"
       id="path363" />
    <path
       class="cls-3"
       d="m 73.874614,72.251391 a 10.93,10.93 0 0 0 -10.93,-10.92 h -12.14 a 10.94,10.94 0 0 0 -10.93,10.92 v 12.15 a 10.93,10.93 0 0 0 10.93,10.92 h 12.14 a 10.94,10.94 0 0 0 10.93,-10.92 z m -10.93,13.71 h -12.14 a 1.52,1.52 0 0 1 -1.11,-0.46 1.56,1.56 0 0 1 -0.46,-1.1 v -12.15 a 1.57,1.57 0 0 1 1.57,-1.59 h 12.14 a 1.58,1.58 0 0 1 1.11,0.46 1.6,1.6 0 0 1 0.46,1.11 v 12.17 a 1.56,1.56 0 0 1 -1.57,1.56 z"
       id="path365" />
  </g>
</svg>
