<?xml version="1.0" standalone="no"?>
<!DOCTYPE svg PUBLIC "-//W3C//DTD SVG 20010904//EN"
 "http://www.w3.org/TR/2001/REC-SVG-20010904/DTD/svg10.dtd">
<svg version="1.0" xmlns="http://www.w3.org/2000/svg"
 width="700.000000pt" height="700.000000pt" viewBox="0 0 700.000000 700.000000"
 preserveAspectRatio="xMidYMid meet">
<metadata>
Created by potrace 1.14, written by Peter Selinger 2001-2017
</metadata>
<g transform="translate(0.000000,700.000000) scale(0.100000,-0.100000)"
fill="#000000" stroke="none">
<path d="M1167 5993 c-3 -5 -8 -24 -11 -43 -3 -19 -21 -125 -41 -235 -19 -110
-38 -216 -41 -235 -2 -19 -7 -44 -9 -56 -3 -12 -7 -39 -10 -60 -4 -21 -8 -46
-11 -55 -2 -9 -7 -32 -9 -50 -3 -19 -7 -45 -10 -59 -3 -14 -8 -38 -10 -55 -3
-16 -26 -145 -50 -285 -25 -140 -48 -268 -50 -285 -3 -16 -10 -52 -15 -80 -5
-27 -12 -63 -14 -80 -12 -73 -17 -101 -21 -115 -3 -8 -7 -33 -10 -55 -3 -22
-7 -51 -10 -65 -3 -14 -8 -41 -11 -60 -4 -19 -8 -44 -10 -55 -2 -11 -9 -47
-15 -80 -5 -33 -12 -71 -15 -85 -2 -14 -9 -52 -14 -85 -5 -33 -12 -72 -15 -87
-7 -37 -11 -64 -20 -113 -4 -22 -13 -74 -21 -115 -7 -41 -16 -86 -18 -100 -2
-14 -7 -41 -10 -60 -3 -19 -8 -46 -10 -60 -2 -14 -11 -63 -20 -110 -9 -47 -18
-101 -21 -119 -2 -18 -6 -44 -10 -59 -10 -48 -15 -76 -21 -112 -3 -19 -12 -73
-21 -120 -8 -47 -17 -95 -19 -108 -5 -31 -23 -133 -28 -157 -2 -11 -9 -54 -16
-95 -6 -41 -15 -91 -20 -110 -5 -19 -11 -53 -15 -75 -3 -22 -13 -80 -21 -130
-9 -49 -18 -103 -20 -120 -3 -16 -7 -41 -10 -55 -3 -14 -8 -36 -10 -50 -3 -14
-11 -61 -19 -105 -8 -44 -17 -100 -20 -125 -4 -24 -8 -47 -10 -50 -2 -3 -6
-26 -10 -50 -3 -25 -19 -117 -35 -205 -16 -88 -32 -175 -35 -192 l-5 -33 1720
0 c1369 0 1720 3 1721 13 0 6 3 23 5 37 29 161 76 431 79 454 3 15 6 35 9 45
3 9 8 34 11 56 3 23 8 52 10 65 15 74 27 161 24 165 -3 2 -20 7 -39 10 -19 3
-52 10 -73 15 -33 7 -40 5 -52 -13 -8 -12 -16 -35 -19 -52 -19 -98 -37 -220
-42 -285 -9 -112 -20 -146 -58 -175 -58 -44 -85 -43 -194 8 -53 25 -131 55
-172 67 -102 31 -120 40 -141 74 -24 40 -20 117 9 153 46 59 169 230 199 278
57 92 55 96 -42 161 -63 41 -92 54 -108 50 -27 -6 -116 -138 -202 -298 -51
-95 -62 -109 -97 -122 -67 -27 -105 -21 -147 22 -116 123 -160 166 -191 190
-79 61 -90 77 -90 129 0 71 24 102 121 158 173 99 294 186 302 216 4 14 -9 42
-38 84 -24 35 -47 71 -52 80 -18 31 -51 25 -120 -22 -70 -47 -212 -156 -249
-191 -31 -30 -59 -42 -101 -43 -81 -3 -114 29 -151 146 -12 39 -44 115 -72
169 -27 54 -50 109 -50 122 0 48 50 115 95 127 11 4 47 9 80 12 33 4 67 8 75
10 8 3 33 7 55 11 36 5 146 28 185 39 8 2 18 4 22 4 5 1 16 9 27 20 18 18 18
21 -3 114 -12 53 -25 99 -29 103 -14 14 -51 15 -107 3 -30 -7 -59 -13 -65 -15
-30 -6 -208 -56 -245 -69 -56 -20 -99 -11 -146 29 l-38 32 -2 205 c-2 112 -4
212 -4 222 -2 42 55 92 116 103 13 2 62 -7 110 -21 190 -55 353 -80 375 -58 5
5 12 30 15 54 2 24 7 51 10 59 3 8 8 36 11 61 5 43 3 46 -24 57 -15 7 -64 18
-108 26 -73 13 -107 18 -245 32 -87 8 -107 15 -132 42 -60 64 -61 91 -8 205
22 47 54 130 72 184 17 54 38 106 46 116 20 23 87 40 127 33 18 -4 43 -16 56
-27 13 -12 40 -33 59 -48 19 -14 37 -29 40 -32 19 -22 224 -150 248 -155 28
-6 32 -2 85 80 48 73 55 90 47 110 -13 34 -141 120 -309 206 -89 46 -105 63
-119 126 -13 56 4 91 64 140 67 54 96 85 209 221 30 36 91 41 150 13 26 -12
49 -30 53 -39 12 -31 85 -156 138 -237 63 -95 97 -134 118 -134 23 0 173 103
179 122 9 32 -72 159 -208 321 -36 43 -65 86 -66 95 0 9 -2 24 -4 33 -5 27 22
90 47 107 12 9 55 27 93 39 39 13 119 47 178 77 117 59 138 61 194 23 44 -30
60 -62 67 -137 7 -75 9 -87 37 -230 24 -120 41 -160 69 -160 10 0 49 7 87 15
37 9 78 17 89 20 27 6 37 49 23 100 -6 21 -12 45 -14 54 -8 43 -37 146 -65
228 -16 51 -30 98 -30 104 0 27 46 102 71 115 19 9 77 15 186 18 87 2 177 7
200 11 53 9 93 -13 123 -67 26 -47 25 -60 -24 -253 -39 -154 -51 -233 -42
-268 4 -19 16 -25 71 -36 61 -12 79 -11 80 7 1 7 10 64 21 128 2 16 13 76 24
134 20 110 59 334 66 385 6 35 23 130 30 163 l4 22 -1714 0 c-943 0 -1717 -3
-1719 -7z"/>
<path d="M6206 5973 c-3 -16 -13 -68 -21 -118 -8 -49 -17 -97 -20 -105 -2 -8
-7 -35 -10 -60 -3 -25 -8 -52 -10 -60 -2 -8 -7 -35 -10 -60 -4 -25 -13 -76
-20 -115 -8 -38 -24 -126 -35 -195 -12 -69 -23 -136 -26 -150 -9 -51 -55 -306
-60 -339 -3 -18 -8 -43 -10 -55 -2 -11 -6 -34 -9 -51 -3 -16 -7 -41 -10 -55
-3 -14 -7 -41 -10 -60 -3 -19 -38 -215 -77 -435 -39 -220 -72 -409 -73 -420
-3 -20 -26 -151 -70 -395 -14 -74 -27 -151 -30 -170 -8 -48 -17 -101 -22 -125
-8 -39 -22 -121 -27 -155 -3 -19 -7 -44 -10 -55 -2 -11 -7 -40 -11 -65 -4 -25
-9 -54 -11 -65 -2 -11 -8 -45 -13 -75 -6 -30 -19 -104 -30 -165 -11 -60 -22
-123 -24 -140 -3 -16 -12 -68 -20 -115 -9 -47 -19 -101 -22 -120 -3 -19 -22
-123 -41 -230 -19 -107 -37 -210 -40 -229 -3 -18 -8 -43 -10 -55 -2 -11 -7
-37 -10 -56 -3 -19 -7 -42 -9 -50 -2 -8 -7 -35 -10 -60 -4 -25 -15 -92 -26
-149 -10 -58 -19 -108 -19 -113 0 -4 110 -8 243 -8 l244 0 28 158 c15 86 29
164 30 172 2 14 8 49 20 115 2 17 7 41 10 55 7 34 23 127 30 170 3 19 7 46 10
60 3 14 7 39 10 55 3 17 7 41 10 55 2 13 7 42 10 65 3 22 8 47 10 55 2 8 6 29
9 45 9 55 36 210 41 235 3 14 12 66 21 115 8 50 17 101 19 115 3 14 7 39 10
55 10 56 54 300 60 330 3 17 12 71 20 120 8 50 17 101 20 115 3 14 8 41 11 60
2 19 7 46 10 60 5 30 7 41 34 195 11 66 25 140 30 165 11 51 17 84 26 149 3
25 10 62 14 81 5 19 11 53 15 74 3 21 14 89 25 150 11 61 22 125 25 141 2 17
7 40 9 51 2 12 7 39 10 60 8 52 15 89 36 204 6 30 13 69 15 85 3 17 14 80 25
140 11 61 22 128 25 150 4 22 8 47 11 56 2 9 7 32 9 50 3 19 7 45 10 59 3 14
10 52 15 85 5 33 12 71 15 85 3 14 7 39 10 55 11 68 16 97 40 235 14 80 30
168 35 195 6 28 12 64 15 80 2 17 6 39 8 50 2 11 7 37 11 58 l7 37 -245 0
-244 0 -6 -27z"/>
<path d="M4479 4567 c-65 -24 -113 -72 -139 -136 -19 -48 -15 -132 9 -179 11
-22 117 -137 235 -256 119 -119 215 -217 213 -217 -1 -1 -409 -2 -907 -4
-1000 -2 -942 2 -1009 -66 -62 -61 -82 -133 -61 -220 16 -65 83 -138 145 -157
30 -9 237 -12 823 -12 430 0 835 0 899 0 l117 0 -216 -217 c-118 -120 -223
-233 -232 -251 -97 -190 114 -400 303 -302 46 24 873 853 897 900 28 55 26
154 -6 207 -28 47 -837 863 -886 894 -41 25 -138 34 -185 16z"/>
</g>
</svg>
