<?xml version="1.0" standalone="no"?>
<!DOCTYPE svg PUBLIC "-//W3C//DTD SVG 20010904//EN"
 "http://www.w3.org/TR/2001/REC-SVG-20010904/DTD/svg10.dtd">
<svg version="1.0" xmlns="http://www.w3.org/2000/svg"
 width="700.000000pt" height="700.000000pt" viewBox="0 0 700.000000 700.000000"
 preserveAspectRatio="xMidYMid meet">
<metadata>
Created by potrace 1.14, written by Peter Selinger 2001-2017
</metadata>
<g transform="translate(0.000000,700.000000) scale(0.100000,-0.100000)"
fill="#000000" stroke="none">
<path d="M3278 6996 c-1 -2 -41 -6 -88 -10 -47 -4 -101 -9 -120 -12 -223 -31
-425 -74 -610 -131 -124 -38 -426 -155 -473 -184 l-30 -17 44 -11 c24 -6 76
-20 114 -31 39 -10 124 -33 189 -50 142 -37 183 -57 238 -113 61 -63 92 -136
92 -222 0 -90 -102 -518 -138 -580 -79 -135 -236 -191 -402 -145 -38 10 -112
30 -164 44 -52 13 -149 39 -215 56 -66 18 -127 34 -135 36 -8 2 -58 15 -110
30 -112 31 -165 40 -157 27 5 -7 162 -592 182 -673 2 -8 12 -50 24 -92 38
-145 6 -277 -87 -359 -65 -56 -87 -65 -292 -114 -102 -25 -211 -51 -244 -59
-157 -38 -318 30 -386 165 -17 32 -62 182 -75 247 -1 9 -18 72 -36 140 -38
143 -26 150 -117 -63 -96 -226 -170 -465 -216 -700 -30 -156 -37 -203 -53
-375 -10 -107 -10 -499 0 -604 8 -80 24 -204 32 -247 3 -13 7 -41 11 -64 22
-155 88 -394 166 -605 50 -134 148 -354 155 -347 4 4 61 216 108 402 36 139
67 205 122 256 111 102 196 107 515 31 120 -28 238 -61 263 -73 67 -32 137
-114 162 -190 33 -101 31 -114 -124 -689 -24 -91 -51 -193 -59 -227 -8 -34
-17 -69 -20 -77 -5 -14 -1 -14 40 -2 25 8 46 12 46 10 0 -2 12 1 26 6 21 8
616 167 704 188 14 3 55 6 92 6 54 0 78 -6 130 -32 120 -59 152 -113 208 -349
22 -93 45 -186 50 -208 43 -165 18 -288 -77 -376 -59 -55 -82 -66 -220 -104
-70 -19 -144 -40 -163 -45 -19 -5 -87 -23 -150 -40 -63 -17 -116 -33 -118 -35
-6 -6 158 -82 292 -135 241 -96 445 -153 711 -200 210 -36 322 -45 585 -45
309 0 369 6 775 81 52 10 327 92 410 123 125 46 224 87 300 124 55 27 66 35
50 40 -11 4 -108 29 -215 57 -253 66 -291 82 -355 144 -62 61 -97 142 -97 226
0 68 104 516 132 567 55 102 174 176 284 176 34 0 105 -12 161 -28 189 -50
738 -195 742 -195 3 0 2 8 -2 18 -4 9 -8 24 -10 33 -3 16 -41 163 -155 599
-53 200 -61 266 -42 335 26 92 112 186 202 219 40 14 360 94 450 112 66 13
148 5 204 -20 66 -29 141 -101 166 -159 10 -23 44 -141 75 -262 31 -121 57
-224 59 -230 8 -23 128 261 191 450 36 108 110 399 120 470 3 23 8 52 10 65
24 118 37 296 40 505 2 239 -6 379 -30 540 -1 11 -6 43 -10 70 -11 77 -71 340
-98 430 -62 201 -198 545 -217 545 -3 0 -12 -24 -20 -52 -52 -208 -111 -411
-128 -444 -21 -40 -88 -109 -132 -133 -33 -19 -117 -41 -157 -41 -18 0 -72 9
-120 21 -48 11 -96 22 -105 24 -9 2 -65 16 -123 30 -59 15 -112 28 -119 29
-129 24 -234 127 -264 263 -9 37 -8 48 3 123 2 19 52 215 110 434 58 220 104
400 102 401 -1 1 -110 -27 -242 -62 -647 -171 -647 -171 -736 -148 -126 34
-213 131 -247 280 -6 28 -28 118 -48 200 -47 197 -44 182 -45 247 -1 74 22
142 68 200 70 86 99 98 506 203 48 12 90 24 92 27 4 4 -65 38 -175 86 -212 93
-616 206 -815 228 -27 3 -53 8 -56 9 -3 2 -37 7 -75 10 -38 4 -80 9 -94 12
-27 5 -536 14 -542 9z m412 -886 c95 -162 185 -317 200 -345 16 -27 75 -131
133 -230 l105 -180 89 -34 c48 -19 153 -67 231 -108 l144 -74 365 97 c200 53
366 95 368 92 2 -2 -39 -162 -91 -357 -52 -194 -94 -359 -94 -367 0 -8 41 -97
90 -197 50 -100 90 -187 90 -193 0 -26 42 -105 63 -118 12 -7 141 -82 287
-166 146 -84 317 -183 380 -220 63 -38 131 -77 150 -88 98 -55 216 -124 222
-130 4 -4 -36 -32 -88 -62 -53 -30 -112 -65 -132 -77 -21 -12 -44 -26 -52 -30
-8 -4 -49 -28 -90 -52 -41 -24 -217 -127 -390 -229 -173 -101 -320 -188 -327
-193 -6 -6 -14 -21 -17 -35 -11 -44 -165 -364 -186 -387 -4 -5 8 -66 27 -135
18 -70 49 -185 68 -257 19 -71 48 -179 64 -240 16 -60 28 -112 26 -114 -2 -2
-125 29 -272 69 -147 40 -310 83 -362 97 l-93 24 -157 -79 c-86 -44 -196 -95
-244 -113 l-88 -33 -53 -90 c-66 -112 -215 -370 -321 -554 -124 -215 -249
-422 -255 -422 -6 0 -71 104 -115 185 -6 11 -30 52 -52 90 -22 39 -51 88 -64
111 -13 23 -109 188 -213 367 l-189 326 -76 31 c-42 17 -141 66 -221 107 -164
85 -133 81 -310 33 -41 -12 -83 -23 -93 -25 -10 -2 -119 -31 -241 -65 -123
-33 -226 -60 -229 -60 -4 0 -5 6 -2 13 7 23 163 603 170 635 2 9 8 31 13 47 8
26 1 46 -60 163 -78 149 -133 279 -167 397 -13 44 -26 86 -30 94 -6 12 -41 35
-111 74 -23 12 -549 317 -742 430 l-87 51 72 41 c40 23 79 44 87 48 8 4 201
116 428 249 l414 243 42 101 c23 55 71 153 105 218 l62 117 -36 132 c-20 73
-38 141 -41 151 -2 11 -20 78 -40 150 -20 72 -46 168 -59 214 -18 66 -20 82
-9 82 8 0 63 -13 122 -30 100 -27 223 -60 489 -131 l112 -29 133 69 c116 60
186 92 313 140 24 9 47 41 115 158 47 80 92 158 100 172 9 14 36 61 60 104 25
43 50 86 55 95 28 47 273 467 294 503 13 22 27 37 31 32 5 -4 86 -141 180
-303z"/>
<path d="M2925 4443 c-112 -26 -249 -95 -326 -165 -51 -47 -115 -135 -147
-200 -63 -131 -65 -154 -66 -658 0 -441 1 -457 23 -534 57 -203 200 -364 391
-438 61 -24 80 -30 155 -43 42 -7 861 -7 910 0 268 41 483 233 551 491 16 61
18 120 19 509 1 450 -1 483 -35 595 -49 164 -199 328 -365 397 -117 50 -150
52 -635 51 -250 0 -464 -3 -475 -5z m883 -564 c61 -20 62 -25 62 -459 0 -427
0 -428 -58 -447 -33 -11 -778 -10 -810 1 -50 17 -52 35 -52 458 0 430 0 424
60 447 35 13 756 13 798 0z"/>
<path d="M213 6843 c-34 -16 -53 -49 -49 -84 3 -24 60 -242 252 -964 57 -214
120 -451 139 -525 19 -74 40 -151 45 -170 31 -108 71 -258 75 -280 25 -136 68
-210 121 -210 24 0 380 81 441 101 60 19 76 72 49 165 -8 27 -38 139 -66 249
-29 110 -67 256 -85 325 -18 69 -51 195 -73 280 -23 85 -39 164 -37 175 2 11
4 23 4 26 1 3 10 16 21 29 36 42 68 40 299 -22 119 -31 268 -71 331 -87 243
-65 504 -133 522 -136 24 -5 60 8 81 30 14 14 31 61 42 115 9 43 68 289 75
312 5 14 7 35 5 45 -2 10 -4 24 -4 31 -2 30 -49 57 -136 78 -5 1 -53 14 -105
28 -169 45 -621 166 -775 206 -82 21 -184 48 -225 59 -169 45 -646 172 -660
176 -8 2 -59 15 -114 29 -135 36 -139 36 -173 19z"/>
<path d="M6660 6825 c-47 -13 -146 -39 -220 -58 -74 -19 -290 -77 -480 -127
-190 -50 -439 -116 -555 -146 -115 -30 -271 -71 -345 -91 -74 -19 -193 -50
-264 -68 -70 -18 -140 -42 -154 -52 -48 -36 -48 -57 3 -271 60 -253 61 -258
93 -283 40 -31 -27 -45 773 167 195 52 367 94 381 94 40 0 88 -45 88 -83 0
-17 -63 -269 -139 -561 -77 -292 -139 -544 -137 -560 7 -64 55 -81 448 -167
64 -14 110 -2 129 33 10 19 37 104 44 137 2 9 15 61 29 116 15 55 28 107 30
115 3 8 25 94 50 190 26 96 67 254 92 350 25 96 49 189 55 206 5 17 11 40 13
50 2 10 22 87 44 169 69 255 79 293 143 535 l62 235 -19 34 c-30 55 -63 62
-164 36z"/>
<path d="M783 2430 c-16 -10 -35 -31 -41 -46 -10 -27 -129 -472 -138 -517 -2
-12 -19 -78 -38 -147 -19 -69 -83 -307 -141 -530 -58 -223 -118 -448 -131
-500 -14 -52 -39 -144 -54 -205 -16 -60 -33 -123 -38 -140 -21 -70 21 -135 88
-135 10 0 161 38 337 84 175 46 408 107 518 136 110 28 211 55 225 60 14 5 36
11 50 14 14 2 75 18 135 34 61 17 261 69 445 117 184 47 348 91 363 97 37 14
67 54 67 90 0 16 -13 82 -29 146 -17 64 -32 128 -35 142 -47 226 -61 236 -264
181 -145 -40 -493 -132 -512 -136 -8 -2 -93 -24 -188 -50 -216 -58 -210 -57
-252 -62 -28 -4 -41 1 -62 20 -52 48 -60 2 173 897 32 124 60 238 63 254 8 44
-20 93 -57 105 -38 11 -192 51 -216 56 -9 2 -55 12 -103 24 -130 31 -133 31
-165 11z"/>
<path d="M6065 2374 c-122 -31 -129 -33 -157 -39 -123 -26 -159 -39 -183 -67
-30 -36 -31 -58 -5 -151 11 -40 58 -218 105 -397 47 -179 101 -384 120 -455
41 -154 42 -175 12 -211 -27 -32 -81 -39 -142 -19 -22 7 -139 39 -260 70 -121
32 -276 72 -345 90 -456 121 -443 118 -482 82 -21 -20 -34 -60 -78 -241 -56
-234 -59 -277 -19 -307 13 -9 102 -37 198 -63 97 -25 253 -66 346 -91 94 -25
177 -47 185 -49 8 -2 59 -16 113 -30 53 -14 141 -38 195 -52 53 -14 230 -61
392 -104 739 -197 676 -182 716 -165 24 10 40 26 50 51 18 43 27 5 -163 714
-35 135 -67 254 -69 264 -2 11 -18 71 -35 135 -45 167 -76 283 -179 671 -61
228 -98 352 -111 366 -27 29 -84 28 -204 -2z"/>
</g>
</svg>
