<svg id="Layer_1" data-name="Layer 1" xmlns="http://www.w3.org/2000/svg" width="1111.83" height="154.58" viewBox="0 0 1111.83 154.58">
  <defs>
    <style>
      .cls-1 {
        fill: #e63a47;
      }

      .cls-2 {
        fill: #477c9e;
      }

      .cls-3 {
        fill: #414142;
      }
    </style>
  </defs>
  <g>
    <path class="cls-1" d="M131.57,78.78l-17.21,10a1.73,1.73,0,0,0-.6,2.4l4,6.56a1.73,1.73,0,0,0,2.34.59l33.59-19.58a1.73,1.73,0,0,0,0-3L120.14,56.22a1.73,1.73,0,0,0-2.34.59l-4,6.56a1.73,1.73,0,0,0,.6,2.4l17.21,10A1.73,1.73,0,0,1,131.57,78.78Z"/>
    <path class="cls-1" d="M78.78,23l10,17.21a1.73,1.73,0,0,0,2.4.6l6.56-4a1.73,1.73,0,0,0,.59-2.34L78.78.86a1.72,1.72,0,0,0-3,0L56.22,34.45a1.73,1.73,0,0,0,.59,2.34l6.56,4a1.73,1.73,0,0,0,2.4-.6L75.8,23A1.72,1.72,0,0,1,78.78,23Z"/>
    <path class="cls-1" d="M75.8,131.57l-10-17.21a1.73,1.73,0,0,0-2.39-.61l-6.57,4a1.72,1.72,0,0,0-.58,2.34l19.57,33.6a1.73,1.73,0,0,0,3,0l19.57-33.6a1.73,1.73,0,0,0-.59-2.34l-6.56-4a1.74,1.74,0,0,0-2.4.61l-2.35,4-7.67,13.17A1.73,1.73,0,0,1,75.8,131.57Z"/>
    <path class="cls-1" d="M23,75.67l17.21-10a1.73,1.73,0,0,0,.6-2.4l-4-6.56a1.73,1.73,0,0,0-2.34-.59L.86,75.67a1.72,1.72,0,0,0,0,3L34.45,98.23a1.73,1.73,0,0,0,2.34-.59l4-6.56a1.73,1.73,0,0,0-.6-2.4L23,78.65A1.72,1.72,0,0,1,23,75.67Z"/>
    <path class="cls-2" d="M35.32,51.86a5.69,5.69,0,0,1,4.88,2.73l.35.56a42.54,42.54,0,0,1,14.7-14.62l-.54-.33a5.69,5.69,0,0,1-1.94-7.76l5.37-9.22A57.21,57.21,0,0,0,23.19,58l9.25-5.39A5.71,5.71,0,0,1,35.32,51.86Z"/>
    <path class="cls-2" d="M119.27,102.59a5.7,5.7,0,0,1-4.88-2.72L114,99.2a42.89,42.89,0,0,1-6.29,8.16A43.33,43.33,0,0,1,99.24,114l.63.39a5.69,5.69,0,0,1,1.95,7.76l-5.33,9.14a57.18,57.18,0,0,0,34.72-34.76l-9.06,5.28A5.74,5.74,0,0,1,119.27,102.59Z"/>
    <path class="cls-2" d="M99.87,40.2l-.61.37A42.74,42.74,0,0,1,114,55.36l.4-.65a5.73,5.73,0,0,1,7.76-1.94l9,5.27A57.92,57.92,0,0,0,96.49,23.3l5.33,9.14A5.7,5.7,0,0,1,99.87,40.2Z"/>
    <path class="cls-2" d="M54.72,114.39l.53-.34A42.62,42.62,0,0,1,40.47,99.3l-.27.44a5.72,5.72,0,0,1-7.76,2l-9.36-5.46a57.12,57.12,0,0,0,35.07,35.14l-5.38-9.22A5.69,5.69,0,0,1,54.72,114.39Z"/>
    <path class="cls-1" d="M74.76,88.3l-8.38-8.38a3.93,3.93,0,0,1,0-5.55L74.76,66a3.92,3.92,0,0,1,5.54,0l8.38,8.37a3.93,3.93,0,0,1,0,5.55L80.3,88.3A3.92,3.92,0,0,1,74.76,88.3ZM80.3,49a3.92,3.92,0,0,0-5.54,0l-5.71,5.71L55.12,68.66l-5.71,5.71a3.93,3.93,0,0,0,0,5.55l5.71,5.71L69.05,99.56l5.71,5.71a3.92,3.92,0,0,0,5.54,0L86,99.56,99.94,85.63l5.71-5.71a3.93,3.93,0,0,0,0-5.55Z"/>
  </g>
  <g>
    <path class="cls-2" d="M174.29,42h12.6v70h-12.6Z"/>
    <path class="cls-3" d="M221.59,112V81.59c0-3.67-.44-6.23-1.3-7.7a4.7,4.7,0,0,0-4.4-2.2,6.72,6.72,0,0,0-4.5,1.6,8.7,8.7,0,0,0-2.7,4V112h-11.9V62h9.5l1.4,5.8h.3a16.16,16.16,0,0,1,4.9-5,14.39,14.39,0,0,1,8.1-2.05,14.89,14.89,0,0,1,5.35.9,9.07,9.07,0,0,1,3.95,3,14.22,14.22,0,0,1,2.4,5.5,38.8,38.8,0,0,1,.8,8.55V112Z"/>
    <path class="cls-3" d="M238.19,62h5.4v-2.8q0-9.49,3.55-13.75t10.15-4.25a29.23,29.23,0,0,1,11,1.8l-2.2,10.1a12.65,12.65,0,0,0-3.2-.85,27.31,27.31,0,0,0-2.9-.15c-1.94,0-3.17.75-3.7,2.25a25.23,25.23,0,0,0-.8,7.65H264v10.6h-8.5V112h-11.9V72.59h-5.4Z"/>
    <path class="cls-3" d="M302.19,108.29a19.16,19.16,0,0,1-6.8,3.6,29,29,0,0,1-9,1.4,20.5,20.5,0,0,1-8.95-1.8,15.73,15.73,0,0,1-6.15-5.2A23.72,23.72,0,0,1,267.73,98,48.5,48.5,0,0,1,266.59,87q0-13.5,5.35-19.95t14.85-6.45a20.47,20.47,0,0,1,6.19.95,13.61,13.61,0,0,1,5.36,3.2,16.41,16.41,0,0,1,3.8,6,26.59,26.59,0,0,1,1.45,9.45,46.52,46.52,0,0,1-.26,4.7q-.25,2.51-.75,5.4H278.09q.2,6.19,2.62,9.5t7.78,3.3a16.74,16.74,0,0,0,5.91-1,15.9,15.9,0,0,0,4.08-2.1ZM286.5,70.79a6.39,6.39,0,0,0-5.78,3c-1.29,2-2,4.88-2.24,8.55h14c.21-3.8-.2-6.68-1.21-8.65A5,5,0,0,0,286.5,70.79Z"/>
    <path class="cls-3" d="M340.68,109.29a16.92,16.92,0,0,1-6,3,25.2,25.2,0,0,1-7,1,18,18,0,0,1-8.55-1.85,15.09,15.09,0,0,1-5.65-5.3,24.11,24.11,0,0,1-3.15-8.3A56.91,56.91,0,0,1,309.38,87q0-13.09,4.7-19.7t13.8-6.6a28,28,0,0,1,7.35.8,23.84,23.84,0,0,1,5,2l-2.8,9.9A18.85,18.85,0,0,0,334,72a15.12,15.12,0,0,0-3.95-.45,6.83,6.83,0,0,0-6.3,3.65q-2.1,3.65-2.1,11.75a24.91,24.91,0,0,0,2.15,11.1,7.17,7.17,0,0,0,6.85,4.3,12.29,12.29,0,0,0,4.25-.65,15.27,15.27,0,0,0,3.25-1.65Z"/>
    <path class="cls-3" d="M342.28,62h5.5v-9.4l11.9-3.7V62h9.7v10.6h-9.7v21.8a15.67,15.67,0,0,0,.85,6.1,3.09,3.09,0,0,0,3.05,1.8,11.15,11.15,0,0,0,2.7-.3,17.21,17.21,0,0,0,2.6-.9l1.5,9.5a25.83,25.83,0,0,1-5.1,1.85,24.22,24.22,0,0,1-6.1.75q-5.7,0-8.55-3.3t-2.85-11.1V72.59h-5.5Z"/>
    <path class="cls-3" d="M374.88,47.89a6.83,6.83,0,0,1,1.9-5,7.21,7.21,0,0,1,5.4-1.95,8,8,0,0,1,5.6,1.9,6.42,6.42,0,0,1,2.1,5,6.11,6.11,0,0,1-2.1,4.9,8.3,8.3,0,0,1-5.6,1.8,7.45,7.45,0,0,1-5.4-1.85A6.48,6.48,0,0,1,374.88,47.89Zm1.4,14.1h11.9v50h-11.9Z"/>
    <path class="cls-3" d="M396,87q0-13.3,5.2-19.8t14.5-6.5q10,0,14.9,6.6t4.9,19.7q0,13.4-5.2,19.85t-14.6,6.45Q396,113.29,396,87Zm12.3,0q0,7.5,1.7,11.6t5.7,4.1a6,6,0,0,0,5.65-3.55q1.85-3.56,1.85-12.15,0-7.69-1.7-11.7a5.91,5.91,0,0,0-5.8-4q-3.49,0-5.45,3.55T408.28,87Z"/>
    <path class="cls-3" d="M453.78,62v29.9c0,3.93.37,6.67,1.1,8.2a4,4,0,0,0,4,2.3,6.14,6.14,0,0,0,4.7-2,11.71,11.71,0,0,0,2.7-5V62h11.9v34.8c0,2.73.1,5.42.3,8a43.36,43.36,0,0,0,1.1,7.15h-9l-2.1-6.8h-.3A16.88,16.88,0,0,1,463,111a13.62,13.62,0,0,1-8,2.3,16.33,16.33,0,0,1-5.5-.85,9.14,9.14,0,0,1-4.1-3,14.7,14.7,0,0,1-2.6-5.75,39.56,39.56,0,0,1-.9-9.25V62Z"/>
    <path class="cls-3" d="M503.68,98.69a5,5,0,0,0-1.35-3.55,15.33,15.33,0,0,0-3.45-2.7q-2.1-1.25-4.45-2.55a23.69,23.69,0,0,1-4.45-3.2,15.48,15.48,0,0,1-3.45-4.6,15.17,15.17,0,0,1-1.35-6.8q0-7,3.8-10.8t11.2-3.8a35.17,35.17,0,0,1,8.3,1,22.11,22.11,0,0,1,6.2,2.35l-2.8,9.2a39.54,39.54,0,0,0-4.6-1.55,19.77,19.77,0,0,0-5.3-.75q-4.91,0-4.9,4.1a4.1,4.1,0,0,0,1.35,3.15,19,19,0,0,0,3.45,2.45q2.1,1.2,4.45,2.5a22.7,22.7,0,0,1,4.45,3.25,15.67,15.67,0,0,1,3.45,4.75,15.84,15.84,0,0,1,1.35,6.9q0,6.9-4.2,11.1t-12.5,4.2a32.52,32.52,0,0,1-8.05-1,20.52,20.52,0,0,1-6.35-2.6l3.3-9.6a26.29,26.29,0,0,0,4.85,2.1,18.35,18.35,0,0,0,5.75.9,6.48,6.48,0,0,0,3.8-1A3.81,3.81,0,0,0,503.68,98.69Z"/>
    <path class="cls-2" d="M542.58,42q1.8-.3,4-.45l4.6-.3c1.56-.1,3.08-.17,4.55-.2s2.76,0,3.9,0a33.17,33.17,0,0,1,13.85,2.55,22.14,22.14,0,0,1,8.9,7.2,29.61,29.61,0,0,1,4.75,11.15,69.27,69.27,0,0,1,1.4,14.5,69.94,69.94,0,0,1-1.35,14,32.33,32.33,0,0,1-4.75,11.7,24.35,24.35,0,0,1-9.2,8q-5.81,3-14.6,3c-.87,0-2,0-3.5-.1s-3-.15-4.6-.25l-4.6-.3c-1.47-.1-2.6-.22-3.4-.35ZM561,52.59c-1.07,0-2.15,0-3.25,0a14.48,14.48,0,0,0-2.55.25v48.2a4.39,4.39,0,0,0,1.05.15l1.6.1,1.6.1,1.05,0a12.32,12.32,0,0,0,7.4-2.1,14.33,14.33,0,0,0,4.55-5.6,28.36,28.36,0,0,0,2.3-8.05,68,68,0,0,0,.65-9.55,71.37,71.37,0,0,0-.55-8.9,25,25,0,0,0-2.1-7.55,12.92,12.92,0,0,0-4.4-5.2A12.75,12.75,0,0,0,561,52.59Z"/>
    <path class="cls-3" d="M595.48,47.89a6.79,6.79,0,0,1,1.9-5,7.17,7.17,0,0,1,5.4-1.95,8,8,0,0,1,5.6,1.9,6.42,6.42,0,0,1,2.1,5,6.11,6.11,0,0,1-2.1,4.9,8.32,8.32,0,0,1-5.6,1.8,7.41,7.41,0,0,1-5.4-1.85A6.45,6.45,0,0,1,595.48,47.89Zm1.4,14.1h11.9v50h-11.9Z"/>
    <path class="cls-3" d="M635.18,98.69a5,5,0,0,0-1.35-3.55,15.33,15.33,0,0,0-3.45-2.7c-1.4-.83-2.89-1.68-4.45-2.55a23.69,23.69,0,0,1-4.45-3.2,15.48,15.48,0,0,1-3.45-4.6,15.17,15.17,0,0,1-1.35-6.8q0-7,3.8-10.8t11.2-3.8a35.17,35.17,0,0,1,8.3,1,22.23,22.23,0,0,1,6.2,2.35l-2.8,9.2a39.54,39.54,0,0,0-4.6-1.55,19.77,19.77,0,0,0-5.3-.75q-4.9,0-4.9,4.1a4.1,4.1,0,0,0,1.35,3.15,19,19,0,0,0,3.45,2.45q2.1,1.2,4.45,2.5a23,23,0,0,1,4.45,3.25,15.67,15.67,0,0,1,3.45,4.75,15.84,15.84,0,0,1,1.35,6.9q0,6.9-4.2,11.1t-12.5,4.2a32.46,32.46,0,0,1-8-1,20.52,20.52,0,0,1-6.35-2.6l3.3-9.6a26,26,0,0,0,4.85,2.1,18.35,18.35,0,0,0,5.75.9,6.48,6.48,0,0,0,3.8-1A3.81,3.81,0,0,0,635.18,98.69Z"/>
    <path class="cls-3" d="M687.17,108.29a19,19,0,0,1-6.8,3.6,28.92,28.92,0,0,1-9,1.4,20.53,20.53,0,0,1-9-1.8,15.73,15.73,0,0,1-6.15-5.2A23.52,23.52,0,0,1,652.73,98,47.88,47.88,0,0,1,651.57,87q0-13.5,5.35-19.95t14.85-6.45a20.55,20.55,0,0,1,6.21.95,13.47,13.47,0,0,1,5.34,3.2,16.16,16.16,0,0,1,3.8,6,26.37,26.37,0,0,1,1.45,9.45,46.38,46.38,0,0,1-.25,4.7q-.26,2.51-.75,5.4h-24.5q.21,6.19,2.63,9.5c1.61,2.2,4.21,3.3,7.78,3.3a16.64,16.64,0,0,0,5.9-1,16.07,16.07,0,0,0,4.1-2.1Zm-15.68-37.5a6.39,6.39,0,0,0-5.78,3q-1.94,3-2.23,8.55h14c.19-3.8-.21-6.68-1.23-8.65A5,5,0,0,0,671.49,70.79Z"/>
    <path class="cls-3" d="M696.27,65a27,27,0,0,1,7.5-2.9A43.26,43.26,0,0,1,714,61q8.5,0,11.85,4.4t3.35,12.5c0,3.13-.08,6.22-.25,9.25s-.28,6-.35,8.9,0,5.7.15,8.4a33.43,33.43,0,0,0,1.35,7.65h-9.7l-1.9-6.1h-.4a13.4,13.4,0,0,1-4.5,4.8,13,13,0,0,1-7.3,1.9,11.65,11.65,0,0,1-9.3-4q-3.39-3.94-3.4-10.55,0-9,6.4-12.8t17.3-3.2q.51-5.81-.75-8.4t-5.35-2.6a28.82,28.82,0,0,0-6.2.7,23,23,0,0,0-5.7,2Zm14.3,37.5a6.85,6.85,0,0,0,4.4-1.35,8.75,8.75,0,0,0,2.5-3v-8.3a19.8,19.8,0,0,0-4.4-.1,11.89,11.89,0,0,0-3.7.9,6.08,6.08,0,0,0-2.55,2,5.88,5.88,0,0,0-1,3.45,7.55,7.55,0,0,0,1.25,4.7A4.14,4.14,0,0,0,710.57,102.49Z"/>
    <path class="cls-3" d="M754.27,98.69a5,5,0,0,0-1.35-3.55,15.33,15.33,0,0,0-3.45-2.7q-2.1-1.25-4.45-2.55a24,24,0,0,1-4.45-3.2,15.48,15.48,0,0,1-3.45-4.6,15.17,15.17,0,0,1-1.35-6.8q0-7,3.8-10.8t11.2-3.8a35.11,35.11,0,0,1,8.3,1,22.11,22.11,0,0,1,6.2,2.35l-2.8,9.2a38.91,38.91,0,0,0-4.6-1.55,19.71,19.71,0,0,0-5.3-.75c-3.26,0-4.9,1.37-4.9,4.1A4.1,4.1,0,0,0,749,78.14a19,19,0,0,0,3.45,2.45c1.4.8,2.89,1.63,4.45,2.5a22.7,22.7,0,0,1,4.45,3.25,15.67,15.67,0,0,1,3.45,4.75,15.84,15.84,0,0,1,1.35,6.9q0,6.9-4.2,11.1t-12.5,4.2a32.57,32.57,0,0,1-8.05-1,20.62,20.62,0,0,1-6.35-2.6l3.3-9.6a26.29,26.29,0,0,0,4.85,2.1,18.4,18.4,0,0,0,5.75.9,6.46,6.46,0,0,0,3.8-1A3.81,3.81,0,0,0,754.27,98.69Z"/>
    <path class="cls-3" d="M806.27,108.29a19,19,0,0,1-6.8,3.6,28.92,28.92,0,0,1-9,1.4,20.53,20.53,0,0,1-9-1.8,15.73,15.73,0,0,1-6.15-5.2A23.71,23.71,0,0,1,771.82,98,48.47,48.47,0,0,1,770.67,87q0-13.5,5.35-19.95t14.85-6.45a20.49,20.49,0,0,1,6.2.95,13.5,13.5,0,0,1,5.35,3.2,16.16,16.16,0,0,1,3.8,6,26.37,26.37,0,0,1,1.45,9.45,46.38,46.38,0,0,1-.25,4.7q-.25,2.51-.75,5.4h-24.5q.21,6.19,2.63,9.5c1.61,2.2,4.21,3.3,7.77,3.3a16.66,16.66,0,0,0,5.91-1,15.81,15.81,0,0,0,4.09-2.1Zm-15.68-37.5a6.41,6.41,0,0,0-5.79,3q-1.92,3-2.23,8.55h14c.2-3.8-.2-6.68-1.22-8.65A5,5,0,0,0,790.59,70.79Z"/>
    <path class="cls-3" d="M832.07,98.69a5,5,0,0,0-1.35-3.55,15.33,15.33,0,0,0-3.45-2.7q-2.1-1.25-4.45-2.55a24,24,0,0,1-4.45-3.2,15.48,15.48,0,0,1-3.45-4.6,15.17,15.17,0,0,1-1.35-6.8q0-7,3.8-10.8t11.2-3.8a35.11,35.11,0,0,1,8.3,1,22.11,22.11,0,0,1,6.2,2.35l-2.8,9.2a38.91,38.91,0,0,0-4.6-1.55,19.71,19.71,0,0,0-5.3-.75c-3.26,0-4.9,1.37-4.9,4.1a4.1,4.1,0,0,0,1.35,3.15,19,19,0,0,0,3.45,2.45c1.4.8,2.89,1.63,4.45,2.5a22.7,22.7,0,0,1,4.45,3.25,15.67,15.67,0,0,1,3.45,4.75A15.84,15.84,0,0,1,844,98q0,6.9-4.2,11.1t-12.5,4.2a32.57,32.57,0,0,1-8-1,20.62,20.62,0,0,1-6.35-2.6l3.3-9.6a26.29,26.29,0,0,0,4.85,2.1,18.4,18.4,0,0,0,5.75.9,6.46,6.46,0,0,0,3.8-1A3.81,3.81,0,0,0,832.07,98.69Z"/>
    <path class="cls-2" d="M910.07,53.59h-16.6V112h-12.6V53.59h-16.6V42h45.8Z"/>
    <path class="cls-3" d="M902.87,87q0-13.3,5.2-19.8t14.5-6.5q10,0,14.9,6.6t4.9,19.7q0,13.4-5.2,19.85t-14.6,6.45Q902.88,113.29,902.87,87Zm12.3,0q0,7.5,1.7,11.6t5.7,4.1a6,6,0,0,0,5.65-3.55q1.85-3.56,1.85-12.15,0-7.69-1.7-11.7a5.91,5.91,0,0,0-5.8-4q-3.5,0-5.45,3.55T915.17,87Z"/>
    <path class="cls-3" d="M947.37,87q0-13.3,5.2-19.8t14.5-6.5q10,0,14.9,6.6t4.9,19.7q0,13.4-5.2,19.85t-14.6,6.45Q947.38,113.29,947.37,87Zm12.3,0q0,7.5,1.7,11.6t5.7,4.1a6,6,0,0,0,5.65-3.55q1.85-3.56,1.85-12.15,0-7.69-1.7-11.7a5.91,5.91,0,0,0-5.8-4q-3.5,0-5.45,3.55T959.67,87Z"/>
    <path class="cls-3" d="M1005.77,95.79a12.75,12.75,0,0,0,.7,5,2.37,2.37,0,0,0,2.3,1.5,9.26,9.26,0,0,0,1.85-.2,12.35,12.35,0,0,0,2.15-.7l1.1,9.6a13.92,13.92,0,0,1-4.1,1.5c-1.93.47-11.73-.13-13.4-1.8s-2.5-4.5-2.5-8.5V42h11.9Z"/>
    <path class="cls-2" d="M1032.67,91.29h-2.8V112H1018V42h11.9v41.3l2.4-1.4,8.3-19.9h12.9l-9.2,19.8-4.3,3.4,4.7,3.4,10.2,23.4h-13.4Z"/>
    <path class="cls-3" d="M1058.77,47.89a6.79,6.79,0,0,1,1.9-5,7.17,7.17,0,0,1,5.4-1.95,8,8,0,0,1,5.6,1.9,6.42,6.42,0,0,1,2.1,5,6.11,6.11,0,0,1-2.1,4.9,8.32,8.32,0,0,1-5.6,1.8,7.41,7.41,0,0,1-5.4-1.85A6.45,6.45,0,0,1,1058.77,47.89Zm1.4,14.1h11.9v50h-11.9Z"/>
    <path class="cls-3" d="M1077.77,62h5.5v-9.4l11.9-3.7V62h9.7v10.6h-9.7v21.8a15.48,15.48,0,0,0,.85,6.1,3.07,3.07,0,0,0,3,1.8,11.15,11.15,0,0,0,2.7-.3,17.6,17.6,0,0,0,2.6-.9l1.5,9.5a26.3,26.3,0,0,1-5.1,1.85,24.33,24.33,0,0,1-6.1.75q-5.7,0-8.55-3.3t-2.85-11.1V72.59h-5.5Z"/>
  </g>
</svg>
