<svg id="Layer_1" data-name="Layer 1" xmlns="http://www.w3.org/2000/svg" width="1085.53" height="154.58" viewBox="0 0 1085.53 154.58">
  <defs>
    <style>
      .cls-1 {
        fill: #477c9e;
      }

      .cls-2 {
        fill: #e63a47;
      }

      .cls-3 {
        fill: #414142;
      }
    </style>
  </defs>
  <g>
    <g>
      <path class="cls-1" d="M65.87,117.52a1.46,1.46,0,0,1,.51,0,1.49,1.49,0,0,0-.36,0Z"/>
      <path class="cls-1" d="M32,97a1.42,1.42,0,0,1-.51-.18L21.35,91l10.11,5.89A1.42,1.42,0,0,0,32,97Z"/>
      <path class="cls-1" d="M32.71,97a2,2,0,0,0,.39-.19,1.7,1.7,0,0,1-.39.18l-.08,0A.19.19,0,0,1,32.71,97Z"/>
      <path class="cls-1" d="M32.61,97a1.67,1.67,0,0,1-.5,0l.13,0A1.5,1.5,0,0,0,32.61,97Z"/>
      <polygon class="cls-1" points="36.67 88.24 26.89 82.53 21.14 79.18 26.89 82.53 36.67 88.24"/>
      <path class="cls-1" d="M65.21,117.73a1.4,1.4,0,0,1,.47-.17l0,0h0A1.43,1.43,0,0,0,65.21,117.73Z"/>
      <path class="cls-1" d="M89.65,37.39h0a1.35,1.35,0,0,1-.35,0,1.34,1.34,0,0,0,.35,0Z"/>
      <path class="cls-1" d="M123.16,58.65a1.45,1.45,0,0,1,.51,0l-.14,0A2.21,2.21,0,0,0,123.16,58.65Z"/>
      <path class="cls-1" d="M123,58.72a.84.84,0,0,1,.14-.06l-.14.05a1.54,1.54,0,0,0-.34.17A1.74,1.74,0,0,1,123,58.72Z"/>
      <path class="cls-1" d="M66.14,37.4a1.34,1.34,0,0,0,.35,0,1.35,1.35,0,0,1-.35,0h0Z"/>
      <path class="cls-1" d="M32,58.64a1.94,1.94,0,0,0-.51.18L21.39,64.69h0l10.07-5.87A1.94,1.94,0,0,1,32,58.64Z"/>
      <path class="cls-1" d="M32.11,58.63a1.39,1.39,0,0,1,.5,0,1.5,1.5,0,0,0-.37,0Z"/>
      <path class="cls-1" d="M36.67,67.44a1.59,1.59,0,0,0,.47-.42,1.59,1.59,0,0,1-.47.42l-9.81,5.72-5.72,3.33,5.72-3.33Z"/>
      <path class="cls-1" d="M32.75,58.7l-.12,0,.11.05a1.19,1.19,0,0,1,.36.17A1.66,1.66,0,0,0,32.75,58.7Z"/>
      <path class="cls-1" d="M59.4,33.52l5.92,3.64L59.4,33.52a1.61,1.61,0,0,1-.45-.41A1.61,1.61,0,0,0,59.4,33.52Z"/>
      <path class="cls-1" d="M89.16,117.55a1.39,1.39,0,0,1,.5,0l-.14,0A1.49,1.49,0,0,0,89.16,117.55Z"/>
      <path class="cls-1" d="M123.67,97.05a1.73,1.73,0,0,1-.51,0,1.5,1.5,0,0,0,.37,0Z"/>
      <path class="cls-1" d="M126.28,100.22a5.45,5.45,0,0,1-2.75.74,5.49,5.49,0,0,1-4.65-2.59l-2.82-4.58-.83-1.35a5.46,5.46,0,0,1,1.9-7.57L125,80.28l4.2-2.44L125,75.41l-7.9-4.6a5.48,5.48,0,0,1-1.9-7.58L116,62l2.86-4.64a5.4,5.4,0,0,1,2.45-2.14,5.63,5.63,0,0,1,2.2-.46,5.56,5.56,0,0,1,2.75.74l6.53,3.81A57.79,57.79,0,0,0,96.51,23l3.76,6.45a5.43,5.43,0,0,1,.27,5,5.48,5.48,0,0,1-2.13,2.41l-4.69,2.89-1.23.76a5.46,5.46,0,0,1-7.58-1.9l-4.58-7.87-2.45-4.2-2.44,4.19-4.59,7.88a5.45,5.45,0,0,1-7.57,1.9L62,39.72l-4.69-2.88a5.46,5.46,0,0,1-1.85-7.4L59.26,23A58.6,58.6,0,0,0,23,59.26l6.54-3.81a5.49,5.49,0,0,1,2.74-.74,5.32,5.32,0,0,1,2.18.46,5.39,5.39,0,0,1,2.47,2.14l2.85,4.63.8,1.29a5.48,5.48,0,0,1-1.9,7.58L30.75,75.4l-4.18,2.44,4.21,2.45,7.86,4.58a5.47,5.47,0,0,1,1.9,7.57l-.83,1.35-2.82,4.58a5.46,5.46,0,0,1-7.39,1.85l-6.6-3.84a57.87,57.87,0,0,0,36.91,36.67l-4.43-7.6a5.46,5.46,0,0,1,1.86-7.39l3.82-2.35,2.1-1.3a5.46,5.46,0,0,1,7.58,1.9l4.88,8.37,2.15,3.69L80,124.48l4.76-8.17a5.47,5.47,0,0,1,4.72-2.71,5.42,5.42,0,0,1,2.85.81l2.21,1.35,3.72,2.3a5.47,5.47,0,0,1,2.43,3.26,5.41,5.41,0,0,1-.58,4.13l-4.48,7.69a57.85,57.85,0,0,0,37.21-36.77ZM91.8,107.16a33.13,33.13,0,0,1-4.3,1.7l-3.35,1-6.26,10.85L71.62,109.9l-3.35-1a32.18,32.18,0,0,1-7.13-3.21l-11,2.91-6.39,1.68,1.75-6.65,3.13-11.87a33.11,33.11,0,0,1-1.65-4.21l-1-3.35L35,77.85l10.94-6.32,1-3.33a32.58,32.58,0,0,1,2-4.8L45.86,51.75l-2.15-8.14,8.16,2.15,11.72,3.09A32.48,32.48,0,0,1,68.19,47l3.34-1,6.36-11,6.35,11,3.34,1a32.67,32.67,0,0,1,4.94,2L104.13,46l8.33-2.2-2.21,8.39L107.12,64a32.07,32.07,0,0,1,1.67,4.19l1,3.33,11,6.32-10.92,6.31-1,3.35a31.54,31.54,0,0,1-2.06,5l3.07,11.61,2.19,8.33-8.4-2.21Z"/>
      <path class="cls-1" d="M96.91,123.12a1.46,1.46,0,0,0,0-.8,1.46,1.46,0,0,1,0,.8,1.26,1.26,0,0,1-.13.37L90.31,134.6l6.47-11.11A1.26,1.26,0,0,0,96.91,123.12Z"/>
      <path class="cls-1" d="M123.07,97l.08,0-.07,0a1.5,1.5,0,0,1-.41-.18A2.09,2.09,0,0,0,123.07,97Z"/>
      <path class="cls-1" d="M90.05,117.61l-.25-.07a1,1,0,0,1,.24.09,1.42,1.42,0,0,1,.29.1A1.39,1.39,0,0,0,90.05,117.61Z"/>
    </g>
    <path class="cls-2" d="M96.9,31.41l-5.82-10L79.23,1.09a1.55,1.55,0,0,0-2.69,0L64.69,21.42l-5.82,10a1.52,1.52,0,0,0-.09,1.33,1.76,1.76,0,0,0,.17.37,1.61,1.61,0,0,0,.45.41l5.92,3.64a1.56,1.56,0,0,0,.53.2l.14,0h.15a1.35,1.35,0,0,0,.35,0h0a1.69,1.69,0,0,0,.49-.23l.1-.08a1.49,1.49,0,0,0,.37-.42h0l5.72-9.8,3.34-5.73a1.55,1.55,0,0,1,2.69,0l3.35,5.75,5.7,9.78h0a1.53,1.53,0,0,0,.38.42l.1.08a1.77,1.77,0,0,0,.48.23h0a1.35,1.35,0,0,0,.35,0h.15l.14,0a1.56,1.56,0,0,0,.53-.2l5.92-3.64a1.49,1.49,0,0,0,.61-.77A1.51,1.51,0,0,0,96.9,31.41Z"/>
    <path class="cls-2" d="M37.4,89.2a1.55,1.55,0,0,0-.73-1l-9.78-5.71-5.75-3.35a1.46,1.46,0,0,1-.34-.26,1.57,1.57,0,0,1,0-2.17,1.8,1.8,0,0,1,.34-.26l5.72-3.33,9.81-5.72a1.57,1.57,0,0,0,.73-1,1.59,1.59,0,0,0,0-.38,1.62,1.62,0,0,0,0-.22,1.66,1.66,0,0,0-.21-.6l-3.65-5.92a1.57,1.57,0,0,0-.37-.4l-.1-.07a1.19,1.19,0,0,0-.36-.17l-.11-.05h0a1.39,1.39,0,0,0-.5,0H32a1.94,1.94,0,0,0-.51.18L21.39,64.69,1.14,76.49a1.55,1.55,0,0,0,0,2.69L21.35,91l10.11,5.89A1.42,1.42,0,0,0,32,97l.14,0a1.67,1.67,0,0,0,.5,0h0l.08,0a1.7,1.7,0,0,0,.39-.18l.1-.08a1.57,1.57,0,0,0,.37-.4l3.65-5.92a1.67,1.67,0,0,0,.21-.59,1.34,1.34,0,0,0,0-.2A1.91,1.91,0,0,0,37.4,89.2Z"/>
    <path class="cls-2" d="M155.36,77.45a1.44,1.44,0,0,0-.39-.7,1.28,1.28,0,0,0-.34-.26l-20.25-11.8-10.07-5.87a1.64,1.64,0,0,0-.51-.18h-.13a1.45,1.45,0,0,0-.51,0h0a.84.84,0,0,0-.14.06,1.74,1.74,0,0,0-.34.16l-.1.07a1.57,1.57,0,0,0-.37.4l-3.64,5.92a1.52,1.52,0,0,0-.21.82,1.55,1.55,0,0,0,.28.93,1.59,1.59,0,0,0,.47.42l9.82,5.72,5.71,3.33a1.56,1.56,0,0,1,.58.59,1.53,1.53,0,0,1,0,1.51,1.49,1.49,0,0,1-.58.59l-5.74,3.35-9.79,5.71a1.55,1.55,0,0,0-.73,1,1.91,1.91,0,0,0,0,.41,1.42,1.42,0,0,0,.21.79l3.64,5.92a1.57,1.57,0,0,0,.37.4l.1.08a1.5,1.5,0,0,0,.41.18l.07,0h0a1.73,1.73,0,0,0,.51,0l.13,0a1.42,1.42,0,0,0,.51-.18L134.43,91l20.2-11.78a1.28,1.28,0,0,0,.34-.26,1.44,1.44,0,0,0,.39-.7A1.67,1.67,0,0,0,155.36,77.45Z"/>
    <path class="cls-2" d="M97,122.32a1.52,1.52,0,0,0-.7-.94l-5.92-3.65a1.42,1.42,0,0,0-.29-.1,1,1,0,0,0-.24-.09l-.14,0a1.39,1.39,0,0,0-.5,0h0a1.52,1.52,0,0,0-.48.23l-.11.08a1.62,1.62,0,0,0-.37.41l-5.88,10.1-3.17,5.44a1.51,1.51,0,0,1-1,.72,1.31,1.31,0,0,1-.39.05,1.59,1.59,0,0,1-.76-.19,1.56,1.56,0,0,1-.59-.58l-3-5.24-6-10.3a1.62,1.62,0,0,0-.37-.41l-.11-.08a1.52,1.52,0,0,0-.48-.23h0a1.46,1.46,0,0,0-.51,0l-.14,0,0,0a1.4,1.4,0,0,0-.47.17l-5.93,3.65a1.53,1.53,0,0,0-.69,1.63,1.43,1.43,0,0,0,.16.48l6.44,11,11.23,19.27a1.57,1.57,0,0,0,2.7,0L90.31,134.6l6.47-11.11a1.26,1.26,0,0,0,.13-.37A1.46,1.46,0,0,0,97,122.32Z"/>
    <path class="cls-2" d="M85.49,63.56a10.92,10.92,0,0,0-15.45,0l-8.58,8.59a10.94,10.94,0,0,0,0,15.45L70,96.18a10.92,10.92,0,0,0,15.45,0l8.59-8.58a10.94,10.94,0,0,0,0-15.45Zm2,17.42-8.58,8.59a1.57,1.57,0,0,1-2.22,0L68.07,81a1.58,1.58,0,0,1,0-2.22l8.59-8.58a1.57,1.57,0,0,1,2.22,0l8.58,8.58A1.56,1.56,0,0,1,87.46,81Z"/>
  </g>
  <g>
    <path class="cls-1" d="M186.25,42.89v67.9h-14V42.89Z"/>
    <path class="cls-3" d="M207.55,61.09v6.6a11.76,11.76,0,0,1,4.2-5.4,12,12,0,0,1,7.5-2.4c7.8,0,11.7,4.8,11.7,14.3v36.7h-13.7V78.39c0-4.1-1.5-6.1-4.4-6.1a4.64,4.64,0,0,0-3.8,1.6,6.91,6.91,0,0,0-1.4,4.5v32.4H194V60.89Z"/>
    <path class="cls-3" d="M254.75,110.79H241V71.49h-6.4V61.29H241v-4.2c0-5.2,1.1-9,3.3-11.5s5.2-3.7,9-3.7a22.28,22.28,0,0,1,9,1.6l-1.4,10.9a10,10,0,0,0-5.7-2.2c-2.1,0-3.1,1.4-3.1,4.2a19.93,19.93,0,0,0,.6,4.9h11.1v10.2H255Z"/>
    <path class="cls-3" d="M301.55,92.79v.7c0,6.1-1.5,10.7-4.6,13.8s-7.4,4.6-12.9,4.6c-5.8,0-10.2-1.6-13.3-4.8s-4.6-7.8-4.6-13.8V78.59c0-5.7,1.5-10.3,4.5-13.7s7.5-5.1,13.4-5.1c11.6,0,17.4,6,17.4,17.9v9.8H280v6.9c0,4.2,1.7,6.3,5,6.3s5-2.1,5-6.3v-2.5Zm-12-12.9v-4.4c0-4.1-1.7-6.2-5.1-6.2s-4.9,2.1-4.9,6.3v4.3Z"/>
    <path class="cls-3" d="M340.65,91.59v.9q0,10-4.8,14.7c-3.2,3.1-7.4,4.6-12.6,4.6q-8.7,0-12.9-5.1t-4.2-13.5V78.49q0-8.25,4.2-13.5c2.8-3.5,7.1-5.2,13-5.2a18,18,0,0,1,12.6,4.5c3.3,3,4.9,7.7,4.9,14.2v1.7l-10.7.9v-2.6c0-4.3-1.7-6.5-5-6.5s-5,2.2-5,6.5v14.6c0,4.2,1.7,6.3,5,6.3s5-2.1,5-6.3v-2.4Z"/>
    <path class="cls-3" d="M371.05,109.89a22.49,22.49,0,0,1-9.9,2.1c-8.5,0-12.8-4.6-12.8-13.8v-27h-5V61.09a18.18,18.18,0,0,0,4.5-.4,8,8,0,0,0,3.3-1.9,9,9,0,0,0,2.4-4.8,46.3,46.3,0,0,0,.9-8.6h8.1v15.5h8.9V71h-9.3v22.9c0,3.3,1.2,4.9,3.6,4.9a10.94,10.94,0,0,0,5.4-1.7Z"/>
    <path class="cls-3" d="M376.15,41h13.7v11.9h-13.7Zm0,19.9h13.7v49.9h-13.7Z"/>
    <path class="cls-3" d="M414.75,111.89a19.65,19.65,0,0,1-13.3-4.7q-5.4-4.65-5.4-14.4V79.29c0-6.5,1.8-11.4,5.4-14.6a19.24,19.24,0,0,1,13.3-4.8,19.49,19.49,0,0,1,13.4,4.8c3.6,3.2,5.4,8,5.4,14.5v13.5q0,9.75-5.4,14.4a20,20,0,0,1-13.5,4.7Zm5-18.8V78.49c0-4.3-1.7-6.5-5.1-6.5s-4.9,2.2-4.9,6.5v14.6c0,4.2,1.6,6.3,4.9,6.3S419.75,97.29,419.75,93.09Z"/>
    <path class="cls-3" d="M462.45,110.69V104a12.1,12.1,0,0,1-4.2,5.4,11.78,11.78,0,0,1-7.3,2.3q-11.7,0-11.71-15V60.79H453v32.5c0,4.1,1.5,6.1,4.4,6.1a5,5,0,0,0,3.8-1.7,6.44,6.44,0,0,0,1.5-4.5V60.89h13.7v49.9Z"/>
    <path class="cls-3" d="M498.05,112c-10.81,0-16.21-4.9-16.21-14.6v-2l10-1.1v2.3c0,4.5,1.7,6.7,5.1,6.7,3.11,0,4.71-1.7,4.71-5.2a5.39,5.39,0,0,0-3.3-5.1l-7.91-3.9c-5.3-2.7-8-7.1-8-13.2a16.09,16.09,0,0,1,4.1-11.4c2.7-2.9,6.9-4.4,12.61-4.4,4.9,0,8.7,1.1,11.4,3.4s4.1,5.5,4.1,9.7v2.5l-9.9,1v-2.3c0-3.5-1.4-5.2-4.2-5.2s-4.31,1.6-4.31,4.8c0,2.1,1.41,3.8,4.11,5.1l7.8,3.9c5.1,2.5,7.6,6.8,7.6,12.8a16.13,16.13,0,0,1-4.2,11.5c-2.8,3-7.3,4.5-13.61,4.5Z"/>
    <path class="cls-1" d="M535.14,111V43.09h20.1c6.1,0,11,1.7,14.6,5s5.4,8.3,5.4,15v27.7c0,6.8-1.8,11.8-5.3,15.1s-8.4,4.9-14.6,4.9Zm19-13.4c4.7,0,7-2.9,7-8.8V64.69c0-5.7-2.3-8.6-7-8.6h-4.8v41.5Z"/>
    <path class="cls-3" d="M582,41h13.7v11.9H582Zm0,19.9h13.7v49.9H582Z"/>
    <path class="cls-3" d="M617.44,112c-10.8,0-16.2-4.9-16.2-14.6v-2l10-1.1v2.3c0,4.5,1.7,6.7,5.1,6.7,3.1,0,4.7-1.7,4.7-5.2a5.39,5.39,0,0,0-3.3-5.1l-7.9-3.9c-5.3-2.7-8-7.1-8-13.2a16.09,16.09,0,0,1,4.1-11.4c2.7-2.9,6.9-4.4,12.6-4.4,4.9,0,8.7,1.1,11.4,3.4s4.1,5.5,4.1,9.7v2.5l-9.9,1v-2.3c0-3.5-1.4-5.2-4.2-5.2s-4.3,1.6-4.3,4.8c0,2.1,1.4,3.8,4.1,5.1l7.8,3.9c5.1,2.5,7.6,6.8,7.6,12.8a16.13,16.13,0,0,1-4.2,11.5c-2.8,3-7.3,4.5-13.6,4.5Z"/>
    <path class="cls-3" d="M674.84,92.79v.7c0,6.1-1.5,10.7-4.6,13.8s-7.4,4.6-12.9,4.6c-5.8,0-10.2-1.6-13.3-4.8s-4.6-7.8-4.6-13.8V78.59c0-5.7,1.5-10.3,4.5-13.7s7.5-5.1,13.4-5.1c11.6,0,17.4,6,17.4,17.9v9.8h-21.5v6.9c0,4.2,1.7,6.3,5,6.3s5-2.1,5-6.3v-2.5Zm-12-12.9v-4.4c0-4.1-1.7-6.2-5.1-6.2s-4.9,2.1-4.9,6.3v4.3Z"/>
    <path class="cls-3" d="M681.14,65a30.51,30.51,0,0,1,17.1-5.3c8.9,0,13.3,4.8,13.3,14.5v23q0,2.1,1.5,2.1a6.88,6.88,0,0,0,1.3-.2,10.38,10.38,0,0,0,1.2-.3l.4-.3v11.4a19.2,19.2,0,0,1-8.4,2c-4.3,0-6.8-2.4-7.4-7.1-2.6,4.7-6.3,7.1-11.1,7.1q-4.95,0-7.5-3.3a14.27,14.27,0,0,1-2.6-8.9v-3a13.69,13.69,0,0,1,2.9-9q2.85-3.45,9-5.7l6.1-2.4a3.84,3.84,0,0,0,2.8-3.9c0-3-1.1-4.5-3.4-4.5a16.45,16.45,0,0,0-6.6,2,25,25,0,0,0-6.9,4.8Zm18.2,20.9c-.1.1-.9.7-2.3,1.7l-2.3,1.3a6.76,6.76,0,0,0-3.3,6.3v2.1c0,2.5,1,3.8,3.1,3.8q2.85,0,4.8-3.9Z"/>
    <path class="cls-3" d="M734.74,112c-10.8,0-16.2-4.9-16.2-14.6v-2l10-1.1v2.3c0,4.5,1.7,6.7,5.1,6.7,3.1,0,4.7-1.7,4.7-5.2A5.39,5.39,0,0,0,735,93l-7.9-3.9c-5.3-2.7-8-7.1-8-13.2a16.09,16.09,0,0,1,4.1-11.4c2.7-2.9,6.9-4.4,12.6-4.4,4.9,0,8.7,1.1,11.4,3.4s4.1,5.5,4.1,9.7v2.5l-9.9,1v-2.3c0-3.5-1.4-5.2-4.2-5.2s-4.3,1.6-4.3,4.8c0,2.1,1.4,3.8,4.1,5.1l7.8,3.9c5.1,2.5,7.6,6.8,7.6,12.8a16.13,16.13,0,0,1-4.2,11.5c-2.8,3-7.3,4.5-13.6,4.5Z"/>
    <path class="cls-3" d="M792.14,92.79v.7c0,6.1-1.5,10.7-4.6,13.8s-7.4,4.6-12.9,4.6c-5.8,0-10.2-1.6-13.3-4.8s-4.6-7.8-4.6-13.8V78.59c0-5.7,1.5-10.3,4.5-13.7s7.5-5.1,13.4-5.1c11.6,0,17.4,6,17.4,17.9v9.8h-21.5v6.9c0,4.2,1.7,6.3,5,6.3s5-2.1,5-6.3v-2.5Zm-12-12.9v-4.4c0-4.1-1.7-6.2-5.1-6.2s-4.9,2.1-4.9,6.3v4.3Z"/>
    <path class="cls-3" d="M812.54,112c-10.8,0-16.2-4.9-16.2-14.6v-2l10-1.1v2.3c0,4.5,1.7,6.7,5.1,6.7,3.1,0,4.7-1.7,4.7-5.2a5.39,5.39,0,0,0-3.3-5.1l-7.9-3.9c-5.3-2.7-8-7.1-8-13.2a16.09,16.09,0,0,1,4.1-11.4c2.7-2.9,6.9-4.4,12.6-4.4,4.9,0,8.7,1.1,11.4,3.4s4.1,5.5,4.1,9.7v2.5l-9.9,1v-2.3c0-3.5-1.4-5.2-4.2-5.2s-4.3,1.6-4.3,4.8c0,2.1,1.4,3.8,4.1,5.1l7.8,3.9c5.1,2.5,7.6,6.8,7.6,12.8a16.13,16.13,0,0,1-4.2,11.5c-2.8,3-7.3,4.5-13.6,4.5Z"/>
    <path class="cls-1" d="M882.74,56.69H871v54.1h-14.1V56.69h-11.5V42.89h37.3Z"/>
    <path class="cls-3" d="M899.84,111.89a19.65,19.65,0,0,1-13.3-4.7q-5.4-4.65-5.4-14.4V79.29c0-6.5,1.8-11.4,5.4-14.6a19.24,19.24,0,0,1,13.3-4.8,19.49,19.49,0,0,1,13.4,4.8c3.6,3.2,5.4,8,5.4,14.5v13.5q0,9.75-5.4,14.4a20,20,0,0,1-13.5,4.7Zm5-18.8V78.49c0-4.3-1.7-6.5-5.1-6.5s-4.9,2.2-4.9,6.5v14.6c0,4.2,1.6,6.3,4.9,6.3S904.84,97.29,904.84,93.09Z"/>
    <path class="cls-3" d="M942.34,111.89a19.65,19.65,0,0,1-13.3-4.7q-5.4-4.65-5.4-14.4V79.29c0-6.5,1.8-11.4,5.4-14.6a19.24,19.24,0,0,1,13.3-4.8,19.49,19.49,0,0,1,13.4,4.8c3.6,3.2,5.4,8,5.4,14.5v13.5q0,9.75-5.4,14.4a20,20,0,0,1-13.5,4.7Zm5-18.8V78.49c0-4.3-1.7-6.5-5.1-6.5s-4.9,2.2-4.9,6.5v14.6c0,4.2,1.6,6.3,4.9,6.3S947.34,97.29,947.34,93.09Z"/>
    <path class="cls-3" d="M980.84,110.79h-7.6c-4.1,0-6.1-2.1-6.1-6.2V42.89h13.7Z"/>
    <path class="cls-1" d="M988,42.89h13.7v38.5l11.5-20.5h12.7l-11,19.1,10.6,30.8h-14.1l-6-20.1-3.7,5.4v14.7H988Z"/>
    <path class="cls-3" d="M1029.64,41h13.7v11.9h-13.7Zm0,19.9h13.7v49.9h-13.7Z"/>
    <path class="cls-3" d="M1075.34,109.89a22.49,22.49,0,0,1-9.9,2.1c-8.5,0-12.8-4.6-12.8-13.8v-27h-5V61.09a18.18,18.18,0,0,0,4.5-.4,8,8,0,0,0,3.3-1.9,9,9,0,0,0,2.4-4.8,46.3,46.3,0,0,0,.9-8.6h8.1v15.5h8.9V71h-9.3v22.9c0,3.3,1.2,4.9,3.6,4.9a10.94,10.94,0,0,0,5.4-1.7Z"/>
  </g>
</svg>
