<svg id="Layer_1" data-name="Layer 1" xmlns="http://www.w3.org/2000/svg" width="1084.55" height="154.58" viewBox="0 0 1084.55 154.58">
  <defs>
    <style>
      .cls-1 {
        fill: #e63a47;
      }

      .cls-2 {
        fill: #477c9e;
      }

      .cls-3 {
        fill: #414142;
      }
    </style>
  </defs>
  <g>
    <path class="cls-1" d="M131.57,78.78l-17.21,10a1.73,1.73,0,0,0-.6,2.4l4,6.56a1.73,1.73,0,0,0,2.34.59l33.59-19.58a1.73,1.73,0,0,0,0-3L120.14,56.22a1.73,1.73,0,0,0-2.34.59l-4,6.56a1.73,1.73,0,0,0,.6,2.4l17.21,10A1.73,1.73,0,0,1,131.57,78.78Z"/>
    <path class="cls-1" d="M78.78,23l10,17.21a1.73,1.73,0,0,0,2.4.6l6.56-4a1.73,1.73,0,0,0,.59-2.34L78.78.86a1.72,1.72,0,0,0-3,0L56.22,34.45a1.73,1.73,0,0,0,.59,2.34l6.56,4a1.73,1.73,0,0,0,2.4-.6L75.8,23A1.72,1.72,0,0,1,78.78,23Z"/>
    <path class="cls-1" d="M75.8,131.57l-10-17.21a1.73,1.73,0,0,0-2.39-.61l-6.57,4a1.72,1.72,0,0,0-.58,2.34l19.57,33.6a1.73,1.73,0,0,0,3,0l19.57-33.6a1.73,1.73,0,0,0-.59-2.34l-6.56-4a1.74,1.74,0,0,0-2.4.61l-2.35,4-7.67,13.17A1.73,1.73,0,0,1,75.8,131.57Z"/>
    <path class="cls-1" d="M23,75.67l17.21-10a1.73,1.73,0,0,0,.6-2.4l-4-6.56a1.73,1.73,0,0,0-2.34-.59L.86,75.67a1.72,1.72,0,0,0,0,3L34.45,98.23a1.73,1.73,0,0,0,2.34-.59l4-6.56a1.73,1.73,0,0,0-.6-2.4L23,78.65A1.72,1.72,0,0,1,23,75.67Z"/>
    <path class="cls-2" d="M35.32,51.86a5.69,5.69,0,0,1,4.88,2.73l.35.56a42.54,42.54,0,0,1,14.7-14.62l-.54-.33a5.69,5.69,0,0,1-1.94-7.76l5.37-9.22A57.21,57.21,0,0,0,23.19,58l9.25-5.39A5.71,5.71,0,0,1,35.32,51.86Z"/>
    <path class="cls-2" d="M119.27,102.59a5.7,5.7,0,0,1-4.88-2.72L114,99.2a42.89,42.89,0,0,1-6.29,8.16A43.33,43.33,0,0,1,99.24,114l.63.39a5.69,5.69,0,0,1,1.95,7.76l-5.33,9.14a57.18,57.18,0,0,0,34.72-34.76l-9.06,5.28A5.74,5.74,0,0,1,119.27,102.59Z"/>
    <path class="cls-2" d="M99.87,40.2l-.61.37A42.74,42.74,0,0,1,114,55.36l.4-.65a5.73,5.73,0,0,1,7.76-1.94l9,5.27A57.92,57.92,0,0,0,96.49,23.3l5.33,9.14A5.7,5.7,0,0,1,99.87,40.2Z"/>
    <path class="cls-2" d="M54.72,114.39l.53-.34A42.62,42.62,0,0,1,40.47,99.3l-.27.44a5.72,5.72,0,0,1-7.76,2l-9.36-5.46a57.12,57.12,0,0,0,35.07,35.14l-5.38-9.22A5.69,5.69,0,0,1,54.72,114.39Z"/>
    <path class="cls-1" d="M74.76,88.3l-8.38-8.38a3.93,3.93,0,0,1,0-5.55L74.76,66a3.92,3.92,0,0,1,5.54,0l8.38,8.37a3.93,3.93,0,0,1,0,5.55L80.3,88.3A3.92,3.92,0,0,1,74.76,88.3ZM80.3,49a3.92,3.92,0,0,0-5.54,0l-5.71,5.71L55.12,68.66l-5.71,5.71a3.93,3.93,0,0,0,0,5.55l5.71,5.71L69.05,99.56l5.71,5.71a3.92,3.92,0,0,0,5.54,0L86,99.56,99.94,85.63l5.71-5.71a3.93,3.93,0,0,0,0-5.55Z"/>
  </g>
  <g>
    <path class="cls-2" d="M184.47,43.19V111.1h-14V43.19Z"/>
    <path class="cls-3" d="M205.77,61.39V68a11.76,11.76,0,0,1,4.2-5.4,12,12,0,0,1,7.5-2.4c7.8,0,11.7,4.8,11.7,14.3V111.2h-13.7V78.7c0-4.11-1.5-6.11-4.4-6.11a4.64,4.64,0,0,0-3.8,1.6,6.92,6.92,0,0,0-1.4,4.51v32.4h-13.7V61.19Z"/>
    <path class="cls-3" d="M253,111.1h-13.8V71.79h-6.4V61.59h6.4v-4.2c0-5.2,1.1-9,3.3-11.5s5.2-3.7,9-3.7a22.28,22.28,0,0,1,9,1.6l-1.4,10.9a10,10,0,0,0-5.7-2.2c-2.1,0-3.1,1.4-3.1,4.2a19.93,19.93,0,0,0,.6,4.9H262v10.2h-8.8Z"/>
    <path class="cls-3" d="M299.77,93.1v.7c0,6.1-1.5,10.7-4.6,13.8s-7.4,4.6-12.9,4.6c-5.8,0-10.2-1.6-13.3-4.8s-4.6-7.8-4.6-13.8V78.9c0-5.71,1.5-10.31,4.5-13.71s7.5-5.1,13.4-5.1c11.6,0,17.4,6,17.4,17.9V87.8h-21.5v6.9c0,4.2,1.7,6.3,5,6.3s5-2.1,5-6.3V92.2Zm-12-12.9V75.79c0-4.1-1.7-6.2-5.1-6.2s-4.9,2.1-4.9,6.31v4.3Z"/>
    <path class="cls-3" d="M338.87,91.9v.9q0,10-4.8,14.7c-3.2,3.1-7.4,4.6-12.6,4.6q-8.7,0-12.9-5.1t-4.2-13.5V78.8q0-8.26,4.2-13.51c2.8-3.5,7.1-5.2,13-5.2a18,18,0,0,1,12.6,4.5c3.3,3,4.9,7.7,4.9,14.21v1.69l-10.7.91V78.8c0-4.31-1.7-6.51-5-6.51s-5,2.2-5,6.51V93.4c0,4.2,1.7,6.3,5,6.3s5-2.1,5-6.3V91Z"/>
    <path class="cls-3" d="M369.27,110.2a22.49,22.49,0,0,1-9.9,2.1c-8.5,0-12.8-4.6-12.8-13.8v-27h-5V61.39a18.18,18.18,0,0,0,4.5-.4,8,8,0,0,0,3.3-1.9,9,9,0,0,0,2.4-4.8,46.3,46.3,0,0,0,.9-8.6h8.1v15.5h8.9v10.1h-9.3V94.2c0,3.3,1.2,4.9,3.6,4.9a10.94,10.94,0,0,0,5.4-1.7Z"/>
    <path class="cls-3" d="M374.37,41.29h13.7v11.9h-13.7Zm0,19.9h13.7V111.1h-13.7Z"/>
    <path class="cls-3" d="M413,112.2a19.65,19.65,0,0,1-13.3-4.7q-5.4-4.65-5.4-14.4V79.59c0-6.5,1.8-11.4,5.4-14.6a19.24,19.24,0,0,1,13.3-4.8,19.49,19.49,0,0,1,13.4,4.8c3.6,3.2,5.4,8,5.4,14.5V93q0,9.75-5.4,14.4a20,20,0,0,1-13.5,4.7Zm5-18.8V78.8c0-4.31-1.7-6.51-5.1-6.51s-4.9,2.2-4.9,6.51V93.4c0,4.2,1.6,6.3,4.9,6.3S418,97.6,418,93.4Z"/>
    <path class="cls-3" d="M460.67,111v-6.7a12.1,12.1,0,0,1-4.2,5.4,11.78,11.78,0,0,1-7.3,2.3q-11.7,0-11.7-15V61.09h13.7V93.6c0,4.1,1.5,6.1,4.4,6.1a5,5,0,0,0,3.8-1.7,6.44,6.44,0,0,0,1.5-4.5V61.19h13.7V111.1Z"/>
    <path class="cls-3" d="M496.27,112.3c-10.8,0-16.2-4.9-16.2-14.6v-2l10-1.1v2.3c0,4.5,1.7,6.7,5.1,6.7,3.1,0,4.7-1.7,4.7-5.2a5.39,5.39,0,0,0-3.3-5.1l-7.9-3.9c-5.3-2.7-8-7.1-8-13.21a16.09,16.09,0,0,1,4.1-11.4c2.7-2.9,6.9-4.4,12.6-4.4,4.9,0,8.7,1.1,11.4,3.4s4.1,5.5,4.1,9.7V76L503,77v-2.3c0-3.5-1.4-5.2-4.2-5.2s-4.3,1.6-4.3,4.8c0,2.11,1.4,3.8,4.1,5.11l7.8,3.9c5.1,2.5,7.6,6.8,7.6,12.8a16.13,16.13,0,0,1-4.2,11.5c-2.8,3-7.3,4.5-13.6,4.5Z"/>
    <path class="cls-2" d="M533.36,111.3V43.39h20.11c6.1,0,11,1.7,14.6,5s5.4,8.3,5.4,15V91.1c0,6.8-1.8,11.8-5.3,15.1s-8.4,4.9-14.61,4.9Zm19-13.4c4.71,0,7-2.9,7-8.8V65c0-5.7-2.3-8.6-7-8.6h-4.8V97.9Z"/>
    <path class="cls-3" d="M580.26,41.29H594v11.9h-13.7Zm0,19.9H594V111.1h-13.7Z"/>
    <path class="cls-3" d="M615.66,112.3c-10.8,0-16.2-4.9-16.2-14.6v-2l10-1.1v2.3c0,4.5,1.7,6.7,5.1,6.7,3.1,0,4.7-1.7,4.7-5.2a5.39,5.39,0,0,0-3.3-5.1l-7.9-3.9c-5.3-2.7-8-7.1-8-13.21a16.09,16.09,0,0,1,4.1-11.4c2.7-2.9,6.9-4.4,12.6-4.4,4.9,0,8.7,1.1,11.4,3.4s4.11,5.5,4.11,9.7V76l-9.91,1v-2.3c0-3.5-1.4-5.2-4.2-5.2s-4.3,1.6-4.3,4.8c0,2.11,1.4,3.8,4.1,5.11l7.81,3.9c5.09,2.5,7.59,6.8,7.59,12.8a16.09,16.09,0,0,1-4.2,11.5c-2.8,3-7.3,4.5-13.6,4.5Z"/>
    <path class="cls-3" d="M673.06,93.1v.7c0,6.1-1.5,10.7-4.6,13.8s-7.4,4.6-12.9,4.6c-5.8,0-10.2-1.6-13.3-4.8s-4.6-7.8-4.6-13.8V78.9c0-5.71,1.5-10.31,4.5-13.71s7.5-5.1,13.4-5.1c11.6,0,17.41,6,17.41,17.9V87.8H651.46v6.9c0,4.2,1.7,6.3,5,6.3s5-2.1,5-6.3V92.2Zm-12-12.9V75.79c0-4.1-1.7-6.2-5.1-6.2s-4.9,2.1-4.9,6.31v4.3Z"/>
    <path class="cls-3" d="M679.36,65.29a30.51,30.51,0,0,1,17.1-5.3c8.9,0,13.3,4.8,13.3,14.5v23q0,2.1,1.5,2.1a6.88,6.88,0,0,0,1.3-.2,10.38,10.38,0,0,0,1.2-.3l.4-.3v11.4a19.2,19.2,0,0,1-8.4,2c-4.3,0-6.8-2.4-7.4-7.1-2.6,4.7-6.3,7.1-11.1,7.1q-4.95,0-7.5-3.3a14.27,14.27,0,0,1-2.6-8.9V97a13.74,13.74,0,0,1,2.9-9q2.85-3.43,9-5.69l6.1-2.4A3.85,3.85,0,0,0,698,76c0-3-1.1-4.5-3.4-4.5a16.45,16.45,0,0,0-6.6,2,25,25,0,0,0-6.9,4.81Zm18.2,20.91c-.1.1-.9.7-2.3,1.7L693,89.2a6.76,6.76,0,0,0-3.3,6.3v2.1c0,2.5,1,3.8,3.1,3.8q2.85,0,4.8-3.9Z"/>
    <path class="cls-3" d="M733,112.3c-10.8,0-16.2-4.9-16.2-14.6v-2l10-1.1v2.3c0,4.5,1.7,6.7,5.1,6.7,3.1,0,4.7-1.7,4.7-5.2a5.39,5.39,0,0,0-3.3-5.1l-7.9-3.9c-5.3-2.7-8-7.1-8-13.21a16.09,16.09,0,0,1,4.1-11.4c2.7-2.9,6.9-4.4,12.6-4.4,4.9,0,8.7,1.1,11.4,3.4s4.1,5.5,4.1,9.7V76l-9.9,1v-2.3c0-3.5-1.4-5.2-4.2-5.2s-4.3,1.6-4.3,4.8c0,2.11,1.4,3.8,4.1,5.11l7.8,3.9c5.1,2.5,7.6,6.8,7.6,12.8a16.13,16.13,0,0,1-4.2,11.5c-2.8,3-7.3,4.5-13.6,4.5Z"/>
    <path class="cls-3" d="M790.36,93.1v.7c0,6.1-1.5,10.7-4.6,13.8s-7.4,4.6-12.9,4.6c-5.8,0-10.2-1.6-13.3-4.8S755,99.6,755,93.6V78.9c0-5.71,1.5-10.31,4.5-13.71s7.5-5.1,13.4-5.1c11.6,0,17.4,6,17.4,17.9V87.8h-21.5v6.9c0,4.2,1.7,6.3,5,6.3s5-2.1,5-6.3V92.2Zm-12-12.9V75.79c0-4.1-1.7-6.2-5.1-6.2s-4.9,2.1-4.9,6.31v4.3Z"/>
    <path class="cls-3" d="M810.76,112.3c-10.8,0-16.2-4.9-16.2-14.6v-2l10-1.1v2.3c0,4.5,1.7,6.7,5.1,6.7,3.1,0,4.7-1.7,4.7-5.2a5.39,5.39,0,0,0-3.3-5.1l-7.9-3.9c-5.3-2.7-8-7.1-8-13.21a16.09,16.09,0,0,1,4.1-11.4c2.7-2.9,6.9-4.4,12.6-4.4,4.9,0,8.7,1.1,11.4,3.4s4.1,5.5,4.1,9.7V76l-9.9,1v-2.3c0-3.5-1.4-5.2-4.2-5.2s-4.3,1.6-4.3,4.8c0,2.11,1.4,3.8,4.1,5.11l7.8,3.9c5.1,2.5,7.6,6.8,7.6,12.8a16.13,16.13,0,0,1-4.2,11.5c-2.8,3-7.3,4.5-13.6,4.5Z"/>
    <path class="cls-2" d="M881,57h-11.7V111.1h-14.1V57h-11.5V43.19H881Z"/>
    <path class="cls-3" d="M898.06,112.2a19.65,19.65,0,0,1-13.3-4.7q-5.4-4.65-5.4-14.4V79.59c0-6.5,1.8-11.4,5.4-14.6a19.24,19.24,0,0,1,13.3-4.8,19.49,19.49,0,0,1,13.4,4.8c3.6,3.2,5.4,8,5.4,14.5V93q0,9.75-5.4,14.4a20,20,0,0,1-13.5,4.7Zm5-18.8V78.8c0-4.31-1.7-6.51-5.1-6.51s-4.9,2.2-4.9,6.51V93.4c0,4.2,1.6,6.3,4.9,6.3S903.06,97.6,903.06,93.4Z"/>
    <path class="cls-3" d="M940.56,112.2a19.65,19.65,0,0,1-13.3-4.7q-5.4-4.65-5.4-14.4V79.59c0-6.5,1.8-11.4,5.4-14.6a19.24,19.24,0,0,1,13.3-4.8A19.49,19.49,0,0,1,954,65c3.6,3.2,5.4,8,5.4,14.5V93q0,9.75-5.4,14.4a20,20,0,0,1-13.5,4.7Zm5-18.8V78.8c0-4.31-1.7-6.51-5.1-6.51s-4.9,2.2-4.9,6.51V93.4c0,4.2,1.6,6.3,4.9,6.3S945.56,97.6,945.56,93.4Z"/>
    <path class="cls-3" d="M979.06,111.1h-7.6c-4.1,0-6.1-2.1-6.1-6.2V43.19h13.7Z"/>
    <path class="cls-2" d="M986.26,43.19H1000V81.7l11.5-20.51h12.7l-11,19.11,10.6,30.8h-14.1l-6-20.1-3.7,5.4v14.7h-13.7Z"/>
    <path class="cls-3" d="M1027.86,41.29h13.7v11.9h-13.7Zm0,19.9h13.7V111.1h-13.7Z"/>
    <path class="cls-3" d="M1073.56,110.2a22.49,22.49,0,0,1-9.9,2.1c-8.5,0-12.8-4.6-12.8-13.8v-27h-5V61.39a18.18,18.18,0,0,0,4.5-.4,8,8,0,0,0,3.3-1.9,9,9,0,0,0,2.4-4.8,46.3,46.3,0,0,0,.9-8.6h8.1v15.5h8.9v10.1h-9.3V94.2c0,3.3,1.2,4.9,3.6,4.9a10.94,10.94,0,0,0,5.4-1.7Z"/>
  </g>
</svg>
