<svg id="Layer_1" data-name="Layer 1" xmlns="http://www.w3.org/2000/svg" width="1047.61" height="118.91" viewBox="0 0 1047.61 118.91">
  <defs>
    <style>
      .cls-1 {
        fill: #477c9e;
      }

      .cls-2 {
        fill: #414142;
      }

      .cls-3 {
        fill: #e63a47;
      }
    </style>
  </defs>
  <g>
    <path class="cls-1" d="M164.82,23.69l-12,67.9h-14l12-67.9Z"/>
    <path class="cls-2" d="M183.22,41.69l-1,5.5a12.48,12.48,0,0,1,11.4-6.6c3.7,0,6.5,1.2,8.3,3.6s2.3,6,1.5,10.8l-6.5,36.7h-13.7l5.7-32.5c.9-4.1-.1-6.1-2.9-6.1a5.28,5.28,0,0,0-3.9,1.6,7.91,7.91,0,0,0-2.1,4.5l-5.8,32.4h-13.7l8.9-49.9Z"/>
    <path class="cls-2" d="M217.92,108.79H204l10-56.5h-6.2l1.8-10.2h6.2l.7-4.2c1.7-10.1,6.5-15.2,14.4-15.2a20.37,20.37,0,0,1,8.8,1.6L236.52,35a9.27,9.27,0,0,0-5.4-2,2.85,2.85,0,0,0-2.4,1.2,5.74,5.74,0,0,0-1.1,3.1q-.3,3.3-.3,4.8h10.8l-1.9,10.2h-8.4Z"/>
    <path class="cls-2" d="M270.12,73.39l-.3,1.8c-1,5.6-3.1,9.9-6.4,12.8a18,18,0,0,1-12.3,4.4c-6.1,0-10.5-1.6-13.3-4.8s-3.6-7.8-2.5-13.7l2.8-15.9a22.29,22.29,0,0,1,6.3-12.6q5-4.8,12.9-4.8c6.1,0,10.4,1.5,12.9,4.6s3.3,7.5,2.3,13.2l-1.7,9.8H250l-1.2,6.9c-.4,2.1-.3,3.7.4,4.8a3.37,3.37,0,0,0,3.1,1.6c3.1,0,5.1-2.1,5.9-6.3l.4-2.5Zm-9.8-12.9.8-4.4c.7-4.1-.5-6.2-3.6-6.2s-5,2.1-5.7,6.3l-.8,4.3Z"/>
    <path class="cls-2" d="M308.92,72.29l-.1.9c-2.3,12.9-8.7,19.3-19.1,19.3-5.7,0-9.8-1.7-12.4-5.1s-3.4-7.9-2.5-13.4l2.7-15.2c2.1-12.1,8.4-18.2,18.8-18.2,5.1,0,9.1,1.5,12.1,4.5s3.9,7.7,2.8,14.2l-.3,1.7-10.7.9.4-2.6a7.32,7.32,0,0,0-.3-4.8,3.24,3.24,0,0,0-3.1-1.7c-3.1,0-5.1,2.2-5.9,6.5l-2.6,14.6q-1.2,6.3,3.6,6.3c3.2,0,5.1-2.1,5.8-6.3l.5-2.4Z"/>
    <path class="cls-2" d="M335.52,91a24.08,24.08,0,0,1-9.3,1.8c-4.1,0-7.1-1.1-9.1-3.3s-2.6-5.7-1.8-10.5l4.8-27h-4.8l1.8-10.1a17.8,17.8,0,0,0,4.4-.4,9.36,9.36,0,0,0,3.5-1.9,12.15,12.15,0,0,0,3.2-4.8,48.63,48.63,0,0,0,2.4-8.6h8.1L336,41.69h8.6l-1.8,10.1h-9l-4,22.9c-.5,3.3.3,4.9,2.5,4.9a13.29,13.29,0,0,0,5.7-1.4Z"/>
    <path class="cls-2" d="M349.52,41.69h13.7l-8.8,49.9h-13.7Zm3.5-19.9h13.7l-2.1,11.9h-13.7Z"/>
    <path class="cls-2" d="M380.12,92.59a18.15,18.15,0,0,1-13-4.8c-3.4-3.2-4.5-8-3.4-14.5l2.6-14.5c1.1-6.1,3.5-10.7,7.3-13.7a20.69,20.69,0,0,1,13.2-4.5c5.4,0,9.8,1.6,13.1,4.8s4.4,8,3.3,14.5l-2.6,14.5c-1.1,6.1-3.5,10.7-7.2,13.7a20.31,20.31,0,0,1-13.2,4.5Zm6.8-18.7,2.6-14.6c.8-4.3-.4-6.5-3.6-6.5s-5,2.2-5.8,6.5l-2.6,14.6q-1.2,6.3,3.6,6.3C384.32,80.19,386.22,78.09,386.92,73.89Z"/>
    <path class="cls-2" d="M426.12,91.69l1-5.6a12.48,12.48,0,0,1-11.4,6.6q-5.7,0-8.4-3.6c-1.8-2.4-2.3-6-1.4-10.8l6.5-36.6h13.7l-5.8,32.5c-.7,4.1.3,6.1,3,6.1a5.38,5.38,0,0,0,3.9-1.7,7.91,7.91,0,0,0,2.1-4.5l5.7-32.4h13.8l-8.9,49.9Z"/>
    <path class="cls-2" d="M462.42,92.59c-5.3,0-9.3-1.3-11.9-3.8s-3.5-6.1-2.7-10.8l.4-2,10.1-1.1-.4,2.3c-.8,4.5.4,6.7,3.6,6.7,3.7,0,5.5-2.1,5.5-6.4a5,5,0,0,0-2.8-4.5l-5.6-3.4c-4.5-2.8-6.7-6.5-6.7-11q0-8,4.5-12.9c3-3.3,7.6-5,13.9-5,5.1,0,8.9,1.2,11.5,3.5s3.5,5.5,2.8,9.6l-.5,2.5-9.9,1,.3-2.3c.7-3.5-.3-5.2-3-5.2a4.39,4.39,0,0,0-3.8,1.6,7,7,0,0,0-1.2,4.2c0,1.7,1.1,3.3,3.4,4.7l5.6,3.3c4.3,2.7,6.5,6.3,6.5,10.8a22.9,22.9,0,0,1-.9,6.6,18.91,18.91,0,0,1-3,5.8,12.94,12.94,0,0,1-6,4.3,26.68,26.68,0,0,1-9.5,1.5Z"/>
    <path class="cls-1" d="M498.62,91.59l12-67.9h18.3c6.2,0,10.9,1.7,14.2,5.2s4.3,8.8,3,15.9l-4.7,26.7c-2.4,13.4-9.6,20.1-21.5,20.1Zm20.9-13.2c4.4,0,7.1-2.9,8.1-8.8l4.3-24.1c.9-5.7-.8-8.6-5.1-8.6h-4.4L515,78.39Z"/>
    <path class="cls-2" d="M553.42,41.69h13.7l-8.8,49.9h-13.7Zm3.5-19.9h13.7l-2.1,11.9h-13.7Z"/>
    <path class="cls-2" d="M580.82,92.59c-5.3,0-9.31-1.3-11.91-3.8s-3.5-6.1-2.7-10.8l.41-2,10.1-1.1-.4,2.3c-.8,4.5.4,6.7,3.6,6.7,3.7,0,5.5-2.1,5.5-6.4a5,5,0,0,0-2.8-4.5l-5.6-3.4c-4.5-2.8-6.7-6.5-6.7-11q0-8,4.5-12.9c3-3.3,7.6-5,13.9-5,5.1,0,8.9,1.2,11.5,3.5s3.5,5.5,2.8,9.6l-.5,2.5-9.9,1,.3-2.3c.7-3.5-.3-5.2-3-5.2a4.39,4.39,0,0,0-3.8,1.6,7,7,0,0,0-1.2,4.2c0,1.7,1.1,3.3,3.4,4.7l5.6,3.3c4.3,2.7,6.5,6.3,6.5,10.8a22.9,22.9,0,0,1-.9,6.6,18.91,18.91,0,0,1-3,5.8,12.94,12.94,0,0,1-6,4.3,26.68,26.68,0,0,1-9.5,1.5Z"/>
    <path class="cls-2" d="M639.92,73.39l-.3,1.8c-1,5.6-3.1,9.9-6.4,12.8a18,18,0,0,1-12.31,4.4c-6.1,0-10.5-1.6-13.3-4.8s-3.6-7.8-2.5-13.7l2.8-15.9a22.29,22.29,0,0,1,6.3-12.6q4.95-4.8,12.91-4.8c6.1,0,10.4,1.5,12.9,4.6s3.3,7.5,2.3,13.2l-1.7,9.8H619.81l-1.2,6.9c-.4,2.1-.3,3.7.4,4.8a3.37,3.37,0,0,0,3.1,1.6c3.1,0,5.1-2.1,5.9-6.3l.4-2.5Zm-9.8-12.9.79-4.4c.71-4.1-.5-6.2-3.59-6.2s-5,2.1-5.71,6.3l-.8,4.3Z"/>
    <path class="cls-2" d="M655.51,92.69c-4.2,0-7.3-1.5-9.2-4.6s-2.4-7.6-1.4-13.5l3.2-17.6c1.9-10.9,6.9-16.4,15-16.4a11.1,11.1,0,0,1,6.7,2,7.35,7.35,0,0,1,3.2,4.7l1-5.6h13.61l-8.8,49.9H665.21l1.1-5.5c-2.5,4.3-6.1,6.5-10.8,6.5Zm7.1-12.3a4.65,4.65,0,0,0,3.6-1.6,8.86,8.86,0,0,0,2-4.8l2.6-14.6c.7-4.3-.5-6.5-3.6-6.5s-5,2.2-5.8,6.5L658.81,74c-.8,4.2.4,6.3,3.7,6.3Z"/>
    <path class="cls-2" d="M701.21,92.59c-5.3,0-9.3-1.3-11.9-3.8s-3.5-6.1-2.7-10.8l.4-2,10.1-1.1-.4,2.3c-.8,4.5.4,6.7,3.6,6.7,3.7,0,5.5-2.1,5.5-6.4A5,5,0,0,0,703,73l-5.6-3.4c-4.5-2.8-6.7-6.5-6.7-11q0-8,4.5-12.9c3-3.3,7.6-5,13.9-5,5.1,0,8.9,1.2,11.5,3.5s3.5,5.5,2.8,9.6l-.5,2.5-9.9,1,.3-2.3c.7-3.5-.3-5.2-3-5.2a4.39,4.39,0,0,0-3.8,1.6,7,7,0,0,0-1.2,4.2c0,1.7,1.1,3.3,3.4,4.7l5.6,3.3c4.3,2.7,6.5,6.3,6.5,10.8a22.9,22.9,0,0,1-.9,6.6,18.91,18.91,0,0,1-3,5.8,12.94,12.94,0,0,1-6,4.3,26.68,26.68,0,0,1-9.5,1.5Z"/>
    <path class="cls-2" d="M760.31,73.39l-.3,1.8c-1,5.6-3.1,9.9-6.4,12.8a18,18,0,0,1-12.3,4.4c-6.1,0-10.5-1.6-13.3-4.8s-3.6-7.8-2.5-13.7l2.8-15.9a22.29,22.29,0,0,1,6.3-12.6q4.95-4.8,12.9-4.8c6.1,0,10.4,1.5,12.9,4.6s3.3,7.5,2.3,13.2l-1.7,9.8h-20.8l-1.2,6.9c-.4,2.1-.3,3.7.4,4.8a3.37,3.37,0,0,0,3.1,1.6c3.1,0,5.1-2.1,5.9-6.3l.4-2.5Zm-9.8-12.9.8-4.4c.7-4.1-.5-6.2-3.6-6.2s-5,2.1-5.7,6.3l-.8,4.3Z"/>
    <path class="cls-2" d="M778.21,92.59c-5.3,0-9.3-1.3-11.9-3.8s-3.5-6.1-2.7-10.8l.4-2,10.1-1.1-.4,2.3c-.8,4.5.4,6.7,3.6,6.7,3.7,0,5.5-2.1,5.5-6.4A5,5,0,0,0,780,73l-5.6-3.4c-4.5-2.8-6.7-6.5-6.7-11q0-8,4.5-12.9c3-3.3,7.6-5,13.9-5,5.1,0,8.9,1.2,11.5,3.5s3.5,5.5,2.8,9.6l-.5,2.5-9.9,1,.3-2.3c.7-3.5-.3-5.2-3-5.2a4.39,4.39,0,0,0-3.8,1.6,7,7,0,0,0-1.2,4.2c0,1.7,1.1,3.3,3.4,4.7l5.6,3.3c4.3,2.7,6.5,6.3,6.5,10.8a22.9,22.9,0,0,1-.9,6.6,18.91,18.91,0,0,1-3,5.8,12.94,12.94,0,0,1-6,4.3,26.68,26.68,0,0,1-9.5,1.5Z"/>
    <path class="cls-1" d="M856.11,37.49h-11.3l-9.5,54.1h-14.1l9.6-54.1h-11.2l2.5-13.8h36.5Z"/>
    <path class="cls-2" d="M865.11,92.59a18.15,18.15,0,0,1-13-4.8c-3.4-3.2-4.5-8-3.4-14.5l2.6-14.5c1.1-6.1,3.5-10.7,7.3-13.7a20.69,20.69,0,0,1,13.2-4.5c5.4,0,9.8,1.6,13.1,4.8s4.4,8,3.3,14.5l-2.6,14.5c-1.1,6.1-3.5,10.7-7.2,13.7a20.31,20.31,0,0,1-13.2,4.5Zm6.8-18.7,2.6-14.6c.8-4.3-.4-6.5-3.6-6.5s-5,2.2-5.8,6.5l-2.6,14.6q-1.2,6.3,3.6,6.3C869.31,80.19,871.21,78.09,871.91,73.89Z"/>
    <path class="cls-2" d="M907.11,92.59a18.15,18.15,0,0,1-13-4.8c-3.4-3.2-4.5-8-3.4-14.5l2.6-14.5c1.1-6.1,3.5-10.7,7.3-13.7a20.69,20.69,0,0,1,13.2-4.5c5.4,0,9.8,1.6,13.1,4.8s4.4,8,3.3,14.5l-2.6,14.5c-1.1,6.1-3.5,10.7-7.2,13.7a20.31,20.31,0,0,1-13.2,4.5Zm6.8-18.7,2.6-14.6c.8-4.3-.4-6.5-3.6-6.5s-5,2.2-5.8,6.5l-2.6,14.6q-1.2,6.3,3.6,6.3C911.31,80.19,913.21,78.09,913.91,73.89Z"/>
    <path class="cls-2" d="M944.51,91.59h-7.7c-4.1,0-5.7-2.1-4.9-6.2l10.8-61.7h13.8Z"/>
    <path class="cls-2" d="M963.91,23.69h13.7L971,61.29l13.7-19.6h13.2L984,60.79l4.8,30.8h-13.6l-2.4-20.5-4.6,5.8-2.6,14.7h-13.7Z"/>
    <path class="cls-2" d="M1001.91,41.69h13.7l-8.8,49.9h-13.7Zm3.5-19.9h13.7l-2.1,11.9h-13.7Z"/>
    <path class="cls-2" d="M1038.51,91a24.08,24.08,0,0,1-9.3,1.8c-4.1,0-7.1-1.1-9.1-3.3s-2.6-5.7-1.8-10.5l4.8-27h-4.8l1.8-10.1a17.8,17.8,0,0,0,4.4-.4,9.36,9.36,0,0,0,3.5-1.9,12.15,12.15,0,0,0,3.2-4.8,48.63,48.63,0,0,0,2.4-8.6h8.1l-2.7,15.5h8.6l-1.8,10.1h-9l-4,22.9c-.5,3.3.3,4.9,2.5,4.9a13.29,13.29,0,0,0,5.7-1.4Z"/>
  </g>
  <g>
    <path class="cls-1" d="M22.08,79.41a1.59,1.59,0,0,1,.34.39,1.06,1.06,0,0,0-.22-.29Z"/>
    <path class="cls-1" d="M12.35,40a1.71,1.71,0,0,1-.24-.51L9.05,27.88l3.06,11.59A1.71,1.71,0,0,0,12.35,40Z"/>
    <path class="cls-1" d="M12.92,40.48a1.88,1.88,0,0,0,.42.14,1.5,1.5,0,0,1-.42-.15l-.08,0Z"/>
    <path class="cls-1" d="M12.82,40.43a1.57,1.57,0,0,1-.38-.35l.08.12A2.17,2.17,0,0,0,12.82,40.43Z"/>
    <polygon class="cls-1" points="22.14 37.01 19.18 25.78 17.44 19.18 19.18 25.78 22.14 37.01"/>
    <path class="cls-1" d="M21.44,79.08a1.45,1.45,0,0,1,.47.22l.05,0,0,0A1.59,1.59,0,0,0,21.44,79.08Z"/>
    <path class="cls-1" d="M97.41,38.55l.11.09-.1-.12a1,1,0,0,1-.24-.27,1.06,1.06,0,0,0,.22.29Z"/>
    <path class="cls-1" d="M106.3,78.27a1.54,1.54,0,0,1,.38.34,1,1,0,0,1-.08-.11A1.33,1.33,0,0,0,106.3,78.27Z"/>
    <path class="cls-1" d="M106.15,78.21a1.21,1.21,0,0,1,.14.05l-.14-.06a1.23,1.23,0,0,0-.37-.12A1.26,1.26,0,0,1,106.15,78.21Z"/>
    <path class="cls-1" d="M80.36,21.51a1.66,1.66,0,0,0,.3.22,1.61,1.61,0,0,1-.28-.24,1,1,0,0,0-.11-.1l.08.1Z"/>
    <path class="cls-1" d="M40.19,12.14a1.78,1.78,0,0,0-.5-.24L28.13,8.85h0L39.69,11.9A1.78,1.78,0,0,1,40.19,12.14Z"/>
    <path class="cls-1" d="M40.3,12.23a1.75,1.75,0,0,1,.34.38,1.7,1.7,0,0,0-.23-.3Z"/>
    <path class="cls-1" d="M37.22,21.93a1.74,1.74,0,0,0,.64,0,1.74,1.74,0,0,1-.64,0L26,19l-6.57-1.73L26,19Z"/>
    <path class="cls-1" d="M40.7,12.75s0-.09-.05-.12,0,.08.05.12a1.55,1.55,0,0,1,.13.38A1.22,1.22,0,0,0,40.7,12.75Z"/>
    <path class="cls-1" d="M78.29,13.81l1.65,6.94-1.65-6.94a1.45,1.45,0,0,1,0-.62A1.45,1.45,0,0,0,78.29,13.81Z"/>
    <path class="cls-1" d="M38.94,96.32a1.59,1.59,0,0,1,.39.34l-.09-.12A1.29,1.29,0,0,0,38.94,96.32Z"/>
    <path class="cls-1" d="M78.83,106.47a1.57,1.57,0,0,1-.35-.38,2.17,2.17,0,0,0,.23.3Z"/>
    <path class="cls-1" d="M78.42,110.67a5.63,5.63,0,0,1-3.76-3.31,5.55,5.55,0,0,1-.26-3.4l1.28-5.36L76.05,97a5.6,5.6,0,0,1,6.87-4.12l9,2.38,4.82,1.27-1.26-4.78-2.39-9.06a5.6,5.6,0,0,1,4.11-6.87l1.5-.36,5.44-1.29a5.55,5.55,0,0,1,3.33.23,5.54,5.54,0,0,1,3.38,3.78l2,7.51a59.32,59.32,0,0,0,0-52.63l-2,7.41a5.54,5.54,0,0,1-3.42,3.81,5.64,5.64,0,0,1-3.29.21l-5.5-1.31-1.44-.34A5.6,5.6,0,0,1,93.12,36l2.38-9,1.27-4.82L92,23.41l-9,2.38a5.61,5.61,0,0,1-6.87-4.12l-.34-1.45L74.4,14.74a5.7,5.7,0,0,1,.21-3.31A5.56,5.56,0,0,1,78.42,8l7.4-1.95a60.06,60.06,0,0,0-52.61,0L40.7,8a5.52,5.52,0,0,1,2.53,1.46,5.41,5.41,0,0,1,1.25,1.91,5.5,5.5,0,0,1,.24,3.34l-1.29,5.42-.36,1.52a5.6,5.6,0,0,1-6.87,4.11l-9.05-2.38-4.8-1.27L23.63,27,26,36a5.6,5.6,0,0,1-4.11,6.87l-1.58.38L15,44.51a5.59,5.59,0,0,1-3.39-.25A5.47,5.47,0,0,1,9.7,43a5.66,5.66,0,0,1-1.46-2.53l-2-7.57a59.32,59.32,0,0,0,.17,53.36l2.3-8.72a5.6,5.6,0,0,1,6.71-4l4.47,1.07,2.47.58a5.6,5.6,0,0,1,4.11,6.87L24,91.67l-1.12,4.24,4.48-1.18,9.37-2.47a5.6,5.6,0,0,1,5.38,1.45,5.69,5.69,0,0,1,1.49,2.66L44.16,99l1,4.36a5.58,5.58,0,0,1-4,6.71l-8.82,2.33a59.39,59.39,0,0,0,53.64.32Zm-30-20A32.86,32.86,0,0,1,44,88.81l-3.19-1.67-12.4,3.33,3.32-12.41-1.68-3.19a32.9,32.9,0,0,1-2.83-7.49l-10.12-5.9-5.86-3.41,6.1-3.56,10.87-6.33a33.54,33.54,0,0,1,1.86-4.25l1.68-3.19L28.45,28.26,41,31.61,44.13,30A33.75,33.75,0,0,1,49,27.88l6.22-10.67L59.6,9.75,64,17.23,70.21,28a33.53,33.53,0,0,1,4.68,2l3.18,1.67,12.59-3.37L87.28,40.85,88.94,44a32.84,32.84,0,0,1,2.11,5l10.64,6.2,7.63,4.45-7.68,4.47L90.79,70.52A32.64,32.64,0,0,1,89,74.77L87.3,78l3.35,12.52L78.17,87.12,75,88.8A32.13,32.13,0,0,1,69.84,91l-6.2,10.64-4.45,7.64-4.48-7.7Z"/>
    <path class="cls-1" d="M40.52,106a1.55,1.55,0,0,0,.61-.55,1.55,1.55,0,0,1-.61.55,1.33,1.33,0,0,1-.36.17l-12.74,3.36,12.74-3.36A1.33,1.33,0,0,0,40.52,106Z"/>
    <path class="cls-1" d="M78.44,106l0,.07s0,0,0-.07a1.69,1.69,0,0,1-.15-.43A1.57,1.57,0,0,0,78.44,106Z"/>
    <path class="cls-1" d="M39.55,97a1.71,1.71,0,0,0-.13-.23c0,.07.07.16.11.24a1.82,1.82,0,0,1,.13.28A2.49,2.49,0,0,0,39.55,97Z"/>
  </g>
  <path class="cls-3" d="M107,39.47,110,28l6.16-23.34a1.61,1.61,0,0,0-2-1.95L90.9,8.87l-11.46,3a1.57,1.57,0,0,0-1,.91,1.3,1.3,0,0,0-.14.39,1.45,1.45,0,0,0,0,.62l1.65,6.94a1.9,1.9,0,0,0,.24.52l.09.12a1,1,0,0,1,.11.1,1.61,1.61,0,0,0,.28.24l0,0a1.79,1.79,0,0,0,.52.19l.13,0a1.57,1.57,0,0,0,.57,0h0l11.25-3,6.58-1.74a1.6,1.6,0,0,1,1.54.42,1.57,1.57,0,0,1,.41,1.54l-1.74,6.59L97,37h0a1.63,1.63,0,0,0,0,.58s0,.09,0,.13a1.63,1.63,0,0,0,.19.52s0,0,0,0a1,1,0,0,0,.24.27l.1.12.12.08a1.48,1.48,0,0,0,.52.25l6.94,1.65A1.66,1.66,0,0,0,107,39.47Z"/>
  <path class="cls-3" d="M22,38.24A1.59,1.59,0,0,0,22.14,37l-3-11.23-1.74-6.6a1.72,1.72,0,0,1-.06-.44A1.61,1.61,0,0,1,19,17.17a1.67,1.67,0,0,1,.44.06L26,19l11.26,3a1.59,1.59,0,0,0,1.23-.18,1.75,1.75,0,0,0,.29-.26s.12-.09.17-.15a1.68,1.68,0,0,0,.27-.59l1.65-6.94a1.28,1.28,0,0,0,0-.55.51.51,0,0,0,0-.13,1.55,1.55,0,0,0-.13-.38s0-.09-.05-.12v0a1.75,1.75,0,0,0-.34-.38l-.11-.09a1.78,1.78,0,0,0-.5-.24L28.13,8.85,4.89,2.72a1.6,1.6,0,0,0-1.95,2l6.11,23.2,3.06,11.59a1.71,1.71,0,0,0,.24.51l.09.1a1.57,1.57,0,0,0,.38.35h0l.08,0a1.5,1.5,0,0,0,.42.15l.13,0a1.46,1.46,0,0,0,.55,0L21,39a1.68,1.68,0,0,0,.59-.27c.05,0,.08-.1.13-.15A1.64,1.64,0,0,0,22,38.24Z"/>
  <path class="cls-3" d="M116,115.24a1.5,1.5,0,0,0,.22-.78,1.7,1.7,0,0,0,0-.44l-6.13-23.24-3-11.56a1.78,1.78,0,0,0-.24-.5l-.09-.11a1.54,1.54,0,0,0-.38-.34h0a1.21,1.21,0,0,0-.14-.05,1.26,1.26,0,0,0-.37-.13l-.13,0a1.28,1.28,0,0,0-.55,0l-6.94,1.65a1.49,1.49,0,0,0-.74.45,1.56,1.56,0,0,0-.47.87,1.74,1.74,0,0,0,0,.64L100,93l1.73,6.56a1.63,1.63,0,0,1,0,.85,1.67,1.67,0,0,1-.41.69,1.55,1.55,0,0,1-.69.4,1.53,1.53,0,0,1-.85,0l-6.59-1.74-11.24-3a1.59,1.59,0,0,0-1.23.18,1.64,1.64,0,0,0-.31.28,1.58,1.58,0,0,0-.42.72l-1.65,6.93a1.52,1.52,0,0,0,0,.56.51.51,0,0,0,0,.13,1.69,1.69,0,0,0,.15.43s0,0,0,.07v0a1.57,1.57,0,0,0,.35.38l.11.09a1.65,1.65,0,0,0,.5.24l11.61,3.06L114.23,116a1.72,1.72,0,0,0,.44.06,1.69,1.69,0,0,0,.78-.22A1.64,1.64,0,0,0,116,115.24Z"/>
  <path class="cls-3" d="M41.13,105.43a1.63,1.63,0,0,0,.18-1.19L39.66,97.3a1.82,1.82,0,0,0-.13-.28c0-.08-.07-.17-.11-.24l-.09-.12a1.59,1.59,0,0,0-.39-.34s0,0,0,0a1.55,1.55,0,0,0-.52-.19l-.13,0a1.57,1.57,0,0,0-.57,0L26.12,99.18l-6.25,1.65a1.63,1.63,0,0,1-1.22-.17,2,2,0,0,1-.32-.25,1.67,1.67,0,0,1-.41-.69,1.63,1.63,0,0,1,0-.85l1.58-6L22.62,81a1.57,1.57,0,0,0,0-.57s0-.09,0-.13a1.63,1.63,0,0,0-.19-.52l0,0a1.59,1.59,0,0,0-.34-.39L22,79.33l-.05,0a1.45,1.45,0,0,0-.47-.22L14.5,77.43a1.6,1.6,0,0,0-1.69.68,1.45,1.45,0,0,0-.22.47L9.24,91.26,3.41,113.38a1.61,1.61,0,0,0,2,2l22.05-5.82,12.74-3.36a1.33,1.33,0,0,0,.36-.17A1.55,1.55,0,0,0,41.13,105.43Z"/>
  <path class="cls-3" d="M77,52.91A11.22,11.22,0,0,0,65.83,41.7H53.38a11.22,11.22,0,0,0-11.2,11.21V65.36a11.2,11.2,0,0,0,11.2,11.2H65.83A11.22,11.22,0,0,0,77,65.36ZM65.83,67H53.38a1.64,1.64,0,0,1-1.14-.47,1.62,1.62,0,0,1-.47-1.14V52.91a1.61,1.61,0,0,1,1.61-1.61H65.83a1.6,1.6,0,0,1,1.61,1.61V65.36A1.61,1.61,0,0,1,65.83,67Z"/>
</svg>
