<svg id="Layer_1" data-name="Layer 1" xmlns="http://www.w3.org/2000/svg" width="1087.09" height="121.19" viewBox="0 0 1087.09 121.19">
  <defs>
    <style>
      .cls-1 {
        fill: #477c9e;
      }

      .cls-2 {
        fill: #414142;
      }

      .cls-3 {
        fill: #e63a47;
      }
    </style>
  </defs>
  <g>
    <path class="cls-1" d="M149.68,24.94l-12,67.9h-14l12-67.9Z"/>
    <path class="cls-2" d="M168.08,42.94l-1,5.5a12.48,12.48,0,0,1,11.4-6.6c3.7,0,6.5,1.2,8.3,3.6s2.3,6,1.5,10.8l-6.5,36.7h-13.7l5.7-32.5c.9-4.1-.1-6.1-2.9-6.1a5.28,5.28,0,0,0-3.9,1.6,7.91,7.91,0,0,0-2.1,4.5l-5.8,32.4h-13.7l8.9-49.9Z"/>
    <path class="cls-2" d="M202.78,110h-13.9l10-56.5h-6.2l1.8-10.2h6.2l.7-4.2c1.7-10.1,6.5-15.2,14.4-15.2a20.37,20.37,0,0,1,8.8,1.6l-3.2,10.7a9.27,9.27,0,0,0-5.4-2,2.85,2.85,0,0,0-2.4,1.2,5.74,5.74,0,0,0-1.1,3.1q-.3,3.3-.3,4.8H223l-1.9,10.2h-8.4Z"/>
    <path class="cls-2" d="M255,74.64l-.3,1.8c-1,5.6-3.1,9.9-6.4,12.8a18,18,0,0,1-12.3,4.4c-6.1,0-10.5-1.6-13.3-4.8s-3.6-7.8-2.5-13.7l2.8-15.9a22.29,22.29,0,0,1,6.3-12.6q5-4.8,12.9-4.8c6.1,0,10.4,1.5,12.9,4.6s3.3,7.5,2.3,13.2l-1.7,9.8h-20.8l-1.2,6.9c-.4,2.1-.3,3.7.4,4.8a3.37,3.37,0,0,0,3.1,1.6c3.1,0,5.1-2.1,5.9-6.3l.4-2.5Zm-9.8-12.9.8-4.4c.7-4.1-.5-6.2-3.6-6.2s-5,2.1-5.7,6.3l-.8,4.3Z"/>
    <path class="cls-2" d="M293.78,73.54l-.1.9c-2.3,12.9-8.7,19.3-19.1,19.3-5.7,0-9.8-1.7-12.4-5.1s-3.4-7.9-2.5-13.4l2.7-15.2c2.1-12.1,8.4-18.2,18.8-18.2,5.1,0,9.1,1.5,12.1,4.5s3.9,7.7,2.8,14.2l-.3,1.7-10.7.9.4-2.6a7.32,7.32,0,0,0-.3-4.8,3.24,3.24,0,0,0-3.1-1.7c-3.1,0-5.1,2.2-5.9,6.5l-2.6,14.6q-1.2,6.3,3.6,6.3c3.2,0,5.1-2.1,5.8-6.3l.5-2.4Z"/>
    <path class="cls-2" d="M320.38,92.24a24.08,24.08,0,0,1-9.3,1.8c-4.1,0-7.1-1.1-9.1-3.3s-2.6-5.7-1.8-10.5l4.8-27h-4.8l1.8-10.1a17.8,17.8,0,0,0,4.4-.4,9.36,9.36,0,0,0,3.5-1.9,12.15,12.15,0,0,0,3.2-4.8,48.63,48.63,0,0,0,2.4-8.6h8.1l-2.7,15.5h8.6L327.68,53h-9l-4,22.9c-.5,3.3.3,4.9,2.5,4.9a13.29,13.29,0,0,0,5.7-1.4Z"/>
    <path class="cls-2" d="M334.38,42.94h13.7l-8.8,49.9h-13.7Zm3.5-19.9h13.7l-2.1,11.9h-13.7Z"/>
    <path class="cls-2" d="M365,93.84A18.15,18.15,0,0,1,352,89c-3.4-3.2-4.5-8-3.4-14.5l2.6-14.5c1.1-6.1,3.5-10.7,7.3-13.7a20.69,20.69,0,0,1,13.2-4.5c5.4,0,9.8,1.6,13.1,4.8s4.4,8,3.3,14.5l-2.6,14.5c-1.1,6.1-3.5,10.7-7.2,13.7a20.31,20.31,0,0,1-13.2,4.5Zm6.8-18.7,2.6-14.6c.8-4.3-.4-6.5-3.6-6.5s-5,2.2-5.8,6.5l-2.6,14.6q-1.2,6.3,3.6,6.3C369.18,81.44,371.08,79.34,371.78,75.14Z"/>
    <path class="cls-2" d="M411,92.94l1-5.6a12.48,12.48,0,0,1-11.4,6.6q-5.7,0-8.4-3.6c-1.8-2.4-2.3-6-1.4-10.8l6.5-36.6H411l-5.8,32.5c-.7,4.1.3,6.1,3,6.1a5.38,5.38,0,0,0,3.9-1.7,7.91,7.91,0,0,0,2.1-4.5l5.7-32.4h13.8l-8.9,49.9Z"/>
    <path class="cls-2" d="M447.28,93.84c-5.3,0-9.3-1.3-11.9-3.8s-3.5-6.1-2.7-10.8l.4-2,10.1-1.1-.4,2.3c-.8,4.5.4,6.7,3.6,6.7,3.7,0,5.5-2.1,5.5-6.4a5,5,0,0,0-2.8-4.5l-5.6-3.4c-4.5-2.8-6.7-6.5-6.7-11q0-8,4.5-12.9c3-3.3,7.6-5,13.9-5,5.1,0,8.9,1.2,11.5,3.5s3.5,5.5,2.8,9.6l-.5,2.5-9.9,1,.3-2.3c.7-3.5-.3-5.2-3-5.2a4.39,4.39,0,0,0-3.8,1.6,7,7,0,0,0-1.2,4.2c0,1.7,1.1,3.3,3.4,4.7l5.6,3.3c4.3,2.7,6.5,6.3,6.5,10.8a22.9,22.9,0,0,1-.9,6.6,18.91,18.91,0,0,1-3,5.8,12.94,12.94,0,0,1-6,4.3,26.68,26.68,0,0,1-9.5,1.5Z"/>
    <path class="cls-1" d="M483.47,92.84l12-67.9h18.31c6.2,0,10.9,1.7,14.2,5.2s4.3,8.8,3,15.9l-4.7,26.7c-2.4,13.4-9.6,20.1-21.51,20.1Zm20.9-13.2c4.4,0,7.1-2.9,8.1-8.8l4.31-24.1c.9-5.7-.8-8.6-5.1-8.6h-4.41l-7.4,41.5Z"/>
    <path class="cls-2" d="M538.27,42.94H552l-8.8,49.9h-13.7Zm3.5-19.9h13.7l-2.1,11.9h-13.7Z"/>
    <path class="cls-2" d="M565.67,93.84c-5.3,0-9.3-1.3-11.9-3.8s-3.5-6.1-2.7-10.8l.4-2,10.1-1.1-.4,2.3c-.8,4.5.4,6.7,3.6,6.7,3.7,0,5.5-2.1,5.5-6.4a5,5,0,0,0-2.8-4.5l-5.6-3.4c-4.5-2.8-6.7-6.5-6.7-11q0-8,4.5-12.9c3-3.3,7.6-5,13.9-5,5.1,0,8.9,1.2,11.5,3.5s3.5,5.5,2.8,9.6l-.5,2.5-9.9,1,.3-2.3c.7-3.5-.3-5.2-3-5.2a4.39,4.39,0,0,0-3.8,1.6,7,7,0,0,0-1.2,4.2c0,1.7,1.1,3.3,3.4,4.7l5.6,3.3c4.3,2.7,6.5,6.3,6.5,10.8a22.9,22.9,0,0,1-.9,6.6,18.91,18.91,0,0,1-3,5.8,12.94,12.94,0,0,1-6,4.3,26.68,26.68,0,0,1-9.5,1.5Z"/>
    <path class="cls-2" d="M624.77,74.64l-.3,1.8c-1,5.6-3.1,9.9-6.4,12.8a18,18,0,0,1-12.3,4.4c-6.1,0-10.5-1.6-13.3-4.8s-3.6-7.8-2.5-13.7l2.8-15.9a22.29,22.29,0,0,1,6.3-12.6q4.95-4.8,12.9-4.8c6.1,0,10.4,1.5,12.9,4.6s3.3,7.5,2.3,13.2l-1.7,9.8h-20.8l-1.2,6.9c-.4,2.1-.3,3.7.4,4.8a3.37,3.37,0,0,0,3.1,1.6c3.1,0,5.1-2.1,5.9-6.3l.4-2.5ZM615,61.74l.8-4.4c.7-4.1-.5-6.2-3.6-6.2s-5,2.1-5.7,6.3l-.8,4.3Z"/>
    <path class="cls-2" d="M640.37,93.94c-4.2,0-7.3-1.5-9.2-4.6s-2.4-7.6-1.4-13.5l3.2-17.6c1.9-10.9,6.9-16.4,15-16.4a11.1,11.1,0,0,1,6.7,2,7.35,7.35,0,0,1,3.2,4.7l1-5.6h13.6l-8.8,49.9h-13.6l1.1-5.5c-2.5,4.3-6.1,6.5-10.8,6.5Zm7.1-12.3a4.65,4.65,0,0,0,3.6-1.6,8.86,8.86,0,0,0,2-4.8l2.6-14.6c.7-4.3-.5-6.5-3.6-6.5s-5,2.2-5.8,6.5l-2.6,14.6c-.8,4.2.4,6.3,3.7,6.3Z"/>
    <path class="cls-2" d="M686.07,93.84c-5.3,0-9.3-1.3-11.9-3.8s-3.5-6.1-2.7-10.8l.4-2,10.1-1.1-.4,2.3c-.8,4.5.4,6.7,3.6,6.7,3.7,0,5.5-2.1,5.5-6.4a5,5,0,0,0-2.8-4.5l-5.6-3.4c-4.5-2.8-6.7-6.5-6.7-11q0-8,4.5-12.9c3-3.3,7.6-5,13.9-5,5.1,0,8.9,1.2,11.5,3.5s3.5,5.5,2.8,9.6l-.5,2.5-9.9,1,.3-2.3c.7-3.5-.3-5.2-3-5.2a4.39,4.39,0,0,0-3.8,1.6,7,7,0,0,0-1.2,4.2c0,1.7,1.1,3.3,3.4,4.7l5.6,3.3c4.3,2.7,6.5,6.3,6.5,10.8a22.9,22.9,0,0,1-.9,6.6,18.91,18.91,0,0,1-3,5.8,12.94,12.94,0,0,1-6,4.3,26.68,26.68,0,0,1-9.5,1.5Z"/>
    <path class="cls-2" d="M745.17,74.64l-.3,1.8c-1,5.6-3.1,9.9-6.4,12.8a18,18,0,0,1-12.3,4.4c-6.1,0-10.5-1.6-13.3-4.8s-3.6-7.8-2.5-13.7l2.8-15.9a22.29,22.29,0,0,1,6.3-12.6q4.95-4.8,12.9-4.8c6.1,0,10.4,1.5,12.9,4.6s3.3,7.5,2.3,13.2l-1.7,9.8h-20.8l-1.2,6.9c-.4,2.1-.3,3.7.4,4.8a3.37,3.37,0,0,0,3.1,1.6c3.1,0,5.1-2.1,5.9-6.3l.4-2.5Zm-9.8-12.9.8-4.4c.7-4.1-.5-6.2-3.6-6.2s-5,2.1-5.7,6.3l-.8,4.3Z"/>
    <path class="cls-2" d="M763.07,93.84c-5.3,0-9.3-1.3-11.9-3.8s-3.5-6.1-2.7-10.8l.4-2,10.1-1.1-.4,2.3c-.8,4.5.4,6.7,3.6,6.7,3.7,0,5.5-2.1,5.5-6.4a5,5,0,0,0-2.8-4.5l-5.6-3.4c-4.5-2.8-6.7-6.5-6.7-11q0-8,4.5-12.9c3-3.3,7.6-5,13.9-5,5.1,0,8.9,1.2,11.5,3.5s3.5,5.5,2.8,9.6l-.5,2.5-9.9,1,.3-2.3c.7-3.5-.3-5.2-3-5.2a4.39,4.39,0,0,0-3.8,1.6,7,7,0,0,0-1.2,4.2c0,1.7,1.1,3.3,3.4,4.7l5.6,3.3c4.3,2.7,6.5,6.3,6.5,10.8a22.9,22.9,0,0,1-.9,6.6,18.91,18.91,0,0,1-3,5.8,12.94,12.94,0,0,1-6,4.3,26.68,26.68,0,0,1-9.5,1.5Z"/>
    <path class="cls-1" d="M841,38.74h-11.3l-9.5,54.1h-14.1l9.6-54.1h-11.2l2.5-13.8h36.5Z"/>
    <path class="cls-2" d="M850,93.84A18.15,18.15,0,0,1,837,89c-3.4-3.2-4.5-8-3.4-14.5l2.6-14.5c1.1-6.1,3.5-10.7,7.3-13.7a20.69,20.69,0,0,1,13.2-4.5c5.4,0,9.8,1.6,13.1,4.8s4.4,8,3.3,14.5l-2.6,14.5c-1.1,6.1-3.5,10.7-7.2,13.7a20.31,20.31,0,0,1-13.2,4.5Zm6.8-18.7,2.6-14.6c.8-4.3-.4-6.5-3.6-6.5s-5,2.2-5.8,6.5l-2.6,14.6q-1.2,6.3,3.6,6.3C854.17,81.44,856.07,79.34,856.77,75.14Z"/>
    <path class="cls-2" d="M892,93.84A18.15,18.15,0,0,1,879,89c-3.4-3.2-4.5-8-3.4-14.5l2.6-14.5c1.1-6.1,3.5-10.7,7.3-13.7a20.69,20.69,0,0,1,13.2-4.5c5.4,0,9.8,1.6,13.1,4.8s4.4,8,3.3,14.5l-2.6,14.5c-1.1,6.1-3.5,10.7-7.2,13.7a20.31,20.31,0,0,1-13.2,4.5Zm6.8-18.7,2.6-14.6c.8-4.3-.4-6.5-3.6-6.5s-5,2.2-5.8,6.5l-2.6,14.6q-1.2,6.3,3.6,6.3C896.17,81.44,898.07,79.34,898.77,75.14Z"/>
    <path class="cls-2" d="M929.37,92.84h-7.7c-4.1,0-5.7-2.1-4.9-6.2l10.8-61.7h13.8Z"/>
    <path class="cls-2" d="M948.77,24.94h13.7l-6.6,37.6,13.7-19.6h13.2L968.87,62l4.8,30.8h-13.6l-2.4-20.5-4.6,5.8-2.6,14.7h-13.7Z"/>
    <path class="cls-2" d="M986.77,42.94h13.7l-8.8,49.9H978Zm3.5-19.9H1004l-2.1,11.9H988.16Z"/>
    <path class="cls-2" d="M1023.37,92.24a24.13,24.13,0,0,1-9.31,1.8c-4.1,0-7.1-1.1-9.1-3.3s-2.6-5.7-1.8-10.5l4.8-27h-4.8l1.8-10.1a17.8,17.8,0,0,0,4.4-.4,9.36,9.36,0,0,0,3.5-1.9,12.15,12.15,0,0,0,3.2-4.8,47.7,47.7,0,0,0,2.41-8.6h8.1l-2.7,15.5h8.6l-1.8,10.1h-9l-4,22.9c-.5,3.3.31,4.9,2.51,4.9a13.33,13.33,0,0,0,5.7-1.4Z"/>
  </g>
  <g>
    <path class="cls-1" d="M53.71,90.81a1.62,1.62,0,0,1,.38,0,1.24,1.24,0,0,0-.27,0Z"/>
    <path class="cls-1" d="M28.57,75.62a1.07,1.07,0,0,1-.38-.13L20.7,71.12l7.49,4.37A1.07,1.07,0,0,0,28.57,75.62Z"/>
    <path class="cls-1" d="M29.12,75.59a1.47,1.47,0,0,0,.28-.14,1,1,0,0,1-.29.13l-.05,0Z"/>
    <path class="cls-1" d="M29,75.61a1.14,1.14,0,0,1-.37,0l.1,0A1.26,1.26,0,0,0,29,75.61Z"/>
    <polygon class="cls-1" points="32.06 69.1 24.8 64.87 20.54 62.38 24.8 64.87 32.06 69.1"/>
    <path class="cls-1" d="M53.22,91a1.14,1.14,0,0,1,.35-.13h0A1.17,1.17,0,0,0,53.22,91Z"/>
    <path class="cls-1" d="M71.34,31.39h0a1.11,1.11,0,0,1-.26,0,1.09,1.09,0,0,0,.26,0Z"/>
    <path class="cls-1" d="M96.2,47.16a1.15,1.15,0,0,1,.37,0l-.1,0A1.26,1.26,0,0,0,96.2,47.16Z"/>
    <path class="cls-1" d="M96.09,47.21l.1-.05-.1,0a1.15,1.15,0,0,0-.25.12A1.12,1.12,0,0,1,96.09,47.21Z"/>
    <path class="cls-1" d="M53.91,31.39a1.09,1.09,0,0,0,.26,0,1.11,1.11,0,0,1-.26,0h0Z"/>
    <path class="cls-1" d="M28.57,47.15a1.07,1.07,0,0,0-.38.13l-7.47,4.36h0l7.47-4.36A1.07,1.07,0,0,1,28.57,47.15Z"/>
    <path class="cls-1" d="M28.67,47.14a1.14,1.14,0,0,1,.37,0l-.27,0Z"/>
    <path class="cls-1" d="M32.06,53.67a1,1,0,0,0,.34-.31,1.13,1.13,0,0,1-.34.31l-7.28,4.24-4.24,2.48,4.24-2.48Z"/>
    <path class="cls-1" d="M29.15,47.2l-.09,0,.08,0a1.23,1.23,0,0,1,.26.12A1.15,1.15,0,0,0,29.15,47.2Z"/>
    <path class="cls-1" d="M48.91,28.52l4.39,2.7-4.39-2.7a1.22,1.22,0,0,1-.33-.31A1.22,1.22,0,0,0,48.91,28.52Z"/>
    <path class="cls-1" d="M71,90.83a1.59,1.59,0,0,1,.38,0h-.11A1.24,1.24,0,0,0,71,90.83Z"/>
    <path class="cls-1" d="M96.57,75.63a1.15,1.15,0,0,1-.37,0,1.24,1.24,0,0,0,.27,0Z"/>
    <path class="cls-1" d="M98.51,78a4.05,4.05,0,0,1-2,.55,4.15,4.15,0,0,1-1.57-.32A4.08,4.08,0,0,1,93,76.61l-2.08-3.39-.62-1a4.09,4.09,0,0,1-.48-3.11,4,4,0,0,1,1.89-2.51l5.83-3.4,3.12-1.82-3.1-1.8-5.85-3.41a4,4,0,0,1-1.89-2.51,4.09,4.09,0,0,1,.48-3.11l.58-.95L93,46.16a4,4,0,0,1,1.82-1.58,4.11,4.11,0,0,1,1.63-.35,4.05,4.05,0,0,1,2,.55l4.85,2.83a43,43,0,0,0-26.93-26.9l2.79,4.79A4,4,0,0,1,77.85,31l-3.49,2.14-.91.56a4,4,0,0,1-2.12.61,4.08,4.08,0,0,1-3.5-2l-3.39-5.83-1.82-3.12-1.81,3.11-3.4,5.84a4.08,4.08,0,0,1-3.5,2,4,4,0,0,1-2.12-.61l-.92-.56L47.39,31a4.06,4.06,0,0,1-1.57-1.8A4,4,0,0,1,46,25.5l2.79-4.79a43.42,43.42,0,0,0-26.92,26.9l4.84-2.83a4.08,4.08,0,0,1,2-.55,4.19,4.19,0,0,1,1.62.34,4.08,4.08,0,0,1,1.83,1.59l2.11,3.43.59,1a4,4,0,0,1-1.41,5.62l-5.85,3.41-3.09,1.81,3.11,1.81,5.83,3.4a4,4,0,0,1,1.41,5.62l-.61,1-2.09,3.39a4,4,0,0,1-1.87,1.6,4,4,0,0,1-1.58.33,4.08,4.08,0,0,1-2-.55l-4.89-2.85a42.92,42.92,0,0,0,27.38,27.19L45.93,96.7a4.07,4.07,0,0,1,1.38-5.49l2.83-1.74,1.56-1a4,4,0,0,1,5.62,1.41l3.62,6.21,1.59,2.73L64.22,96l3.53-6a4,4,0,0,1,5.62-1.41l1.63,1,2.76,1.7a4,4,0,0,1,1.38,5.49l-3.33,5.7a42.91,42.91,0,0,0,27.6-27.27ZM72.94,83.13a24.3,24.3,0,0,1-3.19,1.26l-2.48.77-4.65,8-4.65-8-2.48-.77A23.67,23.67,0,0,1,50.21,82L42,84.17l-4.74,1.25,1.3-4.94,2.32-8.8a23.24,23.24,0,0,1-1.23-3.12l-.77-2.49L30.81,61.4l8.11-4.69.78-2.47a23,23,0,0,1,1.44-3.56L38.87,42l-1.59-6,6,1.6L52,39.89a23.57,23.57,0,0,1,3.41-1.37l2.48-.78,4.71-8.16,4.71,8.17,2.48.78A23.36,23.36,0,0,1,73.48,40l8.6-2.27,6.18-1.63-1.64,6.22-2.31,8.78a25.12,25.12,0,0,1,1.23,3.11l.78,2.47,8.12,4.69-8.1,4.67-.77,2.49a24.83,24.83,0,0,1-1.52,3.74l2.27,8.61L88,87.09l-6.23-1.65Z"/>
    <path class="cls-1" d="M76.73,95a1.08,1.08,0,0,0,0-.59,1.08,1.08,0,0,1,0,.59,1.43,1.43,0,0,1-.09.27l-4.8,8.24,4.8-8.24A1.43,1.43,0,0,0,76.73,95Z"/>
    <path class="cls-1" d="M96.13,75.59l.06,0-.06,0a1.08,1.08,0,0,1-.29-.13A1.11,1.11,0,0,0,96.13,75.59Z"/>
    <path class="cls-1" d="M71.65,90.88l-.19,0,.18.06a1.8,1.8,0,0,1,.21.08A1.21,1.21,0,0,0,71.65,90.88Z"/>
  </g>
  <path class="cls-3" d="M76.72,27l-4.31-7.4L63.62,4.47a1.15,1.15,0,0,0-2,0L52.83,19.55,48.52,27a1.12,1.12,0,0,0-.07,1,1.34,1.34,0,0,0,.13.27,1.22,1.22,0,0,0,.33.31l4.39,2.7a1,1,0,0,0,.39.14l.11,0h.11a1.11,1.11,0,0,0,.26,0h0a1.49,1.49,0,0,0,.36-.17l.08-.06a1.38,1.38,0,0,0,.28-.31h0l4.23-7.27,2.48-4.25a1.15,1.15,0,0,1,2,0l2.48,4.26,4.23,7.26h0a1.38,1.38,0,0,0,.28.31l.08.06a1.49,1.49,0,0,0,.36.17h0a1.11,1.11,0,0,0,.26,0h.11l.11,0a1,1,0,0,0,.39-.14l4.39-2.7a1.14,1.14,0,0,0,.45-.57A1.11,1.11,0,0,0,76.72,27Z"/>
  <path class="cls-3" d="M32.6,69.81a1.16,1.16,0,0,0-.54-.71L24.8,64.87l-4.26-2.49a1,1,0,0,1-.25-.19,1.15,1.15,0,0,1,0-1.61,1,1,0,0,1,.25-.19l4.24-2.48,7.28-4.24A1.16,1.16,0,0,0,32.6,53a1.31,1.31,0,0,0,0-.28,1,1,0,0,0,0-.17,1.23,1.23,0,0,0-.16-.44l-2.7-4.39a1.15,1.15,0,0,0-.28-.3l-.08-.06a1.23,1.23,0,0,0-.26-.12l-.08,0h0a1.14,1.14,0,0,0-.37,0h-.1a1.07,1.07,0,0,0-.38.13l-7.47,4.36-15,8.75a1.15,1.15,0,0,0,0,2l15,8.74,7.49,4.37a1.07,1.07,0,0,0,.38.13h.1a1.14,1.14,0,0,0,.37,0h0l.05,0a1,1,0,0,0,.29-.13l.08-.06a1.28,1.28,0,0,0,.28-.29l2.7-4.4a1.07,1.07,0,0,0,.16-.44.71.71,0,0,0,0-.14A1.61,1.61,0,0,0,32.6,69.81Z"/>
  <path class="cls-3" d="M120.08,61.1a1.22,1.22,0,0,0-.29-.52,1.18,1.18,0,0,0-.25-.19l-15-8.75-7.47-4.36a1.07,1.07,0,0,0-.38-.13h-.1a1.15,1.15,0,0,0-.37,0h0l-.1.05a1.12,1.12,0,0,0-.25.11l-.08.06a1.12,1.12,0,0,0-.27.3l-2.71,4.39a1.2,1.2,0,0,0-.15.61,1.12,1.12,0,0,0,.55,1l7.29,4.25,4.24,2.47a1.18,1.18,0,0,1,.43.43,1.21,1.21,0,0,1,0,1.13,1.18,1.18,0,0,1-.43.43l-4.26,2.49L93.18,69.1a1.11,1.11,0,0,0-.53.71,1.08,1.08,0,0,0,0,.31,1.09,1.09,0,0,0,.15.58l2.71,4.39a1.12,1.12,0,0,0,.27.3l.08.06a1.08,1.08,0,0,0,.29.13l.06,0h0a1.15,1.15,0,0,0,.37,0h.1a1.07,1.07,0,0,0,.38-.13l7.5-4.38,15-8.73a1.18,1.18,0,0,0,.25-.19,1.22,1.22,0,0,0,.29-.52A1.1,1.1,0,0,0,120.08,61.1Z"/>
  <path class="cls-3" d="M76.76,94.38a1.18,1.18,0,0,0-.52-.71L71.85,91a1.8,1.8,0,0,0-.21-.08l-.18-.06-.1,0a1.59,1.59,0,0,0-.38,0s0,0,0,0a1,1,0,0,0-.36.17l-.08,0a1.34,1.34,0,0,0-.27.31l-4.36,7.49-2.36,4a1.09,1.09,0,0,1-.71.54.92.92,0,0,1-.29,0,1.25,1.25,0,0,1-.56-.14,1.14,1.14,0,0,1-.43-.44L59.27,99l-4.45-7.64a1.34,1.34,0,0,0-.27-.31l-.08,0a1,1,0,0,0-.36-.17s0,0,0,0a1.62,1.62,0,0,0-.38,0l-.1,0h0a1.14,1.14,0,0,0-.35.13l-4.39,2.7a1.16,1.16,0,0,0-.52,1.22,1.12,1.12,0,0,0,.12.35l4.78,8.2,8.33,14.29a1.15,1.15,0,0,0,2,0l8.31-14.25,4.8-8.24a1.43,1.43,0,0,0,.09-.27A1.08,1.08,0,0,0,76.76,94.38Z"/>
  <path class="cls-3" d="M68.26,49.15a8.1,8.1,0,0,0-11.45,0l-6.37,6.37a8.11,8.11,0,0,0,0,11.46l6.37,6.37a8.1,8.1,0,0,0,11.45,0L74.63,67a8.11,8.11,0,0,0,0-11.46Zm1.47,12.92-6.37,6.37a1.17,1.17,0,0,1-1.65,0l-6.37-6.37a1.16,1.16,0,0,1,0-1.64l6.37-6.37a1.17,1.17,0,0,1,1.65,0l6.37,6.37A1.16,1.16,0,0,1,69.73,62.07Z"/>
</svg>
