<svg id="Layer_1" data-name="Layer 1" xmlns="http://www.w3.org/2000/svg" width="1055.29" height="154.58" viewBox="0 0 1055.29 154.58">
  <defs>
    <style>
      .cls-1 {
        fill: #477c9e;
      }

      .cls-2 {
        fill: #e63a47;
      }

      .cls-3 {
        fill: #414142;
      }
    </style>
  </defs>
  <g>
    <g>
      <path class="cls-1" d="M21.16,96.87a1.33,1.33,0,0,1,.33.38,1.94,1.94,0,0,0-.21-.29Z"/>
      <path class="cls-1" d="M11.67,58.41a1.31,1.31,0,0,1-.23-.49l-3-11.31,3,11.31A1.49,1.49,0,0,0,11.67,58.41Z"/>
      <path class="cls-1" d="M12.22,58.9a1.53,1.53,0,0,0,.41.14,1.72,1.72,0,0,1-.4-.14l-.09,0Z"/>
      <path class="cls-1" d="M12.13,58.86a1.75,1.75,0,0,1-.38-.34l.09.11A2.09,2.09,0,0,0,12.13,58.86Z"/>
      <polygon class="cls-1" points="21.21 55.52 18.33 44.57 16.63 38.13 18.33 44.57 21.21 55.52"/>
      <path class="cls-1" d="M20.54,96.55a1.5,1.5,0,0,1,.46.22l0,0s0,0,0,0A1.73,1.73,0,0,0,20.54,96.55Z"/>
      <path class="cls-1" d="M94.63,57l.1.08s-.06-.08-.1-.11a3.08,3.08,0,0,1-.24-.27,3.15,3.15,0,0,0,.22.29Z"/>
      <path class="cls-1" d="M103.29,95.76a1.48,1.48,0,0,1,.38.33l-.09-.11A2,2,0,0,0,103.29,95.76Z"/>
      <path class="cls-1" d="M103.14,95.7s.1,0,.14,0a.59.59,0,0,0-.14-.06,2.06,2.06,0,0,0-.35-.12A1.48,1.48,0,0,1,103.14,95.7Z"/>
      <path class="cls-1" d="M78,40.4a1.18,1.18,0,0,0,.28.22,1.18,1.18,0,0,1-.26-.24.52.52,0,0,1-.11-.1,1,1,0,0,0,.08.11Z"/>
      <path class="cls-1" d="M38.82,31.27a1.72,1.72,0,0,0-.49-.24l-11.27-3h0l11.27,3A1.72,1.72,0,0,1,38.82,31.27Z"/>
      <path class="cls-1" d="M38.92,31.35a1.54,1.54,0,0,1,.34.38,1.34,1.34,0,0,0-.23-.29A.48.48,0,0,0,38.92,31.35Z"/>
      <path class="cls-1" d="M35.92,40.81a1.51,1.51,0,0,0,.63,0,1.51,1.51,0,0,1-.63,0l-11-2.89-6.4-1.69,6.4,1.69Z"/>
      <path class="cls-1" d="M39.32,31.86l0-.12s0,.08,0,.12a1.66,1.66,0,0,1,.14.37A1.63,1.63,0,0,0,39.32,31.86Z"/>
      <path class="cls-1" d="M76,32.9l1.62,6.76L76,32.9a1.8,1.8,0,0,1,0-.61A1.8,1.8,0,0,0,76,32.9Z"/>
      <path class="cls-1" d="M37.6,113.36a1.37,1.37,0,0,1,.38.34,1.25,1.25,0,0,0-.09-.12A1.23,1.23,0,0,0,37.6,113.36Z"/>
      <path class="cls-1" d="M76.5,123.26a1.54,1.54,0,0,1-.34-.38,1.7,1.7,0,0,0,.23.3Z"/>
      <path class="cls-1" d="M76.1,127.35a5.49,5.49,0,0,1-3.67-3.22,5.45,5.45,0,0,1-.25-3.32l1.25-5.23.36-1.54a5.47,5.47,0,0,1,6.7-4l8.8,2.32,4.7,1.24-1.23-4.67-2.32-8.83a5.44,5.44,0,0,1,4-6.7L95.91,93l5.3-1.26a5.47,5.47,0,0,1,6.55,3.91l1.93,7.32a57.9,57.9,0,0,0,0-51.32l-1.9,7.23a5.45,5.45,0,0,1-6.55,3.91l-5.36-1.27-1.4-.34a5.39,5.39,0,0,1-2.6-1.45,5.48,5.48,0,0,1-1.41-5.25l2.31-8.8L94,41,89.3,42.26l-8.81,2.32a5.46,5.46,0,0,1-6.7-4l-.33-1.42L72.18,33.8a5.44,5.44,0,0,1,3.92-6.54l7.22-1.91a58.61,58.61,0,0,0-51.31,0l7.31,1.93a5.46,5.46,0,0,1,3.92,6.54L42,39.09l-.35,1.48a5.45,5.45,0,0,1-6.7,4L26.1,42.26,21.43,41l1.24,4.71L25,54.52a5.47,5.47,0,0,1-4,6.71l-1.54.36-5.22,1.25a5.48,5.48,0,0,1-5.13-1.45,5.59,5.59,0,0,1-1.42-2.47L5.72,51.54a57.86,57.86,0,0,0,.17,52l2.24-8.51a5.44,5.44,0,0,1,2.62-3.37,5.39,5.39,0,0,1,3.92-.54l4.36,1,2.41.58A5.35,5.35,0,0,1,24,94.21a5.48,5.48,0,0,1,1.42,5.25L23,108.83,21.89,113l4.36-1.15,9.14-2.41a5.5,5.5,0,0,1,5.26,1.42,5.42,5.42,0,0,1,1.44,2.59l.6,2.52,1,4.25a5.46,5.46,0,0,1-3.92,6.54L31.19,129a57.87,57.87,0,0,0,52.3.31ZM46.82,107.88A32.64,32.64,0,0,1,42.57,106l-3.1-1.63-12.1,3.24,3.24-12.1L29,92.44a32.26,32.26,0,0,1-2.76-7.31l-9.87-5.75-5.71-3.32,5.95-3.47,10.6-6.18A32.42,32.42,0,0,1,29,62.27l1.64-3.11L27.37,47l12.2,3.26,3.1-1.62a31.53,31.53,0,0,1,4.77-2l6.06-10.4,4.24-7.28L62,36.23,68.09,46.7a31.54,31.54,0,0,1,4.57,1.95l3.1,1.62L88,47,84.74,59.27l1.62,3.09a32.11,32.11,0,0,1,2.06,4.93l10.37,6,7.45,4.33L98.74,82,88.16,88.21a32.12,32.12,0,0,1-1.79,4.14l-1.61,3.09L88,107.65l-12.17-3.26L72.75,106a32.81,32.81,0,0,1-5,2.11l-6,10.37L57.35,126,53,118.45Z"/>
      <path class="cls-1" d="M39.14,122.78a1.47,1.47,0,0,0,.59-.54,1.47,1.47,0,0,1-.59.54,1.42,1.42,0,0,1-.35.17l-12.43,3.28L38.79,123A1.42,1.42,0,0,0,39.14,122.78Z"/>
      <path class="cls-1" d="M76.12,122.8l0,.07s0-.05,0-.07a1.52,1.52,0,0,1-.16-.42A1.5,1.5,0,0,0,76.12,122.8Z"/>
      <path class="cls-1" d="M38.19,114a1.26,1.26,0,0,0-.13-.23,1,1,0,0,1,.11.23.9.9,0,0,1,.13.28A1.36,1.36,0,0,0,38.19,114Z"/>
    </g>
    <path class="cls-2" d="M104,57.92l2.94-11.17,6-22.76a1.56,1.56,0,0,0-1.9-1.91l-22.76,6L77.09,31a1.52,1.52,0,0,0-1,.88,1.24,1.24,0,0,0-.14.38,1.8,1.8,0,0,0,0,.61l1.62,6.76a1.48,1.48,0,0,0,.23.51l.09.11a.52.52,0,0,0,.11.1,1.18,1.18,0,0,0,.26.24l0,0a1.43,1.43,0,0,0,.5.18l.13,0a1.52,1.52,0,0,0,.56,0h0l11-2.89,6.42-1.69a1.51,1.51,0,0,1,1.49.4,1.55,1.55,0,0,1,.41,1.5l-1.7,6.43-2.88,11h0a1.75,1.75,0,0,0,0,.56.51.51,0,0,1,0,.13,1.88,1.88,0,0,0,.18.5l0,0a3.08,3.08,0,0,0,.24.27s.06.08.1.11l.11.08a1.59,1.59,0,0,0,.51.24L102.12,59A1.63,1.63,0,0,0,104,57.92Z"/>
    <path class="cls-2" d="M21.05,56.72a1.6,1.6,0,0,0,.17-1.2l-2.89-11-1.7-6.44a1.51,1.51,0,0,1-.05-.42,1.56,1.56,0,0,1,1.53-1.53,1.3,1.3,0,0,1,.43,0l6.4,1.69,11,2.89a1.56,1.56,0,0,0,1.2-.17,1.32,1.32,0,0,0,.28-.25c.05-.06.12-.09.17-.15a1.64,1.64,0,0,0,.26-.57l1.62-6.77a1.64,1.64,0,0,0,0-.54s0-.09,0-.13a1.66,1.66,0,0,0-.14-.37s0-.08,0-.12h0a1.54,1.54,0,0,0-.34-.38l-.1-.08a1.72,1.72,0,0,0-.49-.24l-11.27-3-22.67-6A1.55,1.55,0,0,0,2.49,24l6,22.62,3,11.31a1.31,1.31,0,0,0,.23.49l.08.11a1.75,1.75,0,0,0,.38.34h0l.09,0a1.72,1.72,0,0,0,.4.14l.13,0a1.4,1.4,0,0,0,.54,0l6.77-1.61a1.64,1.64,0,0,0,.57-.26c.05,0,.08-.1.13-.15A2,2,0,0,0,21.05,56.72Z"/>
    <path class="cls-2" d="M112.77,131.81a1.61,1.61,0,0,0,.22-.76,1.65,1.65,0,0,0-.06-.43L107,108l-3-11.27a1.72,1.72,0,0,0-.24-.49.76.76,0,0,1-.08-.11,1.48,1.48,0,0,0-.38-.33h0s-.1,0-.14,0a1.48,1.48,0,0,0-.35-.13l-.13,0a1.63,1.63,0,0,0-.54,0l-6.77,1.61a1.53,1.53,0,0,0-.72.44,1.55,1.55,0,0,0-.46.85,1.46,1.46,0,0,0,0,.62l2.89,11,1.69,6.4a1.46,1.46,0,0,1,0,.83,1.54,1.54,0,0,1-.4.67,1.62,1.62,0,0,1-.67.4,1.52,1.52,0,0,1-.82,0l-6.43-1.69-11-2.89a1.56,1.56,0,0,0-1.2.17,1.33,1.33,0,0,0-.3.28,1.42,1.42,0,0,0-.41.7L76,121.71a1.7,1.7,0,0,0,0,.55.5.5,0,0,1,0,.12,1.52,1.52,0,0,0,.16.42s0,0,0,.07h0a1.54,1.54,0,0,0,.34.38l.1.08a1.72,1.72,0,0,0,.49.24l11.33,3,22.61,6a1.55,1.55,0,0,0,.42.05,1.47,1.47,0,0,0,.77-.22A1.61,1.61,0,0,0,112.77,131.81Z"/>
    <path class="cls-2" d="M39.73,122.24a1.5,1.5,0,0,0,.18-1.16l-1.61-6.76a.9.9,0,0,0-.13-.28,1,1,0,0,0-.11-.23.44.44,0,0,0-.08-.11,1.37,1.37,0,0,0-.38-.34,0,0,0,0,0,0,0,1.5,1.5,0,0,0-.5-.18l-.13,0a1.51,1.51,0,0,0-.56,0l-11.3,3L19,117.75a1.52,1.52,0,0,1-1.19-.16,1.83,1.83,0,0,1-.31-.24,1.76,1.76,0,0,1-.4-.67,1.56,1.56,0,0,1,0-.83L18.64,110l3-11.53a1.5,1.5,0,0,0,0-.56.69.69,0,0,0,0-.13,1.58,1.58,0,0,0-.18-.5l0,0a1.33,1.33,0,0,0-.33-.38L21,96.79l0,0a1.5,1.5,0,0,0-.46-.22l-6.77-1.61a1.54,1.54,0,0,0-1.65.66,1.78,1.78,0,0,0-.22.46L8.64,108.43,3,130a1.57,1.57,0,0,0,1.91,1.91l21.5-5.67L38.79,123a1.42,1.42,0,0,0,.35-.17A1.47,1.47,0,0,0,39.73,122.24Z"/>
    <path class="cls-2" d="M73.19,72.59A10.93,10.93,0,0,0,62.26,61.67H50.12A10.94,10.94,0,0,0,39.19,72.59V84.74A10.93,10.93,0,0,0,50.12,95.66H62.26A10.94,10.94,0,0,0,73.19,84.74ZM62.26,86.3H50.12A1.52,1.52,0,0,1,49,85.84a1.56,1.56,0,0,1-.46-1.1V72.59A1.57,1.57,0,0,1,50.12,71H62.26a1.58,1.58,0,0,1,1.11.46,1.6,1.6,0,0,1,.46,1.11V84.74A1.56,1.56,0,0,1,62.26,86.3Z"/>
  </g>
  <g>
    <path class="cls-1" d="M156,43.69v67.9H142V43.69Z"/>
    <path class="cls-3" d="M177.31,61.89v6.6a11.76,11.76,0,0,1,4.2-5.4,12,12,0,0,1,7.5-2.4c7.8,0,11.7,4.8,11.7,14.3v36.7H187V79.19c0-4.1-1.5-6.1-4.4-6.1a4.64,4.64,0,0,0-3.8,1.6,6.91,6.91,0,0,0-1.4,4.5v32.4h-13.7V61.69Z"/>
    <path class="cls-3" d="M224.51,111.59h-13.8V72.29h-6.4V62.09h6.4v-4.2c0-5.2,1.1-9,3.3-11.5s5.2-3.7,9-3.7a22.28,22.28,0,0,1,9,1.6l-1.4,10.9a10,10,0,0,0-5.7-2.2c-2.1,0-3.1,1.4-3.1,4.2a19.93,19.93,0,0,0,.6,4.9h11.1v10.2h-8.8Z"/>
    <path class="cls-3" d="M271.31,93.59v.7c0,6.1-1.5,10.7-4.6,13.8s-7.4,4.6-12.9,4.6c-5.8,0-10.2-1.6-13.3-4.8s-4.6-7.8-4.6-13.8V79.39c0-5.7,1.5-10.3,4.5-13.7s7.5-5.1,13.4-5.1c11.6,0,17.4,6,17.4,17.9v9.8h-21.5v6.9c0,4.2,1.7,6.3,5,6.3s5-2.1,5-6.3v-2.5Zm-12-12.9v-4.4c0-4.1-1.7-6.2-5.1-6.2s-4.9,2.1-4.9,6.3v4.3Z"/>
    <path class="cls-3" d="M310.41,92.39v.9q0,10-4.8,14.7c-3.2,3.1-7.4,4.6-12.6,4.6q-8.7,0-12.9-5.1T275.91,94V79.29q0-8.25,4.2-13.5c2.8-3.5,7.1-5.2,13-5.2a18,18,0,0,1,12.6,4.5c3.3,3,4.9,7.7,4.9,14.2V81l-10.7.9v-2.6c0-4.3-1.7-6.5-5-6.5s-5,2.2-5,6.5v14.6c0,4.2,1.7,6.3,5,6.3s5-2.1,5-6.3v-2.4Z"/>
    <path class="cls-3" d="M340.81,110.69a22.49,22.49,0,0,1-9.9,2.1c-8.5,0-12.81-4.6-12.81-13.8V72h-5V61.89a18.18,18.18,0,0,0,4.5-.4,8.08,8.08,0,0,0,3.31-1.9,9.1,9.1,0,0,0,2.39-4.8,46.19,46.19,0,0,0,.91-8.6h8.1v15.5h8.9v10.1h-9.3v22.9c0,3.3,1.2,4.9,3.6,4.9a10.94,10.94,0,0,0,5.4-1.7Z"/>
    <path class="cls-3" d="M345.9,41.79h13.7v11.9H345.9Zm0,19.9h13.7v49.9H345.9Z"/>
    <path class="cls-3" d="M384.51,112.69a19.63,19.63,0,0,1-13.3-4.7q-5.41-4.65-5.41-14.4V80.09c0-6.5,1.8-11.4,5.41-14.6a19.22,19.22,0,0,1,13.3-4.8,19.49,19.49,0,0,1,13.4,4.8c3.6,3.2,5.4,8,5.4,14.5v13.5q0,9.75-5.4,14.4a20,20,0,0,1-13.5,4.7Zm5-18.8V79.29c0-4.3-1.7-6.5-5.1-6.5s-4.91,2.2-4.91,6.5v14.6c0,4.2,1.61,6.3,4.91,6.3S389.51,98.09,389.51,93.89Z"/>
    <path class="cls-3" d="M432.21,111.49v-6.7a12.19,12.19,0,0,1-4.21,5.4,11.78,11.78,0,0,1-7.3,2.3q-11.7,0-11.7-15V61.59h13.7v32.5c0,4.1,1.5,6.1,4.4,6.1a5,5,0,0,0,3.8-1.7,6.44,6.44,0,0,0,1.5-4.5V61.69h13.71v49.9Z"/>
    <path class="cls-3" d="M467.8,112.79c-10.8,0-16.2-4.9-16.2-14.6v-2l10-1.1v2.3c0,4.5,1.7,6.7,5.1,6.7,3.1,0,4.7-1.7,4.7-5.2a5.39,5.39,0,0,0-3.3-5.1l-7.9-3.9c-5.3-2.7-8-7.1-8-13.2a16.09,16.09,0,0,1,4.1-11.4c2.7-2.9,6.9-4.4,12.6-4.4,4.9,0,8.7,1.1,11.4,3.4s4.1,5.5,4.1,9.7v2.5l-9.9,1v-2.3c0-3.5-1.4-5.2-4.2-5.2s-4.3,1.6-4.3,4.8c0,2.1,1.4,3.8,4.1,5.1l7.8,3.9c5.1,2.5,7.6,6.8,7.6,12.8a16.13,16.13,0,0,1-4.2,11.5c-2.8,3-7.3,4.5-13.6,4.5Z"/>
    <path class="cls-1" d="M504.9,111.79V43.89H525c6.1,0,11,1.7,14.6,5s5.4,8.3,5.4,15v27.7c0,6.8-1.8,11.8-5.3,15.1s-8.4,4.9-14.6,4.9Zm19-13.4c4.7,0,7-2.9,7-8.8V65.49c0-5.7-2.3-8.6-7-8.6h-4.8v41.5Z"/>
    <path class="cls-3" d="M551.8,41.79h13.7v11.9H551.8Zm0,19.9h13.7v49.9H551.8Z"/>
    <path class="cls-3" d="M587.2,112.79c-10.8,0-16.2-4.9-16.2-14.6v-2l10-1.1v2.3c0,4.5,1.7,6.7,5.1,6.7,3.1,0,4.7-1.7,4.7-5.2a5.39,5.39,0,0,0-3.3-5.1l-7.9-3.9c-5.3-2.7-8-7.1-8-13.2a16.09,16.09,0,0,1,4.1-11.4c2.7-2.9,6.9-4.4,12.6-4.4,4.9,0,8.7,1.1,11.4,3.4s4.1,5.5,4.1,9.7v2.5l-9.9,1v-2.3c0-3.5-1.4-5.2-4.2-5.2s-4.3,1.6-4.3,4.8c0,2.1,1.4,3.8,4.1,5.1l7.8,3.9c5.1,2.5,7.6,6.8,7.6,12.8a16.13,16.13,0,0,1-4.2,11.5c-2.8,3-7.3,4.5-13.6,4.5Z"/>
    <path class="cls-3" d="M644.6,93.59v.7c0,6.1-1.5,10.7-4.6,13.8s-7.4,4.6-12.9,4.6c-5.8,0-10.2-1.6-13.3-4.8s-4.6-7.8-4.6-13.8V79.39c0-5.7,1.5-10.3,4.5-13.7s7.5-5.1,13.4-5.1c11.6,0,17.4,6,17.4,17.9v9.8H623v6.9c0,4.2,1.7,6.3,5,6.3s5-2.1,5-6.3v-2.5Zm-12-12.9v-4.4c0-4.1-1.7-6.2-5.1-6.2s-4.9,2.1-4.9,6.3v4.3Z"/>
    <path class="cls-3" d="M650.9,65.79a30.51,30.51,0,0,1,17.1-5.3c8.9,0,13.3,4.8,13.3,14.5V98q0,2.1,1.5,2.1a6.88,6.88,0,0,0,1.3-.2,10.38,10.38,0,0,0,1.2-.3l.4-.3v11.4a19.2,19.2,0,0,1-8.4,2c-4.3,0-6.8-2.4-7.4-7.1-2.6,4.7-6.3,7.1-11.1,7.1q-4.95,0-7.5-3.3a14.27,14.27,0,0,1-2.6-8.9v-3a13.69,13.69,0,0,1,2.9-9q2.85-3.45,9-5.7l6.1-2.4a3.84,3.84,0,0,0,2.8-3.9c0-3-1.1-4.5-3.4-4.5a16.45,16.45,0,0,0-6.6,2,25,25,0,0,0-6.9,4.8Zm18.2,20.9c-.1.1-.9.7-2.3,1.7l-2.3,1.3a6.76,6.76,0,0,0-3.3,6.3v2.1c0,2.5,1,3.8,3.1,3.8q2.85,0,4.8-3.9Z"/>
    <path class="cls-3" d="M704.5,112.79c-10.8,0-16.2-4.9-16.2-14.6v-2l10-1.1v2.3c0,4.5,1.7,6.7,5.1,6.7,3.1,0,4.7-1.7,4.7-5.2a5.39,5.39,0,0,0-3.3-5.1l-7.9-3.9c-5.3-2.7-8-7.1-8-13.2a16.09,16.09,0,0,1,4.1-11.4c2.7-2.9,6.9-4.4,12.6-4.4,4.9,0,8.7,1.1,11.4,3.4s4.1,5.5,4.1,9.7v2.5l-9.9,1v-2.3c0-3.5-1.4-5.2-4.2-5.2s-4.3,1.6-4.3,4.8c0,2.1,1.4,3.8,4.1,5.1l7.8,3.9c5.1,2.5,7.6,6.8,7.6,12.8a16.13,16.13,0,0,1-4.2,11.5c-2.8,3-7.3,4.5-13.6,4.5Z"/>
    <path class="cls-3" d="M761.9,93.59v.7c0,6.1-1.5,10.7-4.6,13.8s-7.4,4.6-12.9,4.6c-5.8,0-10.2-1.6-13.3-4.8s-4.6-7.8-4.6-13.8V79.39c0-5.7,1.5-10.3,4.5-13.7s7.5-5.1,13.4-5.1c11.6,0,17.4,6,17.4,17.9v9.8H740.3v6.9c0,4.2,1.7,6.3,5,6.3s5-2.1,5-6.3v-2.5Zm-12-12.9v-4.4c0-4.1-1.7-6.2-5.1-6.2s-4.9,2.1-4.9,6.3v4.3Z"/>
    <path class="cls-3" d="M782.3,112.79c-10.8,0-16.2-4.9-16.2-14.6v-2l10-1.1v2.3c0,4.5,1.7,6.7,5.1,6.7,3.1,0,4.7-1.7,4.7-5.2a5.39,5.39,0,0,0-3.3-5.1l-7.9-3.9c-5.3-2.7-8-7.1-8-13.2a16.09,16.09,0,0,1,4.1-11.4c2.7-2.9,6.9-4.4,12.6-4.4,4.9,0,8.7,1.1,11.4,3.4s4.1,5.5,4.1,9.7v2.5l-9.9,1v-2.3c0-3.5-1.4-5.2-4.2-5.2s-4.3,1.6-4.3,4.8c0,2.1,1.4,3.8,4.1,5.1l7.8,3.9c5.1,2.5,7.6,6.8,7.6,12.8a16.13,16.13,0,0,1-4.2,11.5c-2.8,3-7.3,4.5-13.6,4.5Z"/>
    <path class="cls-1" d="M852.5,57.49H840.8v54.1H826.7V57.49H815.19V43.69H852.5Z"/>
    <path class="cls-3" d="M869.6,112.69a19.65,19.65,0,0,1-13.3-4.7q-5.4-4.65-5.4-14.4V80.09c0-6.5,1.8-11.4,5.4-14.6a19.24,19.24,0,0,1,13.3-4.8,19.49,19.49,0,0,1,13.4,4.8c3.6,3.2,5.4,8,5.4,14.5v13.5q0,9.75-5.4,14.4a20,20,0,0,1-13.5,4.7Zm5-18.8V79.29c0-4.3-1.7-6.5-5.1-6.5s-4.9,2.2-4.9,6.5v14.6c0,4.2,1.6,6.3,4.9,6.3S874.6,98.09,874.6,93.89Z"/>
    <path class="cls-3" d="M912.1,112.69a19.69,19.69,0,0,1-13.31-4.7q-5.38-4.65-5.39-14.4V80.09c0-6.5,1.8-11.4,5.39-14.6a19.28,19.28,0,0,1,13.31-4.8,19.49,19.49,0,0,1,13.4,4.8c3.6,3.2,5.4,8,5.4,14.5v13.5q0,9.75-5.4,14.4a20,20,0,0,1-13.5,4.7Zm5-18.8V79.29c0-4.3-1.7-6.5-5.1-6.5s-4.9,2.2-4.9,6.5v14.6c0,4.2,1.6,6.3,4.9,6.3S917.1,98.09,917.1,93.89Z"/>
    <path class="cls-3" d="M950.59,111.59H943c-4.1,0-6.1-2.1-6.1-6.2V43.69h13.7Z"/>
    <path class="cls-1" d="M957.79,43.69H971.5v38.5L983,61.69h12.7l-11,19.1,10.6,30.8H981.2l-6-20.1-3.7,5.4v14.7H957.79Z"/>
    <path class="cls-3" d="M999.39,41.79h13.7v11.9h-13.7Zm0,19.9h13.7v49.9h-13.7Z"/>
    <path class="cls-3" d="M1045.09,110.69a22.46,22.46,0,0,1-9.9,2.1c-8.5,0-12.8-4.6-12.8-13.8V72h-5V61.89a18.18,18.18,0,0,0,4.5-.4,8,8,0,0,0,3.3-1.9,9,9,0,0,0,2.4-4.8,46.3,46.3,0,0,0,.9-8.6h8.1v15.5h8.91v10.1h-9.31v22.9c0,3.3,1.2,4.9,3.6,4.9a11,11,0,0,0,5.41-1.7Z"/>
  </g>
</svg>
