<svg id="Layer_1" data-name="Layer 1" xmlns="http://www.w3.org/2000/svg" width="1075.73" height="114.7" viewBox="0 0 1075.73 114.7">
  <defs>
    <style>
      .cls-1 {
        fill: #e63a47;
      }

      .cls-2 {
        fill: #477c9e;
      }

      .cls-3 {
        fill: #414142;
      }
    </style>
  </defs>
  <path class="cls-1" d="M92.49,96.85,73.22,91.77A1.73,1.73,0,0,0,71.1,93l-1.78,7.5a1.72,1.72,0,0,0,1.24,2.07l37.6,9.91a1.73,1.73,0,0,0,2.11-2.11l-9.92-37.6a1.74,1.74,0,0,0-2.07-1.24l-7.49,1.79a1.72,1.72,0,0,0-1.27,2.12L94.6,94.74A1.73,1.73,0,0,1,92.49,96.85Z"/>
  <path class="cls-1" d="M94.59,20.09,89.51,39.36a1.73,1.73,0,0,0,1.27,2.11l7.5,1.79A1.72,1.72,0,0,0,100.35,42l9.91-37.6a1.73,1.73,0,0,0-2.11-2.11L70.56,12.23a1.71,1.71,0,0,0-1.24,2.07l1.78,7.49a1.72,1.72,0,0,0,2.12,1.27L92.48,18A1.73,1.73,0,0,1,94.59,20.09Z"/>
  <path class="cls-1" d="M15.73,94.74l5.08-19.26a1.73,1.73,0,0,0-1.27-2.12L12,71.57A1.74,1.74,0,0,0,10,72.81L.06,110.41a1.73,1.73,0,0,0,2.11,2.11l37.6-9.91A1.74,1.74,0,0,0,41,100.54L39.22,93a1.72,1.72,0,0,0-2.12-1.27L32.58,93,17.84,96.85A1.73,1.73,0,0,1,15.73,94.74Z"/>
  <path class="cls-1" d="M17.93,17.89,37.19,23a1.72,1.72,0,0,0,2.12-1.27l1.79-7.5a1.74,1.74,0,0,0-1.24-2.07L2.26,2.22A1.73,1.73,0,0,0,.15,4.33l9.91,37.6a1.72,1.72,0,0,0,2.07,1.24l7.5-1.79a1.73,1.73,0,0,0,1.27-2.12L15.82,20A1.73,1.73,0,0,1,17.93,17.89Z"/>
  <path class="cls-2" d="M43.46,9.75A5.71,5.71,0,0,1,45,15.13l-.16.65a42.73,42.73,0,0,1,20.74.05l-.15-.61a5.69,5.69,0,0,1,4.12-6.86L79.86,5.64a57.18,57.18,0,0,0-49.33-.1L40.88,8.27A5.68,5.68,0,0,1,43.46,9.75Z"/>
  <path class="cls-2" d="M67,105a5.68,5.68,0,0,1-1.52-5.38l.18-.76a42.58,42.58,0,0,1-20.89,0l.18.72a5.69,5.69,0,0,1-4.11,6.86l-10.24,2.7a57.22,57.22,0,0,0,49.13,0l-10.14-2.68A5.71,5.71,0,0,1,67,105Z"/>
  <path class="cls-2" d="M97.35,47.15,96.66,47a42.73,42.73,0,0,1,0,20.87l.74-.18a5.73,5.73,0,0,1,6.86,4.11l2.67,10.13a58,58,0,0,0,0-49.11L104.22,43A5.7,5.7,0,0,1,97.35,47.15Z"/>
  <path class="cls-2" d="M13,67.68l.61.15a42.58,42.58,0,0,1,0-20.89l-.5.12a5.72,5.72,0,0,1-5.38-1.52A5.82,5.82,0,0,1,6.19,43L3.43,32.48a57.19,57.19,0,0,0-.05,49.64L6.1,71.79A5.7,5.7,0,0,1,13,67.68Z"/>
  <path class="cls-1" d="M45.59,63.4V51.56a3.91,3.91,0,0,1,3.92-3.92H61.35a3.92,3.92,0,0,1,3.93,3.92V63.4a3.93,3.93,0,0,1-3.93,3.93H49.51A3.92,3.92,0,0,1,45.59,63.4ZM77.28,39.56a3.92,3.92,0,0,0-3.93-3.92H37.51a3.91,3.91,0,0,0-3.92,3.92V75.4a3.92,3.92,0,0,0,3.92,3.93H73.35a3.93,3.93,0,0,0,3.93-3.93Z"/>
  <g>
    <path class="cls-2" d="M144.16,22.11h12.59v70H144.16Z"/>
    <path class="cls-3" d="M191.45,92.11V61.71c0-3.66-.43-6.23-1.3-7.69a4.68,4.68,0,0,0-4.4-2.2,6.8,6.8,0,0,0-4.5,1.59,8.91,8.91,0,0,0-2.7,4v34.7h-11.9v-50h9.5l1.4,5.8h.3a16.27,16.27,0,0,1,4.9-4.95,16.69,16.69,0,0,1,13.45-1.14,8.88,8.88,0,0,1,4,3,13.79,13.79,0,0,1,2.4,5.5,38.14,38.14,0,0,1,.8,8.55V92.11Z"/>
    <path class="cls-3" d="M208.05,42.11h5.4V39.32q0-9.51,3.55-13.75t10.15-4.25a29.21,29.21,0,0,1,11,1.79L236,33.21a13,13,0,0,0-3.2-.85c-.93-.09-1.9-.15-2.9-.15-1.93,0-3.16.75-3.7,2.25a25.61,25.61,0,0,0-.8,7.65h8.5v10.6h-8.5v39.4h-11.9V52.71h-5.4Z"/>
    <path class="cls-3" d="M272.05,88.41a19.15,19.15,0,0,1-6.8,3.61,28.92,28.92,0,0,1-9,1.39,20.39,20.39,0,0,1-8.95-1.8,15.73,15.73,0,0,1-6.15-5.2,23.55,23.55,0,0,1-3.55-8.25,48.41,48.41,0,0,1-1.15-11q0-13.5,5.35-20t14.85-6.45a20.49,20.49,0,0,1,6.2.95,13.62,13.62,0,0,1,5.35,3.2,16.16,16.16,0,0,1,3.8,6,26.43,26.43,0,0,1,1.45,9.46,46.53,46.53,0,0,1-.25,4.7q-.26,2.49-.75,5.39H248q.21,6.21,2.63,9.5c1.61,2.2,4.21,3.3,7.77,3.3a16.66,16.66,0,0,0,5.91-1,15.21,15.21,0,0,0,4.09-2.1Zm-15.68-37.5A6.41,6.41,0,0,0,250.58,54a18.09,18.09,0,0,0-2.23,8.56h14c.2-3.81-.2-6.69-1.22-8.66A5,5,0,0,0,256.37,50.91Z"/>
    <path class="cls-3" d="M310.55,89.41a16.76,16.76,0,0,1-6,3,25.25,25.25,0,0,1-7,1A18,18,0,0,1,289,91.57a15.17,15.17,0,0,1-5.65-5.3A23.76,23.76,0,0,1,280.2,78a56.91,56.91,0,0,1-.95-10.85q0-13.09,4.7-19.7t13.8-6.59a28.07,28.07,0,0,1,7.35.79,25.19,25.19,0,0,1,5,2l-2.8,9.91a18.23,18.23,0,0,0-3.45-1.36,15.18,15.18,0,0,0-3.95-.45,6.83,6.83,0,0,0-6.3,3.65q-2.1,3.66-2.1,11.75a24.85,24.85,0,0,0,2.15,11.1,7.17,7.17,0,0,0,6.85,4.31,12.08,12.08,0,0,0,4.25-.66,15.27,15.27,0,0,0,3.25-1.65Z"/>
    <path class="cls-3" d="M312.15,42.11h5.5v-9.4L329.55,29V42.11h9.7v10.6h-9.7V74.52a15.46,15.46,0,0,0,.85,6.09,3.07,3.07,0,0,0,3.05,1.8,10.68,10.68,0,0,0,2.7-.3,17.21,17.21,0,0,0,2.6-.9l1.5,9.5a25.65,25.65,0,0,1-5.1,1.86,24.27,24.27,0,0,1-6.1.75c-3.8,0-6.65-1.11-8.55-3.3s-2.85-5.91-2.85-11.11V52.71h-5.5Z"/>
    <path class="cls-3" d="M344.75,28a6.77,6.77,0,0,1,1.9-4.95,7.19,7.19,0,0,1,5.4-2,8,8,0,0,1,5.6,1.91,6.41,6.41,0,0,1,2.1,5,6.11,6.11,0,0,1-2.1,4.89,8.32,8.32,0,0,1-5.6,1.8,7.39,7.39,0,0,1-5.4-1.85A6.42,6.42,0,0,1,344.75,28Zm1.4,14.09h11.9v50h-11.9Z"/>
    <path class="cls-3" d="M365.85,67.11q0-13.29,5.2-19.79t14.5-6.5q10,0,14.9,6.59t4.9,19.7q0,13.41-5.2,19.85t-14.6,6.45Q365.84,93.41,365.85,67.11Zm12.3,0q0,7.5,1.7,11.6t5.7,4.11a6,6,0,0,0,5.65-3.55q1.85-3.55,1.85-12.16,0-7.7-1.7-11.7a5.93,5.93,0,0,0-5.8-4c-2.34,0-4.15,1.19-5.45,3.55S378.15,61.38,378.15,67.11Z"/>
    <path class="cls-3" d="M423.65,42.11V72c0,3.93.36,6.66,1.1,8.19a4,4,0,0,0,4,2.31,6.16,6.16,0,0,0,4.7-2.06,11.84,11.84,0,0,0,2.7-4.94V42.11h11.9v34.8q0,4.11.3,8a42.16,42.16,0,0,0,1.1,7.15h-9l-2.1-6.79h-.3a17,17,0,0,1-5.15,5.79,13.55,13.55,0,0,1-8,2.3,16.6,16.6,0,0,1-5.5-.84,9.09,9.09,0,0,1-4.1-3,14.49,14.49,0,0,1-2.6-5.75,39.5,39.5,0,0,1-.9-9.25V42.11Z"/>
    <path class="cls-3" d="M473.55,78.82a5,5,0,0,0-1.35-3.55,15.33,15.33,0,0,0-3.45-2.7c-1.4-.84-2.89-1.69-4.45-2.55a24.15,24.15,0,0,1-4.45-3.2,15.4,15.4,0,0,1-3.45-4.61,15.14,15.14,0,0,1-1.35-6.8q0-7,3.8-10.8t11.2-3.79a34.66,34.66,0,0,1,8.3,1,22.25,22.25,0,0,1,6.2,2.34l-2.8,9.21a37.74,37.74,0,0,0-4.6-1.55,19.77,19.77,0,0,0-5.3-.75q-4.91,0-4.9,4.09a4.14,4.14,0,0,0,1.35,3.16,19,19,0,0,0,3.45,2.44q2.1,1.22,4.45,2.5a23,23,0,0,1,4.45,3.25,15,15,0,0,1,4.8,11.65q0,6.9-4.2,11.1c-2.8,2.81-7,4.2-12.5,4.2a32.46,32.46,0,0,1-8.05-1,20.53,20.53,0,0,1-6.35-2.59l3.3-9.61a26,26,0,0,0,4.85,2.11,18.64,18.64,0,0,0,5.75.89,6.48,6.48,0,0,0,3.8-1A3.79,3.79,0,0,0,473.55,78.82Z"/>
    <path class="cls-2" d="M512.45,22.11c1.2-.2,2.55-.34,4-.45l4.6-.3c1.56-.09,3.08-.16,4.55-.2s2.76-.05,3.89-.05a33.19,33.19,0,0,1,13.86,2.55,22.12,22.12,0,0,1,8.89,7.2A29.27,29.27,0,0,1,557,42a68.51,68.51,0,0,1,1.41,14.5,69.91,69.91,0,0,1-1.35,13.94,32.18,32.18,0,0,1-4.75,11.7,24.35,24.35,0,0,1-9.2,8q-5.8,3-14.61,3c-.86,0-2,0-3.5-.1s-3-.15-4.59-.25-3.14-.2-4.6-.29-2.6-.22-3.4-.36Zm18.4,10.6c-1.07,0-2.15,0-3.25.06A13.8,13.8,0,0,0,525,33V81.21a4.59,4.59,0,0,0,1.06.15l1.6.1,1.59.11c.5,0,.86,0,1.06,0a12.38,12.38,0,0,0,7.4-2.09,14.25,14.25,0,0,0,4.54-5.61,27.94,27.94,0,0,0,2.31-8,67.87,67.87,0,0,0,.65-9.54,71.53,71.53,0,0,0-.55-8.91,25,25,0,0,0-2.1-7.55,13,13,0,0,0-4.4-5.2A12.78,12.78,0,0,0,530.85,32.71Z"/>
    <path class="cls-3" d="M565.34,28a6.81,6.81,0,0,1,1.9-4.95,7.21,7.21,0,0,1,5.4-2,8,8,0,0,1,5.6,1.91,6.41,6.41,0,0,1,2.1,5,6.11,6.11,0,0,1-2.1,4.89,8.3,8.3,0,0,1-5.6,1.8,7.4,7.4,0,0,1-5.4-1.85A6.46,6.46,0,0,1,565.34,28Zm1.4,14.09h11.9v50h-11.9Z"/>
    <path class="cls-3" d="M605,78.82a5,5,0,0,0-1.35-3.55,15.33,15.33,0,0,0-3.45-2.7q-2.1-1.26-4.45-2.55a24.49,24.49,0,0,1-4.45-3.2,15.4,15.4,0,0,1-3.45-4.61,15.14,15.14,0,0,1-1.35-6.8q0-7,3.8-10.8t11.2-3.79a34.6,34.6,0,0,1,8.3,1,22.13,22.13,0,0,1,6.2,2.34l-2.8,9.21a37.16,37.16,0,0,0-4.6-1.55,19.71,19.71,0,0,0-5.3-.75c-3.26,0-4.9,1.36-4.9,4.09a4.14,4.14,0,0,0,1.35,3.16,19,19,0,0,0,3.45,2.44c1.4.81,2.89,1.64,4.45,2.5a22.7,22.7,0,0,1,4.45,3.25,15,15,0,0,1,4.8,11.65q0,6.9-4.2,11.1c-2.8,2.81-7,4.2-12.5,4.2a32.57,32.57,0,0,1-8-1,20.63,20.63,0,0,1-6.35-2.59l3.3-9.61A26.29,26.29,0,0,0,594,82.32a18.69,18.69,0,0,0,5.75.89,6.46,6.46,0,0,0,3.8-1A3.79,3.79,0,0,0,605,78.82Z"/>
    <path class="cls-3" d="M657,88.41a19.15,19.15,0,0,1-6.8,3.61,28.92,28.92,0,0,1-9,1.39,20.39,20.39,0,0,1-9-1.8,15.73,15.73,0,0,1-6.15-5.2,23.55,23.55,0,0,1-3.55-8.25,48.41,48.41,0,0,1-1.15-11q0-13.5,5.35-20t14.85-6.45a20.49,20.49,0,0,1,6.2.95,13.62,13.62,0,0,1,5.35,3.2,16.16,16.16,0,0,1,3.8,6,26.43,26.43,0,0,1,1.45,9.46,46.53,46.53,0,0,1-.25,4.7q-.26,2.49-.76,5.39H632.94q.21,6.21,2.63,9.5c1.61,2.2,4.21,3.3,7.77,3.3a16.66,16.66,0,0,0,5.91-1,15.21,15.21,0,0,0,4.09-2.1Zm-15.68-37.5A6.41,6.41,0,0,0,635.57,54a18.09,18.09,0,0,0-2.23,8.56h14c.2-3.81-.21-6.69-1.22-8.66A5,5,0,0,0,641.36,50.91Z"/>
    <path class="cls-3" d="M666.14,45.11a27.3,27.3,0,0,1,7.5-2.9,43.26,43.26,0,0,1,10.2-1.1q8.5,0,11.85,4.41T699,58q0,4.69-.25,9.25c-.16,3-.28,6-.35,8.89s0,5.7.15,8.41a33.24,33.24,0,0,0,1.35,7.64h-9.7l-1.9-6.1h-.4a13.24,13.24,0,0,1-4.5,4.8,13,13,0,0,1-7.3,1.91,11.62,11.62,0,0,1-9.3-4q-3.39-3.94-3.4-10.54,0-9,6.4-12.8t17.3-3.2q.5-5.8-.75-8.41T681,51.32a28.75,28.75,0,0,0-6.2.7,22.63,22.63,0,0,0-5.7,2Zm14.3,37.5a6.91,6.91,0,0,0,4.4-1.34,9.06,9.06,0,0,0,2.5-3V70a19.82,19.82,0,0,0-4.4-.11,12.17,12.17,0,0,0-3.7.91,5.55,5.55,0,0,0-3.5,5.5A7.57,7.57,0,0,0,677,81,4.15,4.15,0,0,0,680.44,82.61Z"/>
    <path class="cls-3" d="M724.14,78.82a5,5,0,0,0-1.35-3.55,15.33,15.33,0,0,0-3.45-2.7q-2.1-1.26-4.45-2.55a24.49,24.49,0,0,1-4.45-3.2A15.4,15.4,0,0,1,707,62.21a15.14,15.14,0,0,1-1.35-6.8q0-7,3.8-10.8t11.2-3.79a34.6,34.6,0,0,1,8.3,1,22.13,22.13,0,0,1,6.2,2.34l-2.8,9.21a37.16,37.16,0,0,0-4.6-1.55,19.77,19.77,0,0,0-5.3-.75q-4.91,0-4.9,4.09a4.14,4.14,0,0,0,1.35,3.16,19,19,0,0,0,3.45,2.44q2.1,1.22,4.45,2.5a22.7,22.7,0,0,1,4.45,3.25A15,15,0,0,1,736,78.11q0,6.9-4.2,11.1c-2.8,2.81-7,4.2-12.5,4.2a32.52,32.52,0,0,1-8.05-1,20.63,20.63,0,0,1-6.35-2.59l3.3-9.61a26.29,26.29,0,0,0,4.85,2.11,18.64,18.64,0,0,0,5.75.89,6.46,6.46,0,0,0,3.8-1A3.79,3.79,0,0,0,724.14,78.82Z"/>
    <path class="cls-3" d="M776.14,88.41a19.24,19.24,0,0,1-6.8,3.61,29,29,0,0,1-9,1.39,20.36,20.36,0,0,1-9-1.8,15.73,15.73,0,0,1-6.15-5.2,23.55,23.55,0,0,1-3.55-8.25,47.85,47.85,0,0,1-1.15-11q0-13.5,5.35-20t14.85-6.45a20.53,20.53,0,0,1,6.2.95,13.69,13.69,0,0,1,5.35,3.2,16.28,16.28,0,0,1,3.8,6,26.43,26.43,0,0,1,1.45,9.46,46.53,46.53,0,0,1-.25,4.7q-.25,2.49-.76,5.39H752q.21,6.21,2.63,9.5t7.77,3.3a16.66,16.66,0,0,0,5.91-1,15.37,15.37,0,0,0,4.09-2.1Zm-15.68-37.5A6.4,6.4,0,0,0,754.67,54a18,18,0,0,0-2.23,8.56h14c.2-3.81-.21-6.69-1.22-8.66A5,5,0,0,0,760.46,50.91Z"/>
    <path class="cls-3" d="M801.94,78.82a5,5,0,0,0-1.35-3.55,15.33,15.33,0,0,0-3.45-2.7Q795,71.31,792.69,70a24.15,24.15,0,0,1-4.45-3.2,15.4,15.4,0,0,1-3.45-4.61,15.14,15.14,0,0,1-1.35-6.8q0-7,3.8-10.8t11.2-3.79a34.66,34.66,0,0,1,8.3,1,22.13,22.13,0,0,1,6.2,2.34l-2.8,9.21a37.74,37.74,0,0,0-4.6-1.55,19.77,19.77,0,0,0-5.3-.75q-4.9,0-4.9,4.09a4.14,4.14,0,0,0,1.35,3.16,19,19,0,0,0,3.45,2.44q2.1,1.22,4.45,2.5A22.7,22.7,0,0,1,809,66.46a15,15,0,0,1,4.8,11.65q0,6.9-4.2,11.1c-2.8,2.81-7,4.2-12.5,4.2a32.52,32.52,0,0,1-8-1,20.63,20.63,0,0,1-6.35-2.59l3.3-9.61a26.29,26.29,0,0,0,4.85,2.11,18.64,18.64,0,0,0,5.75.89,6.48,6.48,0,0,0,3.8-1A3.79,3.79,0,0,0,801.94,78.82Z"/>
    <path class="cls-2" d="M879.94,33.71h-16.6v58.4h-12.6V33.71h-16.6V22.11h45.8Z"/>
    <path class="cls-3" d="M872.74,67.11q0-13.29,5.2-19.79t14.5-6.5q10,0,14.9,6.59t4.9,19.7q0,13.41-5.2,19.85t-14.6,6.45Q872.73,93.41,872.74,67.11Zm12.3,0q0,7.5,1.7,11.6t5.7,4.11a6,6,0,0,0,5.65-3.55q1.85-3.55,1.85-12.16,0-7.7-1.7-11.7a5.93,5.93,0,0,0-5.8-4c-2.34,0-4.15,1.19-5.45,3.55S885,61.38,885,67.11Z"/>
    <path class="cls-3" d="M917.24,67.11q0-13.29,5.2-19.79t14.5-6.5q10,0,14.9,6.59t4.9,19.7q0,13.41-5.2,19.85t-14.6,6.45Q917.23,93.41,917.24,67.11Zm12.3,0q0,7.5,1.7,11.6t5.7,4.11a6,6,0,0,0,5.65-3.55q1.85-3.55,1.85-12.16,0-7.7-1.7-11.7a5.93,5.93,0,0,0-5.8-4c-2.34,0-4.15,1.19-5.45,3.55S929.54,61.38,929.54,67.11Z"/>
    <path class="cls-3" d="M975.64,75.91a12.72,12.72,0,0,0,.7,5,2.37,2.37,0,0,0,2.3,1.5,8.58,8.58,0,0,0,1.85-.2,12.23,12.23,0,0,0,2.15-.69l1.1,9.59a13.37,13.37,0,0,1-4.1,1.5,24.93,24.93,0,0,1-5.9.71c-3.34,0-5.84-.84-7.5-2.5s-2.5-4.5-2.5-8.5V22.11h11.9Z"/>
    <path class="cls-3" d="M1002.54,71.41h-2.8v20.7h-11.9v-70h11.9v41.3l2.4-1.39,8.3-19.91h12.9l-9.2,19.8-4.3,3.41,4.7,3.39,10.2,23.4h-13.4Z"/>
    <path class="cls-3" d="M1028.64,28a6.77,6.77,0,0,1,1.9-4.95,7.18,7.18,0,0,1,5.4-2,8,8,0,0,1,5.6,1.91,6.41,6.41,0,0,1,2.1,5,6.11,6.11,0,0,1-2.1,4.89,8.32,8.32,0,0,1-5.6,1.8,7.37,7.37,0,0,1-5.4-1.85A6.42,6.42,0,0,1,1028.64,28Zm1.4,14.09h11.9v50H1030Z"/>
    <path class="cls-3" d="M1047.63,42.11h5.5v-9.4L1065,29V42.11h9.7v10.6H1065V74.52a15.65,15.65,0,0,0,.85,6.09,3.08,3.08,0,0,0,3,1.8,10.68,10.68,0,0,0,2.7-.3,17.21,17.21,0,0,0,2.6-.9l1.5,9.5a25.2,25.2,0,0,1-5.1,1.86,24.22,24.22,0,0,1-6.1.75c-3.8,0-6.65-1.11-8.55-3.3s-2.85-5.91-2.85-11.11V52.71h-5.5Z"/>
  </g>
</svg>
