<svg id="Layer_1" data-name="Layer 1" xmlns="http://www.w3.org/2000/svg" width="1082.07" height="154.58" viewBox="0 0 1082.07 154.58">
  <defs>
    <style>
      .cls-1 {
        fill: #477c9e;
      }

      .cls-2 {
        fill: #414142;
      }

      .cls-3 {
        fill: #e63a47;
      }
    </style>
  </defs>
  <g>
    <path class="cls-1" d="M145.53,42h12.6v70h-12.6Z"/>
    <path class="cls-2" d="M192.83,112V81.59c0-3.67-.43-6.23-1.3-7.7a4.69,4.69,0,0,0-4.4-2.2,6.76,6.76,0,0,0-4.5,1.6,8.7,8.7,0,0,0-2.7,4V112H168V62h9.5l1.4,5.8h.3a16.16,16.16,0,0,1,4.9-5,14.43,14.43,0,0,1,8.1-2.05,14.89,14.89,0,0,1,5.35.9,9,9,0,0,1,3.95,3,13.92,13.92,0,0,1,2.4,5.5,38.8,38.8,0,0,1,.8,8.55V112Z"/>
    <path class="cls-2" d="M209.43,62h5.4v-2.8q0-9.49,3.55-13.75t10.15-4.25a29.23,29.23,0,0,1,11,1.8l-2.2,10.1a12.65,12.65,0,0,0-3.2-.85,27.31,27.31,0,0,0-2.9-.15c-1.94,0-3.17.75-3.7,2.25a25.23,25.23,0,0,0-.8,7.65h8.5v10.6h-8.5V112h-11.9V72.59h-5.4Z"/>
    <path class="cls-2" d="M273.43,108.29a19.16,19.16,0,0,1-6.8,3.6,29,29,0,0,1-9,1.4,20.5,20.5,0,0,1-8.95-1.8,15.73,15.73,0,0,1-6.15-5.2A23.53,23.53,0,0,1,239,98,47.91,47.91,0,0,1,237.83,87q0-13.5,5.35-19.95T258,60.59a20.53,20.53,0,0,1,6.2.95,13.57,13.57,0,0,1,5.35,3.2,16.41,16.41,0,0,1,3.8,6,26.59,26.59,0,0,1,1.45,9.45c0,1.47-.09,3-.25,4.7s-.42,3.47-.76,5.4H249.33q.19,6.19,2.62,9.5t7.78,3.3a16.74,16.74,0,0,0,5.91-1,16.16,16.16,0,0,0,4.09-2.1Zm-15.69-37.5a6.39,6.39,0,0,0-5.78,3,17.9,17.9,0,0,0-2.23,8.55h14q.3-5.7-1.22-8.65A5,5,0,0,0,257.74,70.79Z"/>
    <path class="cls-2" d="M311.93,109.29a17.09,17.09,0,0,1-6,3,25.3,25.3,0,0,1-7,1,18,18,0,0,1-8.55-1.85,15,15,0,0,1-5.65-5.3,23.71,23.71,0,0,1-3.15-8.3A56.11,56.11,0,0,1,280.63,87q0-13.09,4.7-19.7t13.8-6.6a28,28,0,0,1,7.35.8,24.06,24.06,0,0,1,5,2l-2.8,9.9A18.85,18.85,0,0,0,305.28,72a15.18,15.18,0,0,0-3.95-.45,6.83,6.83,0,0,0-6.3,3.65q-2.1,3.65-2.1,11.75a24.77,24.77,0,0,0,2.15,11.1,7.15,7.15,0,0,0,6.85,4.3,12.37,12.37,0,0,0,4.25-.65,15.51,15.51,0,0,0,3.25-1.65Z"/>
    <path class="cls-2" d="M313.53,62H319v-9.4l11.9-3.7V62h9.7v10.6h-9.7v21.8a15.48,15.48,0,0,0,.85,6.1,3.07,3.07,0,0,0,3.05,1.8,11.15,11.15,0,0,0,2.7-.3,17.6,17.6,0,0,0,2.6-.9l1.5,9.5a26.3,26.3,0,0,1-5.1,1.85,24.33,24.33,0,0,1-6.1.75q-5.7,0-8.55-3.3T319,98.79V72.59h-5.5Z"/>
    <path class="cls-2" d="M346.13,47.89a6.79,6.79,0,0,1,1.9-5,7.17,7.17,0,0,1,5.4-1.95,8,8,0,0,1,5.6,1.9,6.42,6.42,0,0,1,2.1,5,6.11,6.11,0,0,1-2.1,4.9,8.32,8.32,0,0,1-5.6,1.8,7.41,7.41,0,0,1-5.4-1.85A6.45,6.45,0,0,1,346.13,47.89Zm1.4,14.1h11.9v50h-11.9Z"/>
    <path class="cls-2" d="M367.22,87q0-13.3,5.2-19.8t14.5-6.5q10,0,14.9,6.6t4.9,19.7q0,13.4-5.2,19.85t-14.6,6.45Q367.23,113.29,367.22,87Zm12.3,0q0,7.5,1.7,11.6t5.7,4.1a6,6,0,0,0,5.65-3.55q1.86-3.56,1.85-12.15,0-7.69-1.7-11.7a5.9,5.9,0,0,0-5.8-4q-3.5,0-5.45,3.55T379.52,87Z"/>
    <path class="cls-2" d="M425,62v29.9c0,3.93.37,6.67,1.1,8.2a4.05,4.05,0,0,0,4,2.3,6.13,6.13,0,0,0,4.7-2,11.71,11.71,0,0,0,2.7-5V62h11.9v34.8c0,2.73.1,5.42.3,8a43.36,43.36,0,0,0,1.1,7.15h-9l-2.1-6.8h-.3a16.78,16.78,0,0,1-5.15,5.8,13.59,13.59,0,0,1-8,2.3,16.37,16.37,0,0,1-5.5-.85,9.2,9.2,0,0,1-4.1-3,14.7,14.7,0,0,1-2.6-5.75,39.56,39.56,0,0,1-.9-9.25V62Z"/>
    <path class="cls-2" d="M474.92,98.69a5,5,0,0,0-1.35-3.55,15.33,15.33,0,0,0-3.45-2.7q-2.1-1.25-4.45-2.55a24,24,0,0,1-4.45-3.2,15.48,15.48,0,0,1-3.45-4.6,15.17,15.17,0,0,1-1.35-6.8q0-7,3.8-10.8t11.2-3.8a35.11,35.11,0,0,1,8.3,1,22.11,22.11,0,0,1,6.2,2.35l-2.8,9.2a38.91,38.91,0,0,0-4.6-1.55,19.71,19.71,0,0,0-5.3-.75c-3.26,0-4.9,1.37-4.9,4.1a4.1,4.1,0,0,0,1.35,3.15,19,19,0,0,0,3.45,2.45c1.4.8,2.89,1.63,4.45,2.5A22.7,22.7,0,0,1,482,86.34a15.67,15.67,0,0,1,3.45,4.75,15.84,15.84,0,0,1,1.35,6.9q0,6.9-4.2,11.1t-12.5,4.2a32.57,32.57,0,0,1-8.05-1,20.62,20.62,0,0,1-6.35-2.6l3.3-9.6a26.29,26.29,0,0,0,4.85,2.1,18.4,18.4,0,0,0,5.75.9,6.46,6.46,0,0,0,3.8-1A3.81,3.81,0,0,0,474.92,98.69Z"/>
    <path class="cls-1" d="M513.82,42q1.8-.3,4-.45l4.6-.3c1.57-.1,3.08-.17,4.55-.2s2.77,0,3.9,0a33.17,33.17,0,0,1,13.85,2.55,22.07,22.07,0,0,1,8.9,7.2,29.45,29.45,0,0,1,4.75,11.15,69.27,69.27,0,0,1,1.4,14.5,69.94,69.94,0,0,1-1.35,14,32.15,32.15,0,0,1-4.75,11.7,24.28,24.28,0,0,1-9.2,8q-5.81,3-14.6,3c-.87,0-2,0-3.5-.1s-3-.15-4.6-.25l-4.6-.3c-1.47-.1-2.6-.22-3.4-.35Zm18.4,10.6c-1.07,0-2.15,0-3.25,0a14.48,14.48,0,0,0-2.55.25v48.2a4.39,4.39,0,0,0,1.05.15l1.6.1,1.6.1,1.05,0a12.3,12.3,0,0,0,7.4-2.1,14.33,14.33,0,0,0,4.55-5.6,28,28,0,0,0,2.3-8.05,68,68,0,0,0,.65-9.55,69.51,69.51,0,0,0-.55-8.9,25,25,0,0,0-2.1-7.55,12,12,0,0,0-11.75-7.15Z"/>
    <path class="cls-2" d="M566.72,47.89a6.79,6.79,0,0,1,1.9-5A7.21,7.21,0,0,1,574,41a8,8,0,0,1,5.6,1.9,6.42,6.42,0,0,1,2.1,5,6.11,6.11,0,0,1-2.1,4.9,8.32,8.32,0,0,1-5.6,1.8,7.45,7.45,0,0,1-5.4-1.85A6.45,6.45,0,0,1,566.72,47.89Zm1.4,14.1H580v50h-11.9Z"/>
    <path class="cls-2" d="M606.42,98.69a5,5,0,0,0-1.35-3.55,15.33,15.33,0,0,0-3.45-2.7q-2.1-1.25-4.45-2.55a23.69,23.69,0,0,1-4.45-3.2,15.48,15.48,0,0,1-3.45-4.6,15.17,15.17,0,0,1-1.35-6.8q0-7,3.8-10.8t11.2-3.8a35.17,35.17,0,0,1,8.3,1,22.23,22.23,0,0,1,6.2,2.35l-2.8,9.2a39.54,39.54,0,0,0-4.6-1.55,19.77,19.77,0,0,0-5.3-.75q-4.9,0-4.9,4.1a4.1,4.1,0,0,0,1.35,3.15,19,19,0,0,0,3.45,2.45q2.1,1.2,4.45,2.5a23,23,0,0,1,4.45,3.25A15.67,15.67,0,0,1,617,91.09a15.84,15.84,0,0,1,1.35,6.9q0,6.9-4.2,11.1t-12.5,4.2a32.46,32.46,0,0,1-8-1,20.52,20.52,0,0,1-6.35-2.6l3.3-9.6a26,26,0,0,0,4.85,2.1,18.35,18.35,0,0,0,5.75.9,6.48,6.48,0,0,0,3.8-1A3.81,3.81,0,0,0,606.42,98.69Z"/>
    <path class="cls-2" d="M658.42,108.29a19.16,19.16,0,0,1-6.8,3.6,29,29,0,0,1-9,1.4,20.5,20.5,0,0,1-9-1.8,15.73,15.73,0,0,1-6.15-5.2A23.53,23.53,0,0,1,624,98,47.91,47.91,0,0,1,622.82,87q0-13.5,5.35-19.95T643,60.59a20.53,20.53,0,0,1,6.2.95,13.57,13.57,0,0,1,5.35,3.2,16.41,16.41,0,0,1,3.8,6,26.59,26.59,0,0,1,1.45,9.45c0,1.47-.09,3-.25,4.7s-.43,3.47-.76,5.4H634.32q.2,6.19,2.62,9.5t7.78,3.3a16.74,16.74,0,0,0,5.91-1,16.16,16.16,0,0,0,4.09-2.1Zm-15.69-37.5a6.39,6.39,0,0,0-5.78,3q-1.94,3-2.23,8.55h14q.3-5.7-1.22-8.65A5,5,0,0,0,642.73,70.79Z"/>
    <path class="cls-2" d="M667.52,65a27,27,0,0,1,7.5-2.9,43.26,43.26,0,0,1,10.2-1.1q8.49,0,11.85,4.4t3.35,12.5c0,3.13-.09,6.22-.25,9.25s-.29,6-.35,8.9,0,5.7.15,8.4a32.38,32.38,0,0,0,1.35,7.65h-9.7l-1.9-6.1h-.4a13.58,13.58,0,0,1-4.5,4.8,13.06,13.06,0,0,1-7.3,1.9,11.62,11.62,0,0,1-9.3-4q-3.4-3.94-3.4-10.55,0-9,6.4-12.8t17.3-3.2q.5-5.81-.75-8.4t-5.35-2.6a28.75,28.75,0,0,0-6.2.7,22.74,22.74,0,0,0-5.7,2Zm14.3,37.5a6.87,6.87,0,0,0,4.4-1.35,9,9,0,0,0,2.5-3v-8.3a19.81,19.81,0,0,0-4.4-.1,11.82,11.82,0,0,0-3.7.9,6,6,0,0,0-2.55,2,5.81,5.81,0,0,0-1,3.45,7.48,7.48,0,0,0,1.25,4.7A4.12,4.12,0,0,0,681.82,102.49Z"/>
    <path class="cls-2" d="M725.52,98.69a5,5,0,0,0-1.35-3.55,15.33,15.33,0,0,0-3.45-2.7c-1.4-.83-2.89-1.68-4.45-2.55a23.69,23.69,0,0,1-4.45-3.2,15.48,15.48,0,0,1-3.45-4.6,15.17,15.17,0,0,1-1.35-6.8q0-7,3.8-10.8t11.2-3.8a35.17,35.17,0,0,1,8.3,1,22.23,22.23,0,0,1,6.2,2.35l-2.8,9.2a39.54,39.54,0,0,0-4.6-1.55,19.77,19.77,0,0,0-5.3-.75q-4.91,0-4.9,4.1a4.1,4.1,0,0,0,1.35,3.15,19,19,0,0,0,3.45,2.45q2.1,1.2,4.45,2.5a23,23,0,0,1,4.45,3.25,15.67,15.67,0,0,1,3.45,4.75,15.84,15.84,0,0,1,1.35,6.9q0,6.9-4.2,11.1t-12.5,4.2a32.46,32.46,0,0,1-8.05-1,20.52,20.52,0,0,1-6.35-2.6l3.3-9.6a26,26,0,0,0,4.85,2.1,18.35,18.35,0,0,0,5.75.9,6.48,6.48,0,0,0,3.8-1A3.81,3.81,0,0,0,725.52,98.69Z"/>
    <path class="cls-2" d="M777.52,108.29a19.16,19.16,0,0,1-6.8,3.6,29,29,0,0,1-9,1.4,20.5,20.5,0,0,1-9-1.8,15.73,15.73,0,0,1-6.15-5.2A23.53,23.53,0,0,1,743.07,98,47.91,47.91,0,0,1,741.92,87q0-13.5,5.35-19.95t14.85-6.45a20.53,20.53,0,0,1,6.2.95,13.57,13.57,0,0,1,5.35,3.2,16.41,16.41,0,0,1,3.8,6,26.59,26.59,0,0,1,1.45,9.45,46.52,46.52,0,0,1-.26,4.7q-.25,2.51-.75,5.4H753.42q.2,6.19,2.62,9.5t7.78,3.3a16.74,16.74,0,0,0,5.91-1,16.16,16.16,0,0,0,4.09-2.1Zm-15.69-37.5a6.39,6.39,0,0,0-5.78,3q-1.93,3-2.23,8.55h14q.3-5.7-1.22-8.65A5,5,0,0,0,761.83,70.79Z"/>
    <path class="cls-2" d="M803.32,98.69A5,5,0,0,0,802,95.14a15.33,15.33,0,0,0-3.45-2.7c-1.4-.83-2.89-1.68-4.45-2.55a23.69,23.69,0,0,1-4.45-3.2,15.48,15.48,0,0,1-3.45-4.6,15.17,15.17,0,0,1-1.35-6.8q0-7,3.8-10.8t11.2-3.8a35.17,35.17,0,0,1,8.3,1,22.23,22.23,0,0,1,6.2,2.35l-2.8,9.2a39.54,39.54,0,0,0-4.6-1.55,19.77,19.77,0,0,0-5.3-.75q-4.9,0-4.9,4.1a4.1,4.1,0,0,0,1.35,3.15,19,19,0,0,0,3.45,2.45q2.1,1.2,4.45,2.5a23,23,0,0,1,4.45,3.25,15.67,15.67,0,0,1,3.45,4.75,15.84,15.84,0,0,1,1.35,6.9q0,6.9-4.2,11.1t-12.5,4.2a32.46,32.46,0,0,1-8-1,20.52,20.52,0,0,1-6.35-2.6l3.3-9.6a26,26,0,0,0,4.85,2.1,18.35,18.35,0,0,0,5.75.9,6.48,6.48,0,0,0,3.8-1A3.81,3.81,0,0,0,803.32,98.69Z"/>
    <path class="cls-1" d="M881.31,53.59h-16.6V112H852.12V53.59H835.51V42h45.8Z"/>
    <path class="cls-2" d="M874.12,87q0-13.3,5.2-19.8t14.5-6.5q10,0,14.89,6.6T913.62,87q0,13.4-5.21,19.85t-14.59,6.45Q874.11,113.29,874.12,87Zm12.29,0q0,7.5,1.71,11.6t5.7,4.1a6,6,0,0,0,5.64-3.55q1.86-3.56,1.86-12.15,0-7.69-1.7-11.7a5.92,5.92,0,0,0-5.8-4q-3.51,0-5.45,3.55T886.41,87Z"/>
    <path class="cls-2" d="M918.61,87q0-13.3,5.2-19.8t14.5-6.5q10,0,14.9,6.6t4.9,19.7q0,13.4-5.2,19.85t-14.6,6.45Q918.62,113.29,918.61,87Zm12.3,0q0,7.5,1.7,11.6t5.7,4.1A6,6,0,0,0,944,99.14q1.86-3.56,1.85-12.15,0-7.69-1.7-11.7a5.9,5.9,0,0,0-5.8-4q-3.49,0-5.45,3.55T930.91,87Z"/>
    <path class="cls-2" d="M977,95.79a13,13,0,0,0,.7,5,2.38,2.38,0,0,0,2.3,1.5,9.18,9.18,0,0,0,1.85-.2,12.08,12.08,0,0,0,2.15-.7l1.1,9.6a13.81,13.81,0,0,1-4.1,1.5c-1.93.47-11.73-.13-13.4-1.8s-2.5-4.5-2.5-8.5V42H977Z"/>
    <path class="cls-1" d="M1003.91,91.29h-2.8V112h-11.9V42h11.9v41.3l2.4-1.4,8.3-19.9h12.9l-9.2,19.8-4.3,3.4,4.7,3.4,10.2,23.4h-13.4Z"/>
    <path class="cls-2" d="M1030,47.89a6.79,6.79,0,0,1,1.9-5,7.21,7.21,0,0,1,5.4-1.95,8,8,0,0,1,5.6,1.9,6.42,6.42,0,0,1,2.1,5,6.11,6.11,0,0,1-2.1,4.9,8.32,8.32,0,0,1-5.6,1.8,7.45,7.45,0,0,1-5.4-1.85A6.45,6.45,0,0,1,1030,47.89Zm1.4,14.1h11.9v50h-11.9Z"/>
    <path class="cls-2" d="M1049,62h5.5v-9.4l11.9-3.7V62h9.7v10.6h-9.7v21.8a15.48,15.48,0,0,0,.85,6.1,3.08,3.08,0,0,0,3,1.8,11.15,11.15,0,0,0,2.7-.3,17.21,17.21,0,0,0,2.6-.9l1.5,9.5a26.3,26.3,0,0,1-5.1,1.85,24.27,24.27,0,0,1-6.1.75q-5.7,0-8.55-3.3t-2.85-11.1V72.59H1049Z"/>
  </g>
  <g>
    <path class="cls-3" d="M95.11,116.82l-19.26-5.08A1.72,1.72,0,0,0,73.73,113l-1.79,7.49a1.72,1.72,0,0,0,1.24,2.07l37.6,9.92a1.73,1.73,0,0,0,2.11-2.11L103,92.78a1.72,1.72,0,0,0-2.07-1.24l-7.5,1.78a1.73,1.73,0,0,0-1.27,2.12l5.08,19.27A1.73,1.73,0,0,1,95.11,116.82Z"/>
    <path class="cls-3" d="M97.21,40.06,92.14,59.32a1.72,1.72,0,0,0,1.27,2.12l7.49,1.79A1.74,1.74,0,0,0,103,62l9.91-37.6a1.73,1.73,0,0,0-2.11-2.11L73.18,32.19a1.72,1.72,0,0,0-1.24,2.07l1.78,7.5A1.74,1.74,0,0,0,75.84,43L95.1,38A1.73,1.73,0,0,1,97.21,40.06Z"/>
    <path class="cls-3" d="M18.35,114.71l5.08-19.27a1.73,1.73,0,0,0-1.27-2.12l-7.5-1.78a1.72,1.72,0,0,0-2.07,1.24l-9.91,37.6a1.73,1.73,0,0,0,2.11,2.11l37.6-9.92a1.74,1.74,0,0,0,1.24-2.07L41.84,113a1.72,1.72,0,0,0-2.12-1.27l-4.52,1.19-14.74,3.89A1.73,1.73,0,0,1,18.35,114.71Z"/>
    <path class="cls-3" d="M20.55,37.86l19.26,5.08a1.73,1.73,0,0,0,2.12-1.27l1.79-7.5a1.74,1.74,0,0,0-1.24-2.07L4.88,22.19A1.73,1.73,0,0,0,2.77,24.3l9.91,37.6a1.73,1.73,0,0,0,2.07,1.23l7.5-1.78a1.73,1.73,0,0,0,1.27-2.12L18.44,40A1.73,1.73,0,0,1,20.55,37.86Z"/>
    <path class="cls-1" d="M46.09,29.72a5.72,5.72,0,0,1,1.52,5.38l-.16.64a42.56,42.56,0,0,1,20.74.06l-.14-.61a5.7,5.7,0,0,1,4.11-6.87L82.48,25.6a57.27,57.27,0,0,0-49.33-.1L43.5,28.23A5.73,5.73,0,0,1,46.09,29.72Z"/>
    <path class="cls-1" d="M69.57,125a5.67,5.67,0,0,1-1.52-5.37l.18-.76a42.38,42.38,0,0,1-20.88,0l.17.73a5.69,5.69,0,0,1-4.11,6.86l-10.24,2.7a57.17,57.17,0,0,0,49.13,0l-10.14-2.67A5.73,5.73,0,0,1,69.57,125Z"/>
    <path class="cls-1" d="M100,67.12l-.7-.17a42.73,42.73,0,0,1,0,20.87l.74-.17a5.71,5.71,0,0,1,6.86,4.11l2.67,10.13a58,58,0,0,0,0-49.12L106.84,63A5.69,5.69,0,0,1,100,67.12Z"/>
    <path class="cls-1" d="M15.59,87.65l.61.14A43.41,43.41,0,0,1,14.89,77a42.88,42.88,0,0,1,1.29-10.1l-.5.12a5.72,5.72,0,0,1-6.86-4.12L6.05,52.44a57.21,57.21,0,0,0,0,49.65L8.72,91.76A5.7,5.7,0,0,1,15.59,87.65Z"/>
    <path class="cls-3" d="M48.21,83.37V71.53a3.92,3.92,0,0,1,3.92-3.93H64a3.93,3.93,0,0,1,3.93,3.93V83.37A3.92,3.92,0,0,1,64,87.29H52.13A3.91,3.91,0,0,1,48.21,83.37ZM79.9,59.53A3.93,3.93,0,0,0,76,55.6H40.13a3.92,3.92,0,0,0-3.92,3.93V95.37a3.91,3.91,0,0,0,3.92,3.92H76a3.92,3.92,0,0,0,3.93-3.92Z"/>
  </g>
</svg>
