<svg id="Layer_1" data-name="Layer 1" xmlns="http://www.w3.org/2000/svg" width="1055.53" height="154.58" viewBox="0 0 1055.53 154.58">
  <defs>
    <style>
      .cls-1 {
        fill: #e63a47;
      }

      .cls-2 {
        fill: #477c9e;
      }

      .cls-3 {
        fill: #414142;
      }
    </style>
  </defs>
  <g>
    <path class="cls-1" d="M95.81,116.82l-19.26-5.08A1.72,1.72,0,0,0,74.43,113l-1.78,7.49a1.72,1.72,0,0,0,1.24,2.07l37.59,9.92a1.73,1.73,0,0,0,2.11-2.11l-9.91-37.6a1.72,1.72,0,0,0-2.07-1.24l-7.5,1.78a1.73,1.73,0,0,0-1.26,2.12l5.07,19.27A1.73,1.73,0,0,1,95.81,116.82Z"/>
    <path class="cls-1" d="M97.92,40.06,92.84,59.32a1.72,1.72,0,0,0,1.27,2.12l7.5,1.79A1.74,1.74,0,0,0,103.68,62l9.91-37.6a1.73,1.73,0,0,0-2.11-2.11l-37.6,9.91a1.74,1.74,0,0,0-1.24,2.07l1.79,7.5A1.73,1.73,0,0,0,76.55,43L95.81,38A1.73,1.73,0,0,1,97.92,40.06Z"/>
    <path class="cls-1" d="M19.06,114.71l5.07-19.27a1.73,1.73,0,0,0-1.27-2.12l-7.49-1.78a1.72,1.72,0,0,0-2.07,1.24l-9.91,37.6a1.73,1.73,0,0,0,2.11,2.11l37.59-9.92a1.72,1.72,0,0,0,1.24-2.07L42.55,113a1.72,1.72,0,0,0-2.12-1.27l-4.52,1.19-14.75,3.89A1.72,1.72,0,0,1,19.06,114.71Z"/>
    <path class="cls-1" d="M21.26,37.86l19.26,5.08a1.74,1.74,0,0,0,2.12-1.27l1.78-7.5a1.72,1.72,0,0,0-1.24-2.07L5.59,22.19A1.73,1.73,0,0,0,3.48,24.3l9.91,37.6a1.73,1.73,0,0,0,2.07,1.23L23,61.35a1.72,1.72,0,0,0,1.27-2.12L19.15,40A1.73,1.73,0,0,1,21.26,37.86Z"/>
    <path class="cls-2" d="M46.79,29.72a5.68,5.68,0,0,1,1.52,5.38l-.15.64a42.56,42.56,0,0,1,20.74.06l-.15-.61a5.7,5.7,0,0,1,4.11-6.87L83.18,25.6a57.27,57.27,0,0,0-49.33-.1L44.2,28.23A5.68,5.68,0,0,1,46.79,29.72Z"/>
    <path class="cls-2" d="M70.28,125a5.65,5.65,0,0,1-1.52-5.37l.18-.76a42.42,42.42,0,0,1-20.89,0l.17.73a5.69,5.69,0,0,1-4.11,6.86l-10.23,2.7a57.17,57.17,0,0,0,49.13,0l-10.14-2.67A5.68,5.68,0,0,1,70.28,125Z"/>
    <path class="cls-2" d="M100.68,67.12,100,67a42.73,42.73,0,0,1,0,20.87l.73-.17a5.73,5.73,0,0,1,6.87,4.11l2.67,10.13a57.93,57.93,0,0,0,0-49.12L107.54,63A5.69,5.69,0,0,1,100.68,67.12Z"/>
    <path class="cls-2" d="M16.29,87.65l.62.14a42.7,42.7,0,0,1,0-20.88l-.5.12a5.74,5.74,0,0,1-6.86-4.12L6.76,52.44a57.21,57.21,0,0,0,0,49.65L9.43,91.76A5.69,5.69,0,0,1,16.29,87.65Z"/>
    <path class="cls-1" d="M48.91,83.37V71.53a3.93,3.93,0,0,1,3.93-3.93H64.68a3.92,3.92,0,0,1,3.92,3.93V83.37a3.91,3.91,0,0,1-3.92,3.92H52.84A3.92,3.92,0,0,1,48.91,83.37ZM80.6,59.53a3.92,3.92,0,0,0-3.92-3.93H40.84a3.93,3.93,0,0,0-3.93,3.93V95.37a3.92,3.92,0,0,0,3.93,3.92H76.68a3.91,3.91,0,0,0,3.92-3.92Z"/>
  </g>
  <g>
    <path class="cls-2" d="M158.2,43.66v67.91h-14V43.66Z"/>
    <path class="cls-3" d="M179.5,61.86v6.6a11.76,11.76,0,0,1,4.2-5.4,12,12,0,0,1,7.5-2.4c7.8,0,11.7,4.8,11.7,14.3v36.71H189.2V79.16c0-4.1-1.5-6.1-4.4-6.1a4.64,4.64,0,0,0-3.8,1.6,6.91,6.91,0,0,0-1.4,4.5v32.41H165.9V61.66Z"/>
    <path class="cls-3" d="M226.7,111.57H212.9V72.26h-6.4V62.06h6.4v-4.2c0-5.2,1.1-9,3.3-11.5s5.2-3.7,9-3.7a22.28,22.28,0,0,1,9,1.6l-1.4,10.9a10,10,0,0,0-5.7-2.2c-2.1,0-3.1,1.4-3.1,4.2a19.93,19.93,0,0,0,.6,4.9h11.1v10.2h-8.8Z"/>
    <path class="cls-3" d="M273.5,93.57v.69c0,6.11-1.5,10.71-4.6,13.81s-7.4,4.6-12.9,4.6c-5.8,0-10.2-1.6-13.3-4.8s-4.6-7.8-4.6-13.8V79.36c0-5.7,1.5-10.3,4.5-13.7s7.5-5.1,13.4-5.1c11.6,0,17.4,6,17.4,17.9v9.8H251.9v6.9c0,4.21,1.7,6.31,5,6.31s5-2.1,5-6.31v-2.5Zm-12-12.91v-4.4c0-4.1-1.7-6.2-5.1-6.2s-4.9,2.1-4.9,6.3v4.3Z"/>
    <path class="cls-3" d="M312.6,92.36v.9q0,10.06-4.8,14.71c-3.2,3.1-7.4,4.6-12.6,4.6q-8.7,0-12.9-5.1T278.1,94V79.26q0-8.25,4.2-13.5c2.8-3.5,7.1-5.2,13-5.2a18,18,0,0,1,12.6,4.5c3.3,3,4.9,7.7,4.9,14.2V81l-10.7.9v-2.6c0-4.3-1.7-6.5-5-6.5s-5,2.2-5,6.5v14.6c0,4.21,1.7,6.3,5,6.3s5-2.09,5-6.3v-2.4Z"/>
    <path class="cls-3" d="M343,110.67a22.49,22.49,0,0,1-9.9,2.1c-8.5,0-12.8-4.61-12.8-13.8V72h-5V61.86a18.18,18.18,0,0,0,4.5-.4,8,8,0,0,0,3.3-1.9,9,9,0,0,0,2.4-4.8,46.3,46.3,0,0,0,.9-8.6h8.1v15.5h8.9v10.1h-9.3v22.9c0,3.31,1.2,4.91,3.6,4.91a10.94,10.94,0,0,0,5.4-1.7Z"/>
    <path class="cls-3" d="M348.09,41.76H361.8v11.9H348.09Zm0,19.9H361.8v49.91H348.09Z"/>
    <path class="cls-3" d="M386.7,112.67a19.65,19.65,0,0,1-13.3-4.7q-5.4-4.65-5.4-14.4V80.06c0-6.5,1.8-11.4,5.4-14.6a19.24,19.24,0,0,1,13.3-4.8,19.49,19.49,0,0,1,13.4,4.8c3.6,3.2,5.4,8,5.4,14.5v13.5q0,9.77-5.4,14.41a20,20,0,0,1-13.5,4.7Zm5-18.81V79.26c0-4.3-1.7-6.5-5.1-6.5s-4.9,2.2-4.9,6.5v14.6c0,4.21,1.6,6.3,4.9,6.3S391.7,98.07,391.7,93.86Z"/>
    <path class="cls-3" d="M434.4,111.47v-6.7a12.22,12.22,0,0,1-4.2,5.4,11.81,11.81,0,0,1-7.31,2.3q-11.7,0-11.7-15V61.56h13.7V94.07c0,4.09,1.5,6.09,4.41,6.09a5,5,0,0,0,3.79-1.69,6.46,6.46,0,0,0,1.5-4.51V61.66H448.3v49.91Z"/>
    <path class="cls-3" d="M470,112.77c-10.8,0-16.2-4.9-16.2-14.61v-2l10-1.09v2.3c0,4.5,1.7,6.7,5.1,6.7,3.1,0,4.7-1.7,4.7-5.2a5.4,5.4,0,0,0-3.3-5.11l-7.9-3.9c-5.3-2.7-8-7.1-8-13.2a16.09,16.09,0,0,1,4.1-11.4c2.7-2.9,6.9-4.4,12.6-4.4,4.9,0,8.7,1.1,11.4,3.4s4.1,5.5,4.1,9.7v2.5l-9.9,1v-2.3c0-3.5-1.4-5.2-4.2-5.2s-4.3,1.6-4.3,4.8c0,2.1,1.4,3.8,4.1,5.1l7.8,3.9c5.1,2.5,7.6,6.8,7.6,12.81a16.1,16.1,0,0,1-4.2,11.5c-2.8,3-7.3,4.5-13.6,4.5Z"/>
    <path class="cls-2" d="M507.09,111.77V43.86h20.1c6.1,0,11,1.7,14.6,5s5.4,8.3,5.4,15V91.57c0,6.8-1.8,11.8-5.3,15.09s-8.4,4.91-14.6,4.91Zm19-13.4c4.7,0,7-2.91,7-8.81V65.46c0-5.7-2.3-8.6-7-8.6h-4.8V98.37Z"/>
    <path class="cls-3" d="M554,41.76h13.7v11.9H554Zm0,19.9h13.7v49.91H554Z"/>
    <path class="cls-3" d="M589.39,112.77c-10.8,0-16.2-4.9-16.2-14.61v-2l10-1.09v2.3c0,4.5,1.7,6.7,5.1,6.7,3.1,0,4.7-1.7,4.7-5.2a5.4,5.4,0,0,0-3.3-5.11l-7.9-3.9c-5.3-2.7-8-7.1-8-13.2a16.09,16.09,0,0,1,4.1-11.4c2.7-2.9,6.9-4.4,12.6-4.4,4.9,0,8.7,1.1,11.4,3.4s4.1,5.5,4.1,9.7v2.5l-9.9,1v-2.3c0-3.5-1.4-5.2-4.2-5.2s-4.3,1.6-4.3,4.8c0,2.1,1.4,3.8,4.1,5.1l7.8,3.9c5.1,2.5,7.6,6.8,7.6,12.81a16.15,16.15,0,0,1-4.2,11.5c-2.8,3-7.3,4.5-13.6,4.5Z"/>
    <path class="cls-3" d="M646.79,93.57v.69c0,6.11-1.5,10.71-4.6,13.81s-7.4,4.6-12.9,4.6c-5.8,0-10.2-1.6-13.3-4.8s-4.6-7.8-4.6-13.8V79.36c0-5.7,1.5-10.3,4.5-13.7s7.5-5.1,13.4-5.1c11.6,0,17.4,6,17.4,17.9v9.8h-21.5v6.9c0,4.21,1.7,6.31,5,6.31s5-2.1,5-6.31v-2.5Zm-12-12.91v-4.4c0-4.1-1.7-6.2-5.1-6.2s-4.9,2.1-4.9,6.3v4.3Z"/>
    <path class="cls-3" d="M653.09,65.76a30.51,30.51,0,0,1,17.1-5.3c8.9,0,13.3,4.8,13.3,14.5V98q0,2.1,1.5,2.1a6.88,6.88,0,0,0,1.3-.2q.75-.16,1.2-.3l.4-.31v11.41a19.2,19.2,0,0,1-8.4,2c-4.3,0-6.8-2.4-7.4-7.1-2.6,4.7-6.3,7.1-11.1,7.1q-4.95,0-7.5-3.3a14.31,14.31,0,0,1-2.6-8.9v-3a13.69,13.69,0,0,1,2.9-9q2.85-3.45,9-5.7l6.1-2.4a3.84,3.84,0,0,0,2.8-3.9c0-3-1.1-4.5-3.4-4.5a16.45,16.45,0,0,0-6.6,2,25,25,0,0,0-6.9,4.8Zm18.2,20.9c-.1.1-.9.7-2.3,1.7l-2.3,1.3a6.77,6.77,0,0,0-3.3,6.3v2.11c0,2.5,1,3.8,3.1,3.8q2.85,0,4.8-3.9Z"/>
    <path class="cls-3" d="M706.69,112.77c-10.8,0-16.2-4.9-16.2-14.61v-2l10-1.09v2.3c0,4.5,1.7,6.7,5.1,6.7,3.1,0,4.7-1.7,4.7-5.2a5.4,5.4,0,0,0-3.3-5.11l-7.9-3.9c-5.3-2.7-8-7.1-8-13.2a16.09,16.09,0,0,1,4.1-11.4c2.7-2.9,6.9-4.4,12.6-4.4,4.9,0,8.7,1.1,11.4,3.4s4.1,5.5,4.1,9.7v2.5l-9.9,1v-2.3c0-3.5-1.4-5.2-4.2-5.2s-4.3,1.6-4.3,4.8c0,2.1,1.4,3.8,4.1,5.1l7.8,3.9c5.1,2.5,7.6,6.8,7.6,12.81a16.15,16.15,0,0,1-4.2,11.5c-2.8,3-7.3,4.5-13.6,4.5Z"/>
    <path class="cls-3" d="M764.09,93.57v.69c0,6.11-1.5,10.71-4.6,13.81s-7.4,4.6-12.9,4.6c-5.8,0-10.2-1.6-13.3-4.8s-4.6-7.8-4.6-13.8V79.36c0-5.7,1.5-10.3,4.5-13.7s7.5-5.1,13.4-5.1c11.6,0,17.4,6,17.4,17.9v9.8h-21.5v6.9c0,4.21,1.7,6.31,5,6.31s5-2.1,5-6.31v-2.5Zm-12-12.91v-4.4c0-4.1-1.7-6.2-5.1-6.2s-4.9,2.1-4.9,6.3v4.3Z"/>
    <path class="cls-3" d="M784.49,112.77c-10.8,0-16.2-4.9-16.2-14.61v-2l10-1.09v2.3c0,4.5,1.7,6.7,5.1,6.7,3.1,0,4.7-1.7,4.7-5.2a5.4,5.4,0,0,0-3.3-5.11l-7.9-3.9c-5.3-2.7-8-7.1-8-13.2a16.09,16.09,0,0,1,4.1-11.4c2.7-2.9,6.9-4.4,12.6-4.4,4.9,0,8.7,1.1,11.4,3.4s4.1,5.5,4.1,9.7v2.5l-9.9,1v-2.3c0-3.5-1.4-5.2-4.2-5.2s-4.3,1.6-4.3,4.8c0,2.1,1.4,3.8,4.1,5.1l7.8,3.9c5.1,2.5,7.6,6.8,7.6,12.81a16.15,16.15,0,0,1-4.2,11.5c-2.8,3-7.3,4.5-13.6,4.5Z"/>
    <path class="cls-2" d="M854.69,57.46H843v54.11h-14.1V57.46H817.38V43.66h37.31Z"/>
    <path class="cls-3" d="M871.79,112.67a19.65,19.65,0,0,1-13.3-4.7q-5.4-4.65-5.4-14.4V80.06c0-6.5,1.8-11.4,5.4-14.6a19.24,19.24,0,0,1,13.3-4.8,19.49,19.49,0,0,1,13.4,4.8c3.6,3.2,5.4,8,5.4,14.5v13.5q0,9.77-5.4,14.41a20,20,0,0,1-13.5,4.7Zm5-18.81V79.26c0-4.3-1.7-6.5-5.1-6.5s-4.9,2.2-4.9,6.5v14.6c0,4.21,1.6,6.3,4.9,6.3S876.79,98.07,876.79,93.86Z"/>
    <path class="cls-3" d="M914.29,112.67A19.65,19.65,0,0,1,901,108q-5.4-4.65-5.4-14.4V80.06c0-6.5,1.8-11.4,5.4-14.6a19.24,19.24,0,0,1,13.3-4.8,19.49,19.49,0,0,1,13.4,4.8c3.6,3.2,5.4,8,5.4,14.5v13.5q0,9.77-5.4,14.41a20,20,0,0,1-13.5,4.7Zm5-18.81V79.26c0-4.3-1.7-6.5-5.1-6.5s-4.9,2.2-4.9,6.5v14.6c0,4.21,1.6,6.3,4.9,6.3S919.29,98.07,919.29,93.86Z"/>
    <path class="cls-3" d="M952.79,111.57h-7.61c-4.09,0-6.09-2.1-6.09-6.2V43.66h13.7Z"/>
    <path class="cls-2" d="M960,43.66h13.7v38.5l11.5-20.5h12.7l-11,19.1,10.6,30.81h-14.1l-6-20.11-3.7,5.41v14.7H960Z"/>
    <path class="cls-3" d="M1001.58,41.76h13.7v11.9h-13.7Zm0,19.9h13.7v49.91h-13.7Z"/>
    <path class="cls-3" d="M1047.29,110.67a22.51,22.51,0,0,1-9.91,2.1c-8.5,0-12.8-4.61-12.8-13.8V72h-5V61.86a18.18,18.18,0,0,0,4.5-.4,8,8,0,0,0,3.3-1.9,9,9,0,0,0,2.4-4.8,45.46,45.46,0,0,0,.9-8.6h8.11v15.5h8.9v10.1h-9.31v22.9c0,3.31,1.21,4.91,3.61,4.91a10.94,10.94,0,0,0,5.4-1.7Z"/>
  </g>
</svg>
